<?xml version="1.0" encoding="UTF-8"?>
<svg xmlns="http://www.w3.org/2000/svg" xmlns:xlink="http://www.w3.org/1999/xlink" width="333.07pt" height="111.17pt" viewBox="0 0 333.07 111.17">
<defs>
<g>
<g id="glyph-0-0">
<path d="M -0.578125 -3.625 C -0.328125 -3.332031 -0.148438 -3.050781 -0.046875 -2.78125 C 0.0546875 -2.507812 0.109375 -2.21875 0.109375 -1.90625 C 0.109375 -1.394531 -0.015625 -1.003906 -0.265625 -0.734375 C -0.515625 -0.460938 -0.832031 -0.328125 -1.21875 -0.328125 C -1.445312 -0.328125 -1.65625 -0.378906 -1.84375 -0.484375 C -2.03125 -0.585938 -2.179688 -0.722656 -2.296875 -0.890625 C -2.410156 -1.054688 -2.5 -1.242188 -2.5625 -1.453125 C -2.601562 -1.609375 -2.644531 -1.84375 -2.6875 -2.15625 C -2.757812 -2.789062 -2.847656 -3.257812 -2.953125 -3.5625 C -3.054688 -3.5625 -3.125 -3.5625 -3.15625 -3.5625 C -3.476562 -3.5625 -3.707031 -3.488281 -3.84375 -3.34375 C -4.019531 -3.144531 -4.109375 -2.84375 -4.109375 -2.4375 C -4.109375 -2.070312 -4.039062 -1.800781 -3.90625 -1.625 C -3.78125 -1.445312 -3.550781 -1.316406 -3.21875 -1.234375 L -3.328125 -0.453125 C -3.648438 -0.523438 -3.910156 -0.640625 -4.109375 -0.796875 C -4.316406 -0.960938 -4.472656 -1.195312 -4.578125 -1.5 C -4.691406 -1.800781 -4.75 -2.15625 -4.75 -2.5625 C -4.75 -2.957031 -4.703125 -3.273438 -4.609375 -3.515625 C -4.515625 -3.765625 -4.394531 -3.945312 -4.25 -4.0625 C -4.113281 -4.1875 -3.941406 -4.269531 -3.734375 -4.3125 C -3.597656 -4.34375 -3.351562 -4.359375 -3 -4.359375 L -1.953125 -4.359375 C -1.210938 -4.359375 -0.742188 -4.375 -0.546875 -4.40625 C -0.359375 -4.4375 -0.175781 -4.503906 0 -4.609375 L 0 -3.78125 C -0.164062 -3.695312 -0.359375 -3.644531 -0.578125 -3.625 Z M -2.328125 -3.5625 C -2.210938 -3.269531 -2.113281 -2.835938 -2.03125 -2.265625 C -1.988281 -1.941406 -1.9375 -1.710938 -1.875 -1.578125 C -1.820312 -1.453125 -1.738281 -1.351562 -1.625 -1.28125 C -1.507812 -1.207031 -1.382812 -1.171875 -1.25 -1.171875 C -1.039062 -1.171875 -0.863281 -1.25 -0.71875 -1.40625 C -0.582031 -1.5625 -0.515625 -1.796875 -0.515625 -2.109375 C -0.515625 -2.410156 -0.578125 -2.675781 -0.703125 -2.90625 C -0.835938 -3.144531 -1.019531 -3.320312 -1.25 -3.4375 C -1.4375 -3.519531 -1.703125 -3.5625 -2.046875 -3.5625 Z M -2.328125 -3.5625 "/>
</g>
<g id="glyph-0-1">
<path d="M -1.703125 -3.625 L -1.609375 -4.40625 C -1.066406 -4.320312 -0.644531 -4.101562 -0.34375 -3.75 C -0.0390625 -3.40625 0.109375 -2.976562 0.109375 -2.46875 C 0.109375 -1.832031 -0.0976562 -1.316406 -0.515625 -0.921875 C -0.929688 -0.535156 -1.53125 -0.34375 -2.3125 -0.34375 C -2.8125 -0.34375 -3.25 -0.425781 -3.625 -0.59375 C -4 -0.757812 -4.28125 -1.015625 -4.46875 -1.359375 C -4.65625 -1.703125 -4.75 -2.070312 -4.75 -2.46875 C -4.75 -2.976562 -4.617188 -3.390625 -4.359375 -3.703125 C -4.109375 -4.023438 -3.75 -4.234375 -3.28125 -4.328125 L -3.171875 -3.5625 C -3.484375 -3.488281 -3.71875 -3.359375 -3.875 -3.171875 C -4.03125 -2.984375 -4.109375 -2.757812 -4.109375 -2.5 C -4.109375 -2.101562 -3.960938 -1.78125 -3.671875 -1.53125 C -3.390625 -1.28125 -2.941406 -1.15625 -2.328125 -1.15625 C -1.703125 -1.15625 -1.25 -1.273438 -0.96875 -1.515625 C -0.6875 -1.753906 -0.546875 -2.066406 -0.546875 -2.453125 C -0.546875 -2.765625 -0.640625 -3.023438 -0.828125 -3.234375 C -1.015625 -3.441406 -1.304688 -3.570312 -1.703125 -3.625 Z M -1.703125 -3.625 "/>
</g>
<g id="glyph-0-2">
<path d="M -0.703125 -2.3125 L -0.015625 -2.421875 C 0.0351562 -2.203125 0.0625 -2.003906 0.0625 -1.828125 C 0.0625 -1.546875 0.0195312 -1.320312 -0.0625 -1.15625 C -0.15625 -1 -0.273438 -0.890625 -0.421875 -0.828125 C -0.578125 -0.765625 -0.890625 -0.734375 -1.359375 -0.734375 L -4.03125 -0.734375 L -4.03125 -0.15625 L -4.65625 -0.15625 L -4.65625 -0.734375 L -5.796875 -0.734375 L -6.28125 -1.515625 L -4.65625 -1.515625 L -4.65625 -2.3125 L -4.03125 -2.3125 L -4.03125 -1.515625 L -1.3125 -1.515625 C -1.09375 -1.515625 -0.945312 -1.53125 -0.875 -1.5625 C -0.8125 -1.59375 -0.757812 -1.640625 -0.71875 -1.703125 C -0.6875 -1.765625 -0.671875 -1.851562 -0.671875 -1.96875 C -0.671875 -2.050781 -0.679688 -2.164062 -0.703125 -2.3125 Z M -0.703125 -2.3125 "/>
</g>
<g id="glyph-0-3">
<path d="M -5.515625 -0.59375 L -6.421875 -0.59375 L -6.421875 -1.390625 L -5.515625 -1.390625 Z M 0 -0.59375 L -4.65625 -0.59375 L -4.65625 -1.390625 L 0 -1.390625 Z M 0 -0.59375 "/>
</g>
<g id="glyph-0-4">
<path d="M -2.328125 -0.296875 C -3.191406 -0.296875 -3.828125 -0.535156 -4.234375 -1.015625 C -4.578125 -1.410156 -4.75 -1.898438 -4.75 -2.484375 C -4.75 -3.117188 -4.539062 -3.640625 -4.125 -4.046875 C -3.707031 -4.453125 -3.128906 -4.65625 -2.390625 -4.65625 C -1.796875 -4.65625 -1.328125 -4.5625 -0.984375 -4.375 C -0.640625 -4.195312 -0.367188 -3.9375 -0.171875 -3.59375 C 0.0117188 -3.257812 0.109375 -2.890625 0.109375 -2.484375 C 0.109375 -1.828125 -0.0976562 -1.296875 -0.515625 -0.890625 C -0.929688 -0.492188 -1.535156 -0.296875 -2.328125 -0.296875 Z M -2.328125 -1.109375 C -1.734375 -1.109375 -1.285156 -1.238281 -0.984375 -1.5 C -0.691406 -1.757812 -0.546875 -2.085938 -0.546875 -2.484375 C -0.546875 -2.867188 -0.691406 -3.191406 -0.984375 -3.453125 C -1.285156 -3.710938 -1.742188 -3.84375 -2.359375 -3.84375 C -2.929688 -3.84375 -3.363281 -3.710938 -3.65625 -3.453125 C -3.957031 -3.191406 -4.109375 -2.867188 -4.109375 -2.484375 C -4.109375 -2.085938 -3.957031 -1.757812 -3.65625 -1.5 C -3.363281 -1.238281 -2.921875 -1.109375 -2.328125 -1.109375 Z M -2.328125 -1.109375 "/>
</g>
<g id="glyph-0-5">
<path d="M 0 -0.59375 L -4.65625 -0.59375 L -4.65625 -1.296875 L -3.984375 -1.296875 C -4.492188 -1.640625 -4.75 -2.132812 -4.75 -2.78125 C -4.75 -3.0625 -4.695312 -3.316406 -4.59375 -3.546875 C -4.5 -3.785156 -4.367188 -3.960938 -4.203125 -4.078125 C -4.046875 -4.191406 -3.851562 -4.273438 -3.625 -4.328125 C -3.476562 -4.359375 -3.222656 -4.375 -2.859375 -4.375 L 0 -4.375 L 0 -3.578125 L -2.828125 -3.578125 C -3.148438 -3.578125 -3.390625 -3.546875 -3.546875 -3.484375 C -3.703125 -3.421875 -3.828125 -3.3125 -3.921875 -3.15625 C -4.023438 -3.007812 -4.078125 -2.828125 -4.078125 -2.609375 C -4.078125 -2.273438 -3.96875 -1.984375 -3.75 -1.734375 C -3.539062 -1.492188 -3.140625 -1.375 -2.546875 -1.375 L 0 -1.375 Z M 0 -0.59375 "/>
</g>
<g id="glyph-0-6">
<path d="M -1.390625 -0.28125 L -1.515625 -1.0625 C -1.203125 -1.101562 -0.960938 -1.222656 -0.796875 -1.421875 C -0.628906 -1.617188 -0.546875 -1.898438 -0.546875 -2.265625 C -0.546875 -2.617188 -0.617188 -2.882812 -0.765625 -3.0625 C -0.910156 -3.238281 -1.082031 -3.328125 -1.28125 -3.328125 C -1.457031 -3.328125 -1.597656 -3.25 -1.703125 -3.09375 C -1.773438 -2.988281 -1.863281 -2.722656 -1.96875 -2.296875 C -2.113281 -1.710938 -2.238281 -1.304688 -2.34375 -1.078125 C -2.457031 -0.859375 -2.609375 -0.691406 -2.796875 -0.578125 C -2.984375 -0.460938 -3.191406 -0.40625 -3.421875 -0.40625 C -3.628906 -0.40625 -3.816406 -0.453125 -3.984375 -0.546875 C -4.160156 -0.640625 -4.3125 -0.769531 -4.4375 -0.9375 C -4.519531 -1.0625 -4.59375 -1.226562 -4.65625 -1.4375 C -4.71875 -1.644531 -4.75 -1.875 -4.75 -2.125 C -4.75 -2.488281 -4.695312 -2.804688 -4.59375 -3.078125 C -4.488281 -3.359375 -4.347656 -3.5625 -4.171875 -3.6875 C -3.992188 -3.820312 -3.753906 -3.914062 -3.453125 -3.96875 L -3.34375 -3.1875 C -3.582031 -3.15625 -3.769531 -3.054688 -3.90625 -2.890625 C -4.039062 -2.722656 -4.109375 -2.484375 -4.109375 -2.171875 C -4.109375 -1.816406 -4.046875 -1.5625 -3.921875 -1.40625 C -3.804688 -1.25 -3.664062 -1.171875 -3.5 -1.171875 C -3.40625 -1.171875 -3.316406 -1.203125 -3.234375 -1.265625 C -3.148438 -1.328125 -3.078125 -1.425781 -3.015625 -1.5625 C -2.992188 -1.644531 -2.925781 -1.878906 -2.8125 -2.265625 C -2.664062 -2.816406 -2.546875 -3.203125 -2.453125 -3.421875 C -2.359375 -3.648438 -2.21875 -3.828125 -2.03125 -3.953125 C -1.851562 -4.078125 -1.628906 -4.140625 -1.359375 -4.140625 C -1.097656 -4.140625 -0.851562 -4.0625 -0.625 -3.90625 C -0.394531 -3.75 -0.210938 -3.523438 -0.078125 -3.234375 C 0.0429688 -2.953125 0.109375 -2.628906 0.109375 -2.265625 C 0.109375 -1.660156 -0.015625 -1.195312 -0.265625 -0.875 C -0.515625 -0.5625 -0.890625 -0.363281 -1.390625 -0.28125 Z M -1.390625 -0.28125 "/>
</g>
<g id="glyph-0-7">
<path d="M -1.5 -3.78125 L -1.390625 -4.59375 C -0.921875 -4.457031 -0.550781 -4.21875 -0.28125 -3.875 C -0.0195312 -3.53125 0.109375 -3.085938 0.109375 -2.546875 C 0.109375 -1.867188 -0.0976562 -1.328125 -0.515625 -0.921875 C -0.941406 -0.523438 -1.53125 -0.328125 -2.28125 -0.328125 C -3.0625 -0.328125 -3.664062 -0.523438 -4.09375 -0.921875 C -4.53125 -1.328125 -4.75 -1.851562 -4.75 -2.5 C -4.75 -3.125 -4.535156 -3.628906 -4.109375 -4.015625 C -3.691406 -4.410156 -3.097656 -4.609375 -2.328125 -4.609375 C -2.285156 -4.609375 -2.21875 -4.609375 -2.125 -4.609375 L -2.125 -1.140625 C -1.613281 -1.171875 -1.222656 -1.316406 -0.953125 -1.578125 C -0.679688 -1.835938 -0.546875 -2.160156 -0.546875 -2.546875 C -0.546875 -2.835938 -0.617188 -3.082031 -0.765625 -3.28125 C -0.921875 -3.488281 -1.164062 -3.65625 -1.5 -3.78125 Z M -2.765625 -1.1875 L -2.765625 -3.78125 C -3.160156 -3.75 -3.457031 -3.648438 -3.65625 -3.484375 C -3.957031 -3.234375 -4.109375 -2.910156 -4.109375 -2.515625 C -4.109375 -2.148438 -3.984375 -1.84375 -3.734375 -1.59375 C -3.492188 -1.34375 -3.171875 -1.207031 -2.765625 -1.1875 Z M -2.765625 -1.1875 "/>
</g>
<g id="glyph-0-8">
<path d="M 0 -0.578125 L -4.65625 -0.578125 L -4.65625 -1.296875 L -3.953125 -1.296875 C -4.273438 -1.472656 -4.488281 -1.632812 -4.59375 -1.78125 C -4.695312 -1.9375 -4.75 -2.109375 -4.75 -2.296875 C -4.75 -2.566406 -4.664062 -2.835938 -4.5 -3.109375 L -3.765625 -2.84375 C -3.878906 -2.644531 -3.9375 -2.453125 -3.9375 -2.265625 C -3.9375 -2.085938 -3.882812 -1.929688 -3.78125 -1.796875 C -3.675781 -1.660156 -3.535156 -1.5625 -3.359375 -1.5 C -3.078125 -1.414062 -2.769531 -1.375 -2.4375 -1.375 L 0 -1.375 Z M 0 -0.578125 "/>
</g>
<g id="glyph-0-9">
<path d="M 0 -1.453125 L -4.65625 -0.03125 L -4.65625 -0.84375 L -1.96875 -1.578125 L -0.96875 -1.859375 C -1.019531 -1.867188 -1.335938 -1.945312 -1.921875 -2.09375 L -4.65625 -2.84375 L -4.65625 -3.640625 L -1.953125 -4.34375 L -1.0625 -4.578125 L -1.96875 -4.84375 L -4.65625 -5.640625 L -4.65625 -6.40625 L 0 -4.953125 L 0 -4.140625 L -2.78125 -3.390625 L -3.578125 -3.21875 L 0 -2.265625 Z M 0 -1.453125 "/>
</g>
<g id="glyph-0-10">
<path d="M 0 -3.609375 L -0.59375 -3.609375 C -0.125 -3.316406 0.109375 -2.882812 0.109375 -2.3125 C 0.109375 -1.9375 0.00390625 -1.59375 -0.203125 -1.28125 C -0.410156 -0.96875 -0.695312 -0.726562 -1.0625 -0.5625 C -1.425781 -0.394531 -1.847656 -0.3125 -2.328125 -0.3125 C -2.785156 -0.3125 -3.203125 -0.382812 -3.578125 -0.53125 C -3.960938 -0.6875 -4.253906 -0.921875 -4.453125 -1.234375 C -4.648438 -1.546875 -4.75 -1.890625 -4.75 -2.265625 C -4.75 -2.546875 -4.691406 -2.796875 -4.578125 -3.015625 C -4.460938 -3.234375 -4.304688 -3.414062 -4.109375 -3.5625 L -6.421875 -3.5625 L -6.421875 -4.34375 L 0 -4.34375 Z M -2.328125 -1.109375 C -1.722656 -1.109375 -1.273438 -1.234375 -0.984375 -1.484375 C -0.691406 -1.742188 -0.546875 -2.039062 -0.546875 -2.375 C -0.546875 -2.726562 -0.6875 -3.023438 -0.96875 -3.265625 C -1.25 -3.503906 -1.675781 -3.625 -2.25 -3.625 C -2.882812 -3.625 -3.351562 -3.5 -3.65625 -3.25 C -3.957031 -3.007812 -4.109375 -2.707031 -4.109375 -2.34375 C -4.109375 -2 -3.960938 -1.707031 -3.671875 -1.46875 C -3.390625 -1.226562 -2.941406 -1.109375 -2.328125 -1.109375 Z M -2.328125 -1.109375 "/>
</g>
<g id="glyph-1-0">
<path d="M 0.640625 -6.421875 L 3.015625 -6.421875 C 3.546875 -6.421875 3.953125 -6.378906 4.234375 -6.296875 C 4.609375 -6.179688 4.929688 -5.984375 5.203125 -5.703125 C 5.472656 -5.421875 5.675781 -5.070312 5.8125 -4.65625 C 5.957031 -4.25 6.03125 -3.75 6.03125 -3.15625 C 6.03125 -2.625 5.960938 -2.164062 5.828125 -1.78125 C 5.671875 -1.3125 5.441406 -0.929688 5.140625 -0.640625 C 4.921875 -0.421875 4.617188 -0.253906 4.234375 -0.140625 C 3.953125 -0.046875 3.570312 0 3.09375 0 L 0.640625 0 Z M 1.9375 -5.328125 L 1.9375 -1.078125 L 2.90625 -1.078125 C 3.269531 -1.078125 3.535156 -1.097656 3.703125 -1.140625 C 3.910156 -1.191406 4.082031 -1.28125 4.21875 -1.40625 C 4.351562 -1.53125 4.460938 -1.738281 4.546875 -2.03125 C 4.640625 -2.320312 4.6875 -2.710938 4.6875 -3.203125 C 4.6875 -3.703125 4.640625 -4.082031 4.546875 -4.34375 C 4.460938 -4.613281 4.34375 -4.820312 4.1875 -4.96875 C 4.03125 -5.113281 3.832031 -5.210938 3.59375 -5.265625 C 3.40625 -5.304688 3.050781 -5.328125 2.53125 -5.328125 Z M 1.9375 -5.328125 "/>
</g>
<g id="glyph-1-1">
<path d="M 3.34375 -1.484375 L 4.5625 -1.28125 C 4.40625 -0.820312 4.15625 -0.472656 3.8125 -0.234375 C 3.476562 -0.00390625 3.054688 0.109375 2.546875 0.109375 C 1.734375 0.109375 1.132812 -0.15625 0.75 -0.6875 C 0.4375 -1.113281 0.28125 -1.648438 0.28125 -2.296875 C 0.28125 -3.066406 0.484375 -3.664062 0.890625 -4.09375 C 1.296875 -4.53125 1.804688 -4.75 2.421875 -4.75 C 3.109375 -4.75 3.648438 -4.519531 4.046875 -4.0625 C 4.453125 -3.613281 4.644531 -2.914062 4.625 -1.96875 L 1.546875 -1.96875 C 1.554688 -1.601562 1.65625 -1.316406 1.84375 -1.109375 C 2.03125 -0.910156 2.265625 -0.8125 2.546875 -0.8125 C 2.742188 -0.8125 2.90625 -0.863281 3.03125 -0.96875 C 3.164062 -1.070312 3.269531 -1.242188 3.34375 -1.484375 Z M 3.40625 -2.71875 C 3.394531 -3.082031 3.300781 -3.351562 3.125 -3.53125 C 2.957031 -3.71875 2.742188 -3.8125 2.484375 -3.8125 C 2.222656 -3.8125 2.003906 -3.710938 1.828125 -3.515625 C 1.648438 -3.328125 1.5625 -3.0625 1.5625 -2.71875 Z M 3.40625 -2.71875 "/>
</g>
<g id="glyph-1-2">
<path d="M 4.703125 -3.28125 L 3.484375 -3.0625 C 3.441406 -3.300781 3.347656 -3.476562 3.203125 -3.59375 C 3.054688 -3.71875 2.867188 -3.78125 2.640625 -3.78125 C 2.335938 -3.78125 2.09375 -3.675781 1.90625 -3.46875 C 1.726562 -3.257812 1.640625 -2.90625 1.640625 -2.40625 C 1.640625 -1.851562 1.726562 -1.460938 1.90625 -1.234375 C 2.09375 -1.003906 2.34375 -0.890625 2.65625 -0.890625 C 2.894531 -0.890625 3.085938 -0.957031 3.234375 -1.09375 C 3.378906 -1.226562 3.484375 -1.457031 3.546875 -1.78125 L 4.765625 -1.578125 C 4.640625 -1.023438 4.394531 -0.601562 4.03125 -0.3125 C 3.675781 -0.03125 3.203125 0.109375 2.609375 0.109375 C 1.921875 0.109375 1.375 -0.101562 0.96875 -0.53125 C 0.570312 -0.96875 0.375 -1.566406 0.375 -2.328125 C 0.375 -3.085938 0.578125 -3.679688 0.984375 -4.109375 C 1.390625 -4.535156 1.9375 -4.75 2.625 -4.75 C 3.195312 -4.75 3.648438 -4.628906 3.984375 -4.390625 C 4.316406 -4.148438 4.554688 -3.78125 4.703125 -3.28125 Z M 4.703125 -3.28125 "/>
</g>
<g id="glyph-1-3">
<path d="M 0.640625 -5.28125 L 0.640625 -6.421875 L 1.875 -6.421875 L 1.875 -5.28125 Z M 0.640625 0 L 0.640625 -4.65625 L 1.875 -4.65625 L 1.875 0 Z M 0.640625 0 "/>
</g>
<g id="glyph-1-4">
<path d="M 0.203125 -1.328125 L 1.4375 -1.515625 C 1.5 -1.273438 1.609375 -1.09375 1.765625 -0.96875 C 1.921875 -0.84375 2.144531 -0.78125 2.4375 -0.78125 C 2.757812 -0.78125 3 -0.835938 3.15625 -0.953125 C 3.257812 -1.035156 3.3125 -1.144531 3.3125 -1.28125 C 3.3125 -1.375 3.285156 -1.453125 3.234375 -1.515625 C 3.171875 -1.578125 3.03125 -1.632812 2.8125 -1.6875 C 1.820312 -1.90625 1.195312 -2.101562 0.9375 -2.28125 C 0.5625 -2.53125 0.375 -2.878906 0.375 -3.328125 C 0.375 -3.734375 0.53125 -4.070312 0.84375 -4.34375 C 1.164062 -4.613281 1.664062 -4.75 2.34375 -4.75 C 2.976562 -4.75 3.445312 -4.644531 3.75 -4.4375 C 4.0625 -4.238281 4.273438 -3.9375 4.390625 -3.53125 L 3.234375 -3.3125 C 3.179688 -3.488281 3.085938 -3.625 2.953125 -3.71875 C 2.816406 -3.820312 2.617188 -3.875 2.359375 -3.875 C 2.035156 -3.875 1.804688 -3.828125 1.671875 -3.734375 C 1.578125 -3.671875 1.53125 -3.585938 1.53125 -3.484375 C 1.53125 -3.398438 1.566406 -3.328125 1.640625 -3.265625 C 1.753906 -3.179688 2.140625 -3.0625 2.796875 -2.90625 C 3.453125 -2.757812 3.910156 -2.582031 4.171875 -2.375 C 4.421875 -2.15625 4.546875 -1.847656 4.546875 -1.453125 C 4.546875 -1.023438 4.367188 -0.65625 4.015625 -0.34375 C 3.660156 -0.0390625 3.132812 0.109375 2.4375 0.109375 C 1.800781 0.109375 1.296875 -0.0195312 0.921875 -0.28125 C 0.554688 -0.539062 0.316406 -0.890625 0.203125 -1.328125 Z M 0.203125 -1.328125 "/>
</g>
<g id="glyph-1-5">
<path d="M 0.359375 -2.390625 C 0.359375 -2.796875 0.457031 -3.191406 0.65625 -3.578125 C 0.863281 -3.960938 1.148438 -4.253906 1.515625 -4.453125 C 1.890625 -4.648438 2.300781 -4.75 2.75 -4.75 C 3.457031 -4.75 4.035156 -4.519531 4.484375 -4.0625 C 4.929688 -3.613281 5.15625 -3.039062 5.15625 -2.34375 C 5.15625 -1.632812 4.925781 -1.046875 4.46875 -0.578125 C 4.019531 -0.117188 3.453125 0.109375 2.765625 0.109375 C 2.335938 0.109375 1.929688 0.0117188 1.546875 -0.171875 C 1.160156 -0.367188 0.863281 -0.65625 0.65625 -1.03125 C 0.457031 -1.40625 0.359375 -1.859375 0.359375 -2.390625 Z M 1.625 -2.328125 C 1.625 -1.867188 1.734375 -1.515625 1.953125 -1.265625 C 2.171875 -1.015625 2.441406 -0.890625 2.765625 -0.890625 C 3.078125 -0.890625 3.34375 -1.015625 3.5625 -1.265625 C 3.78125 -1.515625 3.890625 -1.867188 3.890625 -2.328125 C 3.890625 -2.785156 3.78125 -3.132812 3.5625 -3.375 C 3.34375 -3.625 3.078125 -3.75 2.765625 -3.75 C 2.441406 -3.75 2.171875 -3.625 1.953125 -3.375 C 1.734375 -3.132812 1.625 -2.785156 1.625 -2.328125 Z M 1.625 -2.328125 "/>
</g>
<g id="glyph-1-6">
<path d="M 4.875 0 L 3.640625 0 L 3.640625 -2.375 C 3.640625 -2.875 3.613281 -3.195312 3.5625 -3.34375 C 3.507812 -3.488281 3.421875 -3.601562 3.296875 -3.6875 C 3.179688 -3.769531 3.039062 -3.8125 2.875 -3.8125 C 2.664062 -3.8125 2.472656 -3.753906 2.296875 -3.640625 C 2.128906 -3.523438 2.015625 -3.367188 1.953125 -3.171875 C 1.890625 -2.984375 1.859375 -2.628906 1.859375 -2.109375 L 1.859375 0 L 0.640625 0 L 0.640625 -4.65625 L 1.78125 -4.65625 L 1.78125 -3.96875 C 2.1875 -4.488281 2.695312 -4.75 3.3125 -4.75 C 3.582031 -4.75 3.828125 -4.703125 4.046875 -4.609375 C 4.273438 -4.515625 4.445312 -4.390625 4.5625 -4.234375 C 4.675781 -4.078125 4.753906 -3.898438 4.796875 -3.703125 C 4.847656 -3.515625 4.875 -3.242188 4.875 -2.890625 Z M 4.875 0 "/>
</g>
<g id="glyph-1-7">
<path d="M 0.546875 -4.65625 L 1.6875 -4.65625 L 1.6875 -4.015625 C 2.09375 -4.503906 2.578125 -4.75 3.140625 -4.75 C 3.429688 -4.75 3.6875 -4.6875 3.90625 -4.5625 C 4.125 -4.445312 4.304688 -4.265625 4.453125 -4.015625 C 4.648438 -4.265625 4.867188 -4.445312 5.109375 -4.5625 C 5.347656 -4.6875 5.601562 -4.75 5.875 -4.75 C 6.207031 -4.75 6.492188 -4.679688 6.734375 -4.546875 C 6.972656 -4.410156 7.148438 -4.207031 7.265625 -3.9375 C 7.347656 -3.738281 7.390625 -3.414062 7.390625 -2.96875 L 7.390625 0 L 6.15625 0 L 6.15625 -2.65625 C 6.15625 -3.113281 6.113281 -3.410156 6.03125 -3.546875 C 5.914062 -3.722656 5.742188 -3.8125 5.515625 -3.8125 C 5.335938 -3.8125 5.171875 -3.757812 5.015625 -3.65625 C 4.867188 -3.550781 4.757812 -3.394531 4.6875 -3.1875 C 4.625 -2.988281 4.59375 -2.671875 4.59375 -2.234375 L 4.59375 0 L 3.359375 0 L 3.359375 -2.546875 C 3.359375 -3.003906 3.335938 -3.296875 3.296875 -3.421875 C 3.253906 -3.554688 3.1875 -3.65625 3.09375 -3.71875 C 3 -3.78125 2.875 -3.8125 2.71875 -3.8125 C 2.53125 -3.8125 2.359375 -3.757812 2.203125 -3.65625 C 2.054688 -3.550781 1.945312 -3.40625 1.875 -3.21875 C 1.8125 -3.03125 1.78125 -2.710938 1.78125 -2.265625 L 1.78125 0 L 0.546875 0 Z M 0.546875 -4.65625 "/>
</g>
<g id="glyph-1-8">
<path d="M 1.5625 -3.234375 L 0.453125 -3.4375 C 0.578125 -3.882812 0.789062 -4.210938 1.09375 -4.421875 C 1.394531 -4.640625 1.851562 -4.75 2.46875 -4.75 C 3.007812 -4.75 3.414062 -4.679688 3.6875 -4.546875 C 3.957031 -4.421875 4.144531 -4.257812 4.25 -4.0625 C 4.363281 -3.863281 4.421875 -3.5 4.421875 -2.96875 L 4.40625 -1.53125 C 4.40625 -1.125 4.425781 -0.820312 4.46875 -0.625 C 4.507812 -0.425781 4.582031 -0.21875 4.6875 0 L 3.46875 0 C 3.4375 -0.0820312 3.394531 -0.203125 3.34375 -0.359375 C 3.320312 -0.429688 3.3125 -0.484375 3.3125 -0.515625 C 3.09375 -0.304688 2.863281 -0.148438 2.625 -0.046875 C 2.382812 0.0546875 2.128906 0.109375 1.859375 0.109375 C 1.378906 0.109375 1 -0.0195312 0.71875 -0.28125 C 0.445312 -0.539062 0.3125 -0.867188 0.3125 -1.265625 C 0.3125 -1.535156 0.375 -1.769531 0.5 -1.96875 C 0.632812 -2.175781 0.8125 -2.332031 1.03125 -2.4375 C 1.257812 -2.550781 1.585938 -2.648438 2.015625 -2.734375 C 2.585938 -2.835938 2.984375 -2.9375 3.203125 -3.03125 L 3.203125 -3.15625 C 3.203125 -3.394531 3.144531 -3.5625 3.03125 -3.65625 C 2.914062 -3.757812 2.695312 -3.8125 2.375 -3.8125 C 2.15625 -3.8125 1.984375 -3.769531 1.859375 -3.6875 C 1.734375 -3.601562 1.632812 -3.453125 1.5625 -3.234375 Z M 3.203125 -2.234375 C 3.046875 -2.179688 2.796875 -2.117188 2.453125 -2.046875 C 2.117188 -1.972656 1.898438 -1.898438 1.796875 -1.828125 C 1.628906 -1.710938 1.546875 -1.566406 1.546875 -1.390625 C 1.546875 -1.222656 1.609375 -1.078125 1.734375 -0.953125 C 1.867188 -0.828125 2.035156 -0.765625 2.234375 -0.765625 C 2.453125 -0.765625 2.664062 -0.835938 2.875 -0.984375 C 3.019531 -1.085938 3.113281 -1.222656 3.15625 -1.390625 C 3.1875 -1.492188 3.203125 -1.691406 3.203125 -1.984375 Z M 3.203125 -2.234375 "/>
</g>
<g id="glyph-1-9">
<path d="M 0.59375 0 L 0.59375 -6.421875 L 1.828125 -6.421875 L 1.828125 -3.015625 L 3.265625 -4.65625 L 4.78125 -4.65625 L 3.203125 -2.953125 L 4.90625 0 L 3.578125 0 L 2.40625 -2.09375 L 1.828125 -1.484375 L 1.828125 0 Z M 0.59375 0 "/>
</g>
<g id="glyph-1-10">
<path d="M 1.828125 0 L 0.59375 0 L 0.59375 -4.65625 L 1.734375 -4.65625 L 1.734375 -3.984375 C 1.929688 -4.296875 2.109375 -4.5 2.265625 -4.59375 C 2.421875 -4.695312 2.597656 -4.75 2.796875 -4.75 C 3.078125 -4.75 3.347656 -4.675781 3.609375 -4.53125 L 3.21875 -3.453125 C 3.007812 -3.585938 2.816406 -3.65625 2.640625 -3.65625 C 2.472656 -3.65625 2.328125 -3.609375 2.203125 -3.515625 C 2.085938 -3.421875 1.992188 -3.25 1.921875 -3 C 1.859375 -2.75 1.828125 -2.226562 1.828125 -1.4375 Z M 1.828125 0 "/>
</g>
<g id="glyph-1-11">
<path d="M 0.640625 0 L 0.640625 -6.421875 L 2.578125 -6.421875 L 3.734375 -2.046875 L 4.890625 -6.421875 L 6.84375 -6.421875 L 6.84375 0 L 5.625 0 L 5.625 -5.046875 L 4.359375 0 L 3.109375 0 L 1.84375 -5.046875 L 1.84375 0 Z M 0.640625 0 "/>
</g>
<g id="glyph-1-12">
<path d="M 2.78125 -4.65625 L 2.78125 -3.671875 L 1.9375 -3.671875 L 1.9375 -1.796875 C 1.9375 -1.410156 1.941406 -1.1875 1.953125 -1.125 C 1.972656 -1.0625 2.007812 -1.007812 2.0625 -0.96875 C 2.125 -0.9375 2.195312 -0.921875 2.28125 -0.921875 C 2.394531 -0.921875 2.554688 -0.957031 2.765625 -1.03125 L 2.875 -0.078125 C 2.59375 0.0429688 2.269531 0.109375 1.90625 0.109375 C 1.6875 0.109375 1.484375 0.0703125 1.296875 0 C 1.117188 -0.0820312 0.988281 -0.179688 0.90625 -0.296875 C 0.820312 -0.410156 0.765625 -0.570312 0.734375 -0.78125 C 0.710938 -0.914062 0.703125 -1.203125 0.703125 -1.640625 L 0.703125 -3.671875 L 0.140625 -3.671875 L 0.140625 -4.65625 L 0.703125 -4.65625 L 0.703125 -5.578125 L 1.9375 -6.296875 L 1.9375 -4.65625 Z M 2.78125 -4.65625 "/>
</g>
<g id="glyph-2-0">
<path d="M 0.390625 0.34375 L 1.078125 0.4375 C 1.109375 0.65625 1.1875 0.8125 1.3125 0.90625 C 1.488281 1.03125 1.726562 1.09375 2.03125 1.09375 C 2.351562 1.09375 2.601562 1.023438 2.78125 0.890625 C 2.957031 0.765625 3.078125 0.585938 3.140625 0.359375 C 3.171875 0.210938 3.1875 -0.0859375 3.1875 -0.546875 C 2.882812 -0.179688 2.503906 0 2.046875 0 C 1.472656 0 1.03125 -0.203125 0.71875 -0.609375 C 0.40625 -1.023438 0.25 -1.519531 0.25 -2.09375 C 0.25 -2.488281 0.320312 -2.851562 0.46875 -3.1875 C 0.613281 -3.519531 0.820312 -3.773438 1.09375 -3.953125 C 1.363281 -4.128906 1.679688 -4.21875 2.046875 -4.21875 C 2.535156 -4.21875 2.9375 -4.023438 3.25 -3.640625 L 3.25 -4.125 L 3.90625 -4.125 L 3.90625 -0.5625 C 3.90625 0.0820312 3.835938 0.535156 3.703125 0.796875 C 3.566406 1.066406 3.359375 1.28125 3.078125 1.4375 C 2.796875 1.59375 2.445312 1.671875 2.03125 1.671875 C 1.539062 1.671875 1.140625 1.5625 0.828125 1.34375 C 0.523438 1.125 0.378906 0.789062 0.390625 0.34375 Z M 0.984375 -2.140625 C 0.984375 -1.597656 1.085938 -1.203125 1.296875 -0.953125 C 1.515625 -0.703125 1.785156 -0.578125 2.109375 -0.578125 C 2.429688 -0.578125 2.703125 -0.703125 2.921875 -0.953125 C 3.140625 -1.203125 3.25 -1.585938 3.25 -2.109375 C 3.25 -2.617188 3.132812 -3 2.90625 -3.25 C 2.6875 -3.507812 2.414062 -3.640625 2.09375 -3.640625 C 1.78125 -3.640625 1.515625 -3.515625 1.296875 -3.265625 C 1.085938 -3.015625 0.984375 -2.640625 0.984375 -2.140625 Z M 0.984375 -2.140625 "/>
</g>
<g id="glyph-2-1">
<path d="M 0.265625 -2.0625 C 0.265625 -2.832031 0.476562 -3.398438 0.90625 -3.765625 C 1.257812 -4.066406 1.691406 -4.21875 2.203125 -4.21875 C 2.765625 -4.21875 3.226562 -4.03125 3.59375 -3.65625 C 3.957031 -3.289062 4.140625 -2.78125 4.140625 -2.125 C 4.140625 -1.59375 4.054688 -1.171875 3.890625 -0.859375 C 3.734375 -0.554688 3.503906 -0.320312 3.203125 -0.15625 C 2.898438 0.0078125 2.566406 0.09375 2.203125 0.09375 C 1.617188 0.09375 1.148438 -0.0859375 0.796875 -0.453125 C 0.441406 -0.828125 0.265625 -1.363281 0.265625 -2.0625 Z M 0.984375 -2.0625 C 0.984375 -1.53125 1.097656 -1.132812 1.328125 -0.875 C 1.554688 -0.613281 1.847656 -0.484375 2.203125 -0.484375 C 2.546875 -0.484375 2.832031 -0.613281 3.0625 -0.875 C 3.300781 -1.144531 3.421875 -1.550781 3.421875 -2.09375 C 3.421875 -2.601562 3.300781 -2.988281 3.0625 -3.25 C 2.832031 -3.507812 2.546875 -3.640625 2.203125 -3.640625 C 1.847656 -3.640625 1.554688 -3.507812 1.328125 -3.25 C 1.097656 -2.988281 0.984375 -2.59375 0.984375 -2.0625 Z M 0.984375 -2.0625 "/>
</g>
<g id="glyph-2-2">
<path d="M 3.21875 -0.515625 C 2.957031 -0.285156 2.707031 -0.125 2.46875 -0.03125 C 2.226562 0.0507812 1.972656 0.09375 1.703125 0.09375 C 1.242188 0.09375 0.890625 -0.015625 0.640625 -0.234375 C 0.398438 -0.460938 0.28125 -0.75 0.28125 -1.09375 C 0.28125 -1.289062 0.328125 -1.472656 0.421875 -1.640625 C 0.515625 -1.804688 0.632812 -1.941406 0.78125 -2.046875 C 0.9375 -2.148438 1.109375 -2.226562 1.296875 -2.28125 C 1.429688 -2.3125 1.640625 -2.34375 1.921875 -2.375 C 2.484375 -2.445312 2.894531 -2.53125 3.15625 -2.625 C 3.164062 -2.71875 3.171875 -2.78125 3.171875 -2.8125 C 3.171875 -3.09375 3.101562 -3.289062 2.96875 -3.40625 C 2.789062 -3.5625 2.523438 -3.640625 2.171875 -3.640625 C 1.835938 -3.640625 1.59375 -3.582031 1.4375 -3.46875 C 1.28125 -3.351562 1.164062 -3.148438 1.09375 -2.859375 L 0.40625 -2.953125 C 0.46875 -3.242188 0.570312 -3.476562 0.71875 -3.65625 C 0.863281 -3.84375 1.066406 -3.984375 1.328125 -4.078125 C 1.597656 -4.171875 1.910156 -4.21875 2.265625 -4.21875 C 2.617188 -4.21875 2.90625 -4.175781 3.125 -4.09375 C 3.351562 -4.019531 3.519531 -3.914062 3.625 -3.78125 C 3.726562 -3.65625 3.800781 -3.5 3.84375 -3.3125 C 3.863281 -3.1875 3.875 -2.972656 3.875 -2.671875 L 3.875 -1.734375 C 3.875 -1.078125 3.890625 -0.660156 3.921875 -0.484375 C 3.953125 -0.316406 4.007812 -0.15625 4.09375 0 L 3.359375 0 C 3.285156 -0.144531 3.238281 -0.316406 3.21875 -0.515625 Z M 3.15625 -2.078125 C 2.90625 -1.972656 2.523438 -1.882812 2.015625 -1.8125 C 1.734375 -1.769531 1.53125 -1.722656 1.40625 -1.671875 C 1.289062 -1.617188 1.195312 -1.539062 1.125 -1.4375 C 1.0625 -1.34375 1.03125 -1.234375 1.03125 -1.109375 C 1.03125 -0.921875 1.097656 -0.765625 1.234375 -0.640625 C 1.378906 -0.515625 1.59375 -0.453125 1.875 -0.453125 C 2.132812 -0.453125 2.367188 -0.507812 2.578125 -0.625 C 2.796875 -0.75 2.953125 -0.910156 3.046875 -1.109375 C 3.117188 -1.273438 3.15625 -1.507812 3.15625 -1.8125 Z M 3.15625 -2.078125 "/>
</g>
<g id="glyph-2-3">
<path d="M 0.515625 0 L 0.515625 -5.703125 L 1.203125 -5.703125 L 1.203125 0 Z M 0.515625 0 "/>
</g>
<g id="glyph-2-4">
<path d="M 0.25 -1.234375 L 0.9375 -1.34375 C 0.976562 -1.0625 1.085938 -0.847656 1.265625 -0.703125 C 1.441406 -0.554688 1.6875 -0.484375 2 -0.484375 C 2.320312 -0.484375 2.5625 -0.546875 2.71875 -0.671875 C 2.875 -0.804688 2.953125 -0.960938 2.953125 -1.140625 C 2.953125 -1.296875 2.882812 -1.421875 2.75 -1.515625 C 2.65625 -1.578125 2.414062 -1.65625 2.03125 -1.75 C 1.519531 -1.882812 1.164062 -2 0.96875 -2.09375 C 0.769531 -2.1875 0.617188 -2.316406 0.515625 -2.484375 C 0.410156 -2.648438 0.359375 -2.832031 0.359375 -3.03125 C 0.359375 -3.21875 0.398438 -3.390625 0.484375 -3.546875 C 0.566406 -3.703125 0.679688 -3.832031 0.828125 -3.9375 C 0.941406 -4.019531 1.09375 -4.085938 1.28125 -4.140625 C 1.46875 -4.191406 1.671875 -4.21875 1.890625 -4.21875 C 2.210938 -4.21875 2.492188 -4.171875 2.734375 -4.078125 C 2.984375 -3.992188 3.164062 -3.867188 3.28125 -3.703125 C 3.394531 -3.546875 3.472656 -3.332031 3.515625 -3.0625 L 2.84375 -2.96875 C 2.8125 -3.1875 2.71875 -3.351562 2.5625 -3.46875 C 2.414062 -3.59375 2.207031 -3.65625 1.9375 -3.65625 C 1.613281 -3.65625 1.378906 -3.597656 1.234375 -3.484375 C 1.097656 -3.378906 1.03125 -3.253906 1.03125 -3.109375 C 1.03125 -3.023438 1.0625 -2.945312 1.125 -2.875 C 1.175781 -2.800781 1.265625 -2.738281 1.390625 -2.6875 C 1.460938 -2.65625 1.671875 -2.59375 2.015625 -2.5 C 2.503906 -2.375 2.847656 -2.265625 3.046875 -2.171875 C 3.242188 -2.085938 3.394531 -1.96875 3.5 -1.8125 C 3.613281 -1.65625 3.671875 -1.457031 3.671875 -1.21875 C 3.671875 -0.976562 3.601562 -0.753906 3.46875 -0.546875 C 3.332031 -0.347656 3.132812 -0.191406 2.875 -0.078125 C 2.625 0.0351562 2.335938 0.09375 2.015625 0.09375 C 1.472656 0.09375 1.0625 -0.015625 0.78125 -0.234375 C 0.5 -0.460938 0.320312 -0.796875 0.25 -1.234375 Z M 0.25 -1.234375 "/>
</g>
<g id="glyph-2-5">
<path d="M 0.53125 0 L 0.53125 -4.125 L 1.15625 -4.125 L 1.15625 -3.546875 C 1.457031 -3.992188 1.894531 -4.21875 2.46875 -4.21875 C 2.71875 -4.21875 2.945312 -4.171875 3.15625 -4.078125 C 3.363281 -3.992188 3.519531 -3.878906 3.625 -3.734375 C 3.726562 -3.585938 3.800781 -3.414062 3.84375 -3.21875 C 3.875 -3.09375 3.890625 -2.867188 3.890625 -2.546875 L 3.890625 0 L 3.1875 0 L 3.1875 -2.515625 C 3.1875 -2.796875 3.15625 -3.003906 3.09375 -3.140625 C 3.039062 -3.285156 2.945312 -3.398438 2.8125 -3.484375 C 2.675781 -3.578125 2.515625 -3.625 2.328125 -3.625 C 2.023438 -3.625 1.765625 -3.523438 1.546875 -3.328125 C 1.328125 -3.140625 1.21875 -2.78125 1.21875 -2.25 L 1.21875 0 Z M 0.53125 0 "/>
</g>
<g id="glyph-2-6">
<path d="M 3.203125 0 L 3.203125 -0.515625 C 2.941406 -0.109375 2.554688 0.09375 2.046875 0.09375 C 1.722656 0.09375 1.421875 0.00390625 1.140625 -0.171875 C 0.867188 -0.359375 0.65625 -0.613281 0.5 -0.9375 C 0.34375 -1.257812 0.265625 -1.632812 0.265625 -2.0625 C 0.265625 -2.476562 0.332031 -2.851562 0.46875 -3.1875 C 0.613281 -3.519531 0.820312 -3.773438 1.09375 -3.953125 C 1.375 -4.128906 1.679688 -4.21875 2.015625 -4.21875 C 2.265625 -4.21875 2.488281 -4.164062 2.6875 -4.0625 C 2.882812 -3.957031 3.039062 -3.820312 3.15625 -3.65625 L 3.15625 -5.703125 L 3.859375 -5.703125 L 3.859375 0 Z M 1 -2.0625 C 1 -1.53125 1.109375 -1.132812 1.328125 -0.875 C 1.546875 -0.613281 1.804688 -0.484375 2.109375 -0.484375 C 2.421875 -0.484375 2.679688 -0.609375 2.890625 -0.859375 C 3.109375 -1.109375 3.21875 -1.488281 3.21875 -2 C 3.21875 -2.570312 3.109375 -2.988281 2.890625 -3.25 C 2.671875 -3.507812 2.398438 -3.640625 2.078125 -3.640625 C 1.773438 -3.640625 1.519531 -3.515625 1.3125 -3.265625 C 1.101562 -3.015625 1 -2.613281 1 -2.0625 Z M 1 -2.0625 "/>
</g>
<g id="glyph-2-7">
<path d="M 0.515625 0 L 0.515625 -4.125 L 1.140625 -4.125 L 1.140625 -3.5 C 1.304688 -3.800781 1.457031 -3.992188 1.59375 -4.078125 C 1.726562 -4.171875 1.878906 -4.21875 2.046875 -4.21875 C 2.273438 -4.21875 2.515625 -4.144531 2.765625 -4 L 2.515625 -3.34375 C 2.347656 -3.445312 2.175781 -3.5 2 -3.5 C 1.851562 -3.5 1.71875 -3.453125 1.59375 -3.359375 C 1.46875 -3.265625 1.378906 -3.140625 1.328125 -2.984375 C 1.253906 -2.734375 1.21875 -2.457031 1.21875 -2.15625 L 1.21875 0 Z M 0.515625 0 "/>
</g>
<g id="glyph-2-8">
<path d="M 3.234375 0 L 3.234375 -0.609375 C 2.910156 -0.140625 2.472656 0.09375 1.921875 0.09375 C 1.679688 0.09375 1.453125 0.0429688 1.234375 -0.046875 C 1.023438 -0.140625 0.867188 -0.253906 0.765625 -0.390625 C 0.660156 -0.535156 0.585938 -0.710938 0.546875 -0.921875 C 0.523438 -1.054688 0.515625 -1.273438 0.515625 -1.578125 L 0.515625 -4.125 L 1.203125 -4.125 L 1.203125 -1.84375 C 1.203125 -1.476562 1.21875 -1.226562 1.25 -1.09375 C 1.289062 -0.914062 1.382812 -0.773438 1.53125 -0.671875 C 1.675781 -0.566406 1.851562 -0.515625 2.0625 -0.515625 C 2.269531 -0.515625 2.46875 -0.566406 2.65625 -0.671875 C 2.84375 -0.773438 2.972656 -0.921875 3.046875 -1.109375 C 3.117188 -1.296875 3.15625 -1.566406 3.15625 -1.921875 L 3.15625 -4.125 L 3.859375 -4.125 L 3.859375 0 Z M 3.234375 0 "/>
</g>
<g id="glyph-2-9">
<path d="M 3.359375 -1.328125 L 4.078125 -1.234375 C 3.960938 -0.816406 3.75 -0.488281 3.4375 -0.25 C 3.132812 -0.0195312 2.742188 0.09375 2.265625 0.09375 C 1.660156 0.09375 1.179688 -0.0859375 0.828125 -0.453125 C 0.472656 -0.828125 0.296875 -1.351562 0.296875 -2.03125 C 0.296875 -2.726562 0.472656 -3.265625 0.828125 -3.640625 C 1.179688 -4.023438 1.644531 -4.21875 2.21875 -4.21875 C 2.769531 -4.21875 3.21875 -4.03125 3.5625 -3.65625 C 3.914062 -3.28125 4.09375 -2.753906 4.09375 -2.078125 C 4.09375 -2.035156 4.09375 -1.972656 4.09375 -1.890625 L 1.015625 -1.890625 C 1.035156 -1.429688 1.160156 -1.082031 1.390625 -0.84375 C 1.628906 -0.601562 1.921875 -0.484375 2.265625 -0.484375 C 2.523438 -0.484375 2.742188 -0.550781 2.921875 -0.6875 C 3.097656 -0.820312 3.242188 -1.035156 3.359375 -1.328125 Z M 1.046875 -2.46875 L 3.359375 -2.46875 C 3.328125 -2.8125 3.238281 -3.070312 3.09375 -3.25 C 2.875 -3.519531 2.585938 -3.65625 2.234375 -3.65625 C 1.910156 -3.65625 1.640625 -3.546875 1.421875 -3.328125 C 1.203125 -3.109375 1.078125 -2.820312 1.046875 -2.46875 Z M 1.046875 -2.46875 "/>
</g>
<g id="glyph-2-10">
<path d="M 3.21875 -1.515625 L 3.90625 -1.421875 C 3.832031 -0.953125 3.640625 -0.582031 3.328125 -0.3125 C 3.023438 -0.0390625 2.644531 0.09375 2.1875 0.09375 C 1.625 0.09375 1.171875 -0.0859375 0.828125 -0.453125 C 0.484375 -0.828125 0.3125 -1.359375 0.3125 -2.046875 C 0.3125 -2.492188 0.382812 -2.882812 0.53125 -3.21875 C 0.675781 -3.550781 0.898438 -3.800781 1.203125 -3.96875 C 1.503906 -4.132812 1.832031 -4.21875 2.1875 -4.21875 C 2.644531 -4.21875 3.015625 -4.101562 3.296875 -3.875 C 3.578125 -3.65625 3.757812 -3.335938 3.84375 -2.921875 L 3.15625 -2.8125 C 3.09375 -3.09375 2.976562 -3.300781 2.8125 -3.4375 C 2.65625 -3.582031 2.457031 -3.65625 2.21875 -3.65625 C 1.863281 -3.65625 1.578125 -3.523438 1.359375 -3.265625 C 1.140625 -3.015625 1.03125 -2.613281 1.03125 -2.0625 C 1.03125 -1.507812 1.132812 -1.109375 1.34375 -0.859375 C 1.5625 -0.609375 1.84375 -0.484375 2.1875 -0.484375 C 2.457031 -0.484375 2.679688 -0.566406 2.859375 -0.734375 C 3.046875 -0.898438 3.164062 -1.160156 3.21875 -1.515625 Z M 3.21875 -1.515625 "/>
</g>
<g id="glyph-2-11">
<path d="M 2.046875 -0.625 L 2.15625 0 C 1.957031 0.03125 1.78125 0.046875 1.625 0.046875 C 1.375 0.046875 1.175781 0.0078125 1.03125 -0.0625 C 0.894531 -0.144531 0.796875 -0.25 0.734375 -0.375 C 0.679688 -0.507812 0.65625 -0.785156 0.65625 -1.203125 L 0.65625 -3.59375 L 0.140625 -3.59375 L 0.140625 -4.125 L 0.65625 -4.125 L 0.65625 -5.15625 L 1.34375 -5.578125 L 1.34375 -4.125 L 2.046875 -4.125 L 2.046875 -3.59375 L 1.34375 -3.59375 L 1.34375 -1.171875 C 1.34375 -0.972656 1.351562 -0.84375 1.375 -0.78125 C 1.40625 -0.726562 1.445312 -0.679688 1.5 -0.640625 C 1.5625 -0.609375 1.644531 -0.59375 1.75 -0.59375 C 1.820312 -0.59375 1.921875 -0.601562 2.046875 -0.625 Z M 2.046875 -0.625 "/>
</g>
<g id="glyph-2-12">
<path d="M 0.53125 -4.90625 L 0.53125 -5.703125 L 1.234375 -5.703125 L 1.234375 -4.90625 Z M 0.53125 0 L 0.53125 -4.125 L 1.234375 -4.125 L 1.234375 0 Z M 0.53125 0 "/>
</g>
</g>
</defs>
<path fill="none" stroke-width="1.1457" stroke-linecap="butt" stroke-linejoin="round" stroke="rgb(37.255859%, 38.822937%, 40.783691%)" stroke-opacity="1" stroke-miterlimit="10" d="M 56.693406 66.615656 L 145.986375 66.615656 L 145.986375 -0.00153125 L 64.90825 -0.00153125 " transform="matrix(1, 0, 0, -1, 166.498, 88.893)"/>
<path fill-rule="nonzero" fill="rgb(37.255859%, 38.822937%, 40.783691%)" fill-opacity="1" stroke-width="1.1457" stroke-linecap="butt" stroke-linejoin="miter" stroke="rgb(37.255859%, 38.822937%, 40.783691%)" stroke-opacity="1" stroke-miterlimit="10" d="M 5.726592 0.00153125 C 5.023467 0.165594 1.933624 1.114813 0.00003 2.146063 L 0.00003 -2.146906 C 1.933624 -1.115656 5.023467 -0.166437 5.726592 0.00153125 Z M 5.726592 0.00153125 " transform="matrix(-1, 0, 0, 1, 231.40628, 88.893)"/>
<path fill="none" stroke-width="1.1457" stroke-linecap="butt" stroke-linejoin="round" stroke="rgb(37.255859%, 38.822937%, 40.783691%)" stroke-opacity="1" stroke-miterlimit="10" d="M -56.693312 -4.536688 L -145.986281 -4.536688 L -145.986281 72.283625 L -64.908156 72.283625 " transform="matrix(1, 0, 0, -1, 166.498, 88.893)"/>
<path fill-rule="nonzero" fill="rgb(37.255859%, 38.822937%, 40.783691%)" fill-opacity="1" stroke-width="1.1457" stroke-linecap="butt" stroke-linejoin="miter" stroke="rgb(37.255859%, 38.822937%, 40.783691%)" stroke-opacity="1" stroke-miterlimit="10" d="M 5.726686 -0.000815 C 5.023561 0.167154 1.933718 1.116372 0.00012375 2.147622 L 0.00012375 -2.149253 C 1.933718 -1.114096 5.023561 -0.168784 5.726686 -0.000815 Z M 5.726686 -0.000815 " transform="matrix(1, 0, 0, -1, 101.58972, 16.60856)"/>
<path fill="none" stroke-width="1.1457" stroke-linecap="butt" stroke-linejoin="round" stroke="rgb(37.255859%, 38.822937%, 40.783691%)" stroke-opacity="1" stroke-miterlimit="10" d="M -56.693312 4.537531 L -103.46675 4.537531 L -103.46675 60.943781 L -64.908156 60.943781 " transform="matrix(1, 0, 0, -1, 166.498, 88.893)"/>
<path fill-rule="nonzero" fill="rgb(37.255859%, 38.822937%, 40.783691%)" fill-opacity="1" stroke-width="1.1457" stroke-linecap="butt" stroke-linejoin="miter" stroke="rgb(37.255859%, 38.822937%, 40.783691%)" stroke-opacity="1" stroke-miterlimit="10" d="M 5.726686 -0.00166875 C 5.023561 0.1663 1.933718 1.115519 0.00012375 2.146769 L 0.00012375 -2.1462 C 1.933718 -1.11495 5.023561 -0.165731 5.726686 -0.00166875 Z M 5.726686 -0.00166875 " transform="matrix(1, 0, 0, -1, 101.58972, 27.94755)"/>
<g fill="rgb(37.298584%, 38.798523%, 40.79895%)" fill-opacity="1">
<use xlink:href="#glyph-0-0" x="324.995" y="67.407"/>
<use xlink:href="#glyph-0-1" x="324.995" y="62.421682"/>
<use xlink:href="#glyph-0-2" x="324.995" y="57.938482"/>
<use xlink:href="#glyph-0-3" x="324.995" y="55.445822"/>
<use xlink:href="#glyph-0-4" x="324.995" y="53.455282"/>
<use xlink:href="#glyph-0-5" x="324.995" y="48.469963"/>
</g>
<g fill="rgb(37.298584%, 38.798523%, 40.79895%)" fill-opacity="1">
<use xlink:href="#glyph-0-6" x="14.242" y="65.163"/>
<use xlink:href="#glyph-0-2" x="14.242" y="60.6798"/>
<use xlink:href="#glyph-0-0" x="14.242" y="58.187141"/>
<use xlink:href="#glyph-0-2" x="14.242" y="53.201822"/>
<use xlink:href="#glyph-0-7" x="14.242" y="50.709163"/>
</g>
<g fill="rgb(37.298584%, 38.798523%, 40.79895%)" fill-opacity="1">
<use xlink:href="#glyph-0-8" x="56.834" y="69.148"/>
<use xlink:href="#glyph-0-7" x="56.834" y="66.162189"/>
<use xlink:href="#glyph-0-9" x="56.834" y="61.17687"/>
<use xlink:href="#glyph-0-0" x="56.834" y="54.70313"/>
<use xlink:href="#glyph-0-8" x="56.834" y="49.717811"/>
<use xlink:href="#glyph-0-10" x="56.834" y="46.732"/>
</g>
<path fill-rule="nonzero" fill="rgb(10.195923%, 32.157898%, 46.273804%)" fill-opacity="1" d="M 221.695312 5.976562 L 111.296875 5.976562 C 110.472656 5.976562 109.804688 6.648438 109.804688 7.472656 L 109.804688 37.082031 C 109.804688 37.90625 110.472656 38.578125 111.296875 38.578125 L 221.695312 38.578125 C 222.523438 38.578125 223.191406 37.90625 223.191406 37.082031 L 223.191406 7.472656 C 223.191406 6.648438 222.523438 5.976562 221.695312 5.976562 Z M 221.695312 5.976562 "/>
<g fill="rgb(100%, 100%, 100%)" fill-opacity="1">
<use xlink:href="#glyph-1-0" x="133.355" y="19.667"/>
<use xlink:href="#glyph-1-1" x="139.828741" y="19.667"/>
<use xlink:href="#glyph-1-2" x="144.814059" y="19.667"/>
<use xlink:href="#glyph-1-3" x="149.799378" y="19.667"/>
<use xlink:href="#glyph-1-4" x="152.292037" y="19.667"/>
<use xlink:href="#glyph-1-3" x="157.277355" y="19.667"/>
<use xlink:href="#glyph-1-5" x="159.770014" y="19.667"/>
<use xlink:href="#glyph-1-6" x="165.248485" y="19.667"/>
</g>
<g fill="rgb(100%, 100%, 100%)" fill-opacity="1">
<use xlink:href="#glyph-1-7" x="173.210648" y="19.667"/>
<use xlink:href="#glyph-1-8" x="181.181778" y="19.667"/>
<use xlink:href="#glyph-1-9" x="186.167096" y="19.667"/>
<use xlink:href="#glyph-1-1" x="191.152414" y="19.667"/>
<use xlink:href="#glyph-1-10" x="196.137733" y="19.667"/>
</g>
<g fill="rgb(100%, 100%, 100%)" fill-opacity="1">
<use xlink:href="#glyph-2-0" x="139.47" y="29.63"/>
<use xlink:href="#glyph-2-1" x="143.901376" y="29.63"/>
<use xlink:href="#glyph-2-2" x="148.332751" y="29.63"/>
<use xlink:href="#glyph-2-3" x="152.764127" y="29.63"/>
<use xlink:href="#glyph-2-4" x="154.533489" y="29.63"/>
</g>
<g fill="rgb(100%, 100%, 100%)" fill-opacity="1">
<use xlink:href="#glyph-2-2" x="160.726257" y="29.63"/>
<use xlink:href="#glyph-2-5" x="165.157632" y="29.63"/>
<use xlink:href="#glyph-2-6" x="169.589008" y="29.63"/>
</g>
<g fill="rgb(100%, 100%, 100%)" fill-opacity="1">
<use xlink:href="#glyph-2-7" x="176.236071" y="29.63"/>
<use xlink:href="#glyph-2-8" x="178.890115" y="29.63"/>
<use xlink:href="#glyph-2-3" x="183.32149" y="29.63"/>
<use xlink:href="#glyph-2-9" x="185.090852" y="29.63"/>
<use xlink:href="#glyph-2-4" x="189.522228" y="29.63"/>
</g>
<path fill-rule="nonzero" fill="rgb(70.196533%, 10.586548%, 10.586548%)" fill-opacity="1" d="M 221.695312 72.59375 L 111.296875 72.59375 C 110.472656 72.59375 109.804688 73.261719 109.804688 74.089844 L 109.804688 103.699219 C 109.804688 104.523438 110.472656 105.191406 111.296875 105.191406 L 221.695312 105.191406 C 222.523438 105.191406 223.191406 104.523438 223.191406 103.699219 L 223.191406 74.089844 C 223.191406 73.261719 222.523438 72.59375 221.695312 72.59375 Z M 221.695312 72.59375 "/>
<g fill="rgb(100%, 100%, 100%)" fill-opacity="1">
<use xlink:href="#glyph-1-11" x="152.045" y="87.074"/>
<use xlink:href="#glyph-1-8" x="159.514011" y="87.074"/>
<use xlink:href="#glyph-1-10" x="164.49933" y="87.074"/>
<use xlink:href="#glyph-1-9" x="167.987259" y="87.074"/>
<use xlink:href="#glyph-1-1" x="172.972578" y="87.074"/>
<use xlink:href="#glyph-1-12" x="177.957896" y="87.074"/>
</g>
<g fill="rgb(100%, 100%, 100%)" fill-opacity="1">
<use xlink:href="#glyph-2-8" x="150.104" y="97.037"/>
<use xlink:href="#glyph-2-5" x="154.535376" y="97.037"/>
<use xlink:href="#glyph-2-10" x="158.966751" y="97.037"/>
<use xlink:href="#glyph-2-9" x="162.951801" y="97.037"/>
<use xlink:href="#glyph-2-7" x="167.383177" y="97.037"/>
<use xlink:href="#glyph-2-11" x="170.03722" y="97.037"/>
<use xlink:href="#glyph-2-2" x="172.252908" y="97.037"/>
<use xlink:href="#glyph-2-12" x="176.684283" y="97.037"/>
<use xlink:href="#glyph-2-5" x="178.453646" y="97.037"/>
</g>
</svg>
