<?xml version="1.0" encoding="UTF-8"?>
<svg xmlns="http://www.w3.org/2000/svg" xmlns:xlink="http://www.w3.org/1999/xlink" width="542.29pt" height="151.11pt" viewBox="0 0 542.29 151.11">
<defs>
<g>
<g id="glyph-0-0">
<path d="M 0.640625 -6.421875 L 1.9375 -6.421875 L 1.9375 -2.9375 C 1.9375 -2.382812 1.953125 -2.03125 1.984375 -1.875 C 2.046875 -1.601562 2.179688 -1.390625 2.390625 -1.234375 C 2.597656 -1.078125 2.878906 -1 3.234375 -1 C 3.609375 -1 3.890625 -1.070312 4.078125 -1.21875 C 4.265625 -1.375 4.375 -1.5625 4.40625 -1.78125 C 4.445312 -2 4.46875 -2.363281 4.46875 -2.875 L 4.46875 -6.421875 L 5.765625 -6.421875 L 5.765625 -3.046875 C 5.765625 -2.273438 5.726562 -1.726562 5.65625 -1.40625 C 5.582031 -1.09375 5.453125 -0.828125 5.265625 -0.609375 C 5.078125 -0.390625 4.828125 -0.210938 4.515625 -0.078125 C 4.203125 0.0429688 3.789062 0.109375 3.28125 0.109375 C 2.664062 0.109375 2.195312 0.0390625 1.875 -0.09375 C 1.5625 -0.238281 1.3125 -0.425781 1.125 -0.65625 C 0.945312 -0.882812 0.828125 -1.117188 0.765625 -1.359375 C 0.679688 -1.734375 0.640625 -2.28125 0.640625 -3 Z M 0.640625 -6.421875 "/>
</g>
<g id="glyph-0-1">
<path d="M 4.875 0 L 3.640625 0 L 3.640625 -2.375 C 3.640625 -2.875 3.613281 -3.195312 3.5625 -3.34375 C 3.507812 -3.488281 3.421875 -3.601562 3.296875 -3.6875 C 3.179688 -3.769531 3.039062 -3.8125 2.875 -3.8125 C 2.664062 -3.8125 2.472656 -3.753906 2.296875 -3.640625 C 2.128906 -3.523438 2.015625 -3.367188 1.953125 -3.171875 C 1.890625 -2.984375 1.859375 -2.628906 1.859375 -2.109375 L 1.859375 0 L 0.640625 0 L 0.640625 -4.65625 L 1.78125 -4.65625 L 1.78125 -3.96875 C 2.1875 -4.488281 2.695312 -4.75 3.3125 -4.75 C 3.582031 -4.75 3.828125 -4.703125 4.046875 -4.609375 C 4.273438 -4.515625 4.445312 -4.390625 4.5625 -4.234375 C 4.675781 -4.078125 4.753906 -3.898438 4.796875 -3.703125 C 4.847656 -3.515625 4.875 -3.242188 4.875 -2.890625 Z M 4.875 0 "/>
</g>
<g id="glyph-0-2">
<path d="M 0.640625 -5.28125 L 0.640625 -6.421875 L 1.875 -6.421875 L 1.875 -5.28125 Z M 0.640625 0 L 0.640625 -4.65625 L 1.875 -4.65625 L 1.875 0 Z M 0.640625 0 "/>
</g>
<g id="glyph-0-3">
<path d="M 2.78125 -4.65625 L 2.78125 -3.671875 L 1.9375 -3.671875 L 1.9375 -1.796875 C 1.9375 -1.410156 1.941406 -1.1875 1.953125 -1.125 C 1.972656 -1.0625 2.007812 -1.007812 2.0625 -0.96875 C 2.125 -0.9375 2.195312 -0.921875 2.28125 -0.921875 C 2.394531 -0.921875 2.554688 -0.957031 2.765625 -1.03125 L 2.875 -0.078125 C 2.59375 0.0429688 2.269531 0.109375 1.90625 0.109375 C 1.6875 0.109375 1.484375 0.0703125 1.296875 0 C 1.117188 -0.0820312 0.988281 -0.179688 0.90625 -0.296875 C 0.820312 -0.410156 0.765625 -0.570312 0.734375 -0.78125 C 0.710938 -0.914062 0.703125 -1.203125 0.703125 -1.640625 L 0.703125 -3.671875 L 0.140625 -3.671875 L 0.140625 -4.65625 L 0.703125 -4.65625 L 0.703125 -5.578125 L 1.9375 -6.296875 L 1.9375 -4.65625 Z M 2.78125 -4.65625 "/>
</g>
<g id="glyph-0-4">
<path d="M 3.53125 0 L 2.296875 0 L 2.296875 -4.640625 C 1.847656 -4.210938 1.316406 -3.898438 0.703125 -3.703125 L 0.703125 -4.828125 C 1.023438 -4.929688 1.375 -5.128906 1.75 -5.421875 C 2.132812 -5.710938 2.394531 -6.054688 2.53125 -6.453125 L 3.53125 -6.453125 Z M 3.53125 0 "/>
</g>
<g id="glyph-0-5">
<path d="M 4.53125 -1.140625 L 4.53125 0 L 0.21875 0 C 0.269531 -0.425781 0.410156 -0.832031 0.640625 -1.21875 C 0.878906 -1.613281 1.34375 -2.128906 2.03125 -2.765625 C 2.582031 -3.285156 2.921875 -3.632812 3.046875 -3.8125 C 3.210938 -4.070312 3.296875 -4.328125 3.296875 -4.578125 C 3.296875 -4.847656 3.222656 -5.054688 3.078125 -5.203125 C 2.929688 -5.347656 2.726562 -5.421875 2.46875 -5.421875 C 2.207031 -5.421875 2 -5.34375 1.84375 -5.1875 C 1.695312 -5.039062 1.613281 -4.785156 1.59375 -4.421875 L 0.375 -4.546875 C 0.445312 -5.222656 0.675781 -5.707031 1.0625 -6 C 1.445312 -6.300781 1.925781 -6.453125 2.5 -6.453125 C 3.132812 -6.453125 3.628906 -6.28125 3.984375 -5.9375 C 4.347656 -5.59375 4.53125 -5.164062 4.53125 -4.65625 C 4.53125 -4.363281 4.476562 -4.085938 4.375 -3.828125 C 4.269531 -3.566406 4.109375 -3.296875 3.890625 -3.015625 C 3.742188 -2.828125 3.472656 -2.550781 3.078125 -2.1875 C 2.691406 -1.832031 2.445312 -1.597656 2.34375 -1.484375 C 2.238281 -1.367188 2.15625 -1.253906 2.09375 -1.140625 Z M 4.53125 -1.140625 "/>
</g>
<g id="glyph-0-6">
<path d="M 0.34375 -1.703125 L 1.53125 -1.84375 C 1.5625 -1.539062 1.660156 -1.304688 1.828125 -1.140625 C 1.992188 -0.984375 2.195312 -0.90625 2.4375 -0.90625 C 2.6875 -0.90625 2.898438 -1 3.078125 -1.1875 C 3.253906 -1.382812 3.34375 -1.648438 3.34375 -1.984375 C 3.34375 -2.285156 3.257812 -2.523438 3.09375 -2.703125 C 2.925781 -2.890625 2.722656 -2.984375 2.484375 -2.984375 C 2.328125 -2.984375 2.140625 -2.953125 1.921875 -2.890625 L 2.046875 -3.890625 C 2.378906 -3.890625 2.632812 -3.960938 2.8125 -4.109375 C 2.988281 -4.265625 3.078125 -4.46875 3.078125 -4.71875 C 3.078125 -4.9375 3.007812 -5.109375 2.875 -5.234375 C 2.75 -5.367188 2.582031 -5.4375 2.375 -5.4375 C 2.164062 -5.4375 1.984375 -5.363281 1.828125 -5.21875 C 1.679688 -5.070312 1.59375 -4.859375 1.5625 -4.578125 L 0.421875 -4.765625 C 0.503906 -5.148438 0.625 -5.457031 0.78125 -5.6875 C 0.945312 -5.925781 1.171875 -6.113281 1.453125 -6.25 C 1.734375 -6.382812 2.050781 -6.453125 2.40625 -6.453125 C 3.007812 -6.453125 3.492188 -6.257812 3.859375 -5.875 C 4.160156 -5.550781 4.3125 -5.191406 4.3125 -4.796875 C 4.3125 -4.234375 4.003906 -3.785156 3.390625 -3.453125 C 3.753906 -3.367188 4.046875 -3.191406 4.265625 -2.921875 C 4.492188 -2.648438 4.609375 -2.316406 4.609375 -1.921875 C 4.609375 -1.359375 4.398438 -0.878906 3.984375 -0.484375 C 3.578125 -0.0859375 3.066406 0.109375 2.453125 0.109375 C 1.867188 0.109375 1.382812 -0.0546875 1 -0.390625 C 0.613281 -0.722656 0.394531 -1.160156 0.34375 -1.703125 Z M 0.34375 -1.703125 "/>
</g>
<g id="glyph-0-7">
<path d="M 2.796875 0 L 2.796875 -1.296875 L 0.171875 -1.296875 L 0.171875 -2.375 L 2.953125 -6.453125 L 3.984375 -6.453125 L 3.984375 -2.375 L 4.78125 -2.375 L 4.78125 -1.296875 L 3.984375 -1.296875 L 3.984375 0 Z M 2.796875 -2.375 L 2.796875 -4.5625 L 1.3125 -2.375 Z M 2.796875 -2.375 "/>
</g>
<g id="glyph-0-8">
<path d="M 3.640625 -2.359375 L 3.640625 -3.4375 L 6.4375 -3.4375 L 6.4375 -0.890625 C 6.164062 -0.617188 5.769531 -0.382812 5.25 -0.1875 C 4.738281 0.0078125 4.21875 0.109375 3.6875 0.109375 C 3.019531 0.109375 2.4375 -0.03125 1.9375 -0.3125 C 1.4375 -0.59375 1.054688 -0.992188 0.796875 -1.515625 C 0.546875 -2.046875 0.421875 -2.617188 0.421875 -3.234375 C 0.421875 -3.898438 0.5625 -4.492188 0.84375 -5.015625 C 1.125 -5.535156 1.535156 -5.929688 2.078125 -6.203125 C 2.492188 -6.421875 3.007812 -6.53125 3.625 -6.53125 C 4.414062 -6.53125 5.035156 -6.363281 5.484375 -6.03125 C 5.929688 -5.695312 6.21875 -5.234375 6.34375 -4.640625 L 5.0625 -4.40625 C 4.96875 -4.71875 4.796875 -4.960938 4.546875 -5.140625 C 4.296875 -5.328125 3.988281 -5.421875 3.625 -5.421875 C 3.050781 -5.421875 2.597656 -5.238281 2.265625 -4.875 C 1.929688 -4.519531 1.765625 -3.988281 1.765625 -3.28125 C 1.765625 -2.519531 1.929688 -1.945312 2.265625 -1.5625 C 2.609375 -1.1875 3.054688 -1 3.609375 -1 C 3.878906 -1 4.148438 -1.050781 4.421875 -1.15625 C 4.691406 -1.257812 4.925781 -1.390625 5.125 -1.546875 L 5.125 -2.359375 Z M 3.640625 -2.359375 "/>
</g>
<g id="glyph-0-9">
<path d="M 1.921875 0 L 0.046875 -4.65625 L 1.34375 -4.65625 L 2.21875 -2.28125 L 2.46875 -1.484375 C 2.539062 -1.679688 2.582031 -1.816406 2.59375 -1.890625 C 2.632812 -2.015625 2.679688 -2.144531 2.734375 -2.28125 L 3.609375 -4.65625 L 4.875 -4.65625 L 3.03125 0 Z M 1.921875 0 "/>
</g>
<g id="glyph-0-10">
<path d="M 3.34375 -1.484375 L 4.5625 -1.28125 C 4.40625 -0.820312 4.15625 -0.472656 3.8125 -0.234375 C 3.476562 -0.00390625 3.054688 0.109375 2.546875 0.109375 C 1.734375 0.109375 1.132812 -0.15625 0.75 -0.6875 C 0.4375 -1.113281 0.28125 -1.648438 0.28125 -2.296875 C 0.28125 -3.066406 0.484375 -3.664062 0.890625 -4.09375 C 1.296875 -4.53125 1.804688 -4.75 2.421875 -4.75 C 3.109375 -4.75 3.648438 -4.519531 4.046875 -4.0625 C 4.453125 -3.613281 4.644531 -2.914062 4.625 -1.96875 L 1.546875 -1.96875 C 1.554688 -1.601562 1.65625 -1.316406 1.84375 -1.109375 C 2.03125 -0.910156 2.265625 -0.8125 2.546875 -0.8125 C 2.742188 -0.8125 2.90625 -0.863281 3.03125 -0.96875 C 3.164062 -1.070312 3.269531 -1.242188 3.34375 -1.484375 Z M 3.40625 -2.71875 C 3.394531 -3.082031 3.300781 -3.351562 3.125 -3.53125 C 2.957031 -3.71875 2.742188 -3.8125 2.484375 -3.8125 C 2.222656 -3.8125 2.003906 -3.710938 1.828125 -3.515625 C 1.648438 -3.328125 1.5625 -3.0625 1.5625 -2.71875 Z M 3.40625 -2.71875 "/>
</g>
<g id="glyph-0-11">
<path d="M 0.203125 -1.328125 L 1.4375 -1.515625 C 1.5 -1.273438 1.609375 -1.09375 1.765625 -0.96875 C 1.921875 -0.84375 2.144531 -0.78125 2.4375 -0.78125 C 2.757812 -0.78125 3 -0.835938 3.15625 -0.953125 C 3.257812 -1.035156 3.3125 -1.144531 3.3125 -1.28125 C 3.3125 -1.375 3.285156 -1.453125 3.234375 -1.515625 C 3.171875 -1.578125 3.03125 -1.632812 2.8125 -1.6875 C 1.820312 -1.90625 1.195312 -2.101562 0.9375 -2.28125 C 0.5625 -2.53125 0.375 -2.878906 0.375 -3.328125 C 0.375 -3.734375 0.53125 -4.070312 0.84375 -4.34375 C 1.164062 -4.613281 1.664062 -4.75 2.34375 -4.75 C 2.976562 -4.75 3.445312 -4.644531 3.75 -4.4375 C 4.0625 -4.238281 4.273438 -3.9375 4.390625 -3.53125 L 3.234375 -3.3125 C 3.179688 -3.488281 3.085938 -3.625 2.953125 -3.71875 C 2.816406 -3.820312 2.617188 -3.875 2.359375 -3.875 C 2.035156 -3.875 1.804688 -3.828125 1.671875 -3.734375 C 1.578125 -3.671875 1.53125 -3.585938 1.53125 -3.484375 C 1.53125 -3.398438 1.566406 -3.328125 1.640625 -3.265625 C 1.753906 -3.179688 2.140625 -3.0625 2.796875 -2.90625 C 3.453125 -2.757812 3.910156 -2.582031 4.171875 -2.375 C 4.421875 -2.15625 4.546875 -1.847656 4.546875 -1.453125 C 4.546875 -1.023438 4.367188 -0.65625 4.015625 -0.34375 C 3.660156 -0.0390625 3.132812 0.109375 2.4375 0.109375 C 1.800781 0.109375 1.296875 -0.0195312 0.921875 -0.28125 C 0.554688 -0.539062 0.316406 -0.890625 0.203125 -1.328125 Z M 0.203125 -1.328125 "/>
</g>
<g id="glyph-0-12">
<path d="M 0.546875 -4.65625 L 1.6875 -4.65625 L 1.6875 -4.015625 C 2.09375 -4.503906 2.578125 -4.75 3.140625 -4.75 C 3.429688 -4.75 3.6875 -4.6875 3.90625 -4.5625 C 4.125 -4.445312 4.304688 -4.265625 4.453125 -4.015625 C 4.648438 -4.265625 4.867188 -4.445312 5.109375 -4.5625 C 5.347656 -4.6875 5.601562 -4.75 5.875 -4.75 C 6.207031 -4.75 6.492188 -4.679688 6.734375 -4.546875 C 6.972656 -4.410156 7.148438 -4.207031 7.265625 -3.9375 C 7.347656 -3.738281 7.390625 -3.414062 7.390625 -2.96875 L 7.390625 0 L 6.15625 0 L 6.15625 -2.65625 C 6.15625 -3.113281 6.113281 -3.410156 6.03125 -3.546875 C 5.914062 -3.722656 5.742188 -3.8125 5.515625 -3.8125 C 5.335938 -3.8125 5.171875 -3.757812 5.015625 -3.65625 C 4.867188 -3.550781 4.757812 -3.394531 4.6875 -3.1875 C 4.625 -2.988281 4.59375 -2.671875 4.59375 -2.234375 L 4.59375 0 L 3.359375 0 L 3.359375 -2.546875 C 3.359375 -3.003906 3.335938 -3.296875 3.296875 -3.421875 C 3.253906 -3.554688 3.1875 -3.65625 3.09375 -3.71875 C 3 -3.78125 2.875 -3.8125 2.71875 -3.8125 C 2.53125 -3.8125 2.359375 -3.757812 2.203125 -3.65625 C 2.054688 -3.550781 1.945312 -3.40625 1.875 -3.21875 C 1.8125 -3.03125 1.78125 -2.710938 1.78125 -2.265625 L 1.78125 0 L 0.546875 0 Z M 0.546875 -4.65625 "/>
</g>
<g id="glyph-0-13">
<path d="M 4.703125 -3.28125 L 3.484375 -3.0625 C 3.441406 -3.300781 3.347656 -3.476562 3.203125 -3.59375 C 3.054688 -3.71875 2.867188 -3.78125 2.640625 -3.78125 C 2.335938 -3.78125 2.09375 -3.675781 1.90625 -3.46875 C 1.726562 -3.257812 1.640625 -2.90625 1.640625 -2.40625 C 1.640625 -1.851562 1.726562 -1.460938 1.90625 -1.234375 C 2.09375 -1.003906 2.34375 -0.890625 2.65625 -0.890625 C 2.894531 -0.890625 3.085938 -0.957031 3.234375 -1.09375 C 3.378906 -1.226562 3.484375 -1.457031 3.546875 -1.78125 L 4.765625 -1.578125 C 4.640625 -1.023438 4.394531 -0.601562 4.03125 -0.3125 C 3.675781 -0.03125 3.203125 0.109375 2.609375 0.109375 C 1.921875 0.109375 1.375 -0.101562 0.96875 -0.53125 C 0.570312 -0.96875 0.375 -1.566406 0.375 -2.328125 C 0.375 -3.085938 0.578125 -3.679688 0.984375 -4.109375 C 1.390625 -4.535156 1.9375 -4.75 2.625 -4.75 C 3.195312 -4.75 3.648438 -4.628906 3.984375 -4.390625 C 4.316406 -4.148438 4.554688 -3.78125 4.703125 -3.28125 Z M 4.703125 -3.28125 "/>
</g>
<g id="glyph-0-14">
<path d="M 1.875 -6.421875 L 1.875 -4.0625 C 2.269531 -4.519531 2.742188 -4.75 3.296875 -4.75 C 3.578125 -4.75 3.832031 -4.695312 4.0625 -4.59375 C 4.289062 -4.488281 4.460938 -4.351562 4.578125 -4.1875 C 4.691406 -4.03125 4.769531 -3.851562 4.8125 -3.65625 C 4.851562 -3.457031 4.875 -3.148438 4.875 -2.734375 L 4.875 0 L 3.640625 0 L 3.640625 -2.453125 C 3.640625 -2.941406 3.613281 -3.25 3.5625 -3.375 C 3.519531 -3.507812 3.441406 -3.613281 3.328125 -3.6875 C 3.210938 -3.769531 3.0625 -3.8125 2.875 -3.8125 C 2.675781 -3.8125 2.492188 -3.757812 2.328125 -3.65625 C 2.171875 -3.5625 2.054688 -3.414062 1.984375 -3.21875 C 1.910156 -3.019531 1.875 -2.722656 1.875 -2.328125 L 1.875 0 L 0.640625 0 L 0.640625 -6.421875 Z M 1.875 -6.421875 "/>
</g>
<g id="glyph-0-15">
<path d="M 0.359375 -2.390625 C 0.359375 -2.796875 0.457031 -3.191406 0.65625 -3.578125 C 0.863281 -3.960938 1.148438 -4.253906 1.515625 -4.453125 C 1.890625 -4.648438 2.300781 -4.75 2.75 -4.75 C 3.457031 -4.75 4.035156 -4.519531 4.484375 -4.0625 C 4.929688 -3.613281 5.15625 -3.039062 5.15625 -2.34375 C 5.15625 -1.632812 4.925781 -1.046875 4.46875 -0.578125 C 4.019531 -0.117188 3.453125 0.109375 2.765625 0.109375 C 2.335938 0.109375 1.929688 0.0117188 1.546875 -0.171875 C 1.160156 -0.367188 0.863281 -0.65625 0.65625 -1.03125 C 0.457031 -1.40625 0.359375 -1.859375 0.359375 -2.390625 Z M 1.625 -2.328125 C 1.625 -1.867188 1.734375 -1.515625 1.953125 -1.265625 C 2.171875 -1.015625 2.441406 -0.890625 2.765625 -0.890625 C 3.078125 -0.890625 3.34375 -1.015625 3.5625 -1.265625 C 3.78125 -1.515625 3.890625 -1.867188 3.890625 -2.328125 C 3.890625 -2.785156 3.78125 -3.132812 3.5625 -3.375 C 3.34375 -3.625 3.078125 -3.75 2.765625 -3.75 C 2.441406 -3.75 2.171875 -3.625 1.953125 -3.375 C 1.734375 -3.132812 1.625 -2.785156 1.625 -2.328125 Z M 1.625 -2.328125 "/>
</g>
<g id="glyph-0-16">
<path d="M 0.609375 -1.234375 L 1.84375 -1.234375 L 1.84375 -0.34375 C 1.84375 0.0078125 1.8125 0.285156 1.75 0.484375 C 1.6875 0.691406 1.566406 0.878906 1.390625 1.046875 C 1.222656 1.210938 1.007812 1.34375 0.75 1.4375 L 0.515625 0.921875 C 0.765625 0.835938 0.941406 0.722656 1.046875 0.578125 C 1.148438 0.441406 1.203125 0.25 1.203125 0 L 0.609375 0 Z M 0.609375 -1.234375 "/>
</g>
<g id="glyph-0-17">
<path d="M 3.703125 0 L 3.703125 -0.703125 C 3.535156 -0.453125 3.3125 -0.253906 3.03125 -0.109375 C 2.757812 0.0351562 2.46875 0.109375 2.15625 0.109375 C 1.84375 0.109375 1.5625 0.0390625 1.3125 -0.09375 C 1.070312 -0.238281 0.894531 -0.429688 0.78125 -0.671875 C 0.675781 -0.921875 0.625 -1.265625 0.625 -1.703125 L 0.625 -4.65625 L 1.84375 -4.65625 L 1.84375 -2.515625 C 1.84375 -1.859375 1.863281 -1.457031 1.90625 -1.3125 C 1.957031 -1.164062 2.039062 -1.046875 2.15625 -0.953125 C 2.28125 -0.867188 2.4375 -0.828125 2.625 -0.828125 C 2.832031 -0.828125 3.019531 -0.882812 3.1875 -1 C 3.351562 -1.113281 3.46875 -1.253906 3.53125 -1.421875 C 3.59375 -1.597656 3.625 -2.019531 3.625 -2.6875 L 3.625 -4.65625 L 4.84375 -4.65625 L 4.84375 0 Z M 3.703125 0 "/>
</g>
<g id="glyph-0-18">
<path d="M 1.828125 0 L 0.59375 0 L 0.59375 -4.65625 L 1.734375 -4.65625 L 1.734375 -3.984375 C 1.929688 -4.296875 2.109375 -4.5 2.265625 -4.59375 C 2.421875 -4.695312 2.597656 -4.75 2.796875 -4.75 C 3.078125 -4.75 3.347656 -4.675781 3.609375 -4.53125 L 3.21875 -3.453125 C 3.007812 -3.585938 2.816406 -3.65625 2.640625 -3.65625 C 2.472656 -3.65625 2.328125 -3.609375 2.203125 -3.515625 C 2.085938 -3.421875 1.992188 -3.25 1.921875 -3 C 1.859375 -2.75 1.828125 -2.226562 1.828125 -1.4375 Z M 1.828125 0 "/>
</g>
<g id="glyph-0-19">
<path d="M 1.5625 -3.234375 L 0.453125 -3.4375 C 0.578125 -3.882812 0.789062 -4.210938 1.09375 -4.421875 C 1.394531 -4.640625 1.851562 -4.75 2.46875 -4.75 C 3.007812 -4.75 3.414062 -4.679688 3.6875 -4.546875 C 3.957031 -4.421875 4.144531 -4.257812 4.25 -4.0625 C 4.363281 -3.863281 4.421875 -3.5 4.421875 -2.96875 L 4.40625 -1.53125 C 4.40625 -1.125 4.425781 -0.820312 4.46875 -0.625 C 4.507812 -0.425781 4.582031 -0.21875 4.6875 0 L 3.46875 0 C 3.4375 -0.0820312 3.394531 -0.203125 3.34375 -0.359375 C 3.320312 -0.429688 3.3125 -0.484375 3.3125 -0.515625 C 3.09375 -0.304688 2.863281 -0.148438 2.625 -0.046875 C 2.382812 0.0546875 2.128906 0.109375 1.859375 0.109375 C 1.378906 0.109375 1 -0.0195312 0.71875 -0.28125 C 0.445312 -0.539062 0.3125 -0.867188 0.3125 -1.265625 C 0.3125 -1.535156 0.375 -1.769531 0.5 -1.96875 C 0.632812 -2.175781 0.8125 -2.332031 1.03125 -2.4375 C 1.257812 -2.550781 1.585938 -2.648438 2.015625 -2.734375 C 2.585938 -2.835938 2.984375 -2.9375 3.203125 -3.03125 L 3.203125 -3.15625 C 3.203125 -3.394531 3.144531 -3.5625 3.03125 -3.65625 C 2.914062 -3.757812 2.695312 -3.8125 2.375 -3.8125 C 2.15625 -3.8125 1.984375 -3.769531 1.859375 -3.6875 C 1.734375 -3.601562 1.632812 -3.453125 1.5625 -3.234375 Z M 3.203125 -2.234375 C 3.046875 -2.179688 2.796875 -2.117188 2.453125 -2.046875 C 2.117188 -1.972656 1.898438 -1.898438 1.796875 -1.828125 C 1.628906 -1.710938 1.546875 -1.566406 1.546875 -1.390625 C 1.546875 -1.222656 1.609375 -1.078125 1.734375 -0.953125 C 1.867188 -0.828125 2.035156 -0.765625 2.234375 -0.765625 C 2.453125 -0.765625 2.664062 -0.835938 2.875 -0.984375 C 3.019531 -1.085938 3.113281 -1.222656 3.15625 -1.390625 C 3.1875 -1.492188 3.203125 -1.691406 3.203125 -1.984375 Z M 3.203125 -2.234375 "/>
</g>
<g id="glyph-0-20">
<path d="M 0.0625 -4.65625 L 1.375 -4.65625 L 2.484375 -1.34375 L 3.5625 -4.65625 L 4.84375 -4.65625 L 3.203125 -0.171875 L 2.90625 0.640625 C 2.800781 0.910156 2.695312 1.113281 2.59375 1.25 C 2.5 1.394531 2.390625 1.507812 2.265625 1.59375 C 2.140625 1.6875 1.984375 1.757812 1.796875 1.8125 C 1.609375 1.863281 1.398438 1.890625 1.171875 1.890625 C 0.929688 1.890625 0.695312 1.863281 0.46875 1.8125 L 0.359375 0.84375 C 0.546875 0.882812 0.71875 0.90625 0.875 0.90625 C 1.164062 0.90625 1.378906 0.820312 1.515625 0.65625 C 1.648438 0.488281 1.753906 0.273438 1.828125 0.015625 Z M 0.0625 -4.65625 "/>
</g>
<g id="glyph-0-21">
<path d="M 4.90625 0 L 3.765625 0 L 3.765625 -0.6875 C 3.578125 -0.414062 3.351562 -0.210938 3.09375 -0.078125 C 2.832031 0.0429688 2.570312 0.109375 2.3125 0.109375 C 1.78125 0.109375 1.320312 -0.101562 0.9375 -0.53125 C 0.5625 -0.96875 0.375 -1.570312 0.375 -2.34375 C 0.375 -3.132812 0.554688 -3.734375 0.921875 -4.140625 C 1.296875 -4.546875 1.765625 -4.75 2.328125 -4.75 C 2.847656 -4.75 3.296875 -4.535156 3.671875 -4.109375 L 3.671875 -6.421875 L 4.90625 -6.421875 Z M 1.625 -2.421875 C 1.625 -1.929688 1.691406 -1.570312 1.828125 -1.34375 C 2.023438 -1.019531 2.300781 -0.859375 2.65625 -0.859375 C 2.945312 -0.859375 3.191406 -0.976562 3.390625 -1.21875 C 3.585938 -1.46875 3.6875 -1.832031 3.6875 -2.3125 C 3.6875 -2.84375 3.585938 -3.222656 3.390625 -3.453125 C 3.203125 -3.691406 2.957031 -3.8125 2.65625 -3.8125 C 2.363281 -3.8125 2.117188 -3.695312 1.921875 -3.46875 C 1.722656 -3.238281 1.625 -2.890625 1.625 -2.421875 Z M 1.625 -2.421875 "/>
</g>
<g id="glyph-0-22">
<path d="M 0.609375 -4.65625 L 1.75 -4.65625 L 1.75 -3.96875 C 1.90625 -4.195312 2.109375 -4.382812 2.359375 -4.53125 C 2.609375 -4.675781 2.890625 -4.75 3.203125 -4.75 C 3.742188 -4.75 4.203125 -4.535156 4.578125 -4.109375 C 4.953125 -3.691406 5.140625 -3.109375 5.140625 -2.359375 C 5.140625 -1.578125 4.945312 -0.96875 4.5625 -0.53125 C 4.1875 -0.101562 3.734375 0.109375 3.203125 0.109375 C 2.941406 0.109375 2.707031 0.0546875 2.5 -0.046875 C 2.289062 -0.148438 2.070312 -0.328125 1.84375 -0.578125 L 1.84375 1.765625 L 0.609375 1.765625 Z M 1.828125 -2.40625 C 1.828125 -1.882812 1.929688 -1.5 2.140625 -1.25 C 2.347656 -1 2.597656 -0.875 2.890625 -0.875 C 3.179688 -0.875 3.421875 -0.988281 3.609375 -1.21875 C 3.796875 -1.445312 3.890625 -1.820312 3.890625 -2.34375 C 3.890625 -2.832031 3.789062 -3.191406 3.59375 -3.421875 C 3.40625 -3.660156 3.164062 -3.78125 2.875 -3.78125 C 2.570312 -3.78125 2.320312 -3.664062 2.125 -3.4375 C 1.925781 -3.207031 1.828125 -2.863281 1.828125 -2.40625 Z M 1.828125 -2.40625 "/>
</g>
<g id="glyph-0-23">
<path d="M 0.875 -3.421875 L 0.875 -4.65625 L 2.109375 -4.65625 L 2.109375 -3.421875 Z M 0.875 0 L 0.875 -1.234375 L 2.109375 -1.234375 L 2.109375 0 Z M 0.875 0 "/>
</g>
<g id="glyph-0-24">
<path d="M 1.515625 0 L 0.046875 -4.65625 L 1.234375 -4.65625 L 2.109375 -1.609375 L 2.90625 -4.65625 L 4.09375 -4.65625 L 4.875 -1.609375 L 5.765625 -4.65625 L 6.96875 -4.65625 L 5.484375 0 L 4.296875 0 L 3.5 -2.984375 L 2.703125 0 Z M 1.515625 0 "/>
</g>
<g id="glyph-0-25">
<path d="M 0.640625 0 L 0.640625 -6.421875 L 1.875 -6.421875 L 1.875 0 Z M 0.640625 0 "/>
</g>
<g id="glyph-0-26">
<path d="M 3.28125 -1.65625 L 2.171875 -1.65625 C 2.171875 -1.8125 2.171875 -1.910156 2.171875 -1.953125 C 2.171875 -2.304688 2.226562 -2.597656 2.34375 -2.828125 C 2.46875 -3.066406 2.707031 -3.332031 3.0625 -3.625 C 3.425781 -3.914062 3.640625 -4.109375 3.703125 -4.203125 C 3.816406 -4.347656 3.875 -4.503906 3.875 -4.671875 C 3.875 -4.910156 3.773438 -5.113281 3.578125 -5.28125 C 3.390625 -5.457031 3.132812 -5.546875 2.8125 -5.546875 C 2.5 -5.546875 2.238281 -5.457031 2.03125 -5.28125 C 1.820312 -5.101562 1.675781 -4.832031 1.59375 -4.46875 L 0.46875 -4.609375 C 0.5 -5.128906 0.71875 -5.570312 1.125 -5.9375 C 1.539062 -6.300781 2.085938 -6.484375 2.765625 -6.484375 C 3.460938 -6.484375 4.019531 -6.296875 4.4375 -5.921875 C 4.863281 -5.554688 5.078125 -5.128906 5.078125 -4.640625 C 5.078125 -4.367188 5 -4.109375 4.84375 -3.859375 C 4.6875 -3.617188 4.359375 -3.289062 3.859375 -2.875 C 3.597656 -2.664062 3.4375 -2.492188 3.375 -2.359375 C 3.3125 -2.222656 3.28125 -1.988281 3.28125 -1.65625 Z M 2.171875 0 L 2.171875 -1.234375 L 3.40625 -1.234375 L 3.40625 0 Z M 2.171875 0 "/>
</g>
<g id="glyph-1-0">
<path d="M 2.0625 0 L 2.0625 -5.03125 L 0.1875 -5.03125 L 0.1875 -5.703125 L 4.703125 -5.703125 L 4.703125 -5.03125 L 2.828125 -5.03125 L 2.828125 0 Z M 2.0625 0 "/>
</g>
<g id="glyph-1-1">
<path d="M 0.515625 0 L 0.515625 -4.125 L 1.140625 -4.125 L 1.140625 -3.5 C 1.304688 -3.800781 1.457031 -3.992188 1.59375 -4.078125 C 1.726562 -4.171875 1.878906 -4.21875 2.046875 -4.21875 C 2.273438 -4.21875 2.515625 -4.144531 2.765625 -4 L 2.515625 -3.34375 C 2.347656 -3.445312 2.175781 -3.5 2 -3.5 C 1.851562 -3.5 1.71875 -3.453125 1.59375 -3.359375 C 1.46875 -3.265625 1.378906 -3.140625 1.328125 -2.984375 C 1.253906 -2.734375 1.21875 -2.457031 1.21875 -2.15625 L 1.21875 0 Z M 0.515625 0 "/>
</g>
<g id="glyph-1-2">
<path d="M 3.359375 -1.328125 L 4.078125 -1.234375 C 3.960938 -0.816406 3.75 -0.488281 3.4375 -0.25 C 3.132812 -0.0195312 2.742188 0.09375 2.265625 0.09375 C 1.660156 0.09375 1.179688 -0.0859375 0.828125 -0.453125 C 0.472656 -0.828125 0.296875 -1.351562 0.296875 -2.03125 C 0.296875 -2.726562 0.472656 -3.265625 0.828125 -3.640625 C 1.179688 -4.023438 1.644531 -4.21875 2.21875 -4.21875 C 2.769531 -4.21875 3.21875 -4.03125 3.5625 -3.65625 C 3.914062 -3.28125 4.09375 -2.753906 4.09375 -2.078125 C 4.09375 -2.035156 4.09375 -1.972656 4.09375 -1.890625 L 1.015625 -1.890625 C 1.035156 -1.429688 1.160156 -1.082031 1.390625 -0.84375 C 1.628906 -0.601562 1.921875 -0.484375 2.265625 -0.484375 C 2.523438 -0.484375 2.742188 -0.550781 2.921875 -0.6875 C 3.097656 -0.820312 3.242188 -1.035156 3.359375 -1.328125 Z M 1.046875 -2.46875 L 3.359375 -2.46875 C 3.328125 -2.8125 3.238281 -3.070312 3.09375 -3.25 C 2.875 -3.519531 2.585938 -3.65625 2.234375 -3.65625 C 1.910156 -3.65625 1.640625 -3.546875 1.421875 -3.328125 C 1.203125 -3.109375 1.078125 -2.820312 1.046875 -2.46875 Z M 1.046875 -2.46875 "/>
</g>
<g id="glyph-1-3">
<path d="M 3.21875 -0.515625 C 2.957031 -0.285156 2.707031 -0.125 2.46875 -0.03125 C 2.226562 0.0507812 1.972656 0.09375 1.703125 0.09375 C 1.242188 0.09375 0.890625 -0.015625 0.640625 -0.234375 C 0.398438 -0.460938 0.28125 -0.75 0.28125 -1.09375 C 0.28125 -1.289062 0.328125 -1.472656 0.421875 -1.640625 C 0.515625 -1.804688 0.632812 -1.941406 0.78125 -2.046875 C 0.9375 -2.148438 1.109375 -2.226562 1.296875 -2.28125 C 1.429688 -2.3125 1.640625 -2.34375 1.921875 -2.375 C 2.484375 -2.445312 2.894531 -2.53125 3.15625 -2.625 C 3.164062 -2.71875 3.171875 -2.78125 3.171875 -2.8125 C 3.171875 -3.09375 3.101562 -3.289062 2.96875 -3.40625 C 2.789062 -3.5625 2.523438 -3.640625 2.171875 -3.640625 C 1.835938 -3.640625 1.59375 -3.582031 1.4375 -3.46875 C 1.28125 -3.351562 1.164062 -3.148438 1.09375 -2.859375 L 0.40625 -2.953125 C 0.46875 -3.242188 0.570312 -3.476562 0.71875 -3.65625 C 0.863281 -3.84375 1.066406 -3.984375 1.328125 -4.078125 C 1.597656 -4.171875 1.910156 -4.21875 2.265625 -4.21875 C 2.617188 -4.21875 2.90625 -4.175781 3.125 -4.09375 C 3.351562 -4.019531 3.519531 -3.914062 3.625 -3.78125 C 3.726562 -3.65625 3.800781 -3.5 3.84375 -3.3125 C 3.863281 -3.1875 3.875 -2.972656 3.875 -2.671875 L 3.875 -1.734375 C 3.875 -1.078125 3.890625 -0.660156 3.921875 -0.484375 C 3.953125 -0.316406 4.007812 -0.15625 4.09375 0 L 3.359375 0 C 3.285156 -0.144531 3.238281 -0.316406 3.21875 -0.515625 Z M 3.15625 -2.078125 C 2.90625 -1.972656 2.523438 -1.882812 2.015625 -1.8125 C 1.734375 -1.769531 1.53125 -1.722656 1.40625 -1.671875 C 1.289062 -1.617188 1.195312 -1.539062 1.125 -1.4375 C 1.0625 -1.34375 1.03125 -1.234375 1.03125 -1.109375 C 1.03125 -0.921875 1.097656 -0.765625 1.234375 -0.640625 C 1.378906 -0.515625 1.59375 -0.453125 1.875 -0.453125 C 2.132812 -0.453125 2.367188 -0.507812 2.578125 -0.625 C 2.796875 -0.75 2.953125 -0.910156 3.046875 -1.109375 C 3.117188 -1.273438 3.15625 -1.507812 3.15625 -1.8125 Z M 3.15625 -2.078125 "/>
</g>
<g id="glyph-1-4">
<path d="M 0.25 -1.234375 L 0.9375 -1.34375 C 0.976562 -1.0625 1.085938 -0.847656 1.265625 -0.703125 C 1.441406 -0.554688 1.6875 -0.484375 2 -0.484375 C 2.320312 -0.484375 2.5625 -0.546875 2.71875 -0.671875 C 2.875 -0.804688 2.953125 -0.960938 2.953125 -1.140625 C 2.953125 -1.296875 2.882812 -1.421875 2.75 -1.515625 C 2.65625 -1.578125 2.414062 -1.65625 2.03125 -1.75 C 1.519531 -1.882812 1.164062 -2 0.96875 -2.09375 C 0.769531 -2.1875 0.617188 -2.316406 0.515625 -2.484375 C 0.410156 -2.648438 0.359375 -2.832031 0.359375 -3.03125 C 0.359375 -3.21875 0.398438 -3.390625 0.484375 -3.546875 C 0.566406 -3.703125 0.679688 -3.832031 0.828125 -3.9375 C 0.941406 -4.019531 1.09375 -4.085938 1.28125 -4.140625 C 1.46875 -4.191406 1.671875 -4.21875 1.890625 -4.21875 C 2.210938 -4.21875 2.492188 -4.171875 2.734375 -4.078125 C 2.984375 -3.992188 3.164062 -3.867188 3.28125 -3.703125 C 3.394531 -3.546875 3.472656 -3.332031 3.515625 -3.0625 L 2.84375 -2.96875 C 2.8125 -3.1875 2.71875 -3.351562 2.5625 -3.46875 C 2.414062 -3.59375 2.207031 -3.65625 1.9375 -3.65625 C 1.613281 -3.65625 1.378906 -3.597656 1.234375 -3.484375 C 1.097656 -3.378906 1.03125 -3.253906 1.03125 -3.109375 C 1.03125 -3.023438 1.0625 -2.945312 1.125 -2.875 C 1.175781 -2.800781 1.265625 -2.738281 1.390625 -2.6875 C 1.460938 -2.65625 1.671875 -2.59375 2.015625 -2.5 C 2.503906 -2.375 2.847656 -2.265625 3.046875 -2.171875 C 3.242188 -2.085938 3.394531 -1.96875 3.5 -1.8125 C 3.613281 -1.65625 3.671875 -1.457031 3.671875 -1.21875 C 3.671875 -0.976562 3.601562 -0.753906 3.46875 -0.546875 C 3.332031 -0.347656 3.132812 -0.191406 2.875 -0.078125 C 2.625 0.0351562 2.335938 0.09375 2.015625 0.09375 C 1.472656 0.09375 1.0625 -0.015625 0.78125 -0.234375 C 0.5 -0.460938 0.320312 -0.796875 0.25 -1.234375 Z M 0.25 -1.234375 "/>
</g>
<g id="glyph-1-5">
<path d="M 3.234375 0 L 3.234375 -0.609375 C 2.910156 -0.140625 2.472656 0.09375 1.921875 0.09375 C 1.679688 0.09375 1.453125 0.0429688 1.234375 -0.046875 C 1.023438 -0.140625 0.867188 -0.253906 0.765625 -0.390625 C 0.660156 -0.535156 0.585938 -0.710938 0.546875 -0.921875 C 0.523438 -1.054688 0.515625 -1.273438 0.515625 -1.578125 L 0.515625 -4.125 L 1.203125 -4.125 L 1.203125 -1.84375 C 1.203125 -1.476562 1.21875 -1.226562 1.25 -1.09375 C 1.289062 -0.914062 1.382812 -0.773438 1.53125 -0.671875 C 1.675781 -0.566406 1.851562 -0.515625 2.0625 -0.515625 C 2.269531 -0.515625 2.46875 -0.566406 2.65625 -0.671875 C 2.84375 -0.773438 2.972656 -0.921875 3.046875 -1.109375 C 3.117188 -1.296875 3.15625 -1.566406 3.15625 -1.921875 L 3.15625 -4.125 L 3.859375 -4.125 L 3.859375 0 Z M 3.234375 0 "/>
</g>
<g id="glyph-1-6">
<path d="M 0.5 1.59375 L 0.421875 0.9375 C 0.566406 0.976562 0.695312 1 0.8125 1 C 0.96875 1 1.09375 0.972656 1.1875 0.921875 C 1.28125 0.867188 1.359375 0.796875 1.421875 0.703125 C 1.460938 0.628906 1.535156 0.453125 1.640625 0.171875 C 1.648438 0.140625 1.671875 0.0820312 1.703125 0 L 0.125 -4.125 L 0.890625 -4.125 L 1.75 -1.734375 C 1.851562 -1.429688 1.953125 -1.113281 2.046875 -0.78125 C 2.117188 -1.101562 2.210938 -1.414062 2.328125 -1.71875 L 3.21875 -4.125 L 3.921875 -4.125 L 2.34375 0.0625 C 2.175781 0.519531 2.046875 0.832031 1.953125 1 C 1.828125 1.238281 1.679688 1.410156 1.515625 1.515625 C 1.359375 1.617188 1.171875 1.671875 0.953125 1.671875 C 0.816406 1.671875 0.664062 1.644531 0.5 1.59375 Z M 0.5 1.59375 "/>
</g>
<g id="glyph-1-7">
<path d="M 3.21875 -1.515625 L 3.90625 -1.421875 C 3.832031 -0.953125 3.640625 -0.582031 3.328125 -0.3125 C 3.023438 -0.0390625 2.644531 0.09375 2.1875 0.09375 C 1.625 0.09375 1.171875 -0.0859375 0.828125 -0.453125 C 0.484375 -0.828125 0.3125 -1.359375 0.3125 -2.046875 C 0.3125 -2.492188 0.382812 -2.882812 0.53125 -3.21875 C 0.675781 -3.550781 0.898438 -3.800781 1.203125 -3.96875 C 1.503906 -4.132812 1.832031 -4.21875 2.1875 -4.21875 C 2.644531 -4.21875 3.015625 -4.101562 3.296875 -3.875 C 3.578125 -3.65625 3.757812 -3.335938 3.84375 -2.921875 L 3.15625 -2.8125 C 3.09375 -3.09375 2.976562 -3.300781 2.8125 -3.4375 C 2.65625 -3.582031 2.457031 -3.65625 2.21875 -3.65625 C 1.863281 -3.65625 1.578125 -3.523438 1.359375 -3.265625 C 1.140625 -3.015625 1.03125 -2.613281 1.03125 -2.0625 C 1.03125 -1.507812 1.132812 -1.109375 1.34375 -0.859375 C 1.5625 -0.609375 1.84375 -0.484375 2.1875 -0.484375 C 2.457031 -0.484375 2.679688 -0.566406 2.859375 -0.734375 C 3.046875 -0.898438 3.164062 -1.160156 3.21875 -1.515625 Z M 3.21875 -1.515625 "/>
</g>
<g id="glyph-1-8">
<path d="M 0.53125 -4.90625 L 0.53125 -5.703125 L 1.234375 -5.703125 L 1.234375 -4.90625 Z M 0.53125 0 L 0.53125 -4.125 L 1.234375 -4.125 L 1.234375 0 Z M 0.53125 0 "/>
</g>
<g id="glyph-1-9">
<path d="M 2.046875 -0.625 L 2.15625 0 C 1.957031 0.03125 1.78125 0.046875 1.625 0.046875 C 1.375 0.046875 1.175781 0.0078125 1.03125 -0.0625 C 0.894531 -0.144531 0.796875 -0.25 0.734375 -0.375 C 0.679688 -0.507812 0.65625 -0.785156 0.65625 -1.203125 L 0.65625 -3.59375 L 0.140625 -3.59375 L 0.140625 -4.125 L 0.65625 -4.125 L 0.65625 -5.15625 L 1.34375 -5.578125 L 1.34375 -4.125 L 2.046875 -4.125 L 2.046875 -3.59375 L 1.34375 -3.59375 L 1.34375 -1.171875 C 1.34375 -0.972656 1.351562 -0.84375 1.375 -0.78125 C 1.40625 -0.726562 1.445312 -0.679688 1.5 -0.640625 C 1.5625 -0.609375 1.644531 -0.59375 1.75 -0.59375 C 1.820312 -0.59375 1.921875 -0.601562 2.046875 -0.625 Z M 2.046875 -0.625 "/>
</g>
<g id="glyph-1-10">
<path d="M 0.359375 -1.828125 L 1.0625 -1.890625 C 1.101562 -1.609375 1.179688 -1.375 1.296875 -1.1875 C 1.421875 -1.007812 1.613281 -0.863281 1.875 -0.75 C 2.132812 -0.632812 2.425781 -0.578125 2.75 -0.578125 C 3.039062 -0.578125 3.296875 -0.617188 3.515625 -0.703125 C 3.734375 -0.796875 3.894531 -0.914062 4 -1.0625 C 4.113281 -1.207031 4.171875 -1.367188 4.171875 -1.546875 C 4.171875 -1.722656 4.117188 -1.878906 4.015625 -2.015625 C 3.910156 -2.148438 3.738281 -2.265625 3.5 -2.359375 C 3.34375 -2.410156 3.003906 -2.5 2.484375 -2.625 C 1.960938 -2.757812 1.597656 -2.878906 1.390625 -2.984375 C 1.117188 -3.128906 0.914062 -3.304688 0.78125 -3.515625 C 0.644531 -3.734375 0.578125 -3.972656 0.578125 -4.234375 C 0.578125 -4.515625 0.65625 -4.78125 0.8125 -5.03125 C 0.976562 -5.28125 1.21875 -5.46875 1.53125 -5.59375 C 1.84375 -5.726562 2.191406 -5.796875 2.578125 -5.796875 C 3.003906 -5.796875 3.378906 -5.726562 3.703125 -5.59375 C 4.023438 -5.457031 4.269531 -5.253906 4.4375 -4.984375 C 4.613281 -4.722656 4.710938 -4.425781 4.734375 -4.09375 L 4 -4.046875 C 3.96875 -4.398438 3.835938 -4.671875 3.609375 -4.859375 C 3.378906 -5.046875 3.046875 -5.140625 2.609375 -5.140625 C 2.160156 -5.140625 1.828125 -5.054688 1.609375 -4.890625 C 1.398438 -4.722656 1.296875 -4.519531 1.296875 -4.28125 C 1.296875 -4.070312 1.375 -3.90625 1.53125 -3.78125 C 1.675781 -3.644531 2.050781 -3.503906 2.65625 -3.359375 C 3.269531 -3.222656 3.691406 -3.101562 3.921875 -3 C 4.253906 -2.851562 4.5 -2.660156 4.65625 -2.421875 C 4.820312 -2.179688 4.90625 -1.910156 4.90625 -1.609375 C 4.90625 -1.304688 4.816406 -1.019531 4.640625 -0.75 C 4.460938 -0.476562 4.210938 -0.269531 3.890625 -0.125 C 3.566406 0.0195312 3.203125 0.09375 2.796875 0.09375 C 2.273438 0.09375 1.835938 0.0195312 1.484375 -0.125 C 1.140625 -0.28125 0.867188 -0.507812 0.671875 -0.8125 C 0.472656 -1.113281 0.367188 -1.453125 0.359375 -1.828125 Z M 0.359375 -1.828125 "/>
</g>
<g id="glyph-1-11">
<path d="M 0.265625 -2.0625 C 0.265625 -2.832031 0.476562 -3.398438 0.90625 -3.765625 C 1.257812 -4.066406 1.691406 -4.21875 2.203125 -4.21875 C 2.765625 -4.21875 3.226562 -4.03125 3.59375 -3.65625 C 3.957031 -3.289062 4.140625 -2.78125 4.140625 -2.125 C 4.140625 -1.59375 4.054688 -1.171875 3.890625 -0.859375 C 3.734375 -0.554688 3.503906 -0.320312 3.203125 -0.15625 C 2.898438 0.0078125 2.566406 0.09375 2.203125 0.09375 C 1.617188 0.09375 1.148438 -0.0859375 0.796875 -0.453125 C 0.441406 -0.828125 0.265625 -1.363281 0.265625 -2.0625 Z M 0.984375 -2.0625 C 0.984375 -1.53125 1.097656 -1.132812 1.328125 -0.875 C 1.554688 -0.613281 1.847656 -0.484375 2.203125 -0.484375 C 2.546875 -0.484375 2.832031 -0.613281 3.0625 -0.875 C 3.300781 -1.144531 3.421875 -1.550781 3.421875 -2.09375 C 3.421875 -2.601562 3.300781 -2.988281 3.0625 -3.25 C 2.832031 -3.507812 2.546875 -3.640625 2.203125 -3.640625 C 1.847656 -3.640625 1.554688 -3.507812 1.328125 -3.25 C 1.097656 -2.988281 0.984375 -2.59375 0.984375 -2.0625 Z M 0.984375 -2.0625 "/>
</g>
<g id="glyph-1-12">
<path d="M 0.53125 0 L 0.53125 -5.703125 L 1.234375 -5.703125 L 1.234375 -2.453125 L 2.890625 -4.125 L 3.796875 -4.125 L 2.21875 -2.59375 L 3.953125 0 L 3.09375 0 L 1.71875 -2.109375 L 1.234375 -1.640625 L 1.234375 0 Z M 0.53125 0 "/>
</g>
<g id="glyph-1-13">
<path d="M 0.53125 0 L 0.53125 -4.125 L 1.15625 -4.125 L 1.15625 -3.546875 C 1.457031 -3.992188 1.894531 -4.21875 2.46875 -4.21875 C 2.71875 -4.21875 2.945312 -4.171875 3.15625 -4.078125 C 3.363281 -3.992188 3.519531 -3.878906 3.625 -3.734375 C 3.726562 -3.585938 3.800781 -3.414062 3.84375 -3.21875 C 3.875 -3.09375 3.890625 -2.867188 3.890625 -2.546875 L 3.890625 0 L 3.1875 0 L 3.1875 -2.515625 C 3.1875 -2.796875 3.15625 -3.003906 3.09375 -3.140625 C 3.039062 -3.285156 2.945312 -3.398438 2.8125 -3.484375 C 2.675781 -3.578125 2.515625 -3.625 2.328125 -3.625 C 2.023438 -3.625 1.765625 -3.523438 1.546875 -3.328125 C 1.328125 -3.140625 1.21875 -2.78125 1.21875 -2.25 L 1.21875 0 Z M 0.53125 0 "/>
</g>
<g id="glyph-1-14">
<path d="M 3.203125 0 L 3.203125 -0.515625 C 2.941406 -0.109375 2.554688 0.09375 2.046875 0.09375 C 1.722656 0.09375 1.421875 0.00390625 1.140625 -0.171875 C 0.867188 -0.359375 0.65625 -0.613281 0.5 -0.9375 C 0.34375 -1.257812 0.265625 -1.632812 0.265625 -2.0625 C 0.265625 -2.476562 0.332031 -2.851562 0.46875 -3.1875 C 0.613281 -3.519531 0.820312 -3.773438 1.09375 -3.953125 C 1.375 -4.128906 1.679688 -4.21875 2.015625 -4.21875 C 2.265625 -4.21875 2.488281 -4.164062 2.6875 -4.0625 C 2.882812 -3.957031 3.039062 -3.820312 3.15625 -3.65625 L 3.15625 -5.703125 L 3.859375 -5.703125 L 3.859375 0 Z M 1 -2.0625 C 1 -1.53125 1.109375 -1.132812 1.328125 -0.875 C 1.546875 -0.613281 1.804688 -0.484375 2.109375 -0.484375 C 2.421875 -0.484375 2.679688 -0.609375 2.890625 -0.859375 C 3.109375 -1.109375 3.21875 -1.488281 3.21875 -2 C 3.21875 -2.570312 3.109375 -2.988281 2.890625 -3.25 C 2.671875 -3.507812 2.398438 -3.640625 2.078125 -3.640625 C 1.773438 -3.640625 1.519531 -3.515625 1.3125 -3.265625 C 1.101562 -3.015625 1 -2.613281 1 -2.0625 Z M 1 -2.0625 "/>
</g>
<g id="glyph-1-15">
<path d="M 0.53125 1.578125 L 0.53125 -4.125 L 1.15625 -4.125 L 1.15625 -3.59375 C 1.3125 -3.800781 1.484375 -3.957031 1.671875 -4.0625 C 1.859375 -4.164062 2.085938 -4.21875 2.359375 -4.21875 C 2.710938 -4.21875 3.023438 -4.128906 3.296875 -3.953125 C 3.566406 -3.773438 3.769531 -3.519531 3.90625 -3.1875 C 4.039062 -2.851562 4.109375 -2.488281 4.109375 -2.09375 C 4.109375 -1.675781 4.03125 -1.296875 3.875 -0.953125 C 3.726562 -0.617188 3.507812 -0.359375 3.21875 -0.171875 C 2.9375 0.00390625 2.632812 0.09375 2.3125 0.09375 C 2.082031 0.09375 1.875 0.0429688 1.6875 -0.046875 C 1.5 -0.148438 1.34375 -0.273438 1.21875 -0.421875 L 1.21875 1.578125 Z M 1.15625 -2.046875 C 1.15625 -1.515625 1.265625 -1.117188 1.484375 -0.859375 C 1.703125 -0.609375 1.960938 -0.484375 2.265625 -0.484375 C 2.578125 -0.484375 2.84375 -0.613281 3.0625 -0.875 C 3.28125 -1.132812 3.390625 -1.539062 3.390625 -2.09375 C 3.390625 -2.625 3.28125 -3.019531 3.0625 -3.28125 C 2.851562 -3.539062 2.597656 -3.671875 2.296875 -3.671875 C 1.992188 -3.671875 1.726562 -3.53125 1.5 -3.25 C 1.269531 -2.976562 1.15625 -2.578125 1.15625 -2.046875 Z M 1.15625 -2.046875 "/>
</g>
<g id="glyph-1-16">
<path d="M 0.6875 0 L 0.6875 -3.59375 L 0.078125 -3.59375 L 0.078125 -4.125 L 0.6875 -4.125 L 0.6875 -4.578125 C 0.6875 -4.847656 0.710938 -5.050781 0.765625 -5.1875 C 0.835938 -5.375 0.957031 -5.519531 1.125 -5.625 C 1.289062 -5.738281 1.53125 -5.796875 1.84375 -5.796875 C 2.03125 -5.796875 2.242188 -5.773438 2.484375 -5.734375 L 2.390625 -5.125 C 2.242188 -5.144531 2.101562 -5.15625 1.96875 -5.15625 C 1.757812 -5.15625 1.609375 -5.109375 1.515625 -5.015625 C 1.429688 -4.929688 1.390625 -4.765625 1.390625 -4.515625 L 1.390625 -4.125 L 2.1875 -4.125 L 2.1875 -3.59375 L 1.390625 -3.59375 L 1.390625 0 Z M 0.6875 0 "/>
</g>
<g id="glyph-1-17">
<path d="M 0.515625 0 L 0.515625 -5.703125 L 1.203125 -5.703125 L 1.203125 0 Z M 0.515625 0 "/>
</g>
<g id="glyph-1-18">
<path d="M 0.390625 -2.78125 C 0.390625 -3.726562 0.640625 -4.46875 1.140625 -5 C 1.648438 -5.539062 2.304688 -5.8125 3.109375 -5.8125 C 3.640625 -5.8125 4.113281 -5.679688 4.53125 -5.421875 C 4.957031 -5.171875 5.28125 -4.820312 5.5 -4.375 C 5.726562 -3.925781 5.84375 -3.414062 5.84375 -2.84375 C 5.84375 -2.269531 5.722656 -1.753906 5.484375 -1.296875 C 5.253906 -0.835938 4.925781 -0.488281 4.5 -0.25 C 4.070312 -0.0195312 3.609375 0.09375 3.109375 0.09375 C 2.578125 0.09375 2.097656 -0.0351562 1.671875 -0.296875 C 1.242188 -0.554688 0.921875 -0.910156 0.703125 -1.359375 C 0.492188 -1.804688 0.390625 -2.28125 0.390625 -2.78125 Z M 1.15625 -2.765625 C 1.15625 -2.078125 1.335938 -1.535156 1.703125 -1.140625 C 2.078125 -0.742188 2.546875 -0.546875 3.109375 -0.546875 C 3.679688 -0.546875 4.148438 -0.742188 4.515625 -1.140625 C 4.878906 -1.546875 5.0625 -2.113281 5.0625 -2.84375 C 5.0625 -3.3125 4.984375 -3.71875 4.828125 -4.0625 C 4.671875 -4.40625 4.441406 -4.671875 4.140625 -4.859375 C 3.835938 -5.054688 3.5 -5.15625 3.125 -5.15625 C 2.582031 -5.15625 2.117188 -4.96875 1.734375 -4.59375 C 1.347656 -4.226562 1.15625 -3.617188 1.15625 -2.765625 Z M 1.15625 -2.765625 "/>
</g>
<g id="glyph-1-19">
<path d="M 0.53125 0 L 0.53125 -5.703125 L 1.21875 -5.703125 L 1.21875 -3.65625 C 1.550781 -4.03125 1.96875 -4.21875 2.46875 -4.21875 C 2.769531 -4.21875 3.03125 -4.15625 3.25 -4.03125 C 3.476562 -3.914062 3.640625 -3.75 3.734375 -3.53125 C 3.835938 -3.320312 3.890625 -3.019531 3.890625 -2.625 L 3.890625 0 L 3.1875 0 L 3.1875 -2.625 C 3.1875 -2.96875 3.109375 -3.21875 2.953125 -3.375 C 2.804688 -3.539062 2.59375 -3.625 2.3125 -3.625 C 2.101562 -3.625 1.90625 -3.566406 1.71875 -3.453125 C 1.539062 -3.347656 1.410156 -3.203125 1.328125 -3.015625 C 1.253906 -2.835938 1.21875 -2.585938 1.21875 -2.265625 L 1.21875 0 Z M 0.53125 0 "/>
</g>
<g id="glyph-1-20">
<path d="M 1.671875 0 L 0.09375 -4.125 L 0.84375 -4.125 L 1.734375 -1.65625 C 1.828125 -1.382812 1.914062 -1.109375 2 -0.828125 C 2.050781 -1.046875 2.132812 -1.304688 2.25 -1.609375 L 3.171875 -4.125 L 3.890625 -4.125 L 2.328125 0 Z M 1.671875 0 "/>
</g>
<g id="glyph-1-21">
<path d="M 0.65625 0 L 0.65625 -5.703125 L 4.5 -5.703125 L 4.5 -5.03125 L 1.40625 -5.03125 L 1.40625 -3.265625 L 4.078125 -3.265625 L 4.078125 -2.59375 L 1.40625 -2.59375 L 1.40625 0 Z M 0.65625 0 "/>
</g>
<g id="glyph-1-22">
<path d="M 0.25 -1.71875 L 0.25 -2.421875 L 2.40625 -2.421875 L 2.40625 -1.71875 Z M 0.25 -1.71875 "/>
</g>
<g id="glyph-1-23">
<path d="M 0.53125 0 L 0.53125 -4.125 L 1.15625 -4.125 L 1.15625 -3.546875 C 1.28125 -3.753906 1.453125 -3.914062 1.671875 -4.03125 C 1.890625 -4.15625 2.132812 -4.21875 2.40625 -4.21875 C 2.707031 -4.21875 2.957031 -4.15625 3.15625 -4.03125 C 3.351562 -3.90625 3.492188 -3.726562 3.578125 -3.5 C 3.898438 -3.976562 4.320312 -4.21875 4.84375 -4.21875 C 5.257812 -4.21875 5.578125 -4.101562 5.796875 -3.875 C 6.015625 -3.65625 6.125 -3.3125 6.125 -2.84375 L 6.125 0 L 5.421875 0 L 5.421875 -2.609375 C 5.421875 -2.878906 5.398438 -3.078125 5.359375 -3.203125 C 5.316406 -3.328125 5.234375 -3.425781 5.109375 -3.5 C 4.992188 -3.582031 4.851562 -3.625 4.6875 -3.625 C 4.394531 -3.625 4.15625 -3.523438 3.96875 -3.328125 C 3.78125 -3.128906 3.6875 -2.820312 3.6875 -2.40625 L 3.6875 0 L 2.984375 0 L 2.984375 -2.6875 C 2.984375 -3 2.925781 -3.234375 2.8125 -3.390625 C 2.695312 -3.546875 2.507812 -3.625 2.25 -3.625 C 2.050781 -3.625 1.867188 -3.570312 1.703125 -3.46875 C 1.535156 -3.363281 1.410156 -3.207031 1.328125 -3 C 1.253906 -2.800781 1.21875 -2.515625 1.21875 -2.140625 L 1.21875 0 Z M 0.53125 0 "/>
</g>
<g id="glyph-1-24">
<path d="M 0.390625 0.34375 L 1.078125 0.4375 C 1.109375 0.65625 1.1875 0.8125 1.3125 0.90625 C 1.488281 1.03125 1.726562 1.09375 2.03125 1.09375 C 2.351562 1.09375 2.601562 1.023438 2.78125 0.890625 C 2.957031 0.765625 3.078125 0.585938 3.140625 0.359375 C 3.171875 0.210938 3.1875 -0.0859375 3.1875 -0.546875 C 2.882812 -0.179688 2.503906 0 2.046875 0 C 1.472656 0 1.03125 -0.203125 0.71875 -0.609375 C 0.40625 -1.023438 0.25 -1.519531 0.25 -2.09375 C 0.25 -2.488281 0.320312 -2.851562 0.46875 -3.1875 C 0.613281 -3.519531 0.820312 -3.773438 1.09375 -3.953125 C 1.363281 -4.128906 1.679688 -4.21875 2.046875 -4.21875 C 2.535156 -4.21875 2.9375 -4.023438 3.25 -3.640625 L 3.25 -4.125 L 3.90625 -4.125 L 3.90625 -0.5625 C 3.90625 0.0820312 3.835938 0.535156 3.703125 0.796875 C 3.566406 1.066406 3.359375 1.28125 3.078125 1.4375 C 2.796875 1.59375 2.445312 1.671875 2.03125 1.671875 C 1.539062 1.671875 1.140625 1.5625 0.828125 1.34375 C 0.523438 1.125 0.378906 0.789062 0.390625 0.34375 Z M 0.984375 -2.140625 C 0.984375 -1.597656 1.085938 -1.203125 1.296875 -0.953125 C 1.515625 -0.703125 1.785156 -0.578125 2.109375 -0.578125 C 2.429688 -0.578125 2.703125 -0.703125 2.921875 -0.953125 C 3.140625 -1.203125 3.25 -1.585938 3.25 -2.109375 C 3.25 -2.617188 3.132812 -3 2.90625 -3.25 C 2.6875 -3.507812 2.414062 -3.640625 2.09375 -3.640625 C 1.78125 -3.640625 1.515625 -3.515625 1.296875 -3.265625 C 1.085938 -3.015625 0.984375 -2.640625 0.984375 -2.140625 Z M 0.984375 -2.140625 "/>
</g>
<g id="glyph-1-25">
<path d="M 1.28125 0 L 0.015625 -4.125 L 0.75 -4.125 L 1.40625 -1.75 L 1.65625 -0.859375 C 1.664062 -0.898438 1.734375 -1.1875 1.859375 -1.71875 L 2.515625 -4.125 L 3.234375 -4.125 L 3.859375 -1.734375 L 4.0625 -0.953125 L 4.296875 -1.75 L 5.015625 -4.125 L 5.6875 -4.125 L 4.40625 0 L 3.671875 0 L 3.015625 -2.46875 L 2.859375 -3.171875 L 2.015625 0 Z M 1.28125 0 "/>
</g>
<g id="glyph-1-26">
<path d="M 2.96875 0 L 2.265625 0 L 2.265625 -4.46875 C 2.097656 -4.300781 1.875 -4.132812 1.59375 -3.96875 C 1.320312 -3.8125 1.082031 -3.695312 0.875 -3.625 L 0.875 -4.296875 C 1.257812 -4.484375 1.597656 -4.707031 1.890625 -4.96875 C 2.179688 -5.226562 2.390625 -5.484375 2.515625 -5.734375 L 2.96875 -5.734375 Z M 2.96875 0 "/>
</g>
<g id="glyph-1-27">
<path d="M -0.015625 -1.78125 L -0.015625 -2.34375 L 4.421875 -2.34375 L 4.421875 -1.78125 Z M -0.015625 -1.78125 "/>
</g>
<g id="glyph-1-28">
<path d="M 4.015625 -0.671875 L 4.015625 0 L 0.234375 0 C 0.234375 -0.164062 0.265625 -0.328125 0.328125 -0.484375 C 0.421875 -0.742188 0.570312 -1 0.78125 -1.25 C 0.988281 -1.5 1.296875 -1.785156 1.703125 -2.109375 C 2.316406 -2.617188 2.734375 -3.019531 2.953125 -3.3125 C 3.171875 -3.613281 3.28125 -3.894531 3.28125 -4.15625 C 3.28125 -4.4375 3.179688 -4.671875 2.984375 -4.859375 C 2.785156 -5.046875 2.523438 -5.140625 2.203125 -5.140625 C 1.867188 -5.140625 1.597656 -5.039062 1.390625 -4.84375 C 1.191406 -4.644531 1.09375 -4.363281 1.09375 -4 L 0.375 -4.078125 C 0.425781 -4.617188 0.609375 -5.03125 0.921875 -5.3125 C 1.242188 -5.59375 1.675781 -5.734375 2.21875 -5.734375 C 2.769531 -5.734375 3.203125 -5.578125 3.515625 -5.265625 C 3.835938 -4.960938 4 -4.585938 4 -4.140625 C 4 -3.910156 3.953125 -3.6875 3.859375 -3.46875 C 3.765625 -3.25 3.609375 -3.015625 3.390625 -2.765625 C 3.179688 -2.523438 2.820312 -2.191406 2.3125 -1.765625 C 1.894531 -1.410156 1.625 -1.171875 1.5 -1.046875 C 1.382812 -0.921875 1.289062 -0.796875 1.21875 -0.671875 Z M 4.015625 -0.671875 "/>
</g>
<g id="glyph-1-29">
<path d="M 0.328125 -1.5 L 1.03125 -1.59375 C 1.113281 -1.195312 1.25 -0.910156 1.4375 -0.734375 C 1.632812 -0.566406 1.875 -0.484375 2.15625 -0.484375 C 2.476562 -0.484375 2.753906 -0.59375 2.984375 -0.8125 C 3.210938 -1.039062 3.328125 -1.328125 3.328125 -1.671875 C 3.328125 -1.992188 3.222656 -2.257812 3.015625 -2.46875 C 2.804688 -2.675781 2.535156 -2.78125 2.203125 -2.78125 C 2.078125 -2.78125 1.914062 -2.753906 1.71875 -2.703125 L 1.796875 -3.3125 C 1.835938 -3.3125 1.875 -3.3125 1.90625 -3.3125 C 2.207031 -3.3125 2.472656 -3.390625 2.703125 -3.546875 C 2.941406 -3.703125 3.0625 -3.941406 3.0625 -4.265625 C 3.0625 -4.515625 2.972656 -4.722656 2.796875 -4.890625 C 2.628906 -5.066406 2.410156 -5.15625 2.140625 -5.15625 C 1.867188 -5.15625 1.640625 -5.066406 1.453125 -4.890625 C 1.273438 -4.722656 1.160156 -4.46875 1.109375 -4.125 L 0.40625 -4.25 C 0.488281 -4.71875 0.679688 -5.082031 0.984375 -5.34375 C 1.285156 -5.601562 1.664062 -5.734375 2.125 -5.734375 C 2.4375 -5.734375 2.722656 -5.664062 2.984375 -5.53125 C 3.242188 -5.394531 3.441406 -5.210938 3.578125 -4.984375 C 3.722656 -4.753906 3.796875 -4.507812 3.796875 -4.25 C 3.796875 -4 3.726562 -3.769531 3.59375 -3.5625 C 3.457031 -3.363281 3.257812 -3.207031 3 -3.09375 C 3.34375 -3.007812 3.601562 -2.84375 3.78125 -2.59375 C 3.96875 -2.351562 4.0625 -2.050781 4.0625 -1.6875 C 4.0625 -1.1875 3.878906 -0.765625 3.515625 -0.421875 C 3.160156 -0.078125 2.703125 0.09375 2.140625 0.09375 C 1.640625 0.09375 1.222656 -0.0507812 0.890625 -0.34375 C 0.566406 -0.644531 0.378906 -1.03125 0.328125 -1.5 Z M 0.328125 -1.5 "/>
</g>
<g id="glyph-1-30">
<path d="M 0.375 -4.953125 L 0.375 -5.625 L 4.0625 -5.625 L 4.0625 -5.078125 C 3.707031 -4.691406 3.347656 -4.175781 2.984375 -3.53125 C 2.628906 -2.894531 2.351562 -2.238281 2.15625 -1.5625 C 2.019531 -1.09375 1.929688 -0.570312 1.890625 0 L 1.171875 0 C 1.179688 -0.445312 1.269531 -0.988281 1.4375 -1.625 C 1.601562 -2.257812 1.84375 -2.867188 2.15625 -3.453125 C 2.476562 -4.046875 2.816406 -4.546875 3.171875 -4.953125 Z M 0.375 -4.953125 "/>
</g>
<g id="glyph-1-31">
<path d="M 1.40625 -3.09375 C 1.113281 -3.195312 0.894531 -3.347656 0.75 -3.546875 C 0.613281 -3.742188 0.546875 -3.976562 0.546875 -4.25 C 0.546875 -4.664062 0.695312 -5.015625 1 -5.296875 C 1.300781 -5.585938 1.695312 -5.734375 2.1875 -5.734375 C 2.6875 -5.734375 3.085938 -5.585938 3.390625 -5.296875 C 3.691406 -5.003906 3.84375 -4.648438 3.84375 -4.234375 C 3.84375 -3.972656 3.773438 -3.742188 3.640625 -3.546875 C 3.503906 -3.347656 3.289062 -3.195312 3 -3.09375 C 3.351562 -2.976562 3.617188 -2.789062 3.796875 -2.53125 C 3.984375 -2.28125 4.078125 -1.976562 4.078125 -1.625 C 4.078125 -1.144531 3.90625 -0.738281 3.5625 -0.40625 C 3.21875 -0.0703125 2.765625 0.09375 2.203125 0.09375 C 1.640625 0.09375 1.1875 -0.0703125 0.84375 -0.40625 C 0.5 -0.738281 0.328125 -1.15625 0.328125 -1.65625 C 0.328125 -2.019531 0.421875 -2.328125 0.609375 -2.578125 C 0.796875 -2.828125 1.0625 -3 1.40625 -3.09375 Z M 1.265625 -4.28125 C 1.265625 -4.007812 1.351562 -3.785156 1.53125 -3.609375 C 1.707031 -3.441406 1.929688 -3.359375 2.203125 -3.359375 C 2.472656 -3.359375 2.691406 -3.441406 2.859375 -3.609375 C 3.035156 -3.785156 3.125 -3.992188 3.125 -4.234375 C 3.125 -4.492188 3.035156 -4.710938 2.859375 -4.890625 C 2.679688 -5.066406 2.460938 -5.15625 2.203125 -5.15625 C 1.929688 -5.15625 1.707031 -5.066406 1.53125 -4.890625 C 1.351562 -4.722656 1.265625 -4.519531 1.265625 -4.28125 Z M 1.046875 -1.640625 C 1.046875 -1.441406 1.09375 -1.25 1.1875 -1.0625 C 1.28125 -0.875 1.421875 -0.726562 1.609375 -0.625 C 1.796875 -0.53125 1.992188 -0.484375 2.203125 -0.484375 C 2.546875 -0.484375 2.820312 -0.585938 3.03125 -0.796875 C 3.25 -1.015625 3.359375 -1.289062 3.359375 -1.625 C 3.359375 -1.957031 3.242188 -2.234375 3.015625 -2.453125 C 2.796875 -2.679688 2.519531 -2.796875 2.1875 -2.796875 C 1.851562 -2.796875 1.578125 -2.6875 1.359375 -2.46875 C 1.148438 -2.25 1.046875 -1.972656 1.046875 -1.640625 Z M 1.046875 -1.640625 "/>
</g>
<g id="glyph-1-32">
<path d="M 0.328125 -1.5 L 1.0625 -1.5625 C 1.113281 -1.195312 1.238281 -0.925781 1.4375 -0.75 C 1.644531 -0.570312 1.882812 -0.484375 2.15625 -0.484375 C 2.5 -0.484375 2.785156 -0.609375 3.015625 -0.859375 C 3.253906 -1.109375 3.375 -1.445312 3.375 -1.875 C 3.375 -2.269531 3.257812 -2.582031 3.03125 -2.8125 C 2.8125 -3.039062 2.519531 -3.15625 2.15625 -3.15625 C 1.925781 -3.15625 1.71875 -3.101562 1.53125 -3 C 1.351562 -2.90625 1.210938 -2.773438 1.109375 -2.609375 L 0.453125 -2.703125 L 1 -5.625 L 3.84375 -5.625 L 3.84375 -4.953125 L 1.5625 -4.953125 L 1.265625 -3.421875 C 1.609375 -3.660156 1.96875 -3.78125 2.34375 -3.78125 C 2.832031 -3.78125 3.25 -3.609375 3.59375 -3.265625 C 3.9375 -2.921875 4.109375 -2.476562 4.109375 -1.9375 C 4.109375 -1.414062 3.957031 -0.96875 3.65625 -0.59375 C 3.289062 -0.132812 2.789062 0.09375 2.15625 0.09375 C 1.644531 0.09375 1.222656 -0.0507812 0.890625 -0.34375 C 0.566406 -0.632812 0.378906 -1.019531 0.328125 -1.5 Z M 0.328125 -1.5 "/>
</g>
<g id="glyph-2-0">
<path d="M 1.453125 0 L 0.03125 -4.65625 L 0.84375 -4.65625 L 1.578125 -1.96875 L 1.859375 -0.96875 C 1.867188 -1.019531 1.945312 -1.335938 2.09375 -1.921875 L 2.84375 -4.65625 L 3.640625 -4.65625 L 4.34375 -1.953125 L 4.578125 -1.0625 L 4.84375 -1.96875 L 5.640625 -4.65625 L 6.40625 -4.65625 L 4.953125 0 L 4.140625 0 L 3.390625 -2.78125 L 3.21875 -3.578125 L 2.265625 0 Z M 1.453125 0 "/>
</g>
<g id="glyph-2-1">
<path d="M 3.78125 -1.5 L 4.59375 -1.390625 C 4.457031 -0.921875 4.21875 -0.550781 3.875 -0.28125 C 3.53125 -0.0195312 3.085938 0.109375 2.546875 0.109375 C 1.867188 0.109375 1.328125 -0.0976562 0.921875 -0.515625 C 0.523438 -0.941406 0.328125 -1.53125 0.328125 -2.28125 C 0.328125 -3.0625 0.523438 -3.664062 0.921875 -4.09375 C 1.328125 -4.53125 1.851562 -4.75 2.5 -4.75 C 3.125 -4.75 3.628906 -4.535156 4.015625 -4.109375 C 4.410156 -3.691406 4.609375 -3.097656 4.609375 -2.328125 C 4.609375 -2.285156 4.609375 -2.21875 4.609375 -2.125 L 1.140625 -2.125 C 1.171875 -1.613281 1.316406 -1.222656 1.578125 -0.953125 C 1.835938 -0.679688 2.160156 -0.546875 2.546875 -0.546875 C 2.835938 -0.546875 3.082031 -0.617188 3.28125 -0.765625 C 3.488281 -0.921875 3.65625 -1.164062 3.78125 -1.5 Z M 1.1875 -2.765625 L 3.78125 -2.765625 C 3.75 -3.160156 3.648438 -3.457031 3.484375 -3.65625 C 3.234375 -3.957031 2.910156 -4.109375 2.515625 -4.109375 C 2.148438 -4.109375 1.84375 -3.984375 1.59375 -3.734375 C 1.34375 -3.492188 1.207031 -3.171875 1.1875 -2.765625 Z M 1.1875 -2.765625 "/>
</g>
<g id="glyph-2-2">
<path d="M 0.59375 0 L 0.59375 -6.421875 L 1.390625 -6.421875 L 1.390625 -2.765625 L 3.25 -4.65625 L 4.265625 -4.65625 L 2.484375 -2.921875 L 4.453125 0 L 3.484375 0 L 1.9375 -2.375 L 1.390625 -1.84375 L 1.390625 0 Z M 0.59375 0 "/>
</g>
<g id="glyph-2-3">
<path d="M 0.28125 -1.390625 L 1.0625 -1.515625 C 1.101562 -1.203125 1.222656 -0.960938 1.421875 -0.796875 C 1.617188 -0.628906 1.898438 -0.546875 2.265625 -0.546875 C 2.617188 -0.546875 2.882812 -0.617188 3.0625 -0.765625 C 3.238281 -0.910156 3.328125 -1.082031 3.328125 -1.28125 C 3.328125 -1.457031 3.25 -1.597656 3.09375 -1.703125 C 2.988281 -1.773438 2.722656 -1.863281 2.296875 -1.96875 C 1.710938 -2.113281 1.304688 -2.238281 1.078125 -2.34375 C 0.859375 -2.457031 0.691406 -2.609375 0.578125 -2.796875 C 0.460938 -2.984375 0.40625 -3.191406 0.40625 -3.421875 C 0.40625 -3.628906 0.453125 -3.816406 0.546875 -3.984375 C 0.640625 -4.160156 0.769531 -4.3125 0.9375 -4.4375 C 1.0625 -4.519531 1.226562 -4.59375 1.4375 -4.65625 C 1.644531 -4.71875 1.875 -4.75 2.125 -4.75 C 2.488281 -4.75 2.804688 -4.695312 3.078125 -4.59375 C 3.359375 -4.488281 3.5625 -4.347656 3.6875 -4.171875 C 3.820312 -3.992188 3.914062 -3.753906 3.96875 -3.453125 L 3.1875 -3.34375 C 3.15625 -3.582031 3.054688 -3.769531 2.890625 -3.90625 C 2.722656 -4.039062 2.484375 -4.109375 2.171875 -4.109375 C 1.816406 -4.109375 1.5625 -4.046875 1.40625 -3.921875 C 1.25 -3.804688 1.171875 -3.664062 1.171875 -3.5 C 1.171875 -3.40625 1.203125 -3.316406 1.265625 -3.234375 C 1.328125 -3.148438 1.425781 -3.078125 1.5625 -3.015625 C 1.644531 -2.992188 1.878906 -2.925781 2.265625 -2.8125 C 2.816406 -2.664062 3.203125 -2.546875 3.421875 -2.453125 C 3.648438 -2.359375 3.828125 -2.21875 3.953125 -2.03125 C 4.078125 -1.851562 4.140625 -1.628906 4.140625 -1.359375 C 4.140625 -1.097656 4.0625 -0.851562 3.90625 -0.625 C 3.75 -0.394531 3.523438 -0.210938 3.234375 -0.078125 C 2.953125 0.0429688 2.628906 0.109375 2.265625 0.109375 C 1.660156 0.109375 1.195312 -0.015625 0.875 -0.265625 C 0.5625 -0.515625 0.363281 -0.890625 0.28125 -1.390625 Z M 0.28125 -1.390625 "/>
</g>
<g id="glyph-2-4">
<path d="M 3.625 -1.703125 L 4.40625 -1.609375 C 4.320312 -1.066406 4.101562 -0.644531 3.75 -0.34375 C 3.40625 -0.0390625 2.976562 0.109375 2.46875 0.109375 C 1.832031 0.109375 1.316406 -0.0976562 0.921875 -0.515625 C 0.535156 -0.929688 0.34375 -1.53125 0.34375 -2.3125 C 0.34375 -2.8125 0.425781 -3.25 0.59375 -3.625 C 0.757812 -4 1.015625 -4.28125 1.359375 -4.46875 C 1.703125 -4.65625 2.070312 -4.75 2.46875 -4.75 C 2.976562 -4.75 3.390625 -4.617188 3.703125 -4.359375 C 4.023438 -4.109375 4.234375 -3.75 4.328125 -3.28125 L 3.5625 -3.171875 C 3.488281 -3.484375 3.359375 -3.71875 3.171875 -3.875 C 2.984375 -4.03125 2.757812 -4.109375 2.5 -4.109375 C 2.101562 -4.109375 1.78125 -3.960938 1.53125 -3.671875 C 1.28125 -3.390625 1.15625 -2.941406 1.15625 -2.328125 C 1.15625 -1.703125 1.273438 -1.25 1.515625 -0.96875 C 1.753906 -0.6875 2.066406 -0.546875 2.453125 -0.546875 C 2.765625 -0.546875 3.023438 -0.640625 3.234375 -0.828125 C 3.441406 -1.015625 3.570312 -1.304688 3.625 -1.703125 Z M 3.625 -1.703125 "/>
</g>
<g id="glyph-2-5">
<path d="M 0.296875 -2.328125 C 0.296875 -3.191406 0.535156 -3.828125 1.015625 -4.234375 C 1.410156 -4.578125 1.898438 -4.75 2.484375 -4.75 C 3.117188 -4.75 3.640625 -4.539062 4.046875 -4.125 C 4.453125 -3.707031 4.65625 -3.128906 4.65625 -2.390625 C 4.65625 -1.796875 4.5625 -1.328125 4.375 -0.984375 C 4.195312 -0.640625 3.9375 -0.367188 3.59375 -0.171875 C 3.257812 0.0117188 2.890625 0.109375 2.484375 0.109375 C 1.828125 0.109375 1.296875 -0.0976562 0.890625 -0.515625 C 0.492188 -0.929688 0.296875 -1.535156 0.296875 -2.328125 Z M 1.109375 -2.328125 C 1.109375 -1.734375 1.238281 -1.285156 1.5 -0.984375 C 1.757812 -0.691406 2.085938 -0.546875 2.484375 -0.546875 C 2.867188 -0.546875 3.191406 -0.691406 3.453125 -0.984375 C 3.710938 -1.285156 3.84375 -1.742188 3.84375 -2.359375 C 3.84375 -2.929688 3.710938 -3.363281 3.453125 -3.65625 C 3.191406 -3.957031 2.867188 -4.109375 2.484375 -4.109375 C 2.085938 -4.109375 1.757812 -3.957031 1.5 -3.65625 C 1.238281 -3.363281 1.109375 -2.921875 1.109375 -2.328125 Z M 1.109375 -2.328125 "/>
</g>
<g id="glyph-2-6">
<path d="M 0.59375 0 L 0.59375 -4.65625 L 1.296875 -4.65625 L 1.296875 -4 C 1.441406 -4.226562 1.632812 -4.410156 1.875 -4.546875 C 2.125 -4.679688 2.398438 -4.75 2.703125 -4.75 C 3.046875 -4.75 3.328125 -4.675781 3.546875 -4.53125 C 3.773438 -4.394531 3.929688 -4.195312 4.015625 -3.9375 C 4.390625 -4.476562 4.867188 -4.75 5.453125 -4.75 C 5.921875 -4.75 6.273438 -4.617188 6.515625 -4.359375 C 6.765625 -4.109375 6.890625 -3.71875 6.890625 -3.1875 L 6.890625 0 L 6.109375 0 L 6.109375 -2.9375 C 6.109375 -3.25 6.082031 -3.472656 6.03125 -3.609375 C 5.976562 -3.742188 5.882812 -3.851562 5.75 -3.9375 C 5.613281 -4.03125 5.457031 -4.078125 5.28125 -4.078125 C 4.957031 -4.078125 4.6875 -3.96875 4.46875 -3.75 C 4.25 -3.53125 4.140625 -3.179688 4.140625 -2.703125 L 4.140625 0 L 3.359375 0 L 3.359375 -3.015625 C 3.359375 -3.367188 3.289062 -3.632812 3.15625 -3.8125 C 3.03125 -3.988281 2.820312 -4.078125 2.53125 -4.078125 C 2.3125 -4.078125 2.109375 -4.015625 1.921875 -3.890625 C 1.734375 -3.773438 1.59375 -3.601562 1.5 -3.375 C 1.414062 -3.15625 1.375 -2.832031 1.375 -2.40625 L 1.375 0 Z M 0.59375 0 "/>
</g>
<g id="glyph-2-7">
<path d="M 0.59375 1.78125 L 0.59375 -4.65625 L 1.3125 -4.65625 L 1.3125 -4.046875 C 1.476562 -4.285156 1.664062 -4.460938 1.875 -4.578125 C 2.09375 -4.691406 2.351562 -4.75 2.65625 -4.75 C 3.050781 -4.75 3.398438 -4.644531 3.703125 -4.4375 C 4.015625 -4.238281 4.242188 -3.953125 4.390625 -3.578125 C 4.546875 -3.210938 4.625 -2.804688 4.625 -2.359375 C 4.625 -1.878906 4.535156 -1.445312 4.359375 -1.0625 C 4.191406 -0.6875 3.945312 -0.394531 3.625 -0.1875 C 3.300781 0.0078125 2.957031 0.109375 2.59375 0.109375 C 2.332031 0.109375 2.097656 0.0507812 1.890625 -0.0625 C 1.679688 -0.175781 1.507812 -0.316406 1.375 -0.484375 L 1.375 1.78125 Z M 1.3125 -2.296875 C 1.3125 -1.703125 1.429688 -1.257812 1.671875 -0.96875 C 1.910156 -0.6875 2.203125 -0.546875 2.546875 -0.546875 C 2.898438 -0.546875 3.203125 -0.691406 3.453125 -0.984375 C 3.703125 -1.285156 3.828125 -1.742188 3.828125 -2.359375 C 3.828125 -2.953125 3.703125 -3.394531 3.453125 -3.6875 C 3.210938 -3.988281 2.921875 -4.140625 2.578125 -4.140625 C 2.242188 -4.140625 1.945312 -3.984375 1.6875 -3.671875 C 1.4375 -3.359375 1.3125 -2.898438 1.3125 -2.296875 Z M 1.3125 -2.296875 "/>
</g>
<g id="glyph-2-8">
<path d="M 3.625 -0.578125 C 3.332031 -0.328125 3.050781 -0.148438 2.78125 -0.046875 C 2.507812 0.0546875 2.21875 0.109375 1.90625 0.109375 C 1.394531 0.109375 1.003906 -0.015625 0.734375 -0.265625 C 0.460938 -0.515625 0.328125 -0.832031 0.328125 -1.21875 C 0.328125 -1.445312 0.378906 -1.65625 0.484375 -1.84375 C 0.585938 -2.03125 0.722656 -2.179688 0.890625 -2.296875 C 1.054688 -2.410156 1.242188 -2.5 1.453125 -2.5625 C 1.609375 -2.601562 1.84375 -2.644531 2.15625 -2.6875 C 2.789062 -2.757812 3.257812 -2.847656 3.5625 -2.953125 C 3.5625 -3.054688 3.5625 -3.125 3.5625 -3.15625 C 3.5625 -3.476562 3.488281 -3.707031 3.34375 -3.84375 C 3.144531 -4.019531 2.84375 -4.109375 2.4375 -4.109375 C 2.070312 -4.109375 1.800781 -4.039062 1.625 -3.90625 C 1.445312 -3.78125 1.316406 -3.550781 1.234375 -3.21875 L 0.453125 -3.328125 C 0.523438 -3.648438 0.640625 -3.910156 0.796875 -4.109375 C 0.960938 -4.316406 1.195312 -4.472656 1.5 -4.578125 C 1.800781 -4.691406 2.15625 -4.75 2.5625 -4.75 C 2.957031 -4.75 3.273438 -4.703125 3.515625 -4.609375 C 3.765625 -4.515625 3.945312 -4.394531 4.0625 -4.25 C 4.1875 -4.113281 4.269531 -3.941406 4.3125 -3.734375 C 4.34375 -3.597656 4.359375 -3.351562 4.359375 -3 L 4.359375 -1.953125 C 4.359375 -1.210938 4.375 -0.742188 4.40625 -0.546875 C 4.4375 -0.359375 4.503906 -0.175781 4.609375 0 L 3.78125 0 C 3.695312 -0.164062 3.644531 -0.359375 3.625 -0.578125 Z M 3.5625 -2.328125 C 3.269531 -2.210938 2.835938 -2.113281 2.265625 -2.03125 C 1.941406 -1.988281 1.710938 -1.9375 1.578125 -1.875 C 1.453125 -1.820312 1.351562 -1.738281 1.28125 -1.625 C 1.207031 -1.507812 1.171875 -1.382812 1.171875 -1.25 C 1.171875 -1.039062 1.25 -0.863281 1.40625 -0.71875 C 1.5625 -0.582031 1.796875 -0.515625 2.109375 -0.515625 C 2.410156 -0.515625 2.675781 -0.578125 2.90625 -0.703125 C 3.144531 -0.835938 3.320312 -1.019531 3.4375 -1.25 C 3.519531 -1.4375 3.5625 -1.703125 3.5625 -2.046875 Z M 3.5625 -2.328125 "/>
</g>
<g id="glyph-2-9">
<path d="M 0.578125 0 L 0.578125 -4.65625 L 1.296875 -4.65625 L 1.296875 -3.953125 C 1.472656 -4.273438 1.632812 -4.488281 1.78125 -4.59375 C 1.9375 -4.695312 2.109375 -4.75 2.296875 -4.75 C 2.566406 -4.75 2.835938 -4.664062 3.109375 -4.5 L 2.84375 -3.765625 C 2.644531 -3.878906 2.453125 -3.9375 2.265625 -3.9375 C 2.085938 -3.9375 1.929688 -3.882812 1.796875 -3.78125 C 1.660156 -3.675781 1.5625 -3.535156 1.5 -3.359375 C 1.414062 -3.078125 1.375 -2.769531 1.375 -2.4375 L 1.375 0 Z M 0.578125 0 "/>
</g>
<g id="glyph-2-10">
<path d="M 0.5625 1.796875 L 0.46875 1.046875 C 0.644531 1.097656 0.796875 1.125 0.921875 1.125 C 1.097656 1.125 1.238281 1.09375 1.34375 1.03125 C 1.445312 0.976562 1.53125 0.894531 1.59375 0.78125 C 1.644531 0.707031 1.726562 0.515625 1.84375 0.203125 C 1.851562 0.160156 1.875 0.0976562 1.90625 0.015625 L 0.140625 -4.65625 L 1 -4.65625 L 1.96875 -1.953125 C 2.09375 -1.609375 2.203125 -1.25 2.296875 -0.875 C 2.390625 -1.238281 2.5 -1.59375 2.625 -1.9375 L 3.625 -4.65625 L 4.40625 -4.65625 L 2.640625 0.078125 C 2.453125 0.585938 2.300781 0.941406 2.1875 1.140625 C 2.050781 1.398438 1.890625 1.585938 1.703125 1.703125 C 1.523438 1.828125 1.3125 1.890625 1.0625 1.890625 C 0.914062 1.890625 0.75 1.859375 0.5625 1.796875 Z M 0.5625 1.796875 "/>
</g>
<g id="glyph-2-11">
<path d="M 0.59375 0 L 0.59375 -4.65625 L 1.296875 -4.65625 L 1.296875 -3.984375 C 1.640625 -4.492188 2.132812 -4.75 2.78125 -4.75 C 3.0625 -4.75 3.316406 -4.695312 3.546875 -4.59375 C 3.785156 -4.5 3.960938 -4.367188 4.078125 -4.203125 C 4.191406 -4.046875 4.273438 -3.851562 4.328125 -3.625 C 4.359375 -3.476562 4.375 -3.222656 4.375 -2.859375 L 4.375 0 L 3.578125 0 L 3.578125 -2.828125 C 3.578125 -3.148438 3.546875 -3.390625 3.484375 -3.546875 C 3.421875 -3.703125 3.3125 -3.828125 3.15625 -3.921875 C 3.007812 -4.023438 2.828125 -4.078125 2.609375 -4.078125 C 2.273438 -4.078125 1.984375 -3.96875 1.734375 -3.75 C 1.492188 -3.539062 1.375 -3.140625 1.375 -2.546875 L 1.375 0 Z M 0.59375 0 "/>
</g>
<g id="glyph-2-12">
<path d="M 2.3125 -0.703125 L 2.421875 -0.015625 C 2.203125 0.0351562 2.003906 0.0625 1.828125 0.0625 C 1.546875 0.0625 1.320312 0.0195312 1.15625 -0.0625 C 1 -0.15625 0.890625 -0.273438 0.828125 -0.421875 C 0.765625 -0.578125 0.734375 -0.890625 0.734375 -1.359375 L 0.734375 -4.03125 L 0.15625 -4.03125 L 0.15625 -4.65625 L 0.734375 -4.65625 L 0.734375 -5.796875 L 1.515625 -6.28125 L 1.515625 -4.65625 L 2.3125 -4.65625 L 2.3125 -4.03125 L 1.515625 -4.03125 L 1.515625 -1.3125 C 1.515625 -1.09375 1.53125 -0.945312 1.5625 -0.875 C 1.59375 -0.8125 1.640625 -0.757812 1.703125 -0.71875 C 1.765625 -0.6875 1.851562 -0.671875 1.96875 -0.671875 C 2.050781 -0.671875 2.164062 -0.679688 2.3125 -0.703125 Z M 2.3125 -0.703125 "/>
</g>
<g id="glyph-2-13">
<path d="M 3.609375 0 L 3.609375 -0.59375 C 3.316406 -0.125 2.882812 0.109375 2.3125 0.109375 C 1.9375 0.109375 1.59375 0.00390625 1.28125 -0.203125 C 0.96875 -0.410156 0.726562 -0.695312 0.5625 -1.0625 C 0.394531 -1.425781 0.3125 -1.847656 0.3125 -2.328125 C 0.3125 -2.785156 0.382812 -3.203125 0.53125 -3.578125 C 0.6875 -3.960938 0.921875 -4.253906 1.234375 -4.453125 C 1.546875 -4.648438 1.890625 -4.75 2.265625 -4.75 C 2.546875 -4.75 2.796875 -4.691406 3.015625 -4.578125 C 3.234375 -4.460938 3.414062 -4.304688 3.5625 -4.109375 L 3.5625 -6.421875 L 4.34375 -6.421875 L 4.34375 0 Z M 1.109375 -2.328125 C 1.109375 -1.722656 1.234375 -1.273438 1.484375 -0.984375 C 1.742188 -0.691406 2.039062 -0.546875 2.375 -0.546875 C 2.726562 -0.546875 3.023438 -0.6875 3.265625 -0.96875 C 3.503906 -1.25 3.625 -1.675781 3.625 -2.25 C 3.625 -2.882812 3.5 -3.351562 3.25 -3.65625 C 3.007812 -3.957031 2.707031 -4.109375 2.34375 -4.109375 C 2 -4.109375 1.707031 -3.960938 1.46875 -3.671875 C 1.226562 -3.390625 1.109375 -2.941406 1.109375 -2.328125 Z M 1.109375 -2.328125 "/>
</g>
<g id="glyph-2-14">
<path d="M 1.3125 0 L 0.59375 0 L 0.59375 -6.421875 L 1.375 -6.421875 L 1.375 -4.125 C 1.707031 -4.539062 2.132812 -4.75 2.65625 -4.75 C 2.9375 -4.75 3.203125 -4.691406 3.453125 -4.578125 C 3.710938 -4.460938 3.925781 -4.300781 4.09375 -4.09375 C 4.257812 -3.882812 4.390625 -3.632812 4.484375 -3.34375 C 4.578125 -3.050781 4.625 -2.734375 4.625 -2.390625 C 4.625 -1.597656 4.425781 -0.984375 4.03125 -0.546875 C 3.632812 -0.109375 3.160156 0.109375 2.609375 0.109375 C 2.054688 0.109375 1.625 -0.117188 1.3125 -0.578125 Z M 1.3125 -2.359375 C 1.3125 -1.804688 1.382812 -1.40625 1.53125 -1.15625 C 1.78125 -0.75 2.117188 -0.546875 2.546875 -0.546875 C 2.890625 -0.546875 3.1875 -0.691406 3.4375 -0.984375 C 3.6875 -1.285156 3.8125 -1.734375 3.8125 -2.328125 C 3.8125 -2.929688 3.691406 -3.378906 3.453125 -3.671875 C 3.210938 -3.960938 2.921875 -4.109375 2.578125 -4.109375 C 2.234375 -4.109375 1.9375 -3.957031 1.6875 -3.65625 C 1.4375 -3.351562 1.3125 -2.921875 1.3125 -2.359375 Z M 1.3125 -2.359375 "/>
</g>
<g id="glyph-2-15">
<path d="M 3.640625 0 L 3.640625 -0.6875 C 3.273438 -0.15625 2.78125 0.109375 2.15625 0.109375 C 1.882812 0.109375 1.628906 0.0546875 1.390625 -0.046875 C 1.148438 -0.148438 0.972656 -0.28125 0.859375 -0.4375 C 0.742188 -0.601562 0.664062 -0.800781 0.625 -1.03125 C 0.59375 -1.1875 0.578125 -1.429688 0.578125 -1.765625 L 0.578125 -4.65625 L 1.359375 -4.65625 L 1.359375 -2.078125 C 1.359375 -1.660156 1.375 -1.378906 1.40625 -1.234375 C 1.457031 -1.023438 1.5625 -0.863281 1.71875 -0.75 C 1.882812 -0.632812 2.085938 -0.578125 2.328125 -0.578125 C 2.554688 -0.578125 2.773438 -0.632812 2.984375 -0.75 C 3.191406 -0.875 3.335938 -1.039062 3.421875 -1.25 C 3.515625 -1.457031 3.5625 -1.757812 3.5625 -2.15625 L 3.5625 -4.65625 L 4.34375 -4.65625 L 4.34375 0 Z M 3.640625 0 "/>
</g>
<g id="glyph-2-16">
<path d="M 0.59375 -5.515625 L 0.59375 -6.421875 L 1.390625 -6.421875 L 1.390625 -5.515625 Z M 0.59375 0 L 0.59375 -4.65625 L 1.390625 -4.65625 L 1.390625 0 Z M 0.59375 0 "/>
</g>
<g id="glyph-2-17">
<path d="M 0.578125 0 L 0.578125 -6.421875 L 1.359375 -6.421875 L 1.359375 0 Z M 0.578125 0 "/>
</g>
<g id="glyph-2-18">
<path d="M 0.78125 0 L 0.78125 -4.03125 L 0.078125 -4.03125 L 0.078125 -4.65625 L 0.78125 -4.65625 L 0.78125 -5.140625 C 0.78125 -5.453125 0.804688 -5.6875 0.859375 -5.84375 C 0.941406 -6.050781 1.078125 -6.21875 1.265625 -6.34375 C 1.453125 -6.46875 1.71875 -6.53125 2.0625 -6.53125 C 2.289062 -6.53125 2.535156 -6.503906 2.796875 -6.453125 L 2.6875 -5.765625 C 2.519531 -5.796875 2.363281 -5.8125 2.21875 -5.8125 C 1.976562 -5.8125 1.804688 -5.757812 1.703125 -5.65625 C 1.609375 -5.550781 1.5625 -5.359375 1.5625 -5.078125 L 1.5625 -4.65625 L 2.46875 -4.65625 L 2.46875 -4.03125 L 1.5625 -4.03125 L 1.5625 0 Z M 0.78125 0 "/>
</g>
<g id="glyph-2-19">
<path d="M 1.890625 0 L 0.109375 -4.65625 L 0.953125 -4.65625 L 1.9375 -1.859375 C 2.050781 -1.566406 2.15625 -1.253906 2.25 -0.921875 C 2.3125 -1.171875 2.40625 -1.46875 2.53125 -1.8125 L 3.5625 -4.65625 L 4.375 -4.65625 L 2.625 0 Z M 1.890625 0 "/>
</g>
<g id="glyph-2-20">
<path d="M 0.59375 0 L 0.59375 -6.421875 L 1.375 -6.421875 L 1.375 -4.109375 C 1.75 -4.535156 2.210938 -4.75 2.765625 -4.75 C 3.109375 -4.75 3.40625 -4.679688 3.65625 -4.546875 C 3.914062 -4.410156 4.097656 -4.222656 4.203125 -3.984375 C 4.316406 -3.742188 4.375 -3.398438 4.375 -2.953125 L 4.375 0 L 3.59375 0 L 3.59375 -2.953125 C 3.59375 -3.335938 3.503906 -3.617188 3.328125 -3.796875 C 3.160156 -3.984375 2.921875 -4.078125 2.609375 -4.078125 C 2.378906 -4.078125 2.160156 -4.015625 1.953125 -3.890625 C 1.742188 -3.773438 1.59375 -3.613281 1.5 -3.40625 C 1.414062 -3.195312 1.375 -2.910156 1.375 -2.546875 L 1.375 0 Z M 0.59375 0 "/>
</g>
<g id="glyph-2-21">
<path d="M 0.453125 0.390625 L 1.21875 0.5 C 1.25 0.738281 1.335938 0.910156 1.484375 1.015625 C 1.679688 1.160156 1.945312 1.234375 2.28125 1.234375 C 2.644531 1.234375 2.925781 1.160156 3.125 1.015625 C 3.320312 0.867188 3.457031 0.664062 3.53125 0.40625 C 3.570312 0.238281 3.59375 -0.0976562 3.59375 -0.609375 C 3.238281 -0.203125 2.804688 0 2.296875 0 C 1.660156 0 1.164062 -0.226562 0.8125 -0.6875 C 0.457031 -1.15625 0.28125 -1.710938 0.28125 -2.359375 C 0.28125 -2.796875 0.359375 -3.203125 0.515625 -3.578125 C 0.679688 -3.953125 0.914062 -4.238281 1.21875 -4.4375 C 1.53125 -4.644531 1.890625 -4.75 2.296875 -4.75 C 2.847656 -4.75 3.300781 -4.53125 3.65625 -4.09375 L 3.65625 -4.65625 L 4.390625 -4.65625 L 4.390625 -0.625 C 4.390625 0.0898438 4.316406 0.601562 4.171875 0.90625 C 4.023438 1.207031 3.789062 1.445312 3.46875 1.625 C 3.144531 1.800781 2.75 1.890625 2.28125 1.890625 C 1.726562 1.890625 1.28125 1.765625 0.9375 1.515625 C 0.59375 1.265625 0.429688 0.890625 0.453125 0.390625 Z M 1.09375 -2.40625 C 1.09375 -1.800781 1.210938 -1.359375 1.453125 -1.078125 C 1.703125 -0.796875 2.007812 -0.65625 2.375 -0.65625 C 2.738281 -0.65625 3.039062 -0.789062 3.28125 -1.0625 C 3.53125 -1.34375 3.65625 -1.78125 3.65625 -2.375 C 3.65625 -2.945312 3.523438 -3.378906 3.265625 -3.671875 C 3.015625 -3.960938 2.710938 -4.109375 2.359375 -4.109375 C 2.003906 -4.109375 1.703125 -3.960938 1.453125 -3.671875 C 1.210938 -3.390625 1.09375 -2.96875 1.09375 -2.40625 Z M 1.09375 -2.40625 "/>
</g>
</g>
</defs>
<path fill-rule="nonzero" fill="rgb(97.254944%, 97.645569%, 98.039246%)" fill-opacity="1" stroke-width="0.89664" stroke-linecap="butt" stroke-linejoin="miter" stroke="rgb(12.548828%, 12.940979%, 14.118958%)" stroke-opacity="1" stroke-miterlimit="10" d="M 46.906594 21.259156 L -46.905906 21.259156 C -48.007469 21.259156 -48.898094 20.368531 -48.898094 19.266969 L -48.898094 -19.268188 C -48.898094 -20.36975 -48.007469 -21.260375 -46.905906 -21.260375 L 46.906594 -21.260375 C 48.00425 -21.260375 48.898781 -20.36975 48.898781 -19.268188 L 48.898781 19.266969 C 48.898781 20.368531 48.00425 21.259156 46.906594 21.259156 Z M 46.906594 21.259156 " transform="matrix(1, 0, 0, -1, 61.652, 57.974)"/>
<g fill="rgb(12.5%, 12.89978%, 14.099121%)" fill-opacity="1">
<use xlink:href="#glyph-0-0" x="48.949" y="49.365"/>
<use xlink:href="#glyph-0-1" x="55.422741" y="49.365"/>
<use xlink:href="#glyph-0-2" x="60.901211" y="49.365"/>
<use xlink:href="#glyph-0-3" x="63.39387" y="49.365"/>
</g>
<g fill="rgb(12.5%, 12.89978%, 14.099121%)" fill-opacity="1">
<use xlink:href="#glyph-0-4" x="69.365493" y="49.365"/>
</g>
<g fill="rgb(0%, 0%, 0%)" fill-opacity="1">
<use xlink:href="#glyph-1-0" x="27.751" y="66.254"/>
</g>
<g fill="rgb(0%, 0%, 0%)" fill-opacity="1">
<use xlink:href="#glyph-1-1" x="32.325837" y="66.254"/>
<use xlink:href="#glyph-1-2" x="34.979881" y="66.254"/>
<use xlink:href="#glyph-1-3" x="39.411256" y="66.254"/>
<use xlink:href="#glyph-1-4" x="43.842632" y="66.254"/>
<use xlink:href="#glyph-1-5" x="47.827682" y="66.254"/>
<use xlink:href="#glyph-1-1" x="52.259058" y="66.254"/>
<use xlink:href="#glyph-1-6" x="54.913101" y="66.254"/>
</g>
<g fill="rgb(0%, 0%, 0%)" fill-opacity="1">
<use xlink:href="#glyph-1-4" x="61.878968" y="66.254"/>
<use xlink:href="#glyph-1-2" x="65.864018" y="66.254"/>
<use xlink:href="#glyph-1-7" x="70.295394" y="66.254"/>
<use xlink:href="#glyph-1-5" x="74.280444" y="66.254"/>
<use xlink:href="#glyph-1-1" x="78.711819" y="66.254"/>
<use xlink:href="#glyph-1-8" x="81.365863" y="66.254"/>
<use xlink:href="#glyph-1-9" x="83.135225" y="66.254"/>
<use xlink:href="#glyph-1-8" x="85.350913" y="66.254"/>
<use xlink:href="#glyph-1-2" x="87.120275" y="66.254"/>
<use xlink:href="#glyph-1-4" x="91.551651" y="66.254"/>
</g>
<path fill-rule="nonzero" fill="rgb(97.254944%, 97.645569%, 98.039246%)" fill-opacity="1" stroke-width="0.89664" stroke-linecap="butt" stroke-linejoin="miter" stroke="rgb(12.548828%, 12.940979%, 14.118958%)" stroke-opacity="1" stroke-miterlimit="10" d="M 170.215188 21.259156 L 76.402687 21.259156 C 75.301125 21.259156 74.4105 20.368531 74.4105 19.266969 L 74.4105 -19.268188 C 74.4105 -20.36975 75.301125 -21.260375 76.402687 -21.260375 L 170.215188 -21.260375 C 171.31675 -21.260375 172.207375 -20.36975 172.207375 -19.268188 L 172.207375 19.266969 C 172.207375 20.368531 171.31675 21.259156 170.215188 21.259156 Z M 170.215188 21.259156 " transform="matrix(1, 0, 0, -1, 61.652, 57.974)"/>
<g fill="rgb(12.5%, 12.89978%, 14.099121%)" fill-opacity="1">
<use xlink:href="#glyph-0-0" x="172.258" y="49.365"/>
<use xlink:href="#glyph-0-1" x="178.731741" y="49.365"/>
<use xlink:href="#glyph-0-2" x="184.210211" y="49.365"/>
<use xlink:href="#glyph-0-3" x="186.70287" y="49.365"/>
</g>
<g fill="rgb(12.5%, 12.89978%, 14.099121%)" fill-opacity="1">
<use xlink:href="#glyph-0-5" x="192.674493" y="49.365"/>
</g>
<g fill="rgb(0%, 0%, 0%)" fill-opacity="1">
<use xlink:href="#glyph-1-10" x="147.194" y="66.349"/>
<use xlink:href="#glyph-1-9" x="152.510057" y="66.349"/>
<use xlink:href="#glyph-1-11" x="154.725745" y="66.349"/>
<use xlink:href="#glyph-1-7" x="159.15712" y="66.349"/>
<use xlink:href="#glyph-1-12" x="163.14217" y="66.349"/>
<use xlink:href="#glyph-1-4" x="167.12722" y="66.349"/>
</g>
<g fill="rgb(0%, 0%, 0%)" fill-opacity="1">
<use xlink:href="#glyph-1-3" x="174.093088" y="66.349"/>
<use xlink:href="#glyph-1-13" x="178.524463" y="66.349"/>
<use xlink:href="#glyph-1-14" x="182.955839" y="66.349"/>
</g>
<g fill="rgb(0%, 0%, 0%)" fill-opacity="1">
<use xlink:href="#glyph-1-15" x="190.376002" y="66.349"/>
<use xlink:href="#glyph-1-11" x="194.807377" y="66.349"/>
<use xlink:href="#glyph-1-1" x="199.238753" y="66.349"/>
<use xlink:href="#glyph-1-9" x="201.892796" y="66.349"/>
<use xlink:href="#glyph-1-16" x="204.108484" y="66.349"/>
<use xlink:href="#glyph-1-11" x="206.324172" y="66.349"/>
<use xlink:href="#glyph-1-17" x="210.755548" y="66.349"/>
<use xlink:href="#glyph-1-8" x="212.52491" y="66.349"/>
<use xlink:href="#glyph-1-11" x="214.294272" y="66.349"/>
<use xlink:href="#glyph-1-4" x="218.725648" y="66.349"/>
</g>
<path fill-rule="nonzero" fill="rgb(97.254944%, 97.645569%, 98.039246%)" fill-opacity="1" stroke-width="0.89664" stroke-linecap="butt" stroke-linejoin="miter" stroke="rgb(12.548828%, 12.940979%, 14.118958%)" stroke-opacity="1" stroke-miterlimit="10" d="M 293.523781 21.259156 L 199.711281 21.259156 C 198.609719 21.259156 197.719094 20.368531 197.719094 19.266969 L 197.719094 -19.268188 C 197.719094 -20.36975 198.609719 -21.260375 199.711281 -21.260375 L 293.523781 -21.260375 C 294.621438 -21.260375 295.515969 -20.36975 295.515969 -19.268188 L 295.515969 19.266969 C 295.515969 20.368531 294.621438 21.259156 293.523781 21.259156 Z M 293.523781 21.259156 " transform="matrix(1, 0, 0, -1, 61.652, 57.974)"/>
<g fill="rgb(12.5%, 12.89978%, 14.099121%)" fill-opacity="1">
<use xlink:href="#glyph-0-0" x="295.566" y="49.365"/>
<use xlink:href="#glyph-0-1" x="302.039741" y="49.365"/>
<use xlink:href="#glyph-0-2" x="307.518211" y="49.365"/>
<use xlink:href="#glyph-0-3" x="310.01087" y="49.365"/>
</g>
<g fill="rgb(12.5%, 12.89978%, 14.099121%)" fill-opacity="1">
<use xlink:href="#glyph-0-6" x="315.982493" y="49.365"/>
</g>
<g fill="rgb(0%, 0%, 0%)" fill-opacity="1">
<use xlink:href="#glyph-1-18" x="275.814" y="62.364"/>
<use xlink:href="#glyph-1-15" x="282.014738" y="62.364"/>
<use xlink:href="#glyph-1-9" x="286.446113" y="62.364"/>
<use xlink:href="#glyph-1-8" x="288.661801" y="62.364"/>
<use xlink:href="#glyph-1-11" x="290.431163" y="62.364"/>
<use xlink:href="#glyph-1-13" x="294.862539" y="62.364"/>
<use xlink:href="#glyph-1-4" x="299.293915" y="62.364"/>
</g>
<g fill="rgb(0%, 0%, 0%)" fill-opacity="1">
<use xlink:href="#glyph-1-3" x="306.259782" y="62.364"/>
<use xlink:href="#glyph-1-13" x="310.691158" y="62.364"/>
<use xlink:href="#glyph-1-14" x="315.122533" y="62.364"/>
</g>
<g fill="rgb(0%, 0%, 0%)" fill-opacity="1">
<use xlink:href="#glyph-1-11" x="322.542696" y="62.364"/>
<use xlink:href="#glyph-1-9" x="326.974072" y="62.364"/>
<use xlink:href="#glyph-1-19" x="329.18976" y="62.364"/>
<use xlink:href="#glyph-1-2" x="333.621135" y="62.364"/>
<use xlink:href="#glyph-1-1" x="338.052511" y="62.364"/>
</g>
<g fill="rgb(0%, 0%, 0%)" fill-opacity="1">
<use xlink:href="#glyph-1-14" x="289.22" y="71.828"/>
<use xlink:href="#glyph-1-2" x="293.651376" y="71.828"/>
<use xlink:href="#glyph-1-1" x="298.082751" y="71.828"/>
<use xlink:href="#glyph-1-8" x="300.736795" y="71.828"/>
<use xlink:href="#glyph-1-20" x="302.506157" y="71.828"/>
<use xlink:href="#glyph-1-3" x="306.491207" y="71.828"/>
<use xlink:href="#glyph-1-9" x="310.922582" y="71.828"/>
<use xlink:href="#glyph-1-8" x="313.13827" y="71.828"/>
<use xlink:href="#glyph-1-20" x="314.907632" y="71.828"/>
<use xlink:href="#glyph-1-2" x="318.892682" y="71.828"/>
<use xlink:href="#glyph-1-4" x="323.324058" y="71.828"/>
</g>
<path fill-rule="nonzero" fill="rgb(97.254944%, 97.645569%, 98.039246%)" fill-opacity="1" stroke-width="0.89664" stroke-linecap="butt" stroke-linejoin="miter" stroke="rgb(12.548828%, 12.940979%, 14.118958%)" stroke-opacity="1" stroke-miterlimit="10" d="M 416.832375 21.259156 L 323.019875 21.259156 C 321.918313 21.259156 321.027688 20.368531 321.027688 19.266969 L 321.027688 -19.268188 C 321.027688 -20.36975 321.918313 -21.260375 323.019875 -21.260375 L 416.832375 -21.260375 C 417.933938 -21.260375 418.824563 -20.36975 418.824563 -19.268188 L 418.824563 19.266969 C 418.824563 20.368531 417.933938 21.259156 416.832375 21.259156 Z M 416.832375 21.259156 " transform="matrix(1, 0, 0, -1, 61.652, 57.974)"/>
<g fill="rgb(12.5%, 12.89978%, 14.099121%)" fill-opacity="1">
<use xlink:href="#glyph-0-0" x="418.875" y="49.365"/>
<use xlink:href="#glyph-0-1" x="425.348741" y="49.365"/>
<use xlink:href="#glyph-0-2" x="430.827211" y="49.365"/>
<use xlink:href="#glyph-0-3" x="433.31987" y="49.365"/>
</g>
<g fill="rgb(12.5%, 12.89978%, 14.099121%)" fill-opacity="1">
<use xlink:href="#glyph-0-7" x="439.291493" y="49.365"/>
</g>
<g fill="rgb(0%, 0%, 0%)" fill-opacity="1">
<use xlink:href="#glyph-1-21" x="415.629" y="61.521"/>
<use xlink:href="#glyph-1-8" x="420.498731" y="61.521"/>
<use xlink:href="#glyph-1-13" x="422.268093" y="61.521"/>
<use xlink:href="#glyph-1-3" x="426.699469" y="61.521"/>
<use xlink:href="#glyph-1-13" x="431.130844" y="61.521"/>
<use xlink:href="#glyph-1-7" x="435.56222" y="61.521"/>
<use xlink:href="#glyph-1-8" x="439.54727" y="61.521"/>
<use xlink:href="#glyph-1-3" x="441.316632" y="61.521"/>
<use xlink:href="#glyph-1-17" x="445.748008" y="61.521"/>
</g>
<g fill="rgb(0%, 0%, 0%)" fill-opacity="1">
<use xlink:href="#glyph-1-14" x="402.783" y="70.986"/>
<use xlink:href="#glyph-1-2" x="407.214376" y="70.986"/>
<use xlink:href="#glyph-1-7" x="411.645751" y="70.986"/>
<use xlink:href="#glyph-1-8" x="415.630801" y="70.986"/>
<use xlink:href="#glyph-1-4" x="417.400163" y="70.986"/>
<use xlink:href="#glyph-1-8" x="421.385213" y="70.986"/>
<use xlink:href="#glyph-1-11" x="423.154576" y="70.986"/>
<use xlink:href="#glyph-1-13" x="427.585951" y="70.986"/>
<use xlink:href="#glyph-1-22" x="432.017327" y="70.986"/>
<use xlink:href="#glyph-1-23" x="434.67137" y="70.986"/>
<use xlink:href="#glyph-1-3" x="441.310463" y="70.986"/>
<use xlink:href="#glyph-1-12" x="445.741839" y="70.986"/>
<use xlink:href="#glyph-1-8" x="449.726889" y="70.986"/>
<use xlink:href="#glyph-1-13" x="451.496251" y="70.986"/>
<use xlink:href="#glyph-1-24" x="455.927627" y="70.986"/>
</g>
<path fill="none" stroke-width="0.79701" stroke-linecap="butt" stroke-linejoin="miter" stroke="rgb(12.5%, 12.89978%, 14.099121%)" stroke-opacity="1" stroke-miterlimit="10" d="M -55.277 -38.268188 L 434.105813 -38.268188 " transform="matrix(1, 0, 0, -1, 61.652, 57.974)"/>
<path fill-rule="nonzero" fill="rgb(12.5%, 12.89978%, 14.099121%)" fill-opacity="1" stroke-width="0.79701" stroke-linecap="butt" stroke-linejoin="miter" stroke="rgb(12.5%, 12.89978%, 14.099121%)" stroke-opacity="1" stroke-miterlimit="10" d="M 6.46189 0.0001725 C 5.668921 0.195485 2.18064 1.297047 0.0009525 2.496266 L 0.0009525 -2.495921 C 2.18064 -1.296703 5.668921 -0.19514 6.46189 0.0001725 Z M 6.46189 0.0001725 " transform="matrix(1, 0, 0, -1, 495.75686, 96.24236)"/>
<g fill="rgb(12.5%, 12.89978%, 14.099121%)" fill-opacity="1">
<use xlink:href="#glyph-2-0" x="507.581" y="99.399"/>
<use xlink:href="#glyph-2-1" x="514.054741" y="99.399"/>
<use xlink:href="#glyph-2-1" x="519.040059" y="99.399"/>
<use xlink:href="#glyph-2-2" x="524.025378" y="99.399"/>
<use xlink:href="#glyph-2-3" x="528.508578" y="99.399"/>
</g>
<path fill="none" stroke-width="0.69739" stroke-linecap="butt" stroke-linejoin="miter" stroke="rgb(37.298584%, 38.798523%, 40.79895%)" stroke-opacity="1" stroke-miterlimit="10" d="M 0.00034375 -35.43225 L 0.00034375 -41.104125 " transform="matrix(1, 0, 0, -1, 61.652, 57.974)"/>
<g fill="rgb(37.298584%, 38.798523%, 40.79895%)" fill-opacity="1">
<use xlink:href="#glyph-1-25" x="42.6" y="109.321"/>
<use xlink:href="#glyph-1-2" x="48.354412" y="109.321"/>
<use xlink:href="#glyph-1-2" x="52.785788" y="109.321"/>
<use xlink:href="#glyph-1-12" x="57.217163" y="109.321"/>
<use xlink:href="#glyph-1-4" x="61.202213" y="109.321"/>
</g>
<g fill="rgb(37.298584%, 38.798523%, 40.79895%)" fill-opacity="1">
<use xlink:href="#glyph-1-26" x="67.394981" y="109.321"/>
<use xlink:href="#glyph-1-27" x="71.826357" y="109.321"/>
<use xlink:href="#glyph-1-28" x="76.257732" y="109.321"/>
</g>
<path fill="none" stroke-width="0.69739" stroke-linecap="butt" stroke-linejoin="miter" stroke="rgb(37.298584%, 38.798523%, 40.79895%)" stroke-opacity="1" stroke-miterlimit="10" d="M 123.308937 -35.43225 L 123.308937 -41.104125 " transform="matrix(1, 0, 0, -1, 61.652, 57.974)"/>
<g fill="rgb(37.298584%, 38.798523%, 40.79895%)" fill-opacity="1">
<use xlink:href="#glyph-1-25" x="165.909" y="109.321"/>
<use xlink:href="#glyph-1-2" x="171.663412" y="109.321"/>
<use xlink:href="#glyph-1-2" x="176.094788" y="109.321"/>
<use xlink:href="#glyph-1-12" x="180.526163" y="109.321"/>
<use xlink:href="#glyph-1-4" x="184.511213" y="109.321"/>
</g>
<g fill="rgb(37.298584%, 38.798523%, 40.79895%)" fill-opacity="1">
<use xlink:href="#glyph-1-29" x="190.703981" y="109.321"/>
<use xlink:href="#glyph-1-27" x="195.135357" y="109.321"/>
<use xlink:href="#glyph-1-30" x="199.566732" y="109.321"/>
</g>
<path fill="none" stroke-width="0.69739" stroke-linecap="butt" stroke-linejoin="miter" stroke="rgb(37.298584%, 38.798523%, 40.79895%)" stroke-opacity="1" stroke-miterlimit="10" d="M 246.617531 -35.43225 L 246.617531 -41.104125 " transform="matrix(1, 0, 0, -1, 61.652, 57.974)"/>
<g fill="rgb(37.298584%, 38.798523%, 40.79895%)" fill-opacity="1">
<use xlink:href="#glyph-1-25" x="287.297" y="109.321"/>
<use xlink:href="#glyph-1-2" x="293.051412" y="109.321"/>
<use xlink:href="#glyph-1-2" x="297.482788" y="109.321"/>
<use xlink:href="#glyph-1-12" x="301.914163" y="109.321"/>
<use xlink:href="#glyph-1-4" x="305.899213" y="109.321"/>
</g>
<g fill="rgb(37.298584%, 38.798523%, 40.79895%)" fill-opacity="1">
<use xlink:href="#glyph-1-31" x="312.091981" y="109.321"/>
<use xlink:href="#glyph-1-27" x="316.523357" y="109.321"/>
<use xlink:href="#glyph-1-26" x="320.954732" y="109.321"/>
</g>
<g fill="rgb(37.298584%, 38.798523%, 40.79895%)" fill-opacity="1">
<use xlink:href="#glyph-1-26" x="324.804291" y="109.321"/>
</g>
<path fill="none" stroke-width="0.69739" stroke-linecap="butt" stroke-linejoin="miter" stroke="rgb(37.298584%, 38.798523%, 40.79895%)" stroke-opacity="1" stroke-miterlimit="10" d="M 369.926125 -35.43225 L 369.926125 -41.104125 " transform="matrix(1, 0, 0, -1, 61.652, 57.974)"/>
<g fill="rgb(37.298584%, 38.798523%, 40.79895%)" fill-opacity="1">
<use xlink:href="#glyph-1-25" x="408.093" y="109.321"/>
<use xlink:href="#glyph-1-2" x="413.847412" y="109.321"/>
<use xlink:href="#glyph-1-2" x="418.278788" y="109.321"/>
<use xlink:href="#glyph-1-12" x="422.710163" y="109.321"/>
<use xlink:href="#glyph-1-4" x="426.695213" y="109.321"/>
</g>
<g fill="rgb(37.298584%, 38.798523%, 40.79895%)" fill-opacity="1">
<use xlink:href="#glyph-1-26" x="432.887981" y="109.321"/>
<use xlink:href="#glyph-1-28" x="437.319357" y="109.321"/>
<use xlink:href="#glyph-1-27" x="441.750732" y="109.321"/>
<use xlink:href="#glyph-1-26" x="446.182108" y="109.321"/>
<use xlink:href="#glyph-1-32" x="450.613483" y="109.321"/>
</g>
<g fill="rgb(10.198975%, 32.199097%, 46.299744%)" fill-opacity="1">
<use xlink:href="#glyph-2-4" x="23.278" y="128.713"/>
<use xlink:href="#glyph-2-5" x="27.7612" y="128.713"/>
<use xlink:href="#glyph-2-6" x="32.746518" y="128.713"/>
<use xlink:href="#glyph-2-7" x="40.21553" y="128.713"/>
<use xlink:href="#glyph-2-8" x="45.200848" y="128.713"/>
<use xlink:href="#glyph-2-9" x="50.186166" y="128.713"/>
<use xlink:href="#glyph-2-1" x="53.171978" y="128.713"/>
</g>
<g fill="rgb(10.198975%, 32.199097%, 46.299744%)" fill-opacity="1">
<use xlink:href="#glyph-2-7" x="61.143107" y="128.713"/>
<use xlink:href="#glyph-2-8" x="66.128426" y="128.713"/>
<use xlink:href="#glyph-2-10" x="71.113744" y="128.713"/>
<use xlink:href="#glyph-2-6" x="75.596944" y="128.713"/>
<use xlink:href="#glyph-2-1" x="83.065955" y="128.713"/>
<use xlink:href="#glyph-2-11" x="88.051274" y="128.713"/>
<use xlink:href="#glyph-2-12" x="93.036592" y="128.713"/>
<use xlink:href="#glyph-2-3" x="95.529251" y="128.713"/>
</g>
<g fill="rgb(10.198975%, 32.199097%, 46.299744%)" fill-opacity="1">
<use xlink:href="#glyph-2-8" x="35.985" y="139.672"/>
<use xlink:href="#glyph-2-4" x="40.970318" y="139.672"/>
<use xlink:href="#glyph-2-9" x="45.453518" y="139.672"/>
<use xlink:href="#glyph-2-5" x="48.43933" y="139.672"/>
<use xlink:href="#glyph-2-3" x="53.424648" y="139.672"/>
<use xlink:href="#glyph-2-3" x="57.907848" y="139.672"/>
</g>
<g fill="rgb(10.198975%, 32.199097%, 46.299744%)" fill-opacity="1">
<use xlink:href="#glyph-2-13" x="65.376859" y="139.672"/>
<use xlink:href="#glyph-2-8" x="70.362178" y="139.672"/>
<use xlink:href="#glyph-2-12" x="75.347496" y="139.672"/>
<use xlink:href="#glyph-2-1" x="77.840155" y="139.672"/>
<use xlink:href="#glyph-2-3" x="82.825474" y="139.672"/>
</g>
<g fill="rgb(10.198975%, 32.199097%, 46.299744%)" fill-opacity="1">
<use xlink:href="#glyph-2-14" x="155.803" y="128.967"/>
<use xlink:href="#glyph-2-15" x="160.788318" y="128.967"/>
<use xlink:href="#glyph-2-16" x="165.773637" y="128.967"/>
<use xlink:href="#glyph-2-17" x="167.764178" y="128.967"/>
<use xlink:href="#glyph-2-13" x="169.754718" y="128.967"/>
</g>
<g fill="rgb(10.198975%, 32.199097%, 46.299744%)" fill-opacity="1">
<use xlink:href="#glyph-2-7" x="177.725848" y="128.967"/>
<use xlink:href="#glyph-2-5" x="182.711166" y="128.967"/>
<use xlink:href="#glyph-2-9" x="187.696485" y="128.967"/>
<use xlink:href="#glyph-2-12" x="190.682296" y="128.967"/>
<use xlink:href="#glyph-2-18" x="193.174955" y="128.967"/>
<use xlink:href="#glyph-2-5" x="195.667614" y="128.967"/>
<use xlink:href="#glyph-2-17" x="200.652933" y="128.967"/>
<use xlink:href="#glyph-2-16" x="202.643474" y="128.967"/>
<use xlink:href="#glyph-2-5" x="204.634014" y="128.967"/>
<use xlink:href="#glyph-2-3" x="209.619333" y="128.967"/>
</g>
<g fill="rgb(10.198975%, 32.199097%, 46.299744%)" fill-opacity="1">
<use xlink:href="#glyph-2-15" x="150.07" y="139.926"/>
<use xlink:href="#glyph-2-11" x="155.055318" y="139.926"/>
<use xlink:href="#glyph-2-13" x="160.040637" y="139.926"/>
<use xlink:href="#glyph-2-1" x="165.025955" y="139.926"/>
<use xlink:href="#glyph-2-9" x="170.011274" y="139.926"/>
</g>
<g fill="rgb(10.198975%, 32.199097%, 46.299744%)" fill-opacity="1">
<use xlink:href="#glyph-2-15" x="175.982896" y="139.926"/>
<use xlink:href="#glyph-2-11" x="180.968214" y="139.926"/>
<use xlink:href="#glyph-2-4" x="185.953533" y="139.926"/>
<use xlink:href="#glyph-2-1" x="190.436733" y="139.926"/>
<use xlink:href="#glyph-2-9" x="195.422051" y="139.926"/>
<use xlink:href="#glyph-2-12" x="198.407862" y="139.926"/>
<use xlink:href="#glyph-2-8" x="200.900522" y="139.926"/>
<use xlink:href="#glyph-2-16" x="205.88584" y="139.926"/>
<use xlink:href="#glyph-2-11" x="207.876381" y="139.926"/>
<use xlink:href="#glyph-2-12" x="212.861699" y="139.926"/>
<use xlink:href="#glyph-2-10" x="215.354358" y="139.926"/>
</g>
<g fill="rgb(10.198975%, 32.199097%, 46.299744%)" fill-opacity="1">
<use xlink:href="#glyph-2-19" x="272.136" y="128.858"/>
<use xlink:href="#glyph-2-8" x="276.6192" y="128.858"/>
<use xlink:href="#glyph-2-17" x="281.604518" y="128.858"/>
<use xlink:href="#glyph-2-15" x="283.595059" y="128.858"/>
<use xlink:href="#glyph-2-1" x="288.580378" y="128.858"/>
</g>
<g fill="rgb(10.198975%, 32.199097%, 46.299744%)" fill-opacity="1">
<use xlink:href="#glyph-2-16" x="296.551507" y="128.858"/>
<use xlink:href="#glyph-2-11" x="298.542048" y="128.858"/>
<use xlink:href="#glyph-2-19" x="303.527366" y="128.858"/>
<use xlink:href="#glyph-2-1" x="308.010566" y="128.858"/>
<use xlink:href="#glyph-2-3" x="312.995885" y="128.858"/>
<use xlink:href="#glyph-2-12" x="317.479085" y="128.858"/>
<use xlink:href="#glyph-2-6" x="319.971744" y="128.858"/>
<use xlink:href="#glyph-2-1" x="327.440755" y="128.858"/>
<use xlink:href="#glyph-2-11" x="332.426074" y="128.858"/>
<use xlink:href="#glyph-2-12" x="337.411392" y="128.858"/>
<use xlink:href="#glyph-2-3" x="339.904051" y="128.858"/>
</g>
<g fill="rgb(10.198975%, 32.199097%, 46.299744%)" fill-opacity="1">
<use xlink:href="#glyph-2-12" x="269.641" y="139.817"/>
<use xlink:href="#glyph-2-16" x="272.133659" y="139.817"/>
<use xlink:href="#glyph-2-1" x="274.1242" y="139.817"/>
<use xlink:href="#glyph-2-13" x="279.109518" y="139.817"/>
</g>
<g fill="rgb(10.198975%, 32.199097%, 46.299744%)" fill-opacity="1">
<use xlink:href="#glyph-2-12" x="287.080648" y="139.817"/>
<use xlink:href="#glyph-2-5" x="289.573307" y="139.817"/>
</g>
<g fill="rgb(10.198975%, 32.199097%, 46.299744%)" fill-opacity="1">
<use xlink:href="#glyph-2-5" x="297.544437" y="139.817"/>
<use xlink:href="#glyph-2-12" x="302.529755" y="139.817"/>
<use xlink:href="#glyph-2-20" x="305.022414" y="139.817"/>
<use xlink:href="#glyph-2-1" x="310.007733" y="139.817"/>
<use xlink:href="#glyph-2-9" x="314.993051" y="139.817"/>
</g>
<g fill="rgb(10.198975%, 32.199097%, 46.299744%)" fill-opacity="1">
<use xlink:href="#glyph-2-19" x="320.964674" y="139.817"/>
<use xlink:href="#glyph-2-8" x="325.447874" y="139.817"/>
<use xlink:href="#glyph-2-17" x="330.433192" y="139.817"/>
<use xlink:href="#glyph-2-15" x="332.423733" y="139.817"/>
<use xlink:href="#glyph-2-1" x="337.409051" y="139.817"/>
<use xlink:href="#glyph-2-3" x="342.39437" y="139.817"/>
</g>
<g fill="rgb(10.198975%, 32.199097%, 46.299744%)" fill-opacity="1">
<use xlink:href="#glyph-2-14" x="404.411" y="128.858"/>
<use xlink:href="#glyph-2-15" x="409.396318" y="128.858"/>
<use xlink:href="#glyph-2-16" x="414.381637" y="128.858"/>
<use xlink:href="#glyph-2-17" x="416.372178" y="128.858"/>
<use xlink:href="#glyph-2-13" x="418.362718" y="128.858"/>
</g>
<g fill="rgb(10.198975%, 32.199097%, 46.299744%)" fill-opacity="1">
<use xlink:href="#glyph-2-8" x="426.333848" y="128.858"/>
<use xlink:href="#glyph-2-11" x="431.319166" y="128.858"/>
<use xlink:href="#glyph-2-13" x="436.304485" y="128.858"/>
</g>
<g fill="rgb(10.198975%, 32.199097%, 46.299744%)" fill-opacity="1">
<use xlink:href="#glyph-2-12" x="444.275614" y="128.858"/>
<use xlink:href="#glyph-2-1" x="446.768274" y="128.858"/>
<use xlink:href="#glyph-2-3" x="451.753592" y="128.858"/>
<use xlink:href="#glyph-2-12" x="456.236792" y="128.858"/>
</g>
<g fill="rgb(10.198975%, 32.199097%, 46.299744%)" fill-opacity="1">
<use xlink:href="#glyph-2-18" x="394.198" y="139.817"/>
<use xlink:href="#glyph-2-16" x="396.690659" y="139.817"/>
<use xlink:href="#glyph-2-11" x="398.6812" y="139.817"/>
<use xlink:href="#glyph-2-8" x="403.666518" y="139.817"/>
<use xlink:href="#glyph-2-11" x="408.651837" y="139.817"/>
<use xlink:href="#glyph-2-4" x="413.637155" y="139.817"/>
<use xlink:href="#glyph-2-16" x="418.120355" y="139.817"/>
<use xlink:href="#glyph-2-8" x="420.110896" y="139.817"/>
<use xlink:href="#glyph-2-17" x="425.096214" y="139.817"/>
</g>
<g fill="rgb(10.198975%, 32.199097%, 46.299744%)" fill-opacity="1">
<use xlink:href="#glyph-2-3" x="430.072566" y="139.817"/>
<use xlink:href="#glyph-2-12" x="434.555766" y="139.817"/>
<use xlink:href="#glyph-2-9" x="437.048426" y="139.817"/>
<use xlink:href="#glyph-2-8" x="440.034237" y="139.817"/>
<use xlink:href="#glyph-2-12" x="445.019555" y="139.817"/>
<use xlink:href="#glyph-2-1" x="447.512214" y="139.817"/>
<use xlink:href="#glyph-2-21" x="452.497533" y="139.817"/>
<use xlink:href="#glyph-2-16" x="457.482851" y="139.817"/>
<use xlink:href="#glyph-2-1" x="459.473392" y="139.817"/>
<use xlink:href="#glyph-2-3" x="464.45871" y="139.817"/>
</g>
<path fill="none" stroke-width="0.3985" stroke-linecap="butt" stroke-linejoin="miter" stroke="rgb(37.298584%, 38.798523%, 40.79895%)" stroke-opacity="1" stroke-miterlimit="10" d="M -50.456688 29.763062 C -49.710594 31.259156 -47.968406 32.25525 -45.476219 32.25525 L 179.980813 32.25525 C 182.473 32.25525 184.215188 33.251344 184.961281 34.747437 C 185.711281 33.251344 187.453469 32.25525 189.945656 32.25525 L 415.402688 32.25525 C 417.890969 32.25525 419.637063 31.259156 420.383156 29.763062 " transform="matrix(1, 0, 0, -1, 61.652, 57.974)"/>
<g fill="rgb(12.5%, 12.89978%, 14.099121%)" fill-opacity="1">
<use xlink:href="#glyph-0-8" x="75.145" y="15.829"/>
<use xlink:href="#glyph-0-2" x="82.120859" y="15.829"/>
<use xlink:href="#glyph-0-9" x="84.613518" y="15.829"/>
<use xlink:href="#glyph-0-10" x="89.598837" y="15.829"/>
<use xlink:href="#glyph-0-1" x="94.584155" y="15.829"/>
</g>
<g fill="rgb(12.5%, 12.89978%, 14.099121%)" fill-opacity="1">
<use xlink:href="#glyph-0-2" x="102.546318" y="15.829"/>
<use xlink:href="#glyph-0-1" x="105.038978" y="15.829"/>
<use xlink:href="#glyph-0-9" x="110.517448" y="15.829"/>
<use xlink:href="#glyph-0-10" x="115.502766" y="15.829"/>
<use xlink:href="#glyph-0-11" x="120.488085" y="15.829"/>
<use xlink:href="#glyph-0-3" x="125.473403" y="15.829"/>
<use xlink:href="#glyph-0-12" x="128.459214" y="15.829"/>
<use xlink:href="#glyph-0-10" x="136.430344" y="15.829"/>
<use xlink:href="#glyph-0-1" x="141.415662" y="15.829"/>
<use xlink:href="#glyph-0-3" x="146.894133" y="15.829"/>
</g>
<g fill="rgb(12.5%, 12.89978%, 14.099121%)" fill-opacity="1">
<use xlink:href="#glyph-0-13" x="152.372603" y="15.829"/>
<use xlink:href="#glyph-0-14" x="157.357922" y="15.829"/>
<use xlink:href="#glyph-0-15" x="162.836392" y="15.829"/>
<use xlink:href="#glyph-0-2" x="168.314862" y="15.829"/>
<use xlink:href="#glyph-0-13" x="170.807522" y="15.829"/>
<use xlink:href="#glyph-0-10" x="175.79284" y="15.829"/>
<use xlink:href="#glyph-0-11" x="180.778158" y="15.829"/>
<use xlink:href="#glyph-0-16" x="185.763477" y="15.829"/>
</g>
<g fill="rgb(12.5%, 12.89978%, 14.099121%)" fill-opacity="1">
<use xlink:href="#glyph-0-17" x="190.748795" y="15.829"/>
<use xlink:href="#glyph-0-1" x="196.227266" y="15.829"/>
<use xlink:href="#glyph-0-13" x="201.705736" y="15.829"/>
<use xlink:href="#glyph-0-10" x="206.691054" y="15.829"/>
<use xlink:href="#glyph-0-18" x="211.676373" y="15.829"/>
<use xlink:href="#glyph-0-3" x="215.164302" y="15.829"/>
<use xlink:href="#glyph-0-19" x="218.150114" y="15.829"/>
<use xlink:href="#glyph-0-2" x="223.135432" y="15.829"/>
<use xlink:href="#glyph-0-1" x="225.628091" y="15.829"/>
<use xlink:href="#glyph-0-3" x="231.106562" y="15.829"/>
<use xlink:href="#glyph-0-20" x="234.092373" y="15.829"/>
</g>
<g fill="rgb(12.5%, 12.89978%, 14.099121%)" fill-opacity="1">
<use xlink:href="#glyph-0-16" x="238.423144" y="15.829"/>
</g>
<g fill="rgb(12.5%, 12.89978%, 14.099121%)" fill-opacity="1">
<use xlink:href="#glyph-0-19" x="243.399496" y="15.829"/>
<use xlink:href="#glyph-0-1" x="248.384814" y="15.829"/>
<use xlink:href="#glyph-0-21" x="253.863285" y="15.829"/>
</g>
<g fill="rgb(12.5%, 12.89978%, 14.099121%)" fill-opacity="1">
<use xlink:href="#glyph-0-20" x="261.825448" y="15.829"/>
<use xlink:href="#glyph-0-15" x="266.810766" y="15.829"/>
<use xlink:href="#glyph-0-17" x="272.289237" y="15.829"/>
<use xlink:href="#glyph-0-18" x="277.767707" y="15.829"/>
</g>
<g fill="rgb(12.5%, 12.89978%, 14.099121%)" fill-opacity="1">
<use xlink:href="#glyph-0-22" x="283.748296" y="15.829"/>
<use xlink:href="#glyph-0-18" x="289.226766" y="15.829"/>
<use xlink:href="#glyph-0-2" x="292.714696" y="15.829"/>
<use xlink:href="#glyph-0-15" x="295.207355" y="15.829"/>
<use xlink:href="#glyph-0-18" x="300.685826" y="15.829"/>
<use xlink:href="#glyph-0-2" x="304.173755" y="15.829"/>
<use xlink:href="#glyph-0-3" x="306.666414" y="15.829"/>
<use xlink:href="#glyph-0-2" x="309.652226" y="15.829"/>
<use xlink:href="#glyph-0-10" x="312.144885" y="15.829"/>
<use xlink:href="#glyph-0-11" x="317.130203" y="15.829"/>
<use xlink:href="#glyph-0-23" x="322.115522" y="15.829"/>
</g>
<g fill="rgb(12.5%, 12.89978%, 14.099121%)" fill-opacity="1">
<use xlink:href="#glyph-0-24" x="328.427867" y="15.829"/>
<use xlink:href="#glyph-0-14" x="335.403726" y="15.829"/>
<use xlink:href="#glyph-0-19" x="340.882197" y="15.829"/>
<use xlink:href="#glyph-0-3" x="345.867515" y="15.829"/>
</g>
<g fill="rgb(12.5%, 12.89978%, 14.099121%)" fill-opacity="1">
<use xlink:href="#glyph-0-11" x="351.345986" y="15.829"/>
<use xlink:href="#glyph-0-14" x="356.331304" y="15.829"/>
<use xlink:href="#glyph-0-15" x="361.809774" y="15.829"/>
<use xlink:href="#glyph-0-17" x="367.288245" y="15.829"/>
<use xlink:href="#glyph-0-25" x="372.766715" y="15.829"/>
<use xlink:href="#glyph-0-21" x="375.259374" y="15.829"/>
</g>
<g fill="rgb(12.5%, 12.89978%, 14.099121%)" fill-opacity="1">
<use xlink:href="#glyph-0-20" x="383.221538" y="15.829"/>
<use xlink:href="#glyph-0-15" x="388.206856" y="15.829"/>
<use xlink:href="#glyph-0-17" x="393.685326" y="15.829"/>
</g>
<g fill="rgb(12.5%, 12.89978%, 14.099121%)" fill-opacity="1">
<use xlink:href="#glyph-0-21" x="401.656456" y="15.829"/>
<use xlink:href="#glyph-0-15" x="407.134926" y="15.829"/>
<use xlink:href="#glyph-0-26" x="412.613397" y="15.829"/>
</g>
</svg>
