<?xml version="1.0" encoding="UTF-8"?>
<svg xmlns="http://www.w3.org/2000/svg" xmlns:xlink="http://www.w3.org/1999/xlink" width="460.47pt" height="134.52pt" viewBox="0 0 460.47 134.52">
<defs>
<g>
<g id="glyph-0-0">
<path d="M 1.5625 -3.234375 L 0.453125 -3.4375 C 0.578125 -3.882812 0.789062 -4.210938 1.09375 -4.421875 C 1.394531 -4.640625 1.851562 -4.75 2.46875 -4.75 C 3.007812 -4.75 3.414062 -4.679688 3.6875 -4.546875 C 3.957031 -4.421875 4.144531 -4.257812 4.25 -4.0625 C 4.363281 -3.863281 4.421875 -3.5 4.421875 -2.96875 L 4.40625 -1.53125 C 4.40625 -1.125 4.425781 -0.820312 4.46875 -0.625 C 4.507812 -0.425781 4.582031 -0.21875 4.6875 0 L 3.46875 0 C 3.4375 -0.0820312 3.394531 -0.203125 3.34375 -0.359375 C 3.320312 -0.429688 3.3125 -0.484375 3.3125 -0.515625 C 3.09375 -0.304688 2.863281 -0.148438 2.625 -0.046875 C 2.382812 0.0546875 2.128906 0.109375 1.859375 0.109375 C 1.378906 0.109375 1 -0.0195312 0.71875 -0.28125 C 0.445312 -0.539062 0.3125 -0.867188 0.3125 -1.265625 C 0.3125 -1.535156 0.375 -1.769531 0.5 -1.96875 C 0.632812 -2.175781 0.8125 -2.332031 1.03125 -2.4375 C 1.257812 -2.550781 1.585938 -2.648438 2.015625 -2.734375 C 2.585938 -2.835938 2.984375 -2.9375 3.203125 -3.03125 L 3.203125 -3.15625 C 3.203125 -3.394531 3.144531 -3.5625 3.03125 -3.65625 C 2.914062 -3.757812 2.695312 -3.8125 2.375 -3.8125 C 2.15625 -3.8125 1.984375 -3.769531 1.859375 -3.6875 C 1.734375 -3.601562 1.632812 -3.453125 1.5625 -3.234375 Z M 3.203125 -2.234375 C 3.046875 -2.179688 2.796875 -2.117188 2.453125 -2.046875 C 2.117188 -1.972656 1.898438 -1.898438 1.796875 -1.828125 C 1.628906 -1.710938 1.546875 -1.566406 1.546875 -1.390625 C 1.546875 -1.222656 1.609375 -1.078125 1.734375 -0.953125 C 1.867188 -0.828125 2.035156 -0.765625 2.234375 -0.765625 C 2.453125 -0.765625 2.664062 -0.835938 2.875 -0.984375 C 3.019531 -1.085938 3.113281 -1.222656 3.15625 -1.390625 C 3.1875 -1.492188 3.203125 -1.691406 3.203125 -1.984375 Z M 3.203125 -2.234375 "/>
</g>
<g id="glyph-0-1">
<path d="M 0.59375 0 L 0.59375 -6.421875 L 1.828125 -6.421875 L 1.828125 -4.109375 C 2.203125 -4.535156 2.648438 -4.75 3.171875 -4.75 C 3.734375 -4.75 4.195312 -4.546875 4.5625 -4.140625 C 4.9375 -3.734375 5.125 -3.144531 5.125 -2.375 C 5.125 -1.582031 4.9375 -0.96875 4.5625 -0.53125 C 4.1875 -0.101562 3.726562 0.109375 3.1875 0.109375 C 2.925781 0.109375 2.664062 0.0390625 2.40625 -0.09375 C 2.144531 -0.226562 1.921875 -0.425781 1.734375 -0.6875 L 1.734375 0 Z M 1.8125 -2.421875 C 1.8125 -1.941406 1.890625 -1.585938 2.046875 -1.359375 C 2.253906 -1.023438 2.535156 -0.859375 2.890625 -0.859375 C 3.160156 -0.859375 3.390625 -0.972656 3.578125 -1.203125 C 3.773438 -1.441406 3.875 -1.8125 3.875 -2.3125 C 3.875 -2.84375 3.773438 -3.222656 3.578125 -3.453125 C 3.390625 -3.691406 3.144531 -3.8125 2.84375 -3.8125 C 2.550781 -3.8125 2.304688 -3.695312 2.109375 -3.46875 C 1.910156 -3.238281 1.8125 -2.890625 1.8125 -2.421875 Z M 1.8125 -2.421875 "/>
</g>
<g id="glyph-0-2">
<path d="M 0.203125 -1.328125 L 1.4375 -1.515625 C 1.5 -1.273438 1.609375 -1.09375 1.765625 -0.96875 C 1.921875 -0.84375 2.144531 -0.78125 2.4375 -0.78125 C 2.757812 -0.78125 3 -0.835938 3.15625 -0.953125 C 3.257812 -1.035156 3.3125 -1.144531 3.3125 -1.28125 C 3.3125 -1.375 3.285156 -1.453125 3.234375 -1.515625 C 3.171875 -1.578125 3.03125 -1.632812 2.8125 -1.6875 C 1.820312 -1.90625 1.195312 -2.101562 0.9375 -2.28125 C 0.5625 -2.53125 0.375 -2.878906 0.375 -3.328125 C 0.375 -3.734375 0.53125 -4.070312 0.84375 -4.34375 C 1.164062 -4.613281 1.664062 -4.75 2.34375 -4.75 C 2.976562 -4.75 3.445312 -4.644531 3.75 -4.4375 C 4.0625 -4.238281 4.273438 -3.9375 4.390625 -3.53125 L 3.234375 -3.3125 C 3.179688 -3.488281 3.085938 -3.625 2.953125 -3.71875 C 2.816406 -3.820312 2.617188 -3.875 2.359375 -3.875 C 2.035156 -3.875 1.804688 -3.828125 1.671875 -3.734375 C 1.578125 -3.671875 1.53125 -3.585938 1.53125 -3.484375 C 1.53125 -3.398438 1.566406 -3.328125 1.640625 -3.265625 C 1.753906 -3.179688 2.140625 -3.0625 2.796875 -2.90625 C 3.453125 -2.757812 3.910156 -2.582031 4.171875 -2.375 C 4.421875 -2.15625 4.546875 -1.847656 4.546875 -1.453125 C 4.546875 -1.023438 4.367188 -0.65625 4.015625 -0.34375 C 3.660156 -0.0390625 3.132812 0.109375 2.4375 0.109375 C 1.800781 0.109375 1.296875 -0.0195312 0.921875 -0.28125 C 0.554688 -0.539062 0.316406 -0.890625 0.203125 -1.328125 Z M 0.203125 -1.328125 "/>
</g>
<g id="glyph-0-3">
<path d="M 2.78125 -4.65625 L 2.78125 -3.671875 L 1.9375 -3.671875 L 1.9375 -1.796875 C 1.9375 -1.410156 1.941406 -1.1875 1.953125 -1.125 C 1.972656 -1.0625 2.007812 -1.007812 2.0625 -0.96875 C 2.125 -0.9375 2.195312 -0.921875 2.28125 -0.921875 C 2.394531 -0.921875 2.554688 -0.957031 2.765625 -1.03125 L 2.875 -0.078125 C 2.59375 0.0429688 2.269531 0.109375 1.90625 0.109375 C 1.6875 0.109375 1.484375 0.0703125 1.296875 0 C 1.117188 -0.0820312 0.988281 -0.179688 0.90625 -0.296875 C 0.820312 -0.410156 0.765625 -0.570312 0.734375 -0.78125 C 0.710938 -0.914062 0.703125 -1.203125 0.703125 -1.640625 L 0.703125 -3.671875 L 0.140625 -3.671875 L 0.140625 -4.65625 L 0.703125 -4.65625 L 0.703125 -5.578125 L 1.9375 -6.296875 L 1.9375 -4.65625 Z M 2.78125 -4.65625 "/>
</g>
<g id="glyph-0-4">
<path d="M 1.828125 0 L 0.59375 0 L 0.59375 -4.65625 L 1.734375 -4.65625 L 1.734375 -3.984375 C 1.929688 -4.296875 2.109375 -4.5 2.265625 -4.59375 C 2.421875 -4.695312 2.597656 -4.75 2.796875 -4.75 C 3.078125 -4.75 3.347656 -4.675781 3.609375 -4.53125 L 3.21875 -3.453125 C 3.007812 -3.585938 2.816406 -3.65625 2.640625 -3.65625 C 2.472656 -3.65625 2.328125 -3.609375 2.203125 -3.515625 C 2.085938 -3.421875 1.992188 -3.25 1.921875 -3 C 1.859375 -2.75 1.828125 -2.226562 1.828125 -1.4375 Z M 1.828125 0 "/>
</g>
<g id="glyph-0-5">
<path d="M 4.703125 -3.28125 L 3.484375 -3.0625 C 3.441406 -3.300781 3.347656 -3.476562 3.203125 -3.59375 C 3.054688 -3.71875 2.867188 -3.78125 2.640625 -3.78125 C 2.335938 -3.78125 2.09375 -3.675781 1.90625 -3.46875 C 1.726562 -3.257812 1.640625 -2.90625 1.640625 -2.40625 C 1.640625 -1.851562 1.726562 -1.460938 1.90625 -1.234375 C 2.09375 -1.003906 2.34375 -0.890625 2.65625 -0.890625 C 2.894531 -0.890625 3.085938 -0.957031 3.234375 -1.09375 C 3.378906 -1.226562 3.484375 -1.457031 3.546875 -1.78125 L 4.765625 -1.578125 C 4.640625 -1.023438 4.394531 -0.601562 4.03125 -0.3125 C 3.675781 -0.03125 3.203125 0.109375 2.609375 0.109375 C 1.921875 0.109375 1.375 -0.101562 0.96875 -0.53125 C 0.570312 -0.96875 0.375 -1.566406 0.375 -2.328125 C 0.375 -3.085938 0.578125 -3.679688 0.984375 -4.109375 C 1.390625 -4.535156 1.9375 -4.75 2.625 -4.75 C 3.195312 -4.75 3.648438 -4.628906 3.984375 -4.390625 C 4.316406 -4.148438 4.554688 -3.78125 4.703125 -3.28125 Z M 4.703125 -3.28125 "/>
</g>
<g id="glyph-0-6">
<path d="M 3.34375 -1.484375 L 4.5625 -1.28125 C 4.40625 -0.820312 4.15625 -0.472656 3.8125 -0.234375 C 3.476562 -0.00390625 3.054688 0.109375 2.546875 0.109375 C 1.734375 0.109375 1.132812 -0.15625 0.75 -0.6875 C 0.4375 -1.113281 0.28125 -1.648438 0.28125 -2.296875 C 0.28125 -3.066406 0.484375 -3.664062 0.890625 -4.09375 C 1.296875 -4.53125 1.804688 -4.75 2.421875 -4.75 C 3.109375 -4.75 3.648438 -4.519531 4.046875 -4.0625 C 4.453125 -3.613281 4.644531 -2.914062 4.625 -1.96875 L 1.546875 -1.96875 C 1.554688 -1.601562 1.65625 -1.316406 1.84375 -1.109375 C 2.03125 -0.910156 2.265625 -0.8125 2.546875 -0.8125 C 2.742188 -0.8125 2.90625 -0.863281 3.03125 -0.96875 C 3.164062 -1.070312 3.269531 -1.242188 3.34375 -1.484375 Z M 3.40625 -2.71875 C 3.394531 -3.082031 3.300781 -3.351562 3.125 -3.53125 C 2.957031 -3.71875 2.742188 -3.8125 2.484375 -3.8125 C 2.222656 -3.8125 2.003906 -3.710938 1.828125 -3.515625 C 1.648438 -3.328125 1.5625 -3.0625 1.5625 -2.71875 Z M 3.40625 -2.71875 "/>
</g>
<g id="glyph-1-0">
<path d="M 7.328125 -6.046875 L 7.328125 -6.21875 C 7.0625 -6.203125 6.65625 -6.140625 6.34375 -6.03125 C 6.078125 -5.921875 5.828125 -5.796875 5.578125 -5.65625 C 5.203125 -5.421875 4.90625 -5.0625 4.640625 -4.703125 C 4.234375 -4.140625 3.890625 -3.59375 3.53125 -3 C 3.140625 -2.375 2.53125 -1.375 2.34375 -1.140625 C 2.15625 -0.921875 1.9375 -0.640625 1.703125 -0.453125 C 1.5625 -0.34375 1.4375 -0.28125 1.28125 -0.28125 C 1.203125 -0.28125 1.125 -0.3125 1.078125 -0.375 C 1.046875 -0.40625 1.015625 -0.453125 1.03125 -0.53125 C 1.046875 -0.59375 1.078125 -0.671875 1.109375 -0.75 C 1.125 -0.796875 1.15625 -0.859375 1.171875 -0.890625 C 1.1875 -0.953125 1.171875 -1.015625 1.140625 -1.046875 C 1.09375 -1.125 1 -1.171875 0.890625 -1.171875 C 0.796875 -1.171875 0.703125 -1.171875 0.609375 -1.09375 C 0.5 -1 0.421875 -0.875 0.390625 -0.765625 C 0.328125 -0.53125 0.34375 -0.3125 0.46875 -0.140625 C 0.578125 0.015625 0.765625 0.09375 0.984375 0.09375 C 1.328125 0.09375 1.703125 -0.09375 2.015625 -0.34375 C 2.390625 -0.640625 3.0625 -1.34375 3.546875 -2.109375 L 5.53125 -2.109375 L 5.1875 -0.703125 C 5.140625 -0.546875 5.109375 -0.40625 5.109375 -0.265625 C 5.125 -0.15625 5.125 -0.0625 5.1875 0.015625 C 5.234375 0.09375 5.359375 0.140625 5.46875 0.140625 C 5.6875 0.140625 5.921875 0.015625 6.140625 -0.09375 C 6.46875 -0.28125 6.78125 -0.5 7.0625 -0.765625 L 6.96875 -0.921875 C 6.8125 -0.8125 6.6875 -0.71875 6.53125 -0.625 C 6.421875 -0.5625 6.3125 -0.5 6.1875 -0.5 C 6.109375 -0.5 6.046875 -0.515625 6 -0.578125 C 5.890625 -0.71875 5.90625 -0.9375 5.9375 -1.15625 C 6.046875 -1.78125 6.203125 -2.421875 6.34375 -3.046875 L 7 -5.65625 C 7.046875 -5.8125 7.078125 -5.90625 7.1875 -5.96875 Z M 6.4375 -5.71875 L 5.625 -2.5 L 3.796875 -2.5 C 4.171875 -3.1875 4.546875 -3.875 4.984375 -4.53125 C 5.234375 -4.890625 5.484375 -5.28125 5.84375 -5.546875 C 6.015625 -5.6875 6.203125 -5.78125 6.375 -5.828125 Z M 6.4375 -5.71875 "/>
</g>
<g id="glyph-1-1">
<path d="M 6.46875 -3.109375 C 6.46875 -3.203125 6.390625 -3.296875 6.296875 -3.296875 L 0.6875 -3.296875 C 0.578125 -3.296875 0.5 -3.203125 0.5 -3.109375 C 0.5 -3.015625 0.578125 -2.9375 0.6875 -2.9375 L 6.296875 -2.9375 C 6.390625 -2.9375 6.46875 -3.015625 6.46875 -3.109375 Z M 6.46875 -1.375 C 6.46875 -1.46875 6.390625 -1.546875 6.296875 -1.546875 L 0.6875 -1.546875 C 0.578125 -1.546875 0.5 -1.46875 0.5 -1.375 C 0.5 -1.28125 0.578125 -1.1875 0.6875 -1.1875 L 6.296875 -1.1875 C 6.390625 -1.1875 6.46875 -1.28125 6.46875 -1.375 Z M 6.46875 -1.375 "/>
</g>
<g id="glyph-1-2">
<path d="M 3.8125 2.140625 C 3.8125 2.078125 3.765625 2.03125 3.703125 2.03125 C 3.03125 2.03125 2.53125 1.59375 2.53125 1.125 L 2.53125 -1.125 C 2.53125 -1.640625 2.109375 -2.046875 1.5 -2.25 C 2.109375 -2.4375 2.53125 -2.84375 2.53125 -3.359375 L 2.53125 -5.609375 C 2.53125 -6.078125 3.03125 -6.515625 3.703125 -6.515625 C 3.765625 -6.515625 3.8125 -6.5625 3.8125 -6.625 C 3.8125 -6.6875 3.765625 -6.734375 3.703125 -6.734375 C 2.765625 -6.734375 1.953125 -6.265625 1.953125 -5.609375 L 1.953125 -3.359375 C 1.953125 -2.84375 1.453125 -2.34375 0.78125 -2.34375 C 0.71875 -2.34375 0.671875 -2.3125 0.671875 -2.25 C 0.671875 -2.171875 0.71875 -2.140625 0.78125 -2.140625 C 1.453125 -2.140625 1.953125 -1.640625 1.953125 -1.125 L 1.953125 1.125 C 1.953125 1.78125 2.765625 2.25 3.703125 2.25 C 3.765625 2.25 3.8125 2.203125 3.8125 2.140625 Z M 3.8125 2.140625 "/>
</g>
<g id="glyph-1-3">
<path d="M -0.75 -5.46875 L -0.75 -5.734375 L -3.984375 -5.734375 L -3.984375 -5.46875 Z M -0.75 -5.46875 "/>
</g>
<g id="glyph-1-4">
<path d="M 3.859375 -0.953125 C 3.859375 -1.015625 3.796875 -1.078125 3.75 -1.078125 C 3.703125 -1.078125 3.6875 -1.0625 3.625 -0.984375 C 2.921875 -0.09375 1.953125 -0.09375 1.84375 -0.09375 C 1.28125 -0.09375 1.03125 -0.53125 1.03125 -1.078125 C 1.03125 -1.4375 1.203125 -2.3125 1.515625 -2.875 C 1.796875 -3.375 2.28125 -3.765625 2.78125 -3.765625 C 3.078125 -3.765625 3.421875 -3.65625 3.546875 -3.40625 C 3.40625 -3.40625 3.28125 -3.40625 3.15625 -3.28125 C 3.015625 -3.140625 3 -3 3 -2.9375 C 3 -2.71875 3.15625 -2.625 3.328125 -2.625 C 3.59375 -2.625 3.828125 -2.828125 3.828125 -3.1875 C 3.828125 -3.625 3.40625 -3.96875 2.765625 -3.96875 C 1.5625 -3.96875 0.375 -2.6875 0.375 -1.421875 C 0.375 -0.609375 0.890625 0.09375 1.828125 0.09375 C 3.109375 0.09375 3.859375 -0.859375 3.859375 -0.953125 Z M 3.859375 -0.953125 "/>
</g>
<g id="glyph-1-5">
<path d="M 1.828125 -0.015625 C 1.828125 -0.59375 1.59375 -0.953125 1.25 -0.953125 C 0.953125 -0.953125 0.765625 -0.71875 0.765625 -0.46875 C 0.765625 -0.234375 0.953125 0 1.25 0 C 1.359375 0 1.46875 -0.03125 1.5625 -0.109375 C 1.59375 -0.140625 1.609375 -0.140625 1.609375 -0.140625 C 1.609375 -0.140625 1.625 -0.140625 1.625 -0.015625 C 1.625 0.65625 1.3125 1.1875 1.015625 1.484375 C 0.921875 1.59375 0.921875 1.609375 0.921875 1.625 C 0.921875 1.6875 0.953125 1.734375 1 1.734375 C 1.109375 1.734375 1.828125 1.046875 1.828125 -0.015625 Z M 1.828125 -0.015625 "/>
</g>
<g id="glyph-1-6">
<path d="M 1.734375 -0.46875 C 1.734375 -0.734375 1.515625 -0.953125 1.25 -0.953125 C 1 -0.953125 0.78125 -0.734375 0.78125 -0.46875 C 0.78125 -0.21875 1 0 1.25 0 C 1.515625 0 1.734375 -0.21875 1.734375 -0.46875 Z M 4.234375 -0.46875 C 4.234375 -0.734375 4.015625 -0.953125 3.765625 -0.953125 C 3.5 -0.953125 3.28125 -0.734375 3.28125 -0.46875 C 3.28125 -0.21875 3.5 0 3.765625 0 C 4.015625 0 4.234375 -0.21875 4.234375 -0.46875 Z M 6.734375 -0.46875 C 6.734375 -0.734375 6.515625 -0.953125 6.265625 -0.953125 C 6 -0.953125 5.78125 -0.734375 5.78125 -0.46875 C 5.78125 -0.21875 6 0 6.265625 0 C 6.515625 0 6.734375 -0.21875 6.734375 -0.46875 Z M 6.734375 -0.46875 "/>
</g>
<g id="glyph-1-7">
<path d="M 3.8125 -2.25 C 3.8125 -2.3125 3.765625 -2.34375 3.703125 -2.34375 C 3.03125 -2.34375 2.53125 -2.84375 2.53125 -3.359375 L 2.53125 -5.609375 C 2.53125 -6.265625 1.71875 -6.734375 0.78125 -6.734375 C 0.71875 -6.734375 0.671875 -6.6875 0.671875 -6.625 C 0.671875 -6.5625 0.71875 -6.515625 0.78125 -6.515625 C 1.453125 -6.515625 1.953125 -6.078125 1.953125 -5.609375 L 1.953125 -3.359375 C 1.953125 -2.84375 2.375 -2.4375 2.984375 -2.25 C 2.375 -2.046875 1.953125 -1.640625 1.953125 -1.125 L 1.953125 1.125 C 1.953125 1.59375 1.453125 2.03125 0.78125 2.03125 C 0.71875 2.03125 0.671875 2.078125 0.671875 2.140625 C 0.671875 2.203125 0.71875 2.25 0.78125 2.25 C 1.71875 2.25 2.53125 1.78125 2.53125 1.125 L 2.53125 -1.125 C 2.53125 -1.640625 3.03125 -2.140625 3.703125 -2.140625 C 3.765625 -2.140625 3.8125 -2.171875 3.8125 -2.25 Z M 3.8125 -2.25 "/>
</g>
<g id="glyph-1-8">
<path d="M 3.5625 -5.609375 C 3.5625 -5.78125 3.4375 -5.921875 3.21875 -5.921875 C 3.015625 -5.921875 2.75 -5.71875 2.75 -5.453125 C 2.75 -5.28125 2.875 -5.125 3.078125 -5.125 C 3.3125 -5.125 3.5625 -5.359375 3.5625 -5.609375 Z M 3.234375 -3.140625 C 3.234375 -3.65625 2.859375 -3.96875 2.40625 -3.96875 C 1.484375 -3.96875 0.984375 -2.65625 0.984375 -2.578125 C 0.984375 -2.5 1.078125 -2.5 1.078125 -2.5 C 1.171875 -2.5 1.171875 -2.5 1.25 -2.671875 C 1.46875 -3.21875 1.890625 -3.765625 2.375 -3.765625 C 2.5 -3.765625 2.65625 -3.734375 2.65625 -3.359375 C 2.65625 -3.140625 2.640625 -3.046875 2.59375 -2.890625 L 1.765625 0.453125 C 1.59375 1.125 1.15625 1.640625 0.65625 1.640625 C 0.59375 1.640625 0.46875 1.640625 0.3125 1.5625 C 0.578125 1.5 0.703125 1.265625 0.703125 1.078125 C 0.703125 0.9375 0.609375 0.765625 0.375 0.765625 C 0.140625 0.765625 -0.109375 0.953125 -0.109375 1.28125 C -0.109375 1.640625 0.234375 1.84375 0.671875 1.84375 C 1.296875 1.84375 2.140625 1.359375 2.359375 0.46875 L 3.1875 -2.8125 C 3.234375 -2.984375 3.234375 -3.109375 3.234375 -3.140625 Z M 3.234375 -3.140625 "/>
</g>
<g id="glyph-1-9">
<path d="M 4.125 -2.875 C 4.125 -3.59375 4.078125 -4.3125 3.765625 -4.96875 C 3.359375 -5.828125 2.625 -5.96875 2.25 -5.96875 C 1.703125 -5.96875 1.046875 -5.734375 0.6875 -4.90625 C 0.390625 -4.28125 0.34375 -3.59375 0.34375 -2.875 C 0.34375 -2.203125 0.390625 -1.390625 0.75 -0.703125 C 1.140625 0.015625 1.796875 0.203125 2.234375 0.203125 C 2.71875 0.203125 3.40625 0.015625 3.796875 -0.84375 C 4.078125 -1.46875 4.125 -2.15625 4.125 -2.875 Z M 3.375 -2.984375 C 3.375 -2.3125 3.375 -1.6875 3.28125 -1.125 C 3.140625 -0.265625 2.640625 0 2.234375 0 C 1.890625 0 1.359375 -0.21875 1.1875 -1.078125 C 1.09375 -1.625 1.09375 -2.453125 1.09375 -2.984375 C 1.09375 -3.546875 1.09375 -4.140625 1.171875 -4.625 C 1.34375 -5.6875 2.015625 -5.78125 2.234375 -5.78125 C 2.53125 -5.78125 3.125 -5.609375 3.296875 -4.734375 C 3.375 -4.21875 3.375 -3.546875 3.375 -2.984375 Z M 3.375 -2.984375 "/>
</g>
<g id="glyph-1-10">
<path d="M 3.765625 0 L 3.765625 -0.28125 L 3.46875 -0.28125 C 2.65625 -0.28125 2.640625 -0.375 2.640625 -0.703125 L 2.640625 -5.734375 C 2.640625 -5.953125 2.640625 -5.96875 2.4375 -5.96875 C 1.875 -5.40625 1.078125 -5.40625 0.796875 -5.40625 L 0.796875 -5.125 C 0.984375 -5.125 1.5 -5.125 1.96875 -5.359375 L 1.96875 -0.703125 C 1.96875 -0.390625 1.953125 -0.28125 1.140625 -0.28125 L 0.859375 -0.28125 L 0.859375 0 C 1.171875 -0.03125 1.953125 -0.03125 2.3125 -0.03125 C 2.65625 -0.03125 3.4375 -0.03125 3.765625 0 Z M 3.765625 0 "/>
</g>
<g id="glyph-1-11">
<path d="M 4.03125 -1.5625 L 3.796875 -1.5625 C 3.765625 -1.296875 3.6875 -0.890625 3.609375 -0.765625 C 3.546875 -0.6875 2.953125 -0.6875 2.75 -0.6875 L 1.140625 -0.6875 L 2.09375 -1.609375 C 3.484375 -2.859375 4.03125 -3.34375 4.03125 -4.234375 C 4.03125 -5.25 3.21875 -5.96875 2.125 -5.96875 C 1.109375 -5.96875 0.453125 -5.140625 0.453125 -4.34375 C 0.453125 -3.84375 0.890625 -3.84375 0.921875 -3.84375 C 1.078125 -3.84375 1.390625 -3.953125 1.390625 -4.328125 C 1.390625 -4.5625 1.234375 -4.796875 0.921875 -4.796875 C 0.84375 -4.796875 0.828125 -4.796875 0.796875 -4.78125 C 1 -5.359375 1.484375 -5.6875 2.015625 -5.6875 C 2.828125 -5.6875 3.203125 -4.96875 3.203125 -4.234375 C 3.203125 -3.515625 2.765625 -2.8125 2.265625 -2.25 L 0.546875 -0.328125 C 0.453125 -0.234375 0.453125 -0.21875 0.453125 0 L 3.78125 0 Z M 4.03125 -1.5625 "/>
</g>
<g id="glyph-1-12">
<path d="M 7.90625 -6.03125 C 7.90625 -6.03125 7.90625 -6.125 7.78125 -6.125 C 7.484375 -6.125 7.171875 -6.09375 6.875 -6.09375 C 6.578125 -6.09375 6.265625 -6.125 5.96875 -6.125 C 5.90625 -6.125 5.796875 -6.125 5.796875 -5.953125 C 5.796875 -5.84375 5.890625 -5.84375 5.96875 -5.84375 C 6.46875 -5.84375 6.578125 -5.65625 6.578125 -5.453125 C 6.578125 -5.421875 6.5625 -5.296875 6.546875 -5.265625 L 5.546875 -1.28125 L 3.5625 -5.953125 C 3.484375 -6.109375 3.484375 -6.125 3.28125 -6.125 L 2.078125 -6.125 C 1.890625 -6.125 1.8125 -6.125 1.8125 -5.953125 C 1.8125 -5.84375 1.890625 -5.84375 2.0625 -5.84375 C 2.109375 -5.84375 2.671875 -5.84375 2.671875 -5.765625 L 1.46875 -0.953125 C 1.375 -0.59375 1.234375 -0.3125 0.5 -0.28125 C 0.453125 -0.28125 0.34375 -0.265625 0.34375 -0.09375 C 0.34375 -0.03125 0.390625 0 0.46875 0 C 0.75 0 1.0625 -0.03125 1.359375 -0.03125 C 1.671875 -0.03125 1.984375 0 2.28125 0 C 2.328125 0 2.453125 0 2.453125 -0.171875 C 2.453125 -0.265625 2.375 -0.28125 2.265625 -0.28125 C 1.75 -0.296875 1.671875 -0.5 1.671875 -0.671875 C 1.671875 -0.734375 1.6875 -0.78125 1.71875 -0.875 L 2.890625 -5.609375 C 2.9375 -5.5625 2.9375 -5.546875 2.984375 -5.453125 L 5.203125 -0.171875 C 5.28125 -0.015625 5.296875 0 5.375 0 C 5.484375 0 5.484375 -0.03125 5.53125 -0.1875 L 6.78125 -5.1875 C 6.875 -5.546875 7.03125 -5.828125 7.75 -5.84375 C 7.796875 -5.84375 7.90625 -5.859375 7.90625 -6.03125 Z M 7.90625 -6.03125 "/>
</g>
<g id="glyph-1-13">
<path d="M 1.453125 -2.25 C 1.453125 -2.5 1.234375 -2.71875 0.984375 -2.71875 C 0.71875 -2.71875 0.5 -2.5 0.5 -2.25 C 0.5 -1.984375 0.71875 -1.765625 0.984375 -1.765625 C 1.234375 -1.765625 1.453125 -1.984375 1.453125 -2.25 Z M 3.953125 -2.25 C 3.953125 -2.5 3.734375 -2.71875 3.484375 -2.71875 C 3.21875 -2.71875 3 -2.5 3 -2.25 C 3 -1.984375 3.21875 -1.765625 3.484375 -1.765625 C 3.734375 -1.765625 3.953125 -1.984375 3.953125 -2.25 Z M 6.453125 -2.25 C 6.453125 -2.5 6.25 -2.71875 5.984375 -2.71875 C 5.71875 -2.71875 5.5 -2.5 5.5 -2.25 C 5.5 -1.984375 5.71875 -1.765625 5.984375 -1.765625 C 6.25 -1.765625 6.453125 -1.984375 6.453125 -2.25 Z M 6.453125 -2.25 "/>
</g>
<g id="glyph-1-14">
<path d="M 8.265625 -2.25 C 8.265625 -2.296875 8.21875 -2.34375 8.171875 -2.359375 C 7.671875 -2.53125 7.28125 -2.890625 6.953125 -3.296875 C 6.703125 -3.609375 6.515625 -4.015625 6.4375 -4.4375 C 6.40625 -4.515625 6.34375 -4.578125 6.25 -4.578125 C 6.15625 -4.578125 6.078125 -4.5 6.078125 -4.390625 C 6.078125 -4.390625 6.078125 -4.375 6.078125 -4.359375 C 6.171875 -3.890625 6.375 -3.4375 6.671875 -3.0625 C 6.875 -2.8125 7.109375 -2.59375 7.375 -2.421875 L 0.859375 -2.421875 L 0.859375 -4.390625 C 0.859375 -4.640625 0.5 -4.640625 0.5 -4.390625 L 0.5 -0.09375 C 0.5 0.15625 0.859375 0.15625 0.859375 -0.09375 L 0.859375 -2.0625 L 7.375 -2.0625 C 7.109375 -1.890625 6.875 -1.671875 6.671875 -1.421875 C 6.375 -1.046875 6.171875 -0.59375 6.078125 -0.125 C 6.078125 -0.109375 6.078125 -0.09375 6.078125 -0.09375 C 6.078125 0.015625 6.15625 0.09375 6.25 0.09375 C 6.34375 0.09375 6.40625 0.03125 6.4375 -0.046875 C 6.515625 -0.46875 6.703125 -0.875 6.953125 -1.1875 C 7.28125 -1.59375 7.671875 -1.953125 8.171875 -2.125 C 8.21875 -2.140625 8.265625 -2.1875 8.265625 -2.25 Z M 8.265625 -2.25 "/>
</g>
<g id="glyph-1-15">
<path d="M 7.328125 -3.515625 C 7.5 -4.1875 7.546875 -4.890625 7.1875 -5.359375 C 6.9375 -5.671875 6.578125 -5.859375 6.1875 -5.984375 C 5.671875 -6.15625 5.109375 -6.171875 4.53125 -6.171875 L 4.578125 -6.390625 L 4.53125 -6.421875 L 3.90625 -6.140625 C 3.25 -6.09375 2.5 -5.90625 1.84375 -5.390625 C 1.515625 -5.125 1.25 -4.765625 1.171875 -4.390625 C 1.125 -4.21875 1.109375 -4.046875 1.15625 -3.953125 C 1.1875 -3.890625 1.25 -3.828125 1.359375 -3.828125 C 1.46875 -3.828125 1.5625 -3.875 1.65625 -3.953125 C 1.75 -4.03125 1.796875 -4.140625 1.828125 -4.25 C 1.875 -4.4375 1.84375 -4.59375 1.90625 -4.796875 C 1.953125 -4.984375 2.078125 -5.203125 2.25 -5.34375 C 2.75 -5.734375 3.296875 -5.890625 3.84375 -5.890625 L 3.15625 -3.109375 C 3.046875 -2.671875 2.9375 -2.21875 2.734375 -1.796875 C 2.625 -1.53125 2.46875 -1.265625 2.25 -1.078125 C 1.78125 -0.703125 1.25 -0.484375 0.71875 -0.484375 L 0.359375 -0.03125 L 2.96875 -0.03125 C 3.90625 -0.03125 4.859375 -0.390625 5.6875 -1.046875 C 6.5 -1.703125 7.09375 -2.59375 7.328125 -3.515625 Z M 6.65625 -3.46875 C 6.546875 -3 6.390625 -2.53125 6.140625 -2.09375 C 5.921875 -1.734375 5.671875 -1.40625 5.34375 -1.140625 C 5.046875 -0.890625 4.703125 -0.703125 4.375 -0.609375 C 3.9375 -0.484375 3.5 -0.484375 3.078125 -0.484375 L 1.984375 -0.484375 L 1.984375 -0.578125 L 2.375 -0.90625 C 2.765625 -1.234375 3.078125 -1.65625 3.3125 -2.078125 C 3.59375 -2.625 3.796875 -3.203125 3.9375 -3.78125 L 4.453125 -5.890625 C 4.90625 -5.890625 5.3125 -5.84375 5.703125 -5.71875 C 6 -5.625 6.265625 -5.5 6.453125 -5.265625 C 6.8125 -4.796875 6.828125 -4.125 6.65625 -3.46875 Z M 6.65625 -3.46875 "/>
</g>
<g id="glyph-1-16">
<path d="M 2.984375 2.140625 C 2.984375 2.109375 2.953125 2.078125 2.9375 2.0625 C 2.015625 1.359375 1.390625 -0.4375 1.390625 -1.859375 L 1.390625 -2.625 C 1.390625 -4.046875 2.015625 -5.84375 2.9375 -6.546875 C 2.953125 -6.5625 2.984375 -6.59375 2.984375 -6.625 C 2.984375 -6.65625 2.9375 -6.703125 2.890625 -6.703125 C 2.875 -6.703125 2.859375 -6.703125 2.828125 -6.6875 C 1.84375 -5.953125 0.90625 -4.15625 0.90625 -2.625 L 0.90625 -1.859375 C 0.90625 -0.328125 1.84375 1.46875 2.828125 2.203125 C 2.859375 2.21875 2.875 2.21875 2.890625 2.21875 C 2.9375 2.21875 2.984375 2.171875 2.984375 2.140625 Z M 2.984375 2.140625 "/>
</g>
<g id="glyph-1-17">
<path d="M 4.390625 -3.625 C 4.390625 -3.78125 4.265625 -3.859375 4.140625 -3.859375 C 4.046875 -3.859375 3.90625 -3.8125 3.828125 -3.671875 C 3.796875 -3.625 3.734375 -3.359375 3.6875 -3.1875 L 3.515625 -2.46875 L 3.109375 -0.859375 C 3.078125 -0.71875 2.6875 -0.09375 2.09375 -0.09375 C 1.640625 -0.09375 1.546875 -0.5 1.546875 -0.828125 C 1.546875 -1.234375 1.6875 -1.796875 2 -2.578125 C 2.140625 -2.953125 2.171875 -3.046875 2.171875 -3.234375 C 2.171875 -3.625 1.890625 -3.96875 1.4375 -3.96875 C 0.59375 -3.96875 0.265625 -2.65625 0.265625 -2.578125 C 0.265625 -2.5 0.375 -2.5 0.375 -2.5 C 0.453125 -2.5 0.46875 -2.515625 0.515625 -2.65625 C 0.75 -3.5 1.109375 -3.765625 1.421875 -3.765625 C 1.484375 -3.765625 1.640625 -3.765625 1.640625 -3.484375 C 1.640625 -3.25 1.546875 -3.015625 1.484375 -2.859375 C 1.125 -1.90625 0.96875 -1.390625 0.96875 -0.96875 C 0.96875 -0.171875 1.53125 0.09375 2.0625 0.09375 C 2.40625 0.09375 2.71875 -0.046875 2.96875 -0.3125 C 2.859375 0.15625 2.75 0.59375 2.390625 1.078125 C 2.15625 1.375 1.8125 1.640625 1.40625 1.640625 C 1.28125 1.640625 0.875 1.609375 0.71875 1.265625 C 0.859375 1.265625 0.984375 1.265625 1.109375 1.15625 C 1.1875 1.078125 1.28125 0.953125 1.28125 0.796875 C 1.28125 0.515625 1.046875 0.46875 0.953125 0.46875 C 0.75 0.46875 0.453125 0.625 0.453125 1.0625 C 0.453125 1.5 0.84375 1.84375 1.40625 1.84375 C 2.328125 1.84375 3.25 1.015625 3.5 0.015625 L 4.359375 -3.421875 C 4.390625 -3.546875 4.390625 -3.5625 4.390625 -3.625 Z M 4.390625 -3.625 "/>
</g>
<g id="glyph-1-18">
<path d="M 1.71875 -3.390625 C 1.71875 -3.65625 1.5 -3.859375 1.25 -3.859375 C 0.984375 -3.859375 0.765625 -3.65625 0.765625 -3.390625 C 0.765625 -3.125 0.984375 -2.921875 1.25 -2.921875 C 1.5 -2.921875 1.71875 -3.125 1.71875 -3.390625 Z M 1.75 -0.03125 C 1.75 -0.28125 1.734375 -0.953125 1.25 -0.953125 C 0.9375 -0.953125 0.765625 -0.703125 0.765625 -0.46875 C 0.765625 -0.234375 0.921875 0 1.25 0 C 1.296875 0 1.3125 -0.015625 1.3125 -0.015625 C 1.375 -0.015625 1.484375 -0.03125 1.546875 -0.09375 C 1.546875 0.15625 1.546875 0.859375 0.984375 1.515625 C 0.921875 1.59375 0.921875 1.609375 0.921875 1.625 C 0.921875 1.6875 0.953125 1.734375 1 1.734375 C 1.109375 1.734375 1.75 1.015625 1.75 -0.03125 Z M 1.75 -0.03125 "/>
</g>
<g id="glyph-1-19">
<path d="M 5.125 -1.28125 C 5.125 -1.375 5.046875 -1.375 5.015625 -1.375 C 4.921875 -1.375 4.921875 -1.34375 4.875 -1.203125 C 4.703125 -0.59375 4.40625 -0.09375 3.96875 -0.09375 C 3.8125 -0.09375 3.75 -0.1875 3.75 -0.390625 C 3.75 -0.625 3.828125 -0.828125 3.90625 -1.03125 C 4.078125 -1.5 4.453125 -2.5 4.453125 -3 C 4.453125 -3.609375 4.078125 -3.96875 3.421875 -3.96875 C 2.625 -3.96875 2.171875 -3.390625 2.03125 -3.1875 C 1.984375 -3.6875 1.609375 -3.96875 1.203125 -3.96875 C 0.796875 -3.96875 0.625 -3.609375 0.53125 -3.453125 C 0.390625 -3.140625 0.265625 -2.625 0.265625 -2.578125 C 0.265625 -2.5 0.375 -2.5 0.375 -2.5 C 0.453125 -2.5 0.46875 -2.5 0.515625 -2.703125 C 0.671875 -3.34375 0.859375 -3.765625 1.171875 -3.765625 C 1.359375 -3.765625 1.453125 -3.65625 1.453125 -3.359375 C 1.453125 -3.171875 1.421875 -3.0625 1.3125 -2.59375 L 0.796875 -0.53125 C 0.765625 -0.390625 0.703125 -0.1875 0.703125 -0.140625 C 0.703125 0.015625 0.828125 0.09375 0.96875 0.09375 C 1.078125 0.09375 1.234375 0.03125 1.296875 -0.15625 C 1.3125 -0.171875 1.421875 -0.59375 1.46875 -0.8125 L 1.671875 -1.625 C 1.71875 -1.828125 1.78125 -2.015625 1.828125 -2.21875 L 1.9375 -2.671875 C 2.078125 -2.953125 2.546875 -3.765625 3.40625 -3.765625 C 3.796875 -3.765625 3.890625 -3.4375 3.890625 -3.140625 C 3.890625 -2.578125 3.4375 -1.4375 3.296875 -1.046875 C 3.21875 -0.84375 3.203125 -0.734375 3.203125 -0.640625 C 3.203125 -0.21875 3.53125 0.09375 3.953125 0.09375 C 4.796875 0.09375 5.125 -1.203125 5.125 -1.28125 Z M 5.125 -1.28125 "/>
</g>
<g id="glyph-1-20">
<path d="M 2.578125 -1.859375 L 2.578125 -2.625 C 2.578125 -4.15625 1.640625 -5.953125 0.65625 -6.6875 C 0.640625 -6.703125 0.625 -6.703125 0.59375 -6.703125 C 0.5625 -6.703125 0.515625 -6.65625 0.515625 -6.625 C 0.515625 -6.59375 0.53125 -6.5625 0.546875 -6.546875 C 1.484375 -5.84375 2.09375 -4.046875 2.09375 -2.625 L 2.09375 -1.859375 C 2.09375 -0.4375 1.484375 1.359375 0.546875 2.0625 C 0.53125 2.078125 0.515625 2.109375 0.515625 2.140625 C 0.515625 2.171875 0.5625 2.21875 0.59375 2.21875 C 0.625 2.21875 0.640625 2.21875 0.65625 2.203125 C 1.640625 1.46875 2.578125 -0.328125 2.578125 -1.859375 Z M 2.578125 -1.859375 "/>
</g>
<g id="glyph-2-0">
<path d="M 3.09375 -1.90625 C 3.09375 -2.5625 3.015625 -3.046875 2.734375 -3.453125 C 2.546875 -3.734375 2.171875 -3.96875 1.703125 -3.96875 C 0.3125 -3.96875 0.3125 -2.34375 0.3125 -1.90625 C 0.3125 -1.484375 0.3125 0.125 1.703125 0.125 C 3.09375 0.125 3.09375 -1.484375 3.09375 -1.90625 Z M 2.546875 -1.984375 C 2.546875 -1.546875 2.546875 -1.09375 2.46875 -0.71875 C 2.34375 -0.171875 1.9375 -0.046875 1.703125 -0.046875 C 1.421875 -0.046875 1.0625 -0.203125 0.9375 -0.703125 C 0.859375 -1.046875 0.859375 -1.546875 0.859375 -1.984375 C 0.859375 -2.421875 0.859375 -2.875 0.953125 -3.203125 C 1.078125 -3.6875 1.453125 -3.8125 1.703125 -3.8125 C 2.015625 -3.8125 2.328125 -3.609375 2.4375 -3.265625 C 2.53125 -2.9375 2.546875 -2.5 2.546875 -1.984375 Z M 2.546875 -1.984375 "/>
</g>
<g id="glyph-2-1">
<path d="M 2.828125 0 L 2.828125 -0.21875 L 2.609375 -0.21875 C 2 -0.21875 2 -0.296875 2 -0.484375 L 2 -3.8125 C 2 -3.96875 2 -3.96875 1.828125 -3.96875 C 1.4375 -3.59375 0.890625 -3.59375 0.65625 -3.59375 L 0.65625 -3.375 C 0.796875 -3.375 1.1875 -3.375 1.515625 -3.546875 L 1.515625 -0.484375 C 1.515625 -0.296875 1.515625 -0.21875 0.921875 -0.21875 L 0.6875 -0.21875 L 0.6875 0 L 1.765625 -0.03125 Z M 2.828125 0 "/>
</g>
<g id="glyph-2-2">
<path d="M 5.75 -4 C 5.75 -4.046875 5.71875 -4.09375 5.65625 -4.09375 C 5.453125 -4.09375 5.234375 -4.0625 5.03125 -4.0625 C 4.890625 -4.0625 4.546875 -4.09375 4.40625 -4.09375 C 4.375 -4.09375 4.28125 -4.09375 4.28125 -3.953125 C 4.28125 -3.875 4.359375 -3.875 4.40625 -3.875 C 4.6875 -3.859375 4.796875 -3.78125 4.796875 -3.625 C 4.796875 -3.578125 4.78125 -3.546875 4.765625 -3.484375 L 4.125 -0.875 L 2.59375 -3.984375 C 2.546875 -4.09375 2.53125 -4.09375 2.390625 -4.09375 L 1.578125 -4.09375 C 1.453125 -4.09375 1.375 -4.09375 1.375 -3.953125 C 1.375 -3.875 1.453125 -3.875 1.578125 -3.875 C 1.703125 -3.875 1.84375 -3.859375 1.96875 -3.84375 L 1.15625 -0.640625 C 1.109375 -0.40625 1 -0.234375 0.53125 -0.21875 C 0.5 -0.21875 0.40625 -0.203125 0.40625 -0.09375 C 0.40625 -0.03125 0.453125 0 0.5 0 C 0.703125 0 0.921875 -0.03125 1.125 -0.03125 C 1.265625 -0.03125 1.609375 0 1.765625 0 C 1.8125 0 1.875 -0.03125 1.875 -0.125 C 1.875 -0.203125 1.8125 -0.21875 1.734375 -0.21875 C 1.359375 -0.234375 1.359375 -0.390625 1.359375 -0.46875 C 1.359375 -0.484375 1.359375 -0.515625 1.390625 -0.609375 L 2.15625 -3.6875 L 3.90625 -0.109375 C 3.953125 0 3.96875 0 4.03125 0 C 4.125 0 4.125 -0.015625 4.15625 -0.125 L 4.984375 -3.4375 C 5.046875 -3.65625 5.140625 -3.859375 5.625 -3.875 C 5.65625 -3.875 5.75 -3.875 5.75 -4 Z M 5.75 -4 "/>
</g>
<g id="glyph-2-3">
<path d="M 3.015625 -1.09375 L 2.8125 -1.09375 C 2.796875 -0.953125 2.734375 -0.609375 2.65625 -0.546875 C 2.609375 -0.515625 2.15625 -0.515625 2.078125 -0.515625 L 0.96875 -0.515625 C 1.59375 -1.0625 1.8125 -1.234375 2.171875 -1.515625 C 2.609375 -1.859375 3.015625 -2.234375 3.015625 -2.8125 C 3.015625 -3.53125 2.390625 -3.96875 1.625 -3.96875 C 0.875 -3.96875 0.375 -3.453125 0.375 -2.90625 C 0.375 -2.59375 0.640625 -2.5625 0.6875 -2.5625 C 0.84375 -2.5625 1.015625 -2.671875 1.015625 -2.890625 C 1.015625 -2.984375 0.96875 -3.203125 0.65625 -3.203125 C 0.84375 -3.625 1.25 -3.765625 1.53125 -3.765625 C 2.125 -3.765625 2.4375 -3.296875 2.4375 -2.8125 C 2.4375 -2.28125 2.078125 -1.875 1.875 -1.65625 L 0.4375 -0.234375 C 0.375 -0.171875 0.375 -0.171875 0.375 0 L 2.84375 0 Z M 3.015625 -1.09375 "/>
</g>
<g id="glyph-2-4">
<path d="M 2.625 -3.734375 C 2.625 -3.84375 2.546875 -3.96875 2.390625 -3.96875 C 2.21875 -3.96875 2.046875 -3.796875 2.046875 -3.640625 C 2.046875 -3.546875 2.125 -3.40625 2.296875 -3.40625 C 2.453125 -3.40625 2.625 -3.5625 2.625 -3.734375 Z M 2.40625 -2.078125 C 2.40625 -2.40625 2.125 -2.640625 1.765625 -2.640625 C 1.09375 -2.640625 0.71875 -1.8125 0.71875 -1.71875 C 0.71875 -1.640625 0.796875 -1.640625 0.8125 -1.640625 C 0.890625 -1.640625 0.890625 -1.65625 0.9375 -1.75 C 1.09375 -2.09375 1.40625 -2.46875 1.75 -2.46875 C 1.890625 -2.46875 1.953125 -2.375 1.953125 -2.171875 C 1.953125 -2.109375 1.9375 -2.03125 1.9375 -2 L 1.359375 0.296875 C 1.25 0.703125 0.9375 1.046875 0.59375 1.046875 C 0.515625 1.046875 0.4375 1.046875 0.375 1.015625 C 0.53125 0.953125 0.578125 0.796875 0.578125 0.71875 C 0.578125 0.5625 0.453125 0.484375 0.34375 0.484375 C 0.15625 0.484375 0 0.65625 0 0.84375 C 0 1.078125 0.234375 1.21875 0.59375 1.21875 C 0.953125 1.21875 1.65625 1 1.84375 0.28125 L 2.375 -1.859375 C 2.390625 -1.9375 2.40625 -1.984375 2.40625 -2.078125 Z M 2.40625 -2.078125 "/>
</g>
<g id="glyph-2-5">
<path d="M 4.328125 -1.5 C 4.328125 -1.5625 4.265625 -1.609375 4.203125 -1.609375 L 0.453125 -1.609375 C 0.390625 -1.609375 0.328125 -1.5625 0.328125 -1.5 C 0.328125 -1.4375 0.390625 -1.375 0.453125 -1.375 L 4.203125 -1.375 C 4.265625 -1.375 4.328125 -1.4375 4.328125 -1.5 Z M 4.328125 -1.5 "/>
</g>
<g id="glyph-2-6">
<path d="M 1.4375 -0.03125 C 1.4375 -0.40625 1.28125 -0.6875 1.015625 -0.6875 C 0.8125 -0.6875 0.671875 -0.53125 0.671875 -0.34375 C 0.671875 -0.15625 0.8125 0 1.015625 0 C 1.15625 0 1.265625 -0.09375 1.265625 -0.09375 C 1.265625 0.234375 1.203125 0.609375 0.796875 1 C 0.765625 1.015625 0.75 1.046875 0.75 1.078125 C 0.75 1.109375 0.796875 1.15625 0.84375 1.15625 C 0.921875 1.15625 1.4375 0.671875 1.4375 -0.03125 Z M 1.4375 -0.03125 "/>
</g>
<g id="glyph-3-0">
<path d="M 2.3125 -0.703125 L 2.421875 -0.015625 C 2.203125 0.0351562 2.003906 0.0625 1.828125 0.0625 C 1.546875 0.0625 1.320312 0.0195312 1.15625 -0.0625 C 1 -0.15625 0.890625 -0.273438 0.828125 -0.421875 C 0.765625 -0.578125 0.734375 -0.890625 0.734375 -1.359375 L 0.734375 -4.03125 L 0.15625 -4.03125 L 0.15625 -4.65625 L 0.734375 -4.65625 L 0.734375 -5.796875 L 1.515625 -6.28125 L 1.515625 -4.65625 L 2.3125 -4.65625 L 2.3125 -4.03125 L 1.515625 -4.03125 L 1.515625 -1.3125 C 1.515625 -1.09375 1.53125 -0.945312 1.5625 -0.875 C 1.59375 -0.8125 1.640625 -0.757812 1.703125 -0.71875 C 1.765625 -0.6875 1.851562 -0.671875 1.96875 -0.671875 C 2.050781 -0.671875 2.164062 -0.679688 2.3125 -0.703125 Z M 2.3125 -0.703125 "/>
</g>
<g id="glyph-3-1">
<path d="M 0.59375 -5.515625 L 0.59375 -6.421875 L 1.390625 -6.421875 L 1.390625 -5.515625 Z M 0.59375 0 L 0.59375 -4.65625 L 1.390625 -4.65625 L 1.390625 0 Z M 0.59375 0 "/>
</g>
<g id="glyph-3-2">
<path d="M 0.59375 0 L 0.59375 -4.65625 L 1.296875 -4.65625 L 1.296875 -4 C 1.441406 -4.226562 1.632812 -4.410156 1.875 -4.546875 C 2.125 -4.679688 2.398438 -4.75 2.703125 -4.75 C 3.046875 -4.75 3.328125 -4.675781 3.546875 -4.53125 C 3.773438 -4.394531 3.929688 -4.195312 4.015625 -3.9375 C 4.390625 -4.476562 4.867188 -4.75 5.453125 -4.75 C 5.921875 -4.75 6.273438 -4.617188 6.515625 -4.359375 C 6.765625 -4.109375 6.890625 -3.71875 6.890625 -3.1875 L 6.890625 0 L 6.109375 0 L 6.109375 -2.9375 C 6.109375 -3.25 6.082031 -3.472656 6.03125 -3.609375 C 5.976562 -3.742188 5.882812 -3.851562 5.75 -3.9375 C 5.613281 -4.03125 5.457031 -4.078125 5.28125 -4.078125 C 4.957031 -4.078125 4.6875 -3.96875 4.46875 -3.75 C 4.25 -3.53125 4.140625 -3.179688 4.140625 -2.703125 L 4.140625 0 L 3.359375 0 L 3.359375 -3.015625 C 3.359375 -3.367188 3.289062 -3.632812 3.15625 -3.8125 C 3.03125 -3.988281 2.820312 -4.078125 2.53125 -4.078125 C 2.3125 -4.078125 2.109375 -4.015625 1.921875 -3.890625 C 1.734375 -3.773438 1.59375 -3.601562 1.5 -3.375 C 1.414062 -3.15625 1.375 -2.832031 1.375 -2.40625 L 1.375 0 Z M 0.59375 0 "/>
</g>
<g id="glyph-3-3">
<path d="M 3.78125 -1.5 L 4.59375 -1.390625 C 4.457031 -0.921875 4.21875 -0.550781 3.875 -0.28125 C 3.53125 -0.0195312 3.085938 0.109375 2.546875 0.109375 C 1.867188 0.109375 1.328125 -0.0976562 0.921875 -0.515625 C 0.523438 -0.941406 0.328125 -1.53125 0.328125 -2.28125 C 0.328125 -3.0625 0.523438 -3.664062 0.921875 -4.09375 C 1.328125 -4.53125 1.851562 -4.75 2.5 -4.75 C 3.125 -4.75 3.628906 -4.535156 4.015625 -4.109375 C 4.410156 -3.691406 4.609375 -3.097656 4.609375 -2.328125 C 4.609375 -2.285156 4.609375 -2.21875 4.609375 -2.125 L 1.140625 -2.125 C 1.171875 -1.613281 1.316406 -1.222656 1.578125 -0.953125 C 1.835938 -0.679688 2.160156 -0.546875 2.546875 -0.546875 C 2.835938 -0.546875 3.082031 -0.617188 3.28125 -0.765625 C 3.488281 -0.921875 3.65625 -1.164062 3.78125 -1.5 Z M 1.1875 -2.765625 L 3.78125 -2.765625 C 3.75 -3.160156 3.648438 -3.457031 3.484375 -3.65625 C 3.234375 -3.957031 2.910156 -4.109375 2.515625 -4.109375 C 2.148438 -4.109375 1.84375 -3.984375 1.59375 -3.734375 C 1.34375 -3.492188 1.207031 -3.171875 1.1875 -2.765625 Z M 1.1875 -2.765625 "/>
</g>
<g id="glyph-3-4">
<path d="M 3.625 -1.703125 L 4.40625 -1.609375 C 4.320312 -1.066406 4.101562 -0.644531 3.75 -0.34375 C 3.40625 -0.0390625 2.976562 0.109375 2.46875 0.109375 C 1.832031 0.109375 1.316406 -0.0976562 0.921875 -0.515625 C 0.535156 -0.929688 0.34375 -1.53125 0.34375 -2.3125 C 0.34375 -2.8125 0.425781 -3.25 0.59375 -3.625 C 0.757812 -4 1.015625 -4.28125 1.359375 -4.46875 C 1.703125 -4.65625 2.070312 -4.75 2.46875 -4.75 C 2.976562 -4.75 3.390625 -4.617188 3.703125 -4.359375 C 4.023438 -4.109375 4.234375 -3.75 4.328125 -3.28125 L 3.5625 -3.171875 C 3.488281 -3.484375 3.359375 -3.71875 3.171875 -3.875 C 2.984375 -4.03125 2.757812 -4.109375 2.5 -4.109375 C 2.101562 -4.109375 1.78125 -3.960938 1.53125 -3.671875 C 1.28125 -3.390625 1.15625 -2.941406 1.15625 -2.328125 C 1.15625 -1.703125 1.273438 -1.25 1.515625 -0.96875 C 1.753906 -0.6875 2.066406 -0.546875 2.453125 -0.546875 C 2.765625 -0.546875 3.023438 -0.640625 3.234375 -0.828125 C 3.441406 -1.015625 3.570312 -1.304688 3.625 -1.703125 Z M 3.625 -1.703125 "/>
</g>
<g id="glyph-3-5">
<path d="M 0.296875 -2.328125 C 0.296875 -3.191406 0.535156 -3.828125 1.015625 -4.234375 C 1.410156 -4.578125 1.898438 -4.75 2.484375 -4.75 C 3.117188 -4.75 3.640625 -4.539062 4.046875 -4.125 C 4.453125 -3.707031 4.65625 -3.128906 4.65625 -2.390625 C 4.65625 -1.796875 4.5625 -1.328125 4.375 -0.984375 C 4.195312 -0.640625 3.9375 -0.367188 3.59375 -0.171875 C 3.257812 0.0117188 2.890625 0.109375 2.484375 0.109375 C 1.828125 0.109375 1.296875 -0.0976562 0.890625 -0.515625 C 0.492188 -0.929688 0.296875 -1.535156 0.296875 -2.328125 Z M 1.109375 -2.328125 C 1.109375 -1.734375 1.238281 -1.285156 1.5 -0.984375 C 1.757812 -0.691406 2.085938 -0.546875 2.484375 -0.546875 C 2.867188 -0.546875 3.191406 -0.691406 3.453125 -0.984375 C 3.710938 -1.285156 3.84375 -1.742188 3.84375 -2.359375 C 3.84375 -2.929688 3.710938 -3.363281 3.453125 -3.65625 C 3.191406 -3.957031 2.867188 -4.109375 2.484375 -4.109375 C 2.085938 -4.109375 1.757812 -3.957031 1.5 -3.65625 C 1.238281 -3.363281 1.109375 -2.921875 1.109375 -2.328125 Z M 1.109375 -2.328125 "/>
</g>
<g id="glyph-3-6">
<path d="M 0.59375 0 L 0.59375 -4.65625 L 1.296875 -4.65625 L 1.296875 -3.984375 C 1.640625 -4.492188 2.132812 -4.75 2.78125 -4.75 C 3.0625 -4.75 3.316406 -4.695312 3.546875 -4.59375 C 3.785156 -4.5 3.960938 -4.367188 4.078125 -4.203125 C 4.191406 -4.046875 4.273438 -3.851562 4.328125 -3.625 C 4.359375 -3.476562 4.375 -3.222656 4.375 -2.859375 L 4.375 0 L 3.578125 0 L 3.578125 -2.828125 C 3.578125 -3.148438 3.546875 -3.390625 3.484375 -3.546875 C 3.421875 -3.703125 3.3125 -3.828125 3.15625 -3.921875 C 3.007812 -4.023438 2.828125 -4.078125 2.609375 -4.078125 C 2.273438 -4.078125 1.984375 -3.96875 1.734375 -3.75 C 1.492188 -3.539062 1.375 -3.140625 1.375 -2.546875 L 1.375 0 Z M 0.59375 0 "/>
</g>
<g id="glyph-3-7">
<path d="M 3.640625 0 L 3.640625 -0.6875 C 3.273438 -0.15625 2.78125 0.109375 2.15625 0.109375 C 1.882812 0.109375 1.628906 0.0546875 1.390625 -0.046875 C 1.148438 -0.148438 0.972656 -0.28125 0.859375 -0.4375 C 0.742188 -0.601562 0.664062 -0.800781 0.625 -1.03125 C 0.59375 -1.1875 0.578125 -1.429688 0.578125 -1.765625 L 0.578125 -4.65625 L 1.359375 -4.65625 L 1.359375 -2.078125 C 1.359375 -1.660156 1.375 -1.378906 1.40625 -1.234375 C 1.457031 -1.023438 1.5625 -0.863281 1.71875 -0.75 C 1.882812 -0.632812 2.085938 -0.578125 2.328125 -0.578125 C 2.554688 -0.578125 2.773438 -0.632812 2.984375 -0.75 C 3.191406 -0.875 3.335938 -1.039062 3.421875 -1.25 C 3.515625 -1.457031 3.5625 -1.757812 3.5625 -2.15625 L 3.5625 -4.65625 L 4.34375 -4.65625 L 4.34375 0 Z M 3.640625 0 "/>
</g>
<g id="glyph-3-8">
<path d="M 0.28125 -1.390625 L 1.0625 -1.515625 C 1.101562 -1.203125 1.222656 -0.960938 1.421875 -0.796875 C 1.617188 -0.628906 1.898438 -0.546875 2.265625 -0.546875 C 2.617188 -0.546875 2.882812 -0.617188 3.0625 -0.765625 C 3.238281 -0.910156 3.328125 -1.082031 3.328125 -1.28125 C 3.328125 -1.457031 3.25 -1.597656 3.09375 -1.703125 C 2.988281 -1.773438 2.722656 -1.863281 2.296875 -1.96875 C 1.710938 -2.113281 1.304688 -2.238281 1.078125 -2.34375 C 0.859375 -2.457031 0.691406 -2.609375 0.578125 -2.796875 C 0.460938 -2.984375 0.40625 -3.191406 0.40625 -3.421875 C 0.40625 -3.628906 0.453125 -3.816406 0.546875 -3.984375 C 0.640625 -4.160156 0.769531 -4.3125 0.9375 -4.4375 C 1.0625 -4.519531 1.226562 -4.59375 1.4375 -4.65625 C 1.644531 -4.71875 1.875 -4.75 2.125 -4.75 C 2.488281 -4.75 2.804688 -4.695312 3.078125 -4.59375 C 3.359375 -4.488281 3.5625 -4.347656 3.6875 -4.171875 C 3.820312 -3.992188 3.914062 -3.753906 3.96875 -3.453125 L 3.1875 -3.34375 C 3.15625 -3.582031 3.054688 -3.769531 2.890625 -3.90625 C 2.722656 -4.039062 2.484375 -4.109375 2.171875 -4.109375 C 1.816406 -4.109375 1.5625 -4.046875 1.40625 -3.921875 C 1.25 -3.804688 1.171875 -3.664062 1.171875 -3.5 C 1.171875 -3.40625 1.203125 -3.316406 1.265625 -3.234375 C 1.328125 -3.148438 1.425781 -3.078125 1.5625 -3.015625 C 1.644531 -2.992188 1.878906 -2.925781 2.265625 -2.8125 C 2.816406 -2.664062 3.203125 -2.546875 3.421875 -2.453125 C 3.648438 -2.359375 3.828125 -2.21875 3.953125 -2.03125 C 4.078125 -1.851562 4.140625 -1.628906 4.140625 -1.359375 C 4.140625 -1.097656 4.0625 -0.851562 3.90625 -0.625 C 3.75 -0.394531 3.523438 -0.210938 3.234375 -0.078125 C 2.953125 0.0429688 2.628906 0.109375 2.265625 0.109375 C 1.660156 0.109375 1.195312 -0.015625 0.875 -0.265625 C 0.5625 -0.515625 0.363281 -0.890625 0.28125 -1.390625 Z M 0.28125 -1.390625 "/>
</g>
<g id="glyph-3-9">
<path d="M 0.8125 -3.75 L 0.8125 -4.65625 L 1.703125 -4.65625 L 1.703125 -3.75 Z M 0.8125 0 L 0.8125 -0.890625 L 1.703125 -0.890625 L 1.703125 0 Z M 0.8125 0 "/>
</g>
<g id="glyph-3-10">
<path d="M 0.28125 -1.921875 L 0.28125 -2.71875 L 2.703125 -2.71875 L 2.703125 -1.921875 Z M 0.28125 -1.921875 "/>
</g>
<g id="glyph-3-11">
<path d="M 0.375 -3.171875 C 0.375 -3.929688 0.453125 -4.539062 0.609375 -5 C 0.765625 -5.457031 0.992188 -5.8125 1.296875 -6.0625 C 1.609375 -6.320312 2 -6.453125 2.46875 -6.453125 C 2.8125 -6.453125 3.113281 -6.378906 3.375 -6.234375 C 3.632812 -6.097656 3.847656 -5.898438 4.015625 -5.640625 C 4.179688 -5.378906 4.3125 -5.0625 4.40625 -4.6875 C 4.507812 -4.3125 4.5625 -3.804688 4.5625 -3.171875 C 4.5625 -2.410156 4.484375 -1.796875 4.328125 -1.328125 C 4.171875 -0.867188 3.9375 -0.515625 3.625 -0.265625 C 3.320312 -0.015625 2.9375 0.109375 2.46875 0.109375 C 1.84375 0.109375 1.351562 -0.113281 1 -0.5625 C 0.582031 -1.09375 0.375 -1.960938 0.375 -3.171875 Z M 1.1875 -3.171875 C 1.1875 -2.109375 1.304688 -1.398438 1.546875 -1.046875 C 1.796875 -0.703125 2.101562 -0.53125 2.46875 -0.53125 C 2.832031 -0.53125 3.132812 -0.707031 3.375 -1.0625 C 3.625 -1.414062 3.75 -2.117188 3.75 -3.171875 C 3.75 -4.222656 3.625 -4.921875 3.375 -5.265625 C 3.132812 -5.617188 2.828125 -5.796875 2.453125 -5.796875 C 2.085938 -5.796875 1.800781 -5.640625 1.59375 -5.328125 C 1.320312 -4.941406 1.1875 -4.222656 1.1875 -3.171875 Z M 1.1875 -3.171875 "/>
</g>
<g id="glyph-3-12">
<path d="M 3.609375 0 L 3.609375 -0.59375 C 3.316406 -0.125 2.882812 0.109375 2.3125 0.109375 C 1.9375 0.109375 1.59375 0.00390625 1.28125 -0.203125 C 0.96875 -0.410156 0.726562 -0.695312 0.5625 -1.0625 C 0.394531 -1.425781 0.3125 -1.847656 0.3125 -2.328125 C 0.3125 -2.785156 0.382812 -3.203125 0.53125 -3.578125 C 0.6875 -3.960938 0.921875 -4.253906 1.234375 -4.453125 C 1.546875 -4.648438 1.890625 -4.75 2.265625 -4.75 C 2.546875 -4.75 2.796875 -4.691406 3.015625 -4.578125 C 3.234375 -4.460938 3.414062 -4.304688 3.5625 -4.109375 L 3.5625 -6.421875 L 4.34375 -6.421875 L 4.34375 0 Z M 1.109375 -2.328125 C 1.109375 -1.722656 1.234375 -1.273438 1.484375 -0.984375 C 1.742188 -0.691406 2.039062 -0.546875 2.375 -0.546875 C 2.726562 -0.546875 3.023438 -0.6875 3.265625 -0.96875 C 3.503906 -1.25 3.625 -1.675781 3.625 -2.25 C 3.625 -2.882812 3.5 -3.351562 3.25 -3.65625 C 3.007812 -3.957031 2.707031 -4.109375 2.34375 -4.109375 C 2 -4.109375 1.707031 -3.960938 1.46875 -3.671875 C 1.226562 -3.390625 1.109375 -2.941406 1.109375 -2.328125 Z M 1.109375 -2.328125 "/>
</g>
<g id="glyph-3-13">
<path d="M 0.578125 0 L 0.578125 -6.421875 L 1.359375 -6.421875 L 1.359375 0 Z M 0.578125 0 "/>
</g>
<g id="glyph-3-14">
<path d="M 3.625 -0.578125 C 3.332031 -0.328125 3.050781 -0.148438 2.78125 -0.046875 C 2.507812 0.0546875 2.21875 0.109375 1.90625 0.109375 C 1.394531 0.109375 1.003906 -0.015625 0.734375 -0.265625 C 0.460938 -0.515625 0.328125 -0.832031 0.328125 -1.21875 C 0.328125 -1.445312 0.378906 -1.65625 0.484375 -1.84375 C 0.585938 -2.03125 0.722656 -2.179688 0.890625 -2.296875 C 1.054688 -2.410156 1.242188 -2.5 1.453125 -2.5625 C 1.609375 -2.601562 1.84375 -2.644531 2.15625 -2.6875 C 2.789062 -2.757812 3.257812 -2.847656 3.5625 -2.953125 C 3.5625 -3.054688 3.5625 -3.125 3.5625 -3.15625 C 3.5625 -3.476562 3.488281 -3.707031 3.34375 -3.84375 C 3.144531 -4.019531 2.84375 -4.109375 2.4375 -4.109375 C 2.070312 -4.109375 1.800781 -4.039062 1.625 -3.90625 C 1.445312 -3.78125 1.316406 -3.550781 1.234375 -3.21875 L 0.453125 -3.328125 C 0.523438 -3.648438 0.640625 -3.910156 0.796875 -4.109375 C 0.960938 -4.316406 1.195312 -4.472656 1.5 -4.578125 C 1.800781 -4.691406 2.15625 -4.75 2.5625 -4.75 C 2.957031 -4.75 3.273438 -4.703125 3.515625 -4.609375 C 3.765625 -4.515625 3.945312 -4.394531 4.0625 -4.25 C 4.1875 -4.113281 4.269531 -3.941406 4.3125 -3.734375 C 4.34375 -3.597656 4.359375 -3.351562 4.359375 -3 L 4.359375 -1.953125 C 4.359375 -1.210938 4.375 -0.742188 4.40625 -0.546875 C 4.4375 -0.359375 4.503906 -0.175781 4.609375 0 L 3.78125 0 C 3.695312 -0.164062 3.644531 -0.359375 3.625 -0.578125 Z M 3.5625 -2.328125 C 3.269531 -2.210938 2.835938 -2.113281 2.265625 -2.03125 C 1.941406 -1.988281 1.710938 -1.9375 1.578125 -1.875 C 1.453125 -1.820312 1.351562 -1.738281 1.28125 -1.625 C 1.207031 -1.507812 1.171875 -1.382812 1.171875 -1.25 C 1.171875 -1.039062 1.25 -0.863281 1.40625 -0.71875 C 1.5625 -0.582031 1.796875 -0.515625 2.109375 -0.515625 C 2.410156 -0.515625 2.675781 -0.578125 2.90625 -0.703125 C 3.144531 -0.835938 3.320312 -1.019531 3.4375 -1.25 C 3.519531 -1.4375 3.5625 -1.703125 3.5625 -2.046875 Z M 3.5625 -2.328125 "/>
</g>
<g id="glyph-3-15">
<path d="M 0.578125 0 L 0.578125 -4.65625 L 1.296875 -4.65625 L 1.296875 -3.953125 C 1.472656 -4.273438 1.632812 -4.488281 1.78125 -4.59375 C 1.9375 -4.695312 2.109375 -4.75 2.296875 -4.75 C 2.566406 -4.75 2.835938 -4.664062 3.109375 -4.5 L 2.84375 -3.765625 C 2.644531 -3.878906 2.453125 -3.9375 2.265625 -3.9375 C 2.085938 -3.9375 1.929688 -3.882812 1.796875 -3.78125 C 1.660156 -3.675781 1.5625 -3.535156 1.5 -3.359375 C 1.414062 -3.078125 1.375 -2.769531 1.375 -2.4375 L 1.375 0 Z M 0.578125 0 "/>
</g>
<g id="glyph-4-0">
<path d="M 3.21875 -1.515625 L 3.90625 -1.421875 C 3.832031 -0.953125 3.640625 -0.582031 3.328125 -0.3125 C 3.023438 -0.0390625 2.644531 0.09375 2.1875 0.09375 C 1.625 0.09375 1.171875 -0.0859375 0.828125 -0.453125 C 0.484375 -0.828125 0.3125 -1.359375 0.3125 -2.046875 C 0.3125 -2.492188 0.382812 -2.882812 0.53125 -3.21875 C 0.675781 -3.550781 0.898438 -3.800781 1.203125 -3.96875 C 1.503906 -4.132812 1.832031 -4.21875 2.1875 -4.21875 C 2.644531 -4.21875 3.015625 -4.101562 3.296875 -3.875 C 3.578125 -3.65625 3.757812 -3.335938 3.84375 -2.921875 L 3.15625 -2.8125 C 3.09375 -3.09375 2.976562 -3.300781 2.8125 -3.4375 C 2.65625 -3.582031 2.457031 -3.65625 2.21875 -3.65625 C 1.863281 -3.65625 1.578125 -3.523438 1.359375 -3.265625 C 1.140625 -3.015625 1.03125 -2.613281 1.03125 -2.0625 C 1.03125 -1.507812 1.132812 -1.109375 1.34375 -0.859375 C 1.5625 -0.609375 1.84375 -0.484375 2.1875 -0.484375 C 2.457031 -0.484375 2.679688 -0.566406 2.859375 -0.734375 C 3.046875 -0.898438 3.164062 -1.160156 3.21875 -1.515625 Z M 3.21875 -1.515625 "/>
</g>
<g id="glyph-4-1">
<path d="M 3.21875 -0.515625 C 2.957031 -0.285156 2.707031 -0.125 2.46875 -0.03125 C 2.226562 0.0507812 1.972656 0.09375 1.703125 0.09375 C 1.242188 0.09375 0.890625 -0.015625 0.640625 -0.234375 C 0.398438 -0.460938 0.28125 -0.75 0.28125 -1.09375 C 0.28125 -1.289062 0.328125 -1.472656 0.421875 -1.640625 C 0.515625 -1.804688 0.632812 -1.941406 0.78125 -2.046875 C 0.9375 -2.148438 1.109375 -2.226562 1.296875 -2.28125 C 1.429688 -2.3125 1.640625 -2.34375 1.921875 -2.375 C 2.484375 -2.445312 2.894531 -2.53125 3.15625 -2.625 C 3.164062 -2.71875 3.171875 -2.78125 3.171875 -2.8125 C 3.171875 -3.09375 3.101562 -3.289062 2.96875 -3.40625 C 2.789062 -3.5625 2.523438 -3.640625 2.171875 -3.640625 C 1.835938 -3.640625 1.59375 -3.582031 1.4375 -3.46875 C 1.28125 -3.351562 1.164062 -3.148438 1.09375 -2.859375 L 0.40625 -2.953125 C 0.46875 -3.242188 0.570312 -3.476562 0.71875 -3.65625 C 0.863281 -3.84375 1.066406 -3.984375 1.328125 -4.078125 C 1.597656 -4.171875 1.910156 -4.21875 2.265625 -4.21875 C 2.617188 -4.21875 2.90625 -4.175781 3.125 -4.09375 C 3.351562 -4.019531 3.519531 -3.914062 3.625 -3.78125 C 3.726562 -3.65625 3.800781 -3.5 3.84375 -3.3125 C 3.863281 -3.1875 3.875 -2.972656 3.875 -2.671875 L 3.875 -1.734375 C 3.875 -1.078125 3.890625 -0.660156 3.921875 -0.484375 C 3.953125 -0.316406 4.007812 -0.15625 4.09375 0 L 3.359375 0 C 3.285156 -0.144531 3.238281 -0.316406 3.21875 -0.515625 Z M 3.15625 -2.078125 C 2.90625 -1.972656 2.523438 -1.882812 2.015625 -1.8125 C 1.734375 -1.769531 1.53125 -1.722656 1.40625 -1.671875 C 1.289062 -1.617188 1.195312 -1.539062 1.125 -1.4375 C 1.0625 -1.34375 1.03125 -1.234375 1.03125 -1.109375 C 1.03125 -0.921875 1.097656 -0.765625 1.234375 -0.640625 C 1.378906 -0.515625 1.59375 -0.453125 1.875 -0.453125 C 2.132812 -0.453125 2.367188 -0.507812 2.578125 -0.625 C 2.796875 -0.75 2.953125 -0.910156 3.046875 -1.109375 C 3.117188 -1.273438 3.15625 -1.507812 3.15625 -1.8125 Z M 3.15625 -2.078125 "/>
</g>
<g id="glyph-4-2">
<path d="M 0.25 -1.234375 L 0.9375 -1.34375 C 0.976562 -1.0625 1.085938 -0.847656 1.265625 -0.703125 C 1.441406 -0.554688 1.6875 -0.484375 2 -0.484375 C 2.320312 -0.484375 2.5625 -0.546875 2.71875 -0.671875 C 2.875 -0.804688 2.953125 -0.960938 2.953125 -1.140625 C 2.953125 -1.296875 2.882812 -1.421875 2.75 -1.515625 C 2.65625 -1.578125 2.414062 -1.65625 2.03125 -1.75 C 1.519531 -1.882812 1.164062 -2 0.96875 -2.09375 C 0.769531 -2.1875 0.617188 -2.316406 0.515625 -2.484375 C 0.410156 -2.648438 0.359375 -2.832031 0.359375 -3.03125 C 0.359375 -3.21875 0.398438 -3.390625 0.484375 -3.546875 C 0.566406 -3.703125 0.679688 -3.832031 0.828125 -3.9375 C 0.941406 -4.019531 1.09375 -4.085938 1.28125 -4.140625 C 1.46875 -4.191406 1.671875 -4.21875 1.890625 -4.21875 C 2.210938 -4.21875 2.492188 -4.171875 2.734375 -4.078125 C 2.984375 -3.992188 3.164062 -3.867188 3.28125 -3.703125 C 3.394531 -3.546875 3.472656 -3.332031 3.515625 -3.0625 L 2.84375 -2.96875 C 2.8125 -3.1875 2.71875 -3.351562 2.5625 -3.46875 C 2.414062 -3.59375 2.207031 -3.65625 1.9375 -3.65625 C 1.613281 -3.65625 1.378906 -3.597656 1.234375 -3.484375 C 1.097656 -3.378906 1.03125 -3.253906 1.03125 -3.109375 C 1.03125 -3.023438 1.0625 -2.945312 1.125 -2.875 C 1.175781 -2.800781 1.265625 -2.738281 1.390625 -2.6875 C 1.460938 -2.65625 1.671875 -2.59375 2.015625 -2.5 C 2.503906 -2.375 2.847656 -2.265625 3.046875 -2.171875 C 3.242188 -2.085938 3.394531 -1.96875 3.5 -1.8125 C 3.613281 -1.65625 3.671875 -1.457031 3.671875 -1.21875 C 3.671875 -0.976562 3.601562 -0.753906 3.46875 -0.546875 C 3.332031 -0.347656 3.132812 -0.191406 2.875 -0.078125 C 2.625 0.0351562 2.335938 0.09375 2.015625 0.09375 C 1.472656 0.09375 1.0625 -0.015625 0.78125 -0.234375 C 0.5 -0.460938 0.320312 -0.796875 0.25 -1.234375 Z M 0.25 -1.234375 "/>
</g>
<g id="glyph-4-3">
<path d="M 0.53125 0 L 0.53125 -5.703125 L 1.21875 -5.703125 L 1.21875 -3.65625 C 1.550781 -4.03125 1.96875 -4.21875 2.46875 -4.21875 C 2.769531 -4.21875 3.03125 -4.15625 3.25 -4.03125 C 3.476562 -3.914062 3.640625 -3.75 3.734375 -3.53125 C 3.835938 -3.320312 3.890625 -3.019531 3.890625 -2.625 L 3.890625 0 L 3.1875 0 L 3.1875 -2.625 C 3.1875 -2.96875 3.109375 -3.21875 2.953125 -3.375 C 2.804688 -3.539062 2.59375 -3.625 2.3125 -3.625 C 2.101562 -3.625 1.90625 -3.566406 1.71875 -3.453125 C 1.539062 -3.347656 1.410156 -3.203125 1.328125 -3.015625 C 1.253906 -2.835938 1.21875 -2.585938 1.21875 -2.265625 L 1.21875 0 Z M 0.53125 0 "/>
</g>
<g id="glyph-4-4">
<path d="M 0.53125 1.578125 L 0.53125 -4.125 L 1.15625 -4.125 L 1.15625 -3.59375 C 1.3125 -3.800781 1.484375 -3.957031 1.671875 -4.0625 C 1.859375 -4.164062 2.085938 -4.21875 2.359375 -4.21875 C 2.710938 -4.21875 3.023438 -4.128906 3.296875 -3.953125 C 3.566406 -3.773438 3.769531 -3.519531 3.90625 -3.1875 C 4.039062 -2.851562 4.109375 -2.488281 4.109375 -2.09375 C 4.109375 -1.675781 4.03125 -1.296875 3.875 -0.953125 C 3.726562 -0.617188 3.507812 -0.359375 3.21875 -0.171875 C 2.9375 0.00390625 2.632812 0.09375 2.3125 0.09375 C 2.082031 0.09375 1.875 0.0429688 1.6875 -0.046875 C 1.5 -0.148438 1.34375 -0.273438 1.21875 -0.421875 L 1.21875 1.578125 Z M 1.15625 -2.046875 C 1.15625 -1.515625 1.265625 -1.117188 1.484375 -0.859375 C 1.703125 -0.609375 1.960938 -0.484375 2.265625 -0.484375 C 2.578125 -0.484375 2.84375 -0.613281 3.0625 -0.875 C 3.28125 -1.132812 3.390625 -1.539062 3.390625 -2.09375 C 3.390625 -2.625 3.28125 -3.019531 3.0625 -3.28125 C 2.851562 -3.539062 2.597656 -3.671875 2.296875 -3.671875 C 1.992188 -3.671875 1.726562 -3.53125 1.5 -3.25 C 1.269531 -2.976562 1.15625 -2.578125 1.15625 -2.046875 Z M 1.15625 -2.046875 "/>
</g>
<g id="glyph-4-5">
<path d="M 0.53125 -4.90625 L 0.53125 -5.703125 L 1.234375 -5.703125 L 1.234375 -4.90625 Z M 0.53125 0 L 0.53125 -4.125 L 1.234375 -4.125 L 1.234375 0 Z M 0.53125 0 "/>
</g>
<g id="glyph-4-6">
<path d="M 3.203125 0 L 3.203125 -0.515625 C 2.941406 -0.109375 2.554688 0.09375 2.046875 0.09375 C 1.722656 0.09375 1.421875 0.00390625 1.140625 -0.171875 C 0.867188 -0.359375 0.65625 -0.613281 0.5 -0.9375 C 0.34375 -1.257812 0.265625 -1.632812 0.265625 -2.0625 C 0.265625 -2.476562 0.332031 -2.851562 0.46875 -3.1875 C 0.613281 -3.519531 0.820312 -3.773438 1.09375 -3.953125 C 1.375 -4.128906 1.679688 -4.21875 2.015625 -4.21875 C 2.265625 -4.21875 2.488281 -4.164062 2.6875 -4.0625 C 2.882812 -3.957031 3.039062 -3.820312 3.15625 -3.65625 L 3.15625 -5.703125 L 3.859375 -5.703125 L 3.859375 0 Z M 1 -2.0625 C 1 -1.53125 1.109375 -1.132812 1.328125 -0.875 C 1.546875 -0.613281 1.804688 -0.484375 2.109375 -0.484375 C 2.421875 -0.484375 2.679688 -0.609375 2.890625 -0.859375 C 3.109375 -1.109375 3.21875 -1.488281 3.21875 -2 C 3.21875 -2.570312 3.109375 -2.988281 2.890625 -3.25 C 2.671875 -3.507812 2.398438 -3.640625 2.078125 -3.640625 C 1.773438 -3.640625 1.519531 -3.515625 1.3125 -3.265625 C 1.101562 -3.015625 1 -2.613281 1 -2.0625 Z M 1 -2.0625 "/>
</g>
<g id="glyph-4-7">
<path d="M 0.515625 0 L 0.515625 -4.125 L 1.140625 -4.125 L 1.140625 -3.5 C 1.304688 -3.800781 1.457031 -3.992188 1.59375 -4.078125 C 1.726562 -4.171875 1.878906 -4.21875 2.046875 -4.21875 C 2.273438 -4.21875 2.515625 -4.144531 2.765625 -4 L 2.515625 -3.34375 C 2.347656 -3.445312 2.175781 -3.5 2 -3.5 C 1.851562 -3.5 1.71875 -3.453125 1.59375 -3.359375 C 1.46875 -3.265625 1.378906 -3.140625 1.328125 -2.984375 C 1.253906 -2.734375 1.21875 -2.457031 1.21875 -2.15625 L 1.21875 0 Z M 0.515625 0 "/>
</g>
<g id="glyph-4-8">
<path d="M 3.359375 -1.328125 L 4.078125 -1.234375 C 3.960938 -0.816406 3.75 -0.488281 3.4375 -0.25 C 3.132812 -0.0195312 2.742188 0.09375 2.265625 0.09375 C 1.660156 0.09375 1.179688 -0.0859375 0.828125 -0.453125 C 0.472656 -0.828125 0.296875 -1.351562 0.296875 -2.03125 C 0.296875 -2.726562 0.472656 -3.265625 0.828125 -3.640625 C 1.179688 -4.023438 1.644531 -4.21875 2.21875 -4.21875 C 2.769531 -4.21875 3.21875 -4.03125 3.5625 -3.65625 C 3.914062 -3.28125 4.09375 -2.753906 4.09375 -2.078125 C 4.09375 -2.035156 4.09375 -1.972656 4.09375 -1.890625 L 1.015625 -1.890625 C 1.035156 -1.429688 1.160156 -1.082031 1.390625 -0.84375 C 1.628906 -0.601562 1.921875 -0.484375 2.265625 -0.484375 C 2.523438 -0.484375 2.742188 -0.550781 2.921875 -0.6875 C 3.097656 -0.820312 3.242188 -1.035156 3.359375 -1.328125 Z M 1.046875 -2.46875 L 3.359375 -2.46875 C 3.328125 -2.8125 3.238281 -3.070312 3.09375 -3.25 C 2.875 -3.519531 2.585938 -3.65625 2.234375 -3.65625 C 1.910156 -3.65625 1.640625 -3.546875 1.421875 -3.328125 C 1.203125 -3.109375 1.078125 -2.820312 1.046875 -2.46875 Z M 1.046875 -2.46875 "/>
</g>
<g id="glyph-4-9">
<path d="M 1.671875 0 L 0.09375 -4.125 L 0.84375 -4.125 L 1.734375 -1.65625 C 1.828125 -1.382812 1.914062 -1.109375 2 -0.828125 C 2.050781 -1.046875 2.132812 -1.304688 2.25 -1.609375 L 3.171875 -4.125 L 3.890625 -4.125 L 2.328125 0 Z M 1.671875 0 "/>
</g>
<g id="glyph-4-10">
<path d="M 0.265625 -2.0625 C 0.265625 -2.832031 0.476562 -3.398438 0.90625 -3.765625 C 1.257812 -4.066406 1.691406 -4.21875 2.203125 -4.21875 C 2.765625 -4.21875 3.226562 -4.03125 3.59375 -3.65625 C 3.957031 -3.289062 4.140625 -2.78125 4.140625 -2.125 C 4.140625 -1.59375 4.054688 -1.171875 3.890625 -0.859375 C 3.734375 -0.554688 3.503906 -0.320312 3.203125 -0.15625 C 2.898438 0.0078125 2.566406 0.09375 2.203125 0.09375 C 1.617188 0.09375 1.148438 -0.0859375 0.796875 -0.453125 C 0.441406 -0.828125 0.265625 -1.363281 0.265625 -2.0625 Z M 0.984375 -2.0625 C 0.984375 -1.53125 1.097656 -1.132812 1.328125 -0.875 C 1.554688 -0.613281 1.847656 -0.484375 2.203125 -0.484375 C 2.546875 -0.484375 2.832031 -0.613281 3.0625 -0.875 C 3.300781 -1.144531 3.421875 -1.550781 3.421875 -2.09375 C 3.421875 -2.601562 3.300781 -2.988281 3.0625 -3.25 C 2.832031 -3.507812 2.546875 -3.640625 2.203125 -3.640625 C 1.847656 -3.640625 1.554688 -3.507812 1.328125 -3.25 C 1.097656 -2.988281 0.984375 -2.59375 0.984375 -2.0625 Z M 0.984375 -2.0625 "/>
</g>
<g id="glyph-4-11">
<path d="M 3.234375 0 L 3.234375 -0.609375 C 2.910156 -0.140625 2.472656 0.09375 1.921875 0.09375 C 1.679688 0.09375 1.453125 0.0429688 1.234375 -0.046875 C 1.023438 -0.140625 0.867188 -0.253906 0.765625 -0.390625 C 0.660156 -0.535156 0.585938 -0.710938 0.546875 -0.921875 C 0.523438 -1.054688 0.515625 -1.273438 0.515625 -1.578125 L 0.515625 -4.125 L 1.203125 -4.125 L 1.203125 -1.84375 C 1.203125 -1.476562 1.21875 -1.226562 1.25 -1.09375 C 1.289062 -0.914062 1.382812 -0.773438 1.53125 -0.671875 C 1.675781 -0.566406 1.851562 -0.515625 2.0625 -0.515625 C 2.269531 -0.515625 2.46875 -0.566406 2.65625 -0.671875 C 2.84375 -0.773438 2.972656 -0.921875 3.046875 -1.109375 C 3.117188 -1.296875 3.15625 -1.566406 3.15625 -1.921875 L 3.15625 -4.125 L 3.859375 -4.125 L 3.859375 0 Z M 3.234375 0 "/>
</g>
<g id="glyph-4-12">
<path d="M 0.53125 0 L 0.53125 -4.125 L 1.15625 -4.125 L 1.15625 -3.546875 C 1.457031 -3.992188 1.894531 -4.21875 2.46875 -4.21875 C 2.71875 -4.21875 2.945312 -4.171875 3.15625 -4.078125 C 3.363281 -3.992188 3.519531 -3.878906 3.625 -3.734375 C 3.726562 -3.585938 3.800781 -3.414062 3.84375 -3.21875 C 3.875 -3.09375 3.890625 -2.867188 3.890625 -2.546875 L 3.890625 0 L 3.1875 0 L 3.1875 -2.515625 C 3.1875 -2.796875 3.15625 -3.003906 3.09375 -3.140625 C 3.039062 -3.285156 2.945312 -3.398438 2.8125 -3.484375 C 2.675781 -3.578125 2.515625 -3.625 2.328125 -3.625 C 2.023438 -3.625 1.765625 -3.523438 1.546875 -3.328125 C 1.328125 -3.140625 1.21875 -2.78125 1.21875 -2.25 L 1.21875 0 Z M 0.53125 0 "/>
</g>
<g id="glyph-4-13">
<path d="M 2.046875 -0.625 L 2.15625 0 C 1.957031 0.03125 1.78125 0.046875 1.625 0.046875 C 1.375 0.046875 1.175781 0.0078125 1.03125 -0.0625 C 0.894531 -0.144531 0.796875 -0.25 0.734375 -0.375 C 0.679688 -0.507812 0.65625 -0.785156 0.65625 -1.203125 L 0.65625 -3.59375 L 0.140625 -3.59375 L 0.140625 -4.125 L 0.65625 -4.125 L 0.65625 -5.15625 L 1.34375 -5.578125 L 1.34375 -4.125 L 2.046875 -4.125 L 2.046875 -3.59375 L 1.34375 -3.59375 L 1.34375 -1.171875 C 1.34375 -0.972656 1.351562 -0.84375 1.375 -0.78125 C 1.40625 -0.726562 1.445312 -0.679688 1.5 -0.640625 C 1.5625 -0.609375 1.644531 -0.59375 1.75 -0.59375 C 1.820312 -0.59375 1.921875 -0.601562 2.046875 -0.625 Z M 2.046875 -0.625 "/>
</g>
<g id="glyph-4-14">
<path d="M 0.6875 0 L 0.6875 -3.59375 L 0.078125 -3.59375 L 0.078125 -4.125 L 0.6875 -4.125 L 0.6875 -4.578125 C 0.6875 -4.847656 0.710938 -5.050781 0.765625 -5.1875 C 0.835938 -5.375 0.957031 -5.519531 1.125 -5.625 C 1.289062 -5.738281 1.53125 -5.796875 1.84375 -5.796875 C 2.03125 -5.796875 2.242188 -5.773438 2.484375 -5.734375 L 2.390625 -5.125 C 2.242188 -5.144531 2.101562 -5.15625 1.96875 -5.15625 C 1.757812 -5.15625 1.609375 -5.109375 1.515625 -5.015625 C 1.429688 -4.929688 1.390625 -4.765625 1.390625 -4.515625 L 1.390625 -4.125 L 2.1875 -4.125 L 2.1875 -3.59375 L 1.390625 -3.59375 L 1.390625 0 Z M 0.6875 0 "/>
</g>
<g id="glyph-4-15">
<path d="M 0.515625 0 L 0.515625 -5.703125 L 1.203125 -5.703125 L 1.203125 0 Z M 0.515625 0 "/>
</g>
<g id="glyph-4-16">
<path d="M 1.28125 0 L 0.015625 -4.125 L 0.75 -4.125 L 1.40625 -1.75 L 1.65625 -0.859375 C 1.664062 -0.898438 1.734375 -1.1875 1.859375 -1.71875 L 2.515625 -4.125 L 3.234375 -4.125 L 3.859375 -1.734375 L 4.0625 -0.953125 L 4.296875 -1.75 L 5.015625 -4.125 L 5.6875 -4.125 L 4.40625 0 L 3.671875 0 L 3.015625 -2.46875 L 2.859375 -3.171875 L 2.015625 0 Z M 1.28125 0 "/>
</g>
</g>
</defs>
<path fill="none" stroke-width="0.3985" stroke-linecap="butt" stroke-linejoin="miter" stroke="rgb(37.298584%, 38.798523%, 40.79895%)" stroke-opacity="1" stroke-miterlimit="10" d="M 22.323219 46.771531 C 23.069312 48.267625 24.815406 49.263719 27.303687 49.263719 L 202.303687 49.263719 C 204.795875 49.263719 206.538062 50.259813 207.284156 51.752 C 208.034156 50.259813 209.776344 49.263719 212.268531 49.263719 L 387.268531 49.263719 C 389.756813 49.263719 391.502906 48.267625 392.249 46.771531 " transform="matrix(1, 0, 0, -1, 6.376, 75.627)"/>
<g fill="rgb(12.5%, 12.89978%, 14.099121%)" fill-opacity="1">
<use xlink:href="#glyph-0-0" x="144.552" y="16.027"/>
<use xlink:href="#glyph-0-1" x="149.537318" y="16.027"/>
<use xlink:href="#glyph-0-2" x="155.015789" y="16.027"/>
<use xlink:href="#glyph-0-3" x="160.001107" y="16.027"/>
<use xlink:href="#glyph-0-4" x="162.986918" y="16.027"/>
<use xlink:href="#glyph-0-0" x="166.474848" y="16.027"/>
<use xlink:href="#glyph-0-5" x="171.460166" y="16.027"/>
<use xlink:href="#glyph-0-3" x="176.445485" y="16.027"/>
</g>
<g fill="rgb(12.5%, 12.89978%, 14.099121%)" fill-opacity="1">
<use xlink:href="#glyph-0-0" x="181.914989" y="16.027"/>
<use xlink:href="#glyph-0-2" x="186.900307" y="16.027"/>
<use xlink:href="#glyph-0-2" x="191.885626" y="16.027"/>
<use xlink:href="#glyph-0-6" x="196.870944" y="16.027"/>
<use xlink:href="#glyph-0-3" x="201.856262" y="16.027"/>
</g>
<g fill="rgb(12.5%, 12.89978%, 14.099121%)" fill-opacity="1">
<use xlink:href="#glyph-1-0" x="207.352" y="16.027"/>
</g>
<g fill="rgb(12.5%, 12.89978%, 14.099121%)" fill-opacity="1">
<use xlink:href="#glyph-1-1" x="217.519898" y="16.027"/>
</g>
<g fill="rgb(12.5%, 12.89978%, 14.099121%)" fill-opacity="1">
<use xlink:href="#glyph-1-2" x="226.988416" y="16.027"/>
</g>
<g fill="rgb(12.5%, 12.89978%, 14.099121%)" fill-opacity="1">
<use xlink:href="#glyph-1-3" x="236.672128" y="16.027"/>
</g>
<g fill="rgb(12.5%, 12.89978%, 14.099121%)" fill-opacity="1">
<use xlink:href="#glyph-1-4" x="231.480582" y="16.027"/>
</g>
<g fill="rgb(12.5%, 12.89978%, 14.099121%)" fill-opacity="1">
<use xlink:href="#glyph-2-0" x="235.359" y="18.242"/>
</g>
<g fill="rgb(12.5%, 12.89978%, 14.099121%)" fill-opacity="1">
<use xlink:href="#glyph-1-5" x="239.259" y="16.027"/>
</g>
<g fill="rgb(12.5%, 12.89978%, 14.099121%)" fill-opacity="1">
<use xlink:href="#glyph-1-3" x="248.440594" y="16.027"/>
</g>
<g fill="rgb(12.5%, 12.89978%, 14.099121%)" fill-opacity="1">
<use xlink:href="#glyph-1-4" x="243.249048" y="16.027"/>
</g>
<g fill="rgb(12.5%, 12.89978%, 14.099121%)" fill-opacity="1">
<use xlink:href="#glyph-2-1" x="247.128" y="18.242"/>
</g>
<g fill="rgb(12.5%, 12.89978%, 14.099121%)" fill-opacity="1">
<use xlink:href="#glyph-1-5" x="251.028" y="16.027"/>
</g>
<g fill="rgb(12.5%, 12.89978%, 14.099121%)" fill-opacity="1">
<use xlink:href="#glyph-1-6" x="255.009082" y="16.027"/>
</g>
<g fill="rgb(12.5%, 12.89978%, 14.099121%)" fill-opacity="1">
<use xlink:href="#glyph-1-5" x="264.011347" y="16.027"/>
</g>
<g fill="rgb(12.5%, 12.89978%, 14.099121%)" fill-opacity="1">
<use xlink:href="#glyph-1-3" x="273.192941" y="16.027"/>
</g>
<g fill="rgb(12.5%, 12.89978%, 14.099121%)" fill-opacity="1">
<use xlink:href="#glyph-1-4" x="268.001395" y="16.027"/>
</g>
<g fill="rgb(12.5%, 12.89978%, 14.099121%)" fill-opacity="1">
<use xlink:href="#glyph-2-2" x="271.884" y="18.242"/>
</g>
<g fill="rgb(12.5%, 12.89978%, 14.099121%)" fill-opacity="1">
<use xlink:href="#glyph-1-7" x="278.288" y="16.027"/>
</g>
<path fill="none" stroke-width="0.79701" stroke-linecap="butt" stroke-linejoin="miter" stroke="rgb(12.5%, 12.89978%, 14.099121%)" stroke-opacity="1" stroke-miterlimit="10" d="M -0.001 -0.00190625 L 416.034156 -0.00190625 " transform="matrix(1, 0, 0, -1, 6.376, 75.627)"/>
<path fill-rule="nonzero" fill="rgb(12.5%, 12.89978%, 14.099121%)" fill-opacity="1" stroke-width="0.79701" stroke-linecap="butt" stroke-linejoin="miter" stroke="rgb(12.5%, 12.89978%, 14.099121%)" stroke-opacity="1" stroke-miterlimit="10" d="M 6.461754 -0.00190625 C 5.668785 0.193406 2.180504 1.294969 0.00081625 2.494188 L 0.00081625 -2.494094 C 2.180504 -1.294875 5.668785 -0.193312 6.461754 -0.00190625 Z M 6.461754 -0.00190625 " transform="matrix(1, 0, 0, -1, 422.40934, 75.627)"/>
<g fill="rgb(12.5%, 12.89978%, 14.099121%)" fill-opacity="1">
<use xlink:href="#glyph-3-0" x="434.234" y="78.784"/>
<use xlink:href="#glyph-3-1" x="436.726659" y="78.784"/>
<use xlink:href="#glyph-3-2" x="438.7172" y="78.784"/>
<use xlink:href="#glyph-3-3" x="446.186211" y="78.784"/>
</g>
<path fill-rule="nonzero" fill="rgb(100%, 100%, 100%)" fill-opacity="1" stroke-width="0.69739" stroke-linecap="butt" stroke-linejoin="miter" stroke="rgb(12.548828%, 12.940979%, 14.118958%)" stroke-opacity="1" stroke-miterlimit="10" d="M 29.409156 -0.00190625 C 29.409156 3.912156 26.237281 7.087938 22.323219 7.087938 C 18.409156 7.087938 15.237281 3.912156 15.237281 -0.00190625 C 15.237281 -3.912062 18.409156 -7.087844 22.323219 -7.087844 C 26.237281 -7.087844 29.409156 -3.912062 29.409156 -0.00190625 Z M 29.409156 -0.00190625 " transform="matrix(1, 0, 0, -1, 6.376, 75.627)"/>
<g fill="rgb(0%, 0%, 0%)" fill-opacity="1">
<use xlink:href="#glyph-1-8" x="18.574" y="89.104"/>
</g>
<g fill="rgb(0%, 0%, 0%)" fill-opacity="1">
<use xlink:href="#glyph-1-1" x="24.868413" y="89.104"/>
</g>
<g fill="rgb(0%, 0%, 0%)" fill-opacity="1">
<use xlink:href="#glyph-1-9" x="34.336931" y="89.104"/>
</g>
<path fill-rule="nonzero" fill="rgb(100%, 100%, 100%)" fill-opacity="1" stroke-width="0.69739" stroke-linecap="butt" stroke-linejoin="miter" stroke="rgb(12.548828%, 12.940979%, 14.118958%)" stroke-opacity="1" stroke-miterlimit="10" d="M 118.702125 -0.00190625 C 118.702125 3.912156 115.53025 7.087938 111.616187 7.087938 C 107.702125 7.087938 104.53025 3.912156 104.53025 -0.00190625 C 104.53025 -3.912062 107.702125 -7.087844 111.616187 -7.087844 C 115.53025 -7.087844 118.702125 -3.912062 118.702125 -0.00190625 Z M 118.702125 -0.00190625 " transform="matrix(1, 0, 0, -1, 6.376, 75.627)"/>
<g fill="rgb(0%, 0%, 0%)" fill-opacity="1">
<use xlink:href="#glyph-1-8" x="107.866" y="89.104"/>
</g>
<g fill="rgb(0%, 0%, 0%)" fill-opacity="1">
<use xlink:href="#glyph-1-1" x="114.160413" y="89.104"/>
</g>
<g fill="rgb(0%, 0%, 0%)" fill-opacity="1">
<use xlink:href="#glyph-1-10" x="123.628931" y="89.104"/>
</g>
<path fill-rule="nonzero" fill="rgb(100%, 100%, 100%)" fill-opacity="1" stroke-width="0.69739" stroke-linecap="butt" stroke-linejoin="miter" stroke="rgb(12.548828%, 12.940979%, 14.118958%)" stroke-opacity="1" stroke-miterlimit="10" d="M 207.995094 -0.00190625 C 207.995094 3.912156 204.823219 7.087938 200.909156 7.087938 C 196.995094 7.087938 193.819312 3.912156 193.819312 -0.00190625 C 193.819312 -3.912062 196.995094 -7.087844 200.909156 -7.087844 C 204.823219 -7.087844 207.995094 -3.912062 207.995094 -0.00190625 Z M 207.995094 -0.00190625 " transform="matrix(1, 0, 0, -1, 6.376, 75.627)"/>
<g fill="rgb(0%, 0%, 0%)" fill-opacity="1">
<use xlink:href="#glyph-1-8" x="197.158" y="89.104"/>
</g>
<g fill="rgb(0%, 0%, 0%)" fill-opacity="1">
<use xlink:href="#glyph-1-1" x="203.452413" y="89.104"/>
</g>
<g fill="rgb(0%, 0%, 0%)" fill-opacity="1">
<use xlink:href="#glyph-1-11" x="212.920931" y="89.104"/>
</g>
<path fill-rule="nonzero" fill="rgb(100%, 100%, 100%)" fill-opacity="1" stroke-width="0.69739" stroke-linecap="butt" stroke-linejoin="miter" stroke="rgb(12.548828%, 12.940979%, 14.118958%)" stroke-opacity="1" stroke-miterlimit="10" d="M 389.768531 -0.00190625 C 389.768531 3.912156 386.596656 7.087938 382.682594 7.087938 C 378.768531 7.087938 375.596656 3.912156 375.596656 -0.00190625 C 375.596656 -3.912062 378.768531 -7.087844 382.682594 -7.087844 C 386.596656 -7.087844 389.768531 -3.912062 389.768531 -0.00190625 Z M 389.768531 -0.00190625 " transform="matrix(1, 0, 0, -1, 6.376, 75.627)"/>
<g fill="rgb(0%, 0%, 0%)" fill-opacity="1">
<use xlink:href="#glyph-1-8" x="377.099" y="89.256"/>
</g>
<g fill="rgb(0%, 0%, 0%)" fill-opacity="1">
<use xlink:href="#glyph-1-1" x="383.393413" y="89.256"/>
</g>
<g fill="rgb(0%, 0%, 0%)" fill-opacity="1">
<use xlink:href="#glyph-1-12" x="392.861931" y="89.256"/>
</g>
<g fill="rgb(0%, 0%, 0%)" fill-opacity="1">
<use xlink:href="#glyph-1-13" x="293.098" y="76.418"/>
</g>
<path fill="none" stroke-width="1.39478" stroke-linecap="butt" stroke-linejoin="miter" stroke="rgb(70.199585%, 10.598755%, 10.598755%)" stroke-opacity="1" stroke-miterlimit="10" d="M 22.323219 7.435594 L 22.323219 21.959031 " transform="matrix(1, 0, 0, -1, 6.376, 75.627)"/>
<path fill-rule="nonzero" fill="rgb(70.199585%, 10.598755%, 10.598755%)" fill-opacity="1" stroke-width="1.39478" stroke-linecap="butt" stroke-linejoin="miter" stroke="rgb(70.199585%, 10.598755%, 10.598755%)" stroke-opacity="1" stroke-miterlimit="10" d="M 4.931139 0.00027125 C 4.32567 0.152615 1.665514 1.027615 0.00145125 1.972928 L 0.00145125 -1.976291 C 1.665514 -1.027072 4.32567 -0.152072 4.931139 0.00027125 Z M 4.931139 0.00027125 " transform="matrix(0, -1, -1, 0, 28.69949, 53.66942)"/>
<g fill="rgb(70.199585%, 10.598755%, 10.598755%)" fill-opacity="1">
<use xlink:href="#glyph-1-3" x="37.42" y="59.754"/>
</g>
<g fill="rgb(70.199585%, 10.598755%, 10.598755%)" fill-opacity="1">
<use xlink:href="#glyph-1-4" x="32.219488" y="59.754"/>
</g>
<g fill="rgb(70.199585%, 10.598755%, 10.598755%)" fill-opacity="1">
<use xlink:href="#glyph-2-0" x="36.102" y="61.969"/>
</g>
<g fill="rgb(37.298584%, 38.798523%, 40.79895%)" fill-opacity="1">
<use xlink:href="#glyph-4-0" x="11.64" y="40.759"/>
<use xlink:href="#glyph-4-1" x="15.62505" y="40.759"/>
<use xlink:href="#glyph-4-2" x="20.056426" y="40.759"/>
<use xlink:href="#glyph-4-3" x="24.041476" y="40.759"/>
</g>
<g fill="rgb(37.298584%, 38.798523%, 40.79895%)" fill-opacity="1">
<use xlink:href="#glyph-4-4" x="30.680569" y="40.759"/>
<use xlink:href="#glyph-4-1" x="35.111945" y="40.759"/>
<use xlink:href="#glyph-4-5" x="39.54332" y="40.759"/>
<use xlink:href="#glyph-4-6" x="41.312682" y="40.759"/>
</g>
<path fill="none" stroke-width="1.39478" stroke-linecap="butt" stroke-linejoin="miter" stroke="rgb(10.198975%, 32.199097%, 46.299744%)" stroke-opacity="1" stroke-miterlimit="10" d="M 111.616187 29.763719 L 111.616187 15.240281 " transform="matrix(1, 0, 0, -1, 6.376, 75.627)"/>
<path fill-rule="nonzero" fill="rgb(10.198975%, 32.199097%, 46.299744%)" fill-opacity="1" stroke-width="1.39478" stroke-linecap="butt" stroke-linejoin="miter" stroke="rgb(10.198975%, 32.199097%, 46.299744%)" stroke-opacity="1" stroke-miterlimit="10" d="M 4.931426 0.0005975 C 4.325957 0.152941 1.661895 1.024035 0.00173875 1.973254 L 0.00173875 -1.975965 C 1.661895 -1.026746 4.325957 -0.155653 4.931426 0.0005975 Z M 4.931426 0.0005975 " transform="matrix(0, 1, 1, 0, 117.99159, 60.38498)"/>
<g fill="rgb(10.198975%, 32.199097%, 46.299744%)" fill-opacity="1">
<use xlink:href="#glyph-1-3" x="126.712" y="59.814"/>
</g>
<g fill="rgb(10.198975%, 32.199097%, 46.299744%)" fill-opacity="1">
<use xlink:href="#glyph-1-4" x="121.511488" y="59.814"/>
</g>
<g fill="rgb(10.198975%, 32.199097%, 46.299744%)" fill-opacity="1">
<use xlink:href="#glyph-2-1" x="125.394" y="62.029"/>
</g>
<path fill="none" stroke-width="1.39478" stroke-linecap="butt" stroke-linejoin="miter" stroke="rgb(70.199585%, 10.598755%, 10.598755%)" stroke-opacity="1" stroke-miterlimit="10" d="M 200.909156 7.435594 L 200.909156 21.959031 " transform="matrix(1, 0, 0, -1, 6.376, 75.627)"/>
<path fill-rule="nonzero" fill="rgb(70.199585%, 10.598755%, 10.598755%)" fill-opacity="1" stroke-width="1.39478" stroke-linecap="butt" stroke-linejoin="miter" stroke="rgb(70.199585%, 10.598755%, 10.598755%)" stroke-opacity="1" stroke-miterlimit="10" d="M 4.931139 -0.00148625 C 4.32567 0.154764 1.665514 1.025858 0.00145125 1.975076 L 0.00145125 -1.974142 C 1.665514 -1.024924 4.32567 -0.15383 4.931139 -0.00148625 Z M 4.931139 -0.00148625 " transform="matrix(0, -1, -1, 0, 207.28367, 53.66942)"/>
<g fill="rgb(70.199585%, 10.598755%, 10.598755%)" fill-opacity="1">
<use xlink:href="#glyph-1-3" x="216.004" y="59.814"/>
</g>
<g fill="rgb(70.199585%, 10.598755%, 10.598755%)" fill-opacity="1">
<use xlink:href="#glyph-1-4" x="210.803488" y="59.814"/>
</g>
<g fill="rgb(70.199585%, 10.598755%, 10.598755%)" fill-opacity="1">
<use xlink:href="#glyph-2-3" x="214.686" y="62.029"/>
</g>
<path fill="none" stroke-width="1.39478" stroke-linecap="butt" stroke-linejoin="miter" stroke="rgb(10.198975%, 32.199097%, 46.299744%)" stroke-opacity="1" stroke-miterlimit="10" d="M 382.682594 29.763719 L 382.682594 15.240281 " transform="matrix(1, 0, 0, -1, 6.376, 75.627)"/>
<path fill-rule="nonzero" fill="rgb(10.198975%, 32.199097%, 46.299744%)" fill-opacity="1" stroke-width="1.39478" stroke-linecap="butt" stroke-linejoin="miter" stroke="rgb(10.198975%, 32.199097%, 46.299744%)" stroke-opacity="1" stroke-miterlimit="10" d="M 4.931426 0.00055375 C 4.325957 0.152897 1.661895 1.023991 0.00173875 1.97321 L 0.00173875 -1.976009 C 1.661895 -1.02679 4.325957 -0.155696 4.931426 0.00055375 Z M 4.931426 0.00055375 " transform="matrix(0, 1, 1, 0, 389.05804, 60.38498)"/>
<g fill="rgb(10.198975%, 32.199097%, 46.299744%)" fill-opacity="1">
<use xlink:href="#glyph-1-3" x="397.779" y="59.814"/>
</g>
<g fill="rgb(10.198975%, 32.199097%, 46.299744%)" fill-opacity="1">
<use xlink:href="#glyph-1-4" x="392.578488" y="59.814"/>
</g>
<g fill="rgb(10.198975%, 32.199097%, 46.299744%)" fill-opacity="1">
<use xlink:href="#glyph-2-2" x="396.461" y="62.029"/>
</g>
<g fill="rgb(37.298584%, 38.798523%, 40.79895%)" fill-opacity="1">
<use xlink:href="#glyph-4-0" x="364.47" y="42.25"/>
<use xlink:href="#glyph-4-1" x="368.45505" y="42.25"/>
<use xlink:href="#glyph-4-2" x="372.886426" y="42.25"/>
<use xlink:href="#glyph-4-3" x="376.871476" y="42.25"/>
</g>
<g fill="rgb(37.298584%, 38.798523%, 40.79895%)" fill-opacity="1">
<use xlink:href="#glyph-4-7" x="383.510569" y="42.25"/>
<use xlink:href="#glyph-4-8" x="386.164612" y="42.25"/>
<use xlink:href="#glyph-4-0" x="390.595988" y="42.25"/>
<use xlink:href="#glyph-4-8" x="394.581038" y="42.25"/>
<use xlink:href="#glyph-4-5" x="399.012413" y="42.25"/>
<use xlink:href="#glyph-4-9" x="400.781776" y="42.25"/>
<use xlink:href="#glyph-4-8" x="404.766826" y="42.25"/>
<use xlink:href="#glyph-4-6" x="409.198201" y="42.25"/>
</g>
<path fill="none" stroke-width="0.89664" stroke-linecap="butt" stroke-linejoin="miter" stroke="rgb(10.198975%, 32.199097%, 46.299744%)" stroke-opacity="1" stroke-miterlimit="10" d="M 382.682594 -26.646437 L 39.944312 -26.646437 " transform="matrix(1, 0, 0, -1, 6.376, 75.627)"/>
<path fill-rule="nonzero" fill="rgb(10.198975%, 32.199097%, 46.299744%)" fill-opacity="1" stroke-width="0.89664" stroke-linecap="butt" stroke-linejoin="miter" stroke="rgb(10.198975%, 32.199097%, 46.299744%)" stroke-opacity="1" stroke-miterlimit="10" d="M 6.208579 0.0003775 C 5.44686 0.187877 2.095298 1.250377 0.0015475 2.406627 L 0.0015475 -2.409779 C 2.095298 -1.249623 5.44686 -0.187123 6.208579 0.0003775 Z M 6.208579 0.0003775 " transform="matrix(-1, 0, 0, 1, 46.32186, 102.27306)"/>
<path fill-rule="nonzero" fill="rgb(100%, 100%, 100%)" fill-opacity="1" d="M 177.070312 110.589844 L 250.253906 110.589844 L 250.253906 93.953125 L 177.070312 93.953125 Z M 177.070312 110.589844 "/>
<g fill="rgb(10.198975%, 32.199097%, 46.299744%)" fill-opacity="1">
<use xlink:href="#glyph-1-3" x="185.261" y="104.168"/>
</g>
<g fill="rgb(10.198975%, 32.199097%, 46.299744%)" fill-opacity="1">
<use xlink:href="#glyph-1-4" x="180.060488" y="104.168"/>
</g>
<g fill="rgb(10.198975%, 32.199097%, 46.299744%)" fill-opacity="1">
<use xlink:href="#glyph-2-4" x="183.943" y="106.383"/>
</g>
<g fill="rgb(10.198975%, 32.199097%, 46.299744%)" fill-opacity="1">
<use xlink:href="#glyph-1-14" x="189.759" y="104.168"/>
</g>
<g fill="rgb(10.198975%, 32.199097%, 46.299744%)" fill-opacity="1">
<use xlink:href="#glyph-1-15" x="201.002866" y="104.168"/>
</g>
<g fill="rgb(10.198975%, 32.199097%, 46.299744%)" fill-opacity="1">
<use xlink:href="#glyph-2-5" x="208.82" y="100.913"/>
<use xlink:href="#glyph-2-1" x="213.470573" y="100.913"/>
</g>
<g fill="rgb(10.198975%, 32.199097%, 46.299744%)" fill-opacity="1">
<use xlink:href="#glyph-2-4" x="208.82" y="106.383"/>
<use xlink:href="#glyph-2-6" x="211.647405" y="106.383"/>
<use xlink:href="#glyph-2-0" x="213.673811" y="106.383"/>
</g>
<g fill="rgb(10.198975%, 32.199097%, 46.299744%)" fill-opacity="1">
<use xlink:href="#glyph-1-16" x="217.573" y="104.168"/>
<use xlink:href="#glyph-1-17" x="221.06093" y="104.168"/>
</g>
<g fill="rgb(10.198975%, 32.199097%, 46.299744%)" fill-opacity="1">
<use xlink:href="#glyph-1-18" x="225.696558" y="104.168"/>
</g>
<g fill="rgb(10.198975%, 32.199097%, 46.299744%)" fill-opacity="1">
<use xlink:href="#glyph-1-19" x="229.686606" y="104.168"/>
<use xlink:href="#glyph-1-20" x="235.066446" y="104.168"/>
</g>
<g fill="rgb(10.198975%, 32.199097%, 46.299744%)" fill-opacity="1">
<use xlink:href="#glyph-1-3" x="245.252277" y="104.168"/>
</g>
<g fill="rgb(10.198975%, 32.199097%, 46.299744%)" fill-opacity="1">
<use xlink:href="#glyph-1-4" x="240.060731" y="104.168"/>
</g>
<g fill="rgb(10.198975%, 32.199097%, 46.299744%)" fill-opacity="1">
<use xlink:href="#glyph-2-4" x="243.937" y="106.383"/>
</g>
<path fill-rule="nonzero" fill="rgb(97.254944%, 97.645569%, 98.039246%)" fill-opacity="1" stroke-width="0.3985" stroke-linecap="butt" stroke-linejoin="miter" stroke="rgb(68.232727%, 70.588684%, 72.941589%)" stroke-opacity="1" stroke-miterlimit="10" d="M 152.909156 -36.201125 L 23.518531 -36.201125 C 22.96775 -36.201125 22.522437 -36.646437 22.522437 -37.197219 L 22.522437 -51.720656 C 22.522437 -52.271437 22.96775 -52.71675 23.518531 -52.71675 L 152.909156 -52.71675 C 153.459937 -52.71675 153.90525 -52.271437 153.90525 -51.720656 L 153.90525 -37.197219 C 153.90525 -36.646437 153.459937 -36.201125 152.909156 -36.201125 Z M 152.909156 -36.201125 " transform="matrix(1, 0, 0, -1, 6.376, 75.627)"/>
<g fill="rgb(0%, 0%, 0%)" fill-opacity="1">
<use xlink:href="#glyph-3-4" x="36.869" y="123.253"/>
<use xlink:href="#glyph-3-5" x="41.3522" y="123.253"/>
<use xlink:href="#glyph-3-2" x="46.337518" y="123.253"/>
<use xlink:href="#glyph-3-2" x="53.80653" y="123.253"/>
<use xlink:href="#glyph-3-5" x="61.275541" y="123.253"/>
<use xlink:href="#glyph-3-6" x="66.260859" y="123.253"/>
</g>
<g fill="rgb(0%, 0%, 0%)" fill-opacity="1">
<use xlink:href="#glyph-3-7" x="73.72987" y="123.253"/>
<use xlink:href="#glyph-3-6" x="78.715189" y="123.253"/>
<use xlink:href="#glyph-3-1" x="83.700507" y="123.253"/>
<use xlink:href="#glyph-3-0" x="85.691048" y="123.253"/>
<use xlink:href="#glyph-3-8" x="88.183707" y="123.253"/>
<use xlink:href="#glyph-3-9" x="92.666907" y="123.253"/>
</g>
<g fill="rgb(0%, 0%, 0%)" fill-opacity="1">
<use xlink:href="#glyph-3-0" x="98.486101" y="123.253"/>
<use xlink:href="#glyph-3-1" x="100.97876" y="123.253"/>
<use xlink:href="#glyph-3-2" x="102.969301" y="123.253"/>
<use xlink:href="#glyph-3-3" x="110.438312" y="123.253"/>
<use xlink:href="#glyph-3-10" x="115.42363" y="123.253"/>
<use xlink:href="#glyph-3-11" x="118.409442" y="123.253"/>
</g>
<g fill="rgb(0%, 0%, 0%)" fill-opacity="1">
<use xlink:href="#glyph-3-12" x="125.887419" y="123.253"/>
<use xlink:href="#glyph-3-5" x="130.872738" y="123.253"/>
<use xlink:href="#glyph-3-13" x="135.858056" y="123.253"/>
<use xlink:href="#glyph-3-13" x="137.848597" y="123.253"/>
<use xlink:href="#glyph-3-14" x="139.839138" y="123.253"/>
<use xlink:href="#glyph-3-15" x="144.824456" y="123.253"/>
<use xlink:href="#glyph-3-8" x="147.810267" y="123.253"/>
</g>
<g fill="rgb(37.298584%, 38.798523%, 40.79895%)" fill-opacity="1">
<use xlink:href="#glyph-4-6" x="223.56" y="122.986"/>
<use xlink:href="#glyph-4-5" x="227.991376" y="122.986"/>
<use xlink:href="#glyph-4-2" x="229.760738" y="122.986"/>
<use xlink:href="#glyph-4-0" x="233.745788" y="122.986"/>
<use xlink:href="#glyph-4-10" x="237.730838" y="122.986"/>
<use xlink:href="#glyph-4-11" x="242.162213" y="122.986"/>
<use xlink:href="#glyph-4-12" x="246.593589" y="122.986"/>
<use xlink:href="#glyph-4-13" x="251.024965" y="122.986"/>
</g>
<g fill="rgb(37.298584%, 38.798523%, 40.79895%)" fill-opacity="1">
<use xlink:href="#glyph-4-14" x="255.44837" y="122.986"/>
<use xlink:href="#glyph-4-11" x="257.664058" y="122.986"/>
<use xlink:href="#glyph-4-13" x="262.095434" y="122.986"/>
<use xlink:href="#glyph-4-11" x="264.311121" y="122.986"/>
<use xlink:href="#glyph-4-7" x="268.742497" y="122.986"/>
<use xlink:href="#glyph-4-8" x="271.39654" y="122.986"/>
</g>
<g fill="rgb(37.298584%, 38.798523%, 40.79895%)" fill-opacity="1">
<use xlink:href="#glyph-4-0" x="278.043604" y="122.986"/>
<use xlink:href="#glyph-4-1" x="282.028654" y="122.986"/>
<use xlink:href="#glyph-4-2" x="286.460029" y="122.986"/>
<use xlink:href="#glyph-4-3" x="290.445079" y="122.986"/>
</g>
<g fill="rgb(37.298584%, 38.798523%, 40.79895%)" fill-opacity="1">
<use xlink:href="#glyph-4-14" x="297.092143" y="122.986"/>
<use xlink:href="#glyph-4-15" x="299.30783" y="122.986"/>
<use xlink:href="#glyph-4-10" x="301.077193" y="122.986"/>
<use xlink:href="#glyph-4-16" x="305.508568" y="122.986"/>
<use xlink:href="#glyph-4-2" x="311.26298" y="122.986"/>
</g>
<g fill="rgb(37.298584%, 38.798523%, 40.79895%)" fill-opacity="1">
<use xlink:href="#glyph-4-13" x="317.463718" y="122.986"/>
<use xlink:href="#glyph-4-10" x="319.679406" y="122.986"/>
</g>
<g fill="rgb(37.298584%, 38.798523%, 40.79895%)" fill-opacity="1">
<use xlink:href="#glyph-4-13" x="326.326469" y="122.986"/>
<use xlink:href="#glyph-4-3" x="328.542157" y="122.986"/>
<use xlink:href="#glyph-4-8" x="332.973533" y="122.986"/>
</g>
<g fill="rgb(37.298584%, 38.798523%, 40.79895%)" fill-opacity="1">
<use xlink:href="#glyph-4-9" x="339.620596" y="122.986"/>
<use xlink:href="#glyph-4-1" x="343.605646" y="122.986"/>
<use xlink:href="#glyph-4-15" x="348.037022" y="122.986"/>
<use xlink:href="#glyph-4-11" x="349.806384" y="122.986"/>
<use xlink:href="#glyph-4-1" x="354.23776" y="122.986"/>
<use xlink:href="#glyph-4-13" x="358.669135" y="122.986"/>
<use xlink:href="#glyph-4-5" x="360.884823" y="122.986"/>
<use xlink:href="#glyph-4-10" x="362.654185" y="122.986"/>
<use xlink:href="#glyph-4-12" x="367.085561" y="122.986"/>
</g>
<g fill="rgb(37.298584%, 38.798523%, 40.79895%)" fill-opacity="1">
<use xlink:href="#glyph-4-6" x="373.724654" y="122.986"/>
<use xlink:href="#glyph-4-1" x="378.15603" y="122.986"/>
<use xlink:href="#glyph-4-13" x="382.587405" y="122.986"/>
<use xlink:href="#glyph-4-8" x="384.803093" y="122.986"/>
</g>
</svg>
