<?xml version="1.0" encoding="UTF-8"?>
<svg xmlns="http://www.w3.org/2000/svg" xmlns:xlink="http://www.w3.org/1999/xlink" width="312.71pt" height="99.63pt" viewBox="0 0 312.71 99.63">
<defs>
<g>
<g id="glyph-0-0">
<path d="M 0.359375 -2.390625 C 0.359375 -2.796875 0.457031 -3.191406 0.65625 -3.578125 C 0.863281 -3.960938 1.148438 -4.253906 1.515625 -4.453125 C 1.890625 -4.648438 2.300781 -4.75 2.75 -4.75 C 3.457031 -4.75 4.035156 -4.519531 4.484375 -4.0625 C 4.929688 -3.613281 5.15625 -3.039062 5.15625 -2.34375 C 5.15625 -1.632812 4.925781 -1.046875 4.46875 -0.578125 C 4.019531 -0.117188 3.453125 0.109375 2.765625 0.109375 C 2.335938 0.109375 1.929688 0.0117188 1.546875 -0.171875 C 1.160156 -0.367188 0.863281 -0.65625 0.65625 -1.03125 C 0.457031 -1.40625 0.359375 -1.859375 0.359375 -2.390625 Z M 1.625 -2.328125 C 1.625 -1.867188 1.734375 -1.515625 1.953125 -1.265625 C 2.171875 -1.015625 2.441406 -0.890625 2.765625 -0.890625 C 3.078125 -0.890625 3.34375 -1.015625 3.5625 -1.265625 C 3.78125 -1.515625 3.890625 -1.867188 3.890625 -2.328125 C 3.890625 -2.785156 3.78125 -3.132812 3.5625 -3.375 C 3.34375 -3.625 3.078125 -3.75 2.765625 -3.75 C 2.441406 -3.75 2.171875 -3.625 1.953125 -3.375 C 1.734375 -3.132812 1.625 -2.785156 1.625 -2.328125 Z M 1.625 -2.328125 "/>
</g>
<g id="glyph-0-1">
<path d="M 1.828125 0 L 0.59375 0 L 0.59375 -4.65625 L 1.734375 -4.65625 L 1.734375 -3.984375 C 1.929688 -4.296875 2.109375 -4.5 2.265625 -4.59375 C 2.421875 -4.695312 2.597656 -4.75 2.796875 -4.75 C 3.078125 -4.75 3.347656 -4.675781 3.609375 -4.53125 L 3.21875 -3.453125 C 3.007812 -3.585938 2.816406 -3.65625 2.640625 -3.65625 C 2.472656 -3.65625 2.328125 -3.609375 2.203125 -3.515625 C 2.085938 -3.421875 1.992188 -3.25 1.921875 -3 C 1.859375 -2.75 1.828125 -2.226562 1.828125 -1.4375 Z M 1.828125 0 "/>
</g>
<g id="glyph-0-2">
<path d="M 0.640625 -5.28125 L 0.640625 -6.421875 L 1.875 -6.421875 L 1.875 -5.28125 Z M 0.640625 0 L 0.640625 -4.65625 L 1.875 -4.65625 L 1.875 0 Z M 0.640625 0 "/>
</g>
<g id="glyph-0-3">
<path d="M 0.53125 0.3125 L 1.9375 0.484375 C 1.957031 0.640625 2.007812 0.75 2.09375 0.8125 C 2.207031 0.90625 2.394531 0.953125 2.65625 0.953125 C 2.96875 0.953125 3.207031 0.898438 3.375 0.796875 C 3.476562 0.734375 3.5625 0.628906 3.625 0.484375 C 3.65625 0.390625 3.671875 0.199219 3.671875 -0.078125 L 3.671875 -0.75 C 3.304688 -0.25 2.84375 0 2.28125 0 C 1.65625 0 1.160156 -0.265625 0.796875 -0.796875 C 0.515625 -1.210938 0.375 -1.734375 0.375 -2.359375 C 0.375 -3.128906 0.5625 -3.71875 0.9375 -4.125 C 1.3125 -4.539062 1.773438 -4.75 2.328125 -4.75 C 2.898438 -4.75 3.375 -4.5 3.75 -4 L 3.75 -4.65625 L 4.90625 -4.65625 L 4.90625 -0.484375 C 4.90625 0.0664062 4.859375 0.476562 4.765625 0.75 C 4.679688 1.019531 4.554688 1.234375 4.390625 1.390625 C 4.222656 1.546875 4.003906 1.664062 3.734375 1.75 C 3.460938 1.84375 3.117188 1.890625 2.703125 1.890625 C 1.910156 1.890625 1.347656 1.753906 1.015625 1.484375 C 0.691406 1.210938 0.53125 0.867188 0.53125 0.453125 C 0.53125 0.410156 0.53125 0.363281 0.53125 0.3125 Z M 1.625 -2.421875 C 1.625 -1.929688 1.71875 -1.570312 1.90625 -1.34375 C 2.101562 -1.113281 2.34375 -1 2.625 -1 C 2.925781 -1 3.179688 -1.113281 3.390625 -1.34375 C 3.597656 -1.582031 3.703125 -1.929688 3.703125 -2.390625 C 3.703125 -2.867188 3.597656 -3.222656 3.390625 -3.453125 C 3.191406 -3.691406 2.941406 -3.8125 2.640625 -3.8125 C 2.347656 -3.8125 2.101562 -3.695312 1.90625 -3.46875 C 1.71875 -3.238281 1.625 -2.890625 1.625 -2.421875 Z M 1.625 -2.421875 "/>
</g>
<g id="glyph-0-4">
<path d="M 4.875 0 L 3.640625 0 L 3.640625 -2.375 C 3.640625 -2.875 3.613281 -3.195312 3.5625 -3.34375 C 3.507812 -3.488281 3.421875 -3.601562 3.296875 -3.6875 C 3.179688 -3.769531 3.039062 -3.8125 2.875 -3.8125 C 2.664062 -3.8125 2.472656 -3.753906 2.296875 -3.640625 C 2.128906 -3.523438 2.015625 -3.367188 1.953125 -3.171875 C 1.890625 -2.984375 1.859375 -2.628906 1.859375 -2.109375 L 1.859375 0 L 0.640625 0 L 0.640625 -4.65625 L 1.78125 -4.65625 L 1.78125 -3.96875 C 2.1875 -4.488281 2.695312 -4.75 3.3125 -4.75 C 3.582031 -4.75 3.828125 -4.703125 4.046875 -4.609375 C 4.273438 -4.515625 4.445312 -4.390625 4.5625 -4.234375 C 4.675781 -4.078125 4.753906 -3.898438 4.796875 -3.703125 C 4.847656 -3.515625 4.875 -3.242188 4.875 -2.890625 Z M 4.875 0 "/>
</g>
<g id="glyph-0-5">
<path d="M 1.5625 -3.234375 L 0.453125 -3.4375 C 0.578125 -3.882812 0.789062 -4.210938 1.09375 -4.421875 C 1.394531 -4.640625 1.851562 -4.75 2.46875 -4.75 C 3.007812 -4.75 3.414062 -4.679688 3.6875 -4.546875 C 3.957031 -4.421875 4.144531 -4.257812 4.25 -4.0625 C 4.363281 -3.863281 4.421875 -3.5 4.421875 -2.96875 L 4.40625 -1.53125 C 4.40625 -1.125 4.425781 -0.820312 4.46875 -0.625 C 4.507812 -0.425781 4.582031 -0.21875 4.6875 0 L 3.46875 0 C 3.4375 -0.0820312 3.394531 -0.203125 3.34375 -0.359375 C 3.320312 -0.429688 3.3125 -0.484375 3.3125 -0.515625 C 3.09375 -0.304688 2.863281 -0.148438 2.625 -0.046875 C 2.382812 0.0546875 2.128906 0.109375 1.859375 0.109375 C 1.378906 0.109375 1 -0.0195312 0.71875 -0.28125 C 0.445312 -0.539062 0.3125 -0.867188 0.3125 -1.265625 C 0.3125 -1.535156 0.375 -1.769531 0.5 -1.96875 C 0.632812 -2.175781 0.8125 -2.332031 1.03125 -2.4375 C 1.257812 -2.550781 1.585938 -2.648438 2.015625 -2.734375 C 2.585938 -2.835938 2.984375 -2.9375 3.203125 -3.03125 L 3.203125 -3.15625 C 3.203125 -3.394531 3.144531 -3.5625 3.03125 -3.65625 C 2.914062 -3.757812 2.695312 -3.8125 2.375 -3.8125 C 2.15625 -3.8125 1.984375 -3.769531 1.859375 -3.6875 C 1.734375 -3.601562 1.632812 -3.453125 1.5625 -3.234375 Z M 3.203125 -2.234375 C 3.046875 -2.179688 2.796875 -2.117188 2.453125 -2.046875 C 2.117188 -1.972656 1.898438 -1.898438 1.796875 -1.828125 C 1.628906 -1.710938 1.546875 -1.566406 1.546875 -1.390625 C 1.546875 -1.222656 1.609375 -1.078125 1.734375 -0.953125 C 1.867188 -0.828125 2.035156 -0.765625 2.234375 -0.765625 C 2.453125 -0.765625 2.664062 -0.835938 2.875 -0.984375 C 3.019531 -1.085938 3.113281 -1.222656 3.15625 -1.390625 C 3.1875 -1.492188 3.203125 -1.691406 3.203125 -1.984375 Z M 3.203125 -2.234375 "/>
</g>
<g id="glyph-0-6">
<path d="M 0.640625 0 L 0.640625 -6.421875 L 1.875 -6.421875 L 1.875 0 Z M 0.640625 0 "/>
</g>
<g id="glyph-0-7">
<path d="M 0.203125 -1.328125 L 1.4375 -1.515625 C 1.5 -1.273438 1.609375 -1.09375 1.765625 -0.96875 C 1.921875 -0.84375 2.144531 -0.78125 2.4375 -0.78125 C 2.757812 -0.78125 3 -0.835938 3.15625 -0.953125 C 3.257812 -1.035156 3.3125 -1.144531 3.3125 -1.28125 C 3.3125 -1.375 3.285156 -1.453125 3.234375 -1.515625 C 3.171875 -1.578125 3.03125 -1.632812 2.8125 -1.6875 C 1.820312 -1.90625 1.195312 -2.101562 0.9375 -2.28125 C 0.5625 -2.53125 0.375 -2.878906 0.375 -3.328125 C 0.375 -3.734375 0.53125 -4.070312 0.84375 -4.34375 C 1.164062 -4.613281 1.664062 -4.75 2.34375 -4.75 C 2.976562 -4.75 3.445312 -4.644531 3.75 -4.4375 C 4.0625 -4.238281 4.273438 -3.9375 4.390625 -3.53125 L 3.234375 -3.3125 C 3.179688 -3.488281 3.085938 -3.625 2.953125 -3.71875 C 2.816406 -3.820312 2.617188 -3.875 2.359375 -3.875 C 2.035156 -3.875 1.804688 -3.828125 1.671875 -3.734375 C 1.578125 -3.671875 1.53125 -3.585938 1.53125 -3.484375 C 1.53125 -3.398438 1.566406 -3.328125 1.640625 -3.265625 C 1.753906 -3.179688 2.140625 -3.0625 2.796875 -2.90625 C 3.453125 -2.757812 3.910156 -2.582031 4.171875 -2.375 C 4.421875 -2.15625 4.546875 -1.847656 4.546875 -1.453125 C 4.546875 -1.023438 4.367188 -0.65625 4.015625 -0.34375 C 3.660156 -0.0390625 3.132812 0.109375 2.4375 0.109375 C 1.800781 0.109375 1.296875 -0.0195312 0.921875 -0.28125 C 0.554688 -0.539062 0.316406 -0.890625 0.203125 -1.328125 Z M 0.203125 -1.328125 "/>
</g>
<g id="glyph-0-8">
<path d="M 3.703125 0 L 3.703125 -0.703125 C 3.535156 -0.453125 3.3125 -0.253906 3.03125 -0.109375 C 2.757812 0.0351562 2.46875 0.109375 2.15625 0.109375 C 1.84375 0.109375 1.5625 0.0390625 1.3125 -0.09375 C 1.070312 -0.238281 0.894531 -0.429688 0.78125 -0.671875 C 0.675781 -0.921875 0.625 -1.265625 0.625 -1.703125 L 0.625 -4.65625 L 1.84375 -4.65625 L 1.84375 -2.515625 C 1.84375 -1.859375 1.863281 -1.457031 1.90625 -1.3125 C 1.957031 -1.164062 2.039062 -1.046875 2.15625 -0.953125 C 2.28125 -0.867188 2.4375 -0.828125 2.625 -0.828125 C 2.832031 -0.828125 3.019531 -0.882812 3.1875 -1 C 3.351562 -1.113281 3.46875 -1.253906 3.53125 -1.421875 C 3.59375 -1.597656 3.625 -2.019531 3.625 -2.6875 L 3.625 -4.65625 L 4.84375 -4.65625 L 4.84375 0 Z M 3.703125 0 "/>
</g>
<g id="glyph-0-9">
<path d="M 3.34375 -1.484375 L 4.5625 -1.28125 C 4.40625 -0.820312 4.15625 -0.472656 3.8125 -0.234375 C 3.476562 -0.00390625 3.054688 0.109375 2.546875 0.109375 C 1.734375 0.109375 1.132812 -0.15625 0.75 -0.6875 C 0.4375 -1.113281 0.28125 -1.648438 0.28125 -2.296875 C 0.28125 -3.066406 0.484375 -3.664062 0.890625 -4.09375 C 1.296875 -4.53125 1.804688 -4.75 2.421875 -4.75 C 3.109375 -4.75 3.648438 -4.519531 4.046875 -4.0625 C 4.453125 -3.613281 4.644531 -2.914062 4.625 -1.96875 L 1.546875 -1.96875 C 1.554688 -1.601562 1.65625 -1.316406 1.84375 -1.109375 C 2.03125 -0.910156 2.265625 -0.8125 2.546875 -0.8125 C 2.742188 -0.8125 2.90625 -0.863281 3.03125 -0.96875 C 3.164062 -1.070312 3.269531 -1.242188 3.34375 -1.484375 Z M 3.40625 -2.71875 C 3.394531 -3.082031 3.300781 -3.351562 3.125 -3.53125 C 2.957031 -3.71875 2.742188 -3.8125 2.484375 -3.8125 C 2.222656 -3.8125 2.003906 -3.710938 1.828125 -3.515625 C 1.648438 -3.328125 1.5625 -3.0625 1.5625 -2.71875 Z M 3.40625 -2.71875 "/>
</g>
<g id="glyph-0-10">
<path d="M 0.875 -3.421875 L 0.875 -4.65625 L 2.109375 -4.65625 L 2.109375 -3.421875 Z M 0.875 0 L 0.875 -1.234375 L 2.109375 -1.234375 L 2.109375 0 Z M 0.875 0 "/>
</g>
<g id="glyph-0-11">
<path d="M 4.703125 -3.28125 L 3.484375 -3.0625 C 3.441406 -3.300781 3.347656 -3.476562 3.203125 -3.59375 C 3.054688 -3.71875 2.867188 -3.78125 2.640625 -3.78125 C 2.335938 -3.78125 2.09375 -3.675781 1.90625 -3.46875 C 1.726562 -3.257812 1.640625 -2.90625 1.640625 -2.40625 C 1.640625 -1.851562 1.726562 -1.460938 1.90625 -1.234375 C 2.09375 -1.003906 2.34375 -0.890625 2.65625 -0.890625 C 2.894531 -0.890625 3.085938 -0.957031 3.234375 -1.09375 C 3.378906 -1.226562 3.484375 -1.457031 3.546875 -1.78125 L 4.765625 -1.578125 C 4.640625 -1.023438 4.394531 -0.601562 4.03125 -0.3125 C 3.675781 -0.03125 3.203125 0.109375 2.609375 0.109375 C 1.921875 0.109375 1.375 -0.101562 0.96875 -0.53125 C 0.570312 -0.96875 0.375 -1.566406 0.375 -2.328125 C 0.375 -3.085938 0.578125 -3.679688 0.984375 -4.109375 C 1.390625 -4.535156 1.9375 -4.75 2.625 -4.75 C 3.195312 -4.75 3.648438 -4.628906 3.984375 -4.390625 C 4.316406 -4.148438 4.554688 -3.78125 4.703125 -3.28125 Z M 4.703125 -3.28125 "/>
</g>
<g id="glyph-0-12">
<path d="M 1.875 -6.421875 L 1.875 -4.0625 C 2.269531 -4.519531 2.742188 -4.75 3.296875 -4.75 C 3.578125 -4.75 3.832031 -4.695312 4.0625 -4.59375 C 4.289062 -4.488281 4.460938 -4.351562 4.578125 -4.1875 C 4.691406 -4.03125 4.769531 -3.851562 4.8125 -3.65625 C 4.851562 -3.457031 4.875 -3.148438 4.875 -2.734375 L 4.875 0 L 3.640625 0 L 3.640625 -2.453125 C 3.640625 -2.941406 3.613281 -3.25 3.5625 -3.375 C 3.519531 -3.507812 3.441406 -3.613281 3.328125 -3.6875 C 3.210938 -3.769531 3.0625 -3.8125 2.875 -3.8125 C 2.675781 -3.8125 2.492188 -3.757812 2.328125 -3.65625 C 2.171875 -3.5625 2.054688 -3.414062 1.984375 -3.21875 C 1.910156 -3.019531 1.875 -2.722656 1.875 -2.328125 L 1.875 0 L 0.640625 0 L 0.640625 -6.421875 Z M 1.875 -6.421875 "/>
</g>
<g id="glyph-0-13">
<path d="M 4.90625 0 L 3.765625 0 L 3.765625 -0.6875 C 3.578125 -0.414062 3.351562 -0.210938 3.09375 -0.078125 C 2.832031 0.0429688 2.570312 0.109375 2.3125 0.109375 C 1.78125 0.109375 1.320312 -0.101562 0.9375 -0.53125 C 0.5625 -0.96875 0.375 -1.570312 0.375 -2.34375 C 0.375 -3.132812 0.554688 -3.734375 0.921875 -4.140625 C 1.296875 -4.546875 1.765625 -4.75 2.328125 -4.75 C 2.847656 -4.75 3.296875 -4.535156 3.671875 -4.109375 L 3.671875 -6.421875 L 4.90625 -6.421875 Z M 1.625 -2.421875 C 1.625 -1.929688 1.691406 -1.570312 1.828125 -1.34375 C 2.023438 -1.019531 2.300781 -0.859375 2.65625 -0.859375 C 2.945312 -0.859375 3.191406 -0.976562 3.390625 -1.21875 C 3.585938 -1.46875 3.6875 -1.832031 3.6875 -2.3125 C 3.6875 -2.84375 3.585938 -3.222656 3.390625 -3.453125 C 3.203125 -3.691406 2.957031 -3.8125 2.65625 -3.8125 C 2.363281 -3.8125 2.117188 -3.695312 1.921875 -3.46875 C 1.722656 -3.238281 1.625 -2.890625 1.625 -2.421875 Z M 1.625 -2.421875 "/>
</g>
<g id="glyph-0-14">
<path d="M 0.609375 -4.65625 L 1.75 -4.65625 L 1.75 -3.96875 C 1.90625 -4.195312 2.109375 -4.382812 2.359375 -4.53125 C 2.609375 -4.675781 2.890625 -4.75 3.203125 -4.75 C 3.742188 -4.75 4.203125 -4.535156 4.578125 -4.109375 C 4.953125 -3.691406 5.140625 -3.109375 5.140625 -2.359375 C 5.140625 -1.578125 4.945312 -0.96875 4.5625 -0.53125 C 4.1875 -0.101562 3.734375 0.109375 3.203125 0.109375 C 2.941406 0.109375 2.707031 0.0546875 2.5 -0.046875 C 2.289062 -0.148438 2.070312 -0.328125 1.84375 -0.578125 L 1.84375 1.765625 L 0.609375 1.765625 Z M 1.828125 -2.40625 C 1.828125 -1.882812 1.929688 -1.5 2.140625 -1.25 C 2.347656 -1 2.597656 -0.875 2.890625 -0.875 C 3.179688 -0.875 3.421875 -0.988281 3.609375 -1.21875 C 3.796875 -1.445312 3.890625 -1.820312 3.890625 -2.34375 C 3.890625 -2.832031 3.789062 -3.191406 3.59375 -3.421875 C 3.40625 -3.660156 3.164062 -3.78125 2.875 -3.78125 C 2.570312 -3.78125 2.320312 -3.664062 2.125 -3.4375 C 1.925781 -3.207031 1.828125 -2.863281 1.828125 -2.40625 Z M 1.828125 -2.40625 "/>
</g>
<g id="glyph-0-15">
<path d="M 0.609375 -1.234375 L 1.84375 -1.234375 L 1.84375 -0.34375 C 1.84375 0.0078125 1.8125 0.285156 1.75 0.484375 C 1.6875 0.691406 1.566406 0.878906 1.390625 1.046875 C 1.222656 1.210938 1.007812 1.34375 0.75 1.4375 L 0.515625 0.921875 C 0.765625 0.835938 0.941406 0.722656 1.046875 0.578125 C 1.148438 0.441406 1.203125 0.25 1.203125 0 L 0.609375 0 Z M 0.609375 -1.234375 "/>
</g>
<g id="glyph-0-16">
<path d="M 2.78125 -4.65625 L 2.78125 -3.671875 L 1.9375 -3.671875 L 1.9375 -1.796875 C 1.9375 -1.410156 1.941406 -1.1875 1.953125 -1.125 C 1.972656 -1.0625 2.007812 -1.007812 2.0625 -0.96875 C 2.125 -0.9375 2.195312 -0.921875 2.28125 -0.921875 C 2.394531 -0.921875 2.554688 -0.957031 2.765625 -1.03125 L 2.875 -0.078125 C 2.59375 0.0429688 2.269531 0.109375 1.90625 0.109375 C 1.6875 0.109375 1.484375 0.0703125 1.296875 0 C 1.117188 -0.0820312 0.988281 -0.179688 0.90625 -0.296875 C 0.820312 -0.410156 0.765625 -0.570312 0.734375 -0.78125 C 0.710938 -0.914062 0.703125 -1.203125 0.703125 -1.640625 L 0.703125 -3.671875 L 0.140625 -3.671875 L 0.140625 -4.65625 L 0.703125 -4.65625 L 0.703125 -5.578125 L 1.9375 -6.296875 L 1.9375 -4.65625 Z M 2.78125 -4.65625 "/>
</g>
<g id="glyph-0-17">
<path d="M 0.546875 -4.65625 L 1.6875 -4.65625 L 1.6875 -4.015625 C 2.09375 -4.503906 2.578125 -4.75 3.140625 -4.75 C 3.429688 -4.75 3.6875 -4.6875 3.90625 -4.5625 C 4.125 -4.445312 4.304688 -4.265625 4.453125 -4.015625 C 4.648438 -4.265625 4.867188 -4.445312 5.109375 -4.5625 C 5.347656 -4.6875 5.601562 -4.75 5.875 -4.75 C 6.207031 -4.75 6.492188 -4.679688 6.734375 -4.546875 C 6.972656 -4.410156 7.148438 -4.207031 7.265625 -3.9375 C 7.347656 -3.738281 7.390625 -3.414062 7.390625 -2.96875 L 7.390625 0 L 6.15625 0 L 6.15625 -2.65625 C 6.15625 -3.113281 6.113281 -3.410156 6.03125 -3.546875 C 5.914062 -3.722656 5.742188 -3.8125 5.515625 -3.8125 C 5.335938 -3.8125 5.171875 -3.757812 5.015625 -3.65625 C 4.867188 -3.550781 4.757812 -3.394531 4.6875 -3.1875 C 4.625 -2.988281 4.59375 -2.671875 4.59375 -2.234375 L 4.59375 0 L 3.359375 0 L 3.359375 -2.546875 C 3.359375 -3.003906 3.335938 -3.296875 3.296875 -3.421875 C 3.253906 -3.554688 3.1875 -3.65625 3.09375 -3.71875 C 3 -3.78125 2.875 -3.8125 2.71875 -3.8125 C 2.53125 -3.8125 2.359375 -3.757812 2.203125 -3.65625 C 2.054688 -3.550781 1.945312 -3.40625 1.875 -3.21875 C 1.8125 -3.03125 1.78125 -2.710938 1.78125 -2.265625 L 1.78125 0 L 0.546875 0 Z M 0.546875 -4.65625 "/>
</g>
<g id="glyph-0-18">
<path d="M 0.0625 -4.65625 L 1.375 -4.65625 L 2.484375 -1.34375 L 3.5625 -4.65625 L 4.84375 -4.65625 L 3.203125 -0.171875 L 2.90625 0.640625 C 2.800781 0.910156 2.695312 1.113281 2.59375 1.25 C 2.5 1.394531 2.390625 1.507812 2.265625 1.59375 C 2.140625 1.6875 1.984375 1.757812 1.796875 1.8125 C 1.609375 1.863281 1.398438 1.890625 1.171875 1.890625 C 0.929688 1.890625 0.695312 1.863281 0.46875 1.8125 L 0.359375 0.84375 C 0.546875 0.882812 0.71875 0.90625 0.875 0.90625 C 1.164062 0.90625 1.378906 0.820312 1.515625 0.65625 C 1.648438 0.488281 1.753906 0.273438 1.828125 0.015625 Z M 0.0625 -4.65625 "/>
</g>
<g id="glyph-1-0">
<path d="M 7.90625 -6.03125 C 7.90625 -6.03125 7.90625 -6.125 7.78125 -6.125 C 7.484375 -6.125 7.171875 -6.09375 6.875 -6.09375 C 6.578125 -6.09375 6.265625 -6.125 5.96875 -6.125 C 5.90625 -6.125 5.796875 -6.125 5.796875 -5.953125 C 5.796875 -5.84375 5.890625 -5.84375 5.96875 -5.84375 C 6.46875 -5.84375 6.578125 -5.65625 6.578125 -5.453125 C 6.578125 -5.421875 6.5625 -5.296875 6.546875 -5.265625 L 5.546875 -1.28125 L 3.5625 -5.953125 C 3.484375 -6.109375 3.484375 -6.125 3.28125 -6.125 L 2.078125 -6.125 C 1.890625 -6.125 1.8125 -6.125 1.8125 -5.953125 C 1.8125 -5.84375 1.890625 -5.84375 2.0625 -5.84375 C 2.109375 -5.84375 2.671875 -5.84375 2.671875 -5.765625 L 1.46875 -0.953125 C 1.375 -0.59375 1.234375 -0.3125 0.5 -0.28125 C 0.453125 -0.28125 0.34375 -0.265625 0.34375 -0.09375 C 0.34375 -0.03125 0.390625 0 0.46875 0 C 0.75 0 1.0625 -0.03125 1.359375 -0.03125 C 1.671875 -0.03125 1.984375 0 2.28125 0 C 2.328125 0 2.453125 0 2.453125 -0.171875 C 2.453125 -0.265625 2.375 -0.28125 2.265625 -0.28125 C 1.75 -0.296875 1.671875 -0.5 1.671875 -0.671875 C 1.671875 -0.734375 1.6875 -0.78125 1.71875 -0.875 L 2.890625 -5.609375 C 2.9375 -5.5625 2.9375 -5.546875 2.984375 -5.453125 L 5.203125 -0.171875 C 5.28125 -0.015625 5.296875 0 5.375 0 C 5.484375 0 5.484375 -0.03125 5.53125 -0.1875 L 6.78125 -5.1875 C 6.875 -5.546875 7.03125 -5.828125 7.75 -5.84375 C 7.796875 -5.84375 7.90625 -5.859375 7.90625 -6.03125 Z M 7.90625 -6.03125 "/>
</g>
<g id="glyph-1-1">
<path d="M 6.46875 -3.109375 C 6.46875 -3.203125 6.390625 -3.296875 6.296875 -3.296875 L 0.6875 -3.296875 C 0.578125 -3.296875 0.5 -3.203125 0.5 -3.109375 C 0.5 -3.015625 0.578125 -2.9375 0.6875 -2.9375 L 6.296875 -2.9375 C 6.390625 -2.9375 6.46875 -3.015625 6.46875 -3.109375 Z M 6.46875 -1.375 C 6.46875 -1.46875 6.390625 -1.546875 6.296875 -1.546875 L 0.6875 -1.546875 C 0.578125 -1.546875 0.5 -1.46875 0.5 -1.375 C 0.5 -1.28125 0.578125 -1.1875 0.6875 -1.1875 L 6.296875 -1.1875 C 6.390625 -1.1875 6.46875 -1.28125 6.46875 -1.375 Z M 6.46875 -1.375 "/>
</g>
<g id="glyph-1-2">
<path d="M 5.125 -1.28125 C 5.125 -1.375 5.046875 -1.375 5.015625 -1.375 C 4.921875 -1.375 4.921875 -1.34375 4.875 -1.203125 C 4.703125 -0.59375 4.40625 -0.09375 3.96875 -0.09375 C 3.8125 -0.09375 3.75 -0.1875 3.75 -0.390625 C 3.75 -0.625 3.828125 -0.828125 3.90625 -1.03125 C 4.078125 -1.5 4.453125 -2.5 4.453125 -3 C 4.453125 -3.609375 4.078125 -3.96875 3.421875 -3.96875 C 2.625 -3.96875 2.171875 -3.390625 2.03125 -3.1875 C 1.984375 -3.6875 1.609375 -3.96875 1.203125 -3.96875 C 0.796875 -3.96875 0.625 -3.609375 0.53125 -3.453125 C 0.390625 -3.140625 0.265625 -2.625 0.265625 -2.578125 C 0.265625 -2.5 0.375 -2.5 0.375 -2.5 C 0.453125 -2.5 0.46875 -2.5 0.515625 -2.703125 C 0.671875 -3.34375 0.859375 -3.765625 1.171875 -3.765625 C 1.359375 -3.765625 1.453125 -3.65625 1.453125 -3.359375 C 1.453125 -3.171875 1.421875 -3.0625 1.3125 -2.59375 L 0.796875 -0.53125 C 0.765625 -0.390625 0.703125 -0.1875 0.703125 -0.140625 C 0.703125 0.015625 0.828125 0.09375 0.96875 0.09375 C 1.078125 0.09375 1.234375 0.03125 1.296875 -0.15625 C 1.3125 -0.171875 1.421875 -0.59375 1.46875 -0.8125 L 1.671875 -1.625 C 1.71875 -1.828125 1.78125 -2.015625 1.828125 -2.21875 L 1.9375 -2.671875 C 2.078125 -2.953125 2.546875 -3.765625 3.40625 -3.765625 C 3.796875 -3.765625 3.890625 -3.4375 3.890625 -3.140625 C 3.890625 -2.578125 3.4375 -1.4375 3.296875 -1.046875 C 3.21875 -0.84375 3.203125 -0.734375 3.203125 -0.640625 C 3.203125 -0.21875 3.53125 0.09375 3.953125 0.09375 C 4.796875 0.09375 5.125 -1.203125 5.125 -1.28125 Z M 5.125 -1.28125 "/>
</g>
<g id="glyph-1-3">
<path d="M 6.3125 -5.96875 C 6.3125 -6.078125 6.21875 -6.078125 6.078125 -6.078125 L 1.09375 -6.078125 C 0.875 -6.078125 0.875 -6.0625 0.8125 -5.890625 L 0.265625 -4.3125 C 0.265625 -4.296875 0.21875 -4.15625 0.21875 -4.15625 C 0.21875 -4.09375 0.265625 -4.046875 0.328125 -4.046875 C 0.40625 -4.046875 0.421875 -4.09375 0.46875 -4.25 C 0.953125 -5.625 1.1875 -5.796875 2.515625 -5.796875 L 2.875 -5.796875 C 3.125 -5.796875 3.125 -5.765625 3.125 -5.6875 C 3.125 -5.625 3.09375 -5.53125 3.078125 -5.5 L 1.890625 -0.703125 C 1.796875 -0.375 1.78125 -0.28125 0.8125 -0.28125 C 0.5 -0.28125 0.4375 -0.28125 0.4375 -0.109375 C 0.4375 0 0.53125 0 0.59375 0 C 0.828125 0 1.078125 -0.015625 1.328125 -0.015625 L 2.09375 -0.03125 L 2.828125 -0.015625 C 3.09375 -0.015625 3.359375 0 3.609375 0 C 3.703125 0 3.8125 0 3.8125 -0.171875 C 3.8125 -0.28125 3.734375 -0.28125 3.5 -0.28125 C 3.28125 -0.28125 3.171875 -0.28125 2.9375 -0.296875 C 2.671875 -0.328125 2.59375 -0.34375 2.59375 -0.5 C 2.59375 -0.5 2.59375 -0.546875 2.640625 -0.6875 L 3.828125 -5.4375 C 3.890625 -5.6875 3.921875 -5.75 4.03125 -5.78125 C 4.109375 -5.796875 4.40625 -5.796875 4.59375 -5.796875 C 5.5 -5.796875 5.90625 -5.765625 5.90625 -5.0625 C 5.90625 -4.921875 5.875 -4.578125 5.84375 -4.34375 C 5.828125 -4.3125 5.8125 -4.203125 5.8125 -4.171875 C 5.8125 -4.109375 5.84375 -4.046875 5.921875 -4.046875 C 6.015625 -4.046875 6.03125 -4.125 6.046875 -4.265625 L 6.296875 -5.828125 C 6.3125 -5.859375 6.3125 -5.953125 6.3125 -5.96875 Z M 6.3125 -5.96875 "/>
</g>
<g id="glyph-1-4">
<path d="M 3.5625 -5.609375 C 3.5625 -5.78125 3.4375 -5.921875 3.21875 -5.921875 C 3.015625 -5.921875 2.75 -5.71875 2.75 -5.453125 C 2.75 -5.28125 2.875 -5.125 3.078125 -5.125 C 3.3125 -5.125 3.5625 -5.359375 3.5625 -5.609375 Z M 3.234375 -3.140625 C 3.234375 -3.65625 2.859375 -3.96875 2.40625 -3.96875 C 1.484375 -3.96875 0.984375 -2.65625 0.984375 -2.578125 C 0.984375 -2.5 1.078125 -2.5 1.078125 -2.5 C 1.171875 -2.5 1.171875 -2.5 1.25 -2.671875 C 1.46875 -3.21875 1.890625 -3.765625 2.375 -3.765625 C 2.5 -3.765625 2.65625 -3.734375 2.65625 -3.359375 C 2.65625 -3.140625 2.640625 -3.046875 2.59375 -2.890625 L 1.765625 0.453125 C 1.59375 1.125 1.15625 1.640625 0.65625 1.640625 C 0.59375 1.640625 0.46875 1.640625 0.3125 1.5625 C 0.578125 1.5 0.703125 1.265625 0.703125 1.078125 C 0.703125 0.9375 0.609375 0.765625 0.375 0.765625 C 0.140625 0.765625 -0.109375 0.953125 -0.109375 1.28125 C -0.109375 1.640625 0.234375 1.84375 0.671875 1.84375 C 1.296875 1.84375 2.140625 1.359375 2.359375 0.46875 L 3.1875 -2.8125 C 3.234375 -2.984375 3.234375 -3.109375 3.234375 -3.140625 Z M 3.234375 -3.140625 "/>
</g>
<g id="glyph-1-5">
<path d="M 4.125 -2.875 C 4.125 -3.59375 4.078125 -4.3125 3.765625 -4.96875 C 3.359375 -5.828125 2.625 -5.96875 2.25 -5.96875 C 1.703125 -5.96875 1.046875 -5.734375 0.6875 -4.90625 C 0.390625 -4.28125 0.34375 -3.59375 0.34375 -2.875 C 0.34375 -2.203125 0.390625 -1.390625 0.75 -0.703125 C 1.140625 0.015625 1.796875 0.203125 2.234375 0.203125 C 2.71875 0.203125 3.40625 0.015625 3.796875 -0.84375 C 4.078125 -1.46875 4.125 -2.15625 4.125 -2.875 Z M 3.375 -2.984375 C 3.375 -2.3125 3.375 -1.6875 3.28125 -1.125 C 3.140625 -0.265625 2.640625 0 2.234375 0 C 1.890625 0 1.359375 -0.21875 1.1875 -1.078125 C 1.09375 -1.625 1.09375 -2.453125 1.09375 -2.984375 C 1.09375 -3.546875 1.09375 -4.140625 1.171875 -4.625 C 1.34375 -5.6875 2.015625 -5.78125 2.234375 -5.78125 C 2.53125 -5.78125 3.125 -5.609375 3.296875 -4.734375 C 3.375 -4.21875 3.375 -3.546875 3.375 -2.984375 Z M 3.375 -2.984375 "/>
</g>
<g id="glyph-1-6">
<path d="M 3.765625 0 L 3.765625 -0.28125 L 3.46875 -0.28125 C 2.65625 -0.28125 2.640625 -0.375 2.640625 -0.703125 L 2.640625 -5.734375 C 2.640625 -5.953125 2.640625 -5.96875 2.4375 -5.96875 C 1.875 -5.40625 1.078125 -5.40625 0.796875 -5.40625 L 0.796875 -5.125 C 0.984375 -5.125 1.5 -5.125 1.96875 -5.359375 L 1.96875 -0.703125 C 1.96875 -0.390625 1.953125 -0.28125 1.140625 -0.28125 L 0.859375 -0.28125 L 0.859375 0 C 1.171875 -0.03125 1.953125 -0.03125 2.3125 -0.03125 C 2.65625 -0.03125 3.4375 -0.03125 3.765625 0 Z M 3.765625 0 "/>
</g>
<g id="glyph-1-7">
<path d="M 4.03125 -1.5625 L 3.796875 -1.5625 C 3.765625 -1.296875 3.6875 -0.890625 3.609375 -0.765625 C 3.546875 -0.6875 2.953125 -0.6875 2.75 -0.6875 L 1.140625 -0.6875 L 2.09375 -1.609375 C 3.484375 -2.859375 4.03125 -3.34375 4.03125 -4.234375 C 4.03125 -5.25 3.21875 -5.96875 2.125 -5.96875 C 1.109375 -5.96875 0.453125 -5.140625 0.453125 -4.34375 C 0.453125 -3.84375 0.890625 -3.84375 0.921875 -3.84375 C 1.078125 -3.84375 1.390625 -3.953125 1.390625 -4.328125 C 1.390625 -4.5625 1.234375 -4.796875 0.921875 -4.796875 C 0.84375 -4.796875 0.828125 -4.796875 0.796875 -4.78125 C 1 -5.359375 1.484375 -5.6875 2.015625 -5.6875 C 2.828125 -5.6875 3.203125 -4.96875 3.203125 -4.234375 C 3.203125 -3.515625 2.765625 -2.8125 2.265625 -2.25 L 0.546875 -0.328125 C 0.453125 -0.234375 0.453125 -0.21875 0.453125 0 L 3.78125 0 Z M 4.03125 -1.5625 "/>
</g>
<g id="glyph-1-8">
<path d="M 1.453125 -2.25 C 1.453125 -2.5 1.234375 -2.71875 0.984375 -2.71875 C 0.71875 -2.71875 0.5 -2.5 0.5 -2.25 C 0.5 -1.984375 0.71875 -1.765625 0.984375 -1.765625 C 1.234375 -1.765625 1.453125 -1.984375 1.453125 -2.25 Z M 3.953125 -2.25 C 3.953125 -2.5 3.734375 -2.71875 3.484375 -2.71875 C 3.21875 -2.71875 3 -2.5 3 -2.25 C 3 -1.984375 3.21875 -1.765625 3.484375 -1.765625 C 3.734375 -1.765625 3.953125 -1.984375 3.953125 -2.25 Z M 6.453125 -2.25 C 6.453125 -2.5 6.25 -2.71875 5.984375 -2.71875 C 5.71875 -2.71875 5.5 -2.5 5.5 -2.25 C 5.5 -1.984375 5.71875 -1.765625 5.984375 -1.765625 C 6.25 -1.765625 6.453125 -1.984375 6.453125 -2.25 Z M 6.453125 -2.25 "/>
</g>
<g id="glyph-1-9">
<path d="M 6.46875 -2.25 C 6.46875 -2.34375 6.390625 -2.421875 6.296875 -2.421875 L 0.6875 -2.421875 C 0.578125 -2.421875 0.5 -2.34375 0.5 -2.25 C 0.5 -2.140625 0.578125 -2.0625 0.6875 -2.0625 L 6.296875 -2.0625 C 6.390625 -2.0625 6.46875 -2.140625 6.46875 -2.25 Z M 6.46875 -2.25 "/>
</g>
<g id="glyph-1-10">
<path d="M 6.890625 -6.015625 C 6.890625 -6.09375 6.859375 -6.125 6.78125 -6.125 C 6.546875 -6.125 6.28125 -6.09375 6.046875 -6.09375 C 5.75 -6.09375 5.4375 -6.125 5.15625 -6.125 C 5.109375 -6.125 4.984375 -6.125 4.984375 -5.953125 C 4.984375 -5.859375 5.0625 -5.84375 5.125 -5.84375 C 5.375 -5.828125 5.546875 -5.734375 5.546875 -5.546875 C 5.546875 -5.421875 5.40625 -5.203125 5.40625 -5.203125 L 2.65625 -0.828125 L 2.046875 -5.578125 C 2.046875 -5.734375 2.25 -5.84375 2.65625 -5.84375 C 2.796875 -5.84375 2.890625 -5.84375 2.890625 -6.03125 C 2.890625 -6.109375 2.8125 -6.125 2.765625 -6.125 C 2.40625 -6.125 2.015625 -6.09375 1.65625 -6.09375 C 1.484375 -6.09375 1.3125 -6.109375 1.15625 -6.109375 C 1 -6.109375 0.828125 -6.125 0.671875 -6.125 C 0.609375 -6.125 0.5 -6.125 0.5 -5.953125 C 0.5 -5.84375 0.578125 -5.84375 0.71875 -5.84375 C 1.234375 -5.84375 1.234375 -5.765625 1.265625 -5.546875 L 1.96875 -0.015625 C 2 0.171875 2.03125 0.203125 2.15625 0.203125 C 2.296875 0.203125 2.328125 0.15625 2.40625 0.03125 L 5.625 -5.109375 C 6.078125 -5.796875 6.453125 -5.828125 6.78125 -5.84375 C 6.890625 -5.859375 6.890625 -6.015625 6.890625 -6.015625 Z M 6.890625 -6.015625 "/>
</g>
<g id="glyph-1-11">
<path d="M 6.46875 -2.25 C 6.46875 -2.34375 6.390625 -2.421875 6.296875 -2.421875 L 3.671875 -2.421875 L 3.671875 -5.046875 C 3.671875 -5.140625 3.59375 -5.234375 3.484375 -5.234375 C 3.390625 -5.234375 3.3125 -5.140625 3.3125 -5.046875 L 3.3125 -2.421875 L 0.6875 -2.421875 C 0.578125 -2.421875 0.5 -2.34375 0.5 -2.25 C 0.5 -2.140625 0.578125 -2.0625 0.6875 -2.0625 L 3.3125 -2.0625 L 3.3125 0.5625 C 3.3125 0.65625 3.390625 0.75 3.484375 0.75 C 3.59375 0.75 3.671875 0.65625 3.671875 0.5625 L 3.671875 -2.0625 L 6.296875 -2.0625 C 6.390625 -2.0625 6.46875 -2.140625 6.46875 -2.25 Z M 6.46875 -2.25 "/>
</g>
<g id="glyph-1-12">
<path d="M 6.8125 -6.234375 C 6.8125 -6.265625 6.796875 -6.328125 6.71875 -6.328125 C 6.6875 -6.328125 6.6875 -6.3125 6.578125 -6.21875 L 5.953125 -5.53125 C 5.875 -5.65625 5.46875 -6.328125 4.46875 -6.328125 C 2.46875 -6.328125 0.453125 -4.34375 0.453125 -2.265625 C 0.453125 -0.78125 1.5 0.203125 2.875 0.203125 C 3.65625 0.203125 4.34375 -0.15625 4.8125 -0.578125 C 5.65625 -1.3125 5.796875 -2.125 5.796875 -2.15625 C 5.796875 -2.25 5.6875 -2.25 5.6875 -2.25 C 5.640625 -2.25 5.59375 -2.21875 5.578125 -2.15625 C 5.5 -1.890625 5.296875 -1.25 4.671875 -0.734375 C 4.046875 -0.234375 3.484375 -0.078125 3.015625 -0.078125 C 2.21875 -0.078125 1.265625 -0.546875 1.265625 -1.953125 C 1.265625 -2.453125 1.453125 -3.90625 2.34375 -4.953125 C 2.890625 -5.59375 3.734375 -6.046875 4.53125 -6.046875 C 5.453125 -6.046875 5.984375 -5.359375 5.984375 -4.3125 C 5.984375 -3.953125 5.953125 -3.953125 5.953125 -3.859375 C 5.953125 -3.765625 6.046875 -3.765625 6.09375 -3.765625 C 6.203125 -3.765625 6.203125 -3.78125 6.25 -3.953125 Z M 6.8125 -6.234375 "/>
</g>
<g id="glyph-2-0">
<path d="M 2.3125 -0.703125 L 2.421875 -0.015625 C 2.203125 0.0351562 2.003906 0.0625 1.828125 0.0625 C 1.546875 0.0625 1.320312 0.0195312 1.15625 -0.0625 C 1 -0.15625 0.890625 -0.273438 0.828125 -0.421875 C 0.765625 -0.578125 0.734375 -0.890625 0.734375 -1.359375 L 0.734375 -4.03125 L 0.15625 -4.03125 L 0.15625 -4.65625 L 0.734375 -4.65625 L 0.734375 -5.796875 L 1.515625 -6.28125 L 1.515625 -4.65625 L 2.3125 -4.65625 L 2.3125 -4.03125 L 1.515625 -4.03125 L 1.515625 -1.3125 C 1.515625 -1.09375 1.53125 -0.945312 1.5625 -0.875 C 1.59375 -0.8125 1.640625 -0.757812 1.703125 -0.71875 C 1.765625 -0.6875 1.851562 -0.671875 1.96875 -0.671875 C 2.050781 -0.671875 2.164062 -0.679688 2.3125 -0.703125 Z M 2.3125 -0.703125 "/>
</g>
<g id="glyph-2-1">
<path d="M 0.59375 -5.515625 L 0.59375 -6.421875 L 1.390625 -6.421875 L 1.390625 -5.515625 Z M 0.59375 0 L 0.59375 -4.65625 L 1.390625 -4.65625 L 1.390625 0 Z M 0.59375 0 "/>
</g>
<g id="glyph-2-2">
<path d="M 0.59375 0 L 0.59375 -4.65625 L 1.296875 -4.65625 L 1.296875 -4 C 1.441406 -4.226562 1.632812 -4.410156 1.875 -4.546875 C 2.125 -4.679688 2.398438 -4.75 2.703125 -4.75 C 3.046875 -4.75 3.328125 -4.675781 3.546875 -4.53125 C 3.773438 -4.394531 3.929688 -4.195312 4.015625 -3.9375 C 4.390625 -4.476562 4.867188 -4.75 5.453125 -4.75 C 5.921875 -4.75 6.273438 -4.617188 6.515625 -4.359375 C 6.765625 -4.109375 6.890625 -3.71875 6.890625 -3.1875 L 6.890625 0 L 6.109375 0 L 6.109375 -2.9375 C 6.109375 -3.25 6.082031 -3.472656 6.03125 -3.609375 C 5.976562 -3.742188 5.882812 -3.851562 5.75 -3.9375 C 5.613281 -4.03125 5.457031 -4.078125 5.28125 -4.078125 C 4.957031 -4.078125 4.6875 -3.96875 4.46875 -3.75 C 4.25 -3.53125 4.140625 -3.179688 4.140625 -2.703125 L 4.140625 0 L 3.359375 0 L 3.359375 -3.015625 C 3.359375 -3.367188 3.289062 -3.632812 3.15625 -3.8125 C 3.03125 -3.988281 2.820312 -4.078125 2.53125 -4.078125 C 2.3125 -4.078125 2.109375 -4.015625 1.921875 -3.890625 C 1.734375 -3.773438 1.59375 -3.601562 1.5 -3.375 C 1.414062 -3.15625 1.375 -2.832031 1.375 -2.40625 L 1.375 0 Z M 0.59375 0 "/>
</g>
<g id="glyph-2-3">
<path d="M 3.78125 -1.5 L 4.59375 -1.390625 C 4.457031 -0.921875 4.21875 -0.550781 3.875 -0.28125 C 3.53125 -0.0195312 3.085938 0.109375 2.546875 0.109375 C 1.867188 0.109375 1.328125 -0.0976562 0.921875 -0.515625 C 0.523438 -0.941406 0.328125 -1.53125 0.328125 -2.28125 C 0.328125 -3.0625 0.523438 -3.664062 0.921875 -4.09375 C 1.328125 -4.53125 1.851562 -4.75 2.5 -4.75 C 3.125 -4.75 3.628906 -4.535156 4.015625 -4.109375 C 4.410156 -3.691406 4.609375 -3.097656 4.609375 -2.328125 C 4.609375 -2.285156 4.609375 -2.21875 4.609375 -2.125 L 1.140625 -2.125 C 1.171875 -1.613281 1.316406 -1.222656 1.578125 -0.953125 C 1.835938 -0.679688 2.160156 -0.546875 2.546875 -0.546875 C 2.835938 -0.546875 3.082031 -0.617188 3.28125 -0.765625 C 3.488281 -0.921875 3.65625 -1.164062 3.78125 -1.5 Z M 1.1875 -2.765625 L 3.78125 -2.765625 C 3.75 -3.160156 3.648438 -3.457031 3.484375 -3.65625 C 3.234375 -3.957031 2.910156 -4.109375 2.515625 -4.109375 C 2.148438 -4.109375 1.84375 -3.984375 1.59375 -3.734375 C 1.34375 -3.492188 1.207031 -3.171875 1.1875 -2.765625 Z M 1.1875 -2.765625 "/>
</g>
<g id="glyph-3-0">
<path d="M 5.015625 -3.234375 C 5.015625 -3.6875 4.546875 -4.09375 3.765625 -4.09375 L 1.59375 -4.09375 C 1.484375 -4.09375 1.40625 -4.09375 1.40625 -3.953125 C 1.40625 -3.875 1.46875 -3.875 1.59375 -3.875 C 1.59375 -3.875 1.71875 -3.875 1.8125 -3.859375 C 1.9375 -3.84375 1.953125 -3.84375 1.953125 -3.78125 C 1.953125 -3.78125 1.953125 -3.734375 1.9375 -3.640625 L 1.140625 -0.46875 C 1.078125 -0.265625 1.078125 -0.21875 0.609375 -0.21875 C 0.515625 -0.21875 0.4375 -0.21875 0.4375 -0.09375 C 0.4375 0 0.5 0 0.609375 0 L 2.921875 0 C 3.9375 0 4.703125 -0.6875 4.703125 -1.28125 C 4.703125 -1.703125 4.3125 -2.078125 3.6875 -2.140625 C 4.40625 -2.265625 5.015625 -2.71875 5.015625 -3.234375 Z M 4.421875 -3.25 C 4.421875 -2.765625 3.875 -2.203125 3.078125 -2.203125 L 2.09375 -2.203125 L 2.453125 -3.671875 C 2.5 -3.859375 2.515625 -3.875 2.765625 -3.875 L 3.671875 -3.875 C 4.28125 -3.875 4.421875 -3.46875 4.421875 -3.25 Z M 4.09375 -1.328125 C 4.09375 -0.734375 3.5 -0.21875 2.765625 -0.21875 L 1.8125 -0.21875 C 1.625 -0.21875 1.609375 -0.21875 1.609375 -0.28125 C 1.609375 -0.28125 1.609375 -0.3125 1.640625 -0.40625 L 2.046875 -2.046875 L 3.328125 -2.046875 C 3.890625 -2.046875 4.09375 -1.671875 4.09375 -1.328125 Z M 4.09375 -1.328125 "/>
</g>
<g id="glyph-3-1">
<path d="M 4.984375 -3.15625 C 4.984375 -3.65625 4.5 -4.09375 3.6875 -4.09375 L 1.578125 -4.09375 C 1.46875 -4.09375 1.390625 -4.09375 1.390625 -3.953125 C 1.390625 -3.875 1.453125 -3.875 1.59375 -3.875 C 1.6875 -3.875 1.71875 -3.875 1.8125 -3.859375 C 1.9375 -3.84375 1.953125 -3.84375 1.953125 -3.78125 C 1.953125 -3.78125 1.953125 -3.734375 1.921875 -3.640625 L 1.140625 -0.484375 C 1.078125 -0.25 1.078125 -0.21875 0.609375 -0.21875 C 0.5 -0.21875 0.421875 -0.21875 0.421875 -0.078125 C 0.421875 -0.078125 0.421875 0 0.515625 0 C 0.6875 0 1.125 -0.03125 1.296875 -0.03125 C 1.40625 -0.03125 1.609375 -0.03125 1.71875 -0.015625 C 1.828125 -0.015625 1.984375 0 2.09375 0 C 2.125 0 2.21875 0 2.21875 -0.125 C 2.21875 -0.21875 2.140625 -0.21875 2.03125 -0.21875 C 2.03125 -0.21875 1.90625 -0.21875 1.796875 -0.234375 C 1.65625 -0.234375 1.65625 -0.25 1.65625 -0.3125 C 1.65625 -0.3125 1.65625 -0.359375 1.6875 -0.453125 L 2.046875 -1.859375 L 3.125 -1.859375 C 4.140625 -1.859375 4.984375 -2.5 4.984375 -3.15625 Z M 4.375 -3.28125 C 4.375 -3.09375 4.3125 -2.625 4.015625 -2.359375 C 3.796875 -2.15625 3.453125 -2.046875 3.015625 -2.046875 L 2.0625 -2.046875 L 2.46875 -3.671875 C 2.515625 -3.859375 2.53125 -3.875 2.78125 -3.875 L 3.484375 -3.875 C 4.03125 -3.875 4.375 -3.703125 4.375 -3.28125 Z M 4.375 -3.28125 "/>
</g>
<g id="glyph-4-0">
<path d="M 3.21875 -1.515625 L 3.90625 -1.421875 C 3.832031 -0.953125 3.640625 -0.582031 3.328125 -0.3125 C 3.023438 -0.0390625 2.644531 0.09375 2.1875 0.09375 C 1.625 0.09375 1.171875 -0.0859375 0.828125 -0.453125 C 0.484375 -0.828125 0.3125 -1.359375 0.3125 -2.046875 C 0.3125 -2.492188 0.382812 -2.882812 0.53125 -3.21875 C 0.675781 -3.550781 0.898438 -3.800781 1.203125 -3.96875 C 1.503906 -4.132812 1.832031 -4.21875 2.1875 -4.21875 C 2.644531 -4.21875 3.015625 -4.101562 3.296875 -3.875 C 3.578125 -3.65625 3.757812 -3.335938 3.84375 -2.921875 L 3.15625 -2.8125 C 3.09375 -3.09375 2.976562 -3.300781 2.8125 -3.4375 C 2.65625 -3.582031 2.457031 -3.65625 2.21875 -3.65625 C 1.863281 -3.65625 1.578125 -3.523438 1.359375 -3.265625 C 1.140625 -3.015625 1.03125 -2.613281 1.03125 -2.0625 C 1.03125 -1.507812 1.132812 -1.109375 1.34375 -0.859375 C 1.5625 -0.609375 1.84375 -0.484375 2.1875 -0.484375 C 2.457031 -0.484375 2.679688 -0.566406 2.859375 -0.734375 C 3.046875 -0.898438 3.164062 -1.160156 3.21875 -1.515625 Z M 3.21875 -1.515625 "/>
</g>
<g id="glyph-4-1">
<path d="M 3.21875 -0.515625 C 2.957031 -0.285156 2.707031 -0.125 2.46875 -0.03125 C 2.226562 0.0507812 1.972656 0.09375 1.703125 0.09375 C 1.242188 0.09375 0.890625 -0.015625 0.640625 -0.234375 C 0.398438 -0.460938 0.28125 -0.75 0.28125 -1.09375 C 0.28125 -1.289062 0.328125 -1.472656 0.421875 -1.640625 C 0.515625 -1.804688 0.632812 -1.941406 0.78125 -2.046875 C 0.9375 -2.148438 1.109375 -2.226562 1.296875 -2.28125 C 1.429688 -2.3125 1.640625 -2.34375 1.921875 -2.375 C 2.484375 -2.445312 2.894531 -2.53125 3.15625 -2.625 C 3.164062 -2.71875 3.171875 -2.78125 3.171875 -2.8125 C 3.171875 -3.09375 3.101562 -3.289062 2.96875 -3.40625 C 2.789062 -3.5625 2.523438 -3.640625 2.171875 -3.640625 C 1.835938 -3.640625 1.59375 -3.582031 1.4375 -3.46875 C 1.28125 -3.351562 1.164062 -3.148438 1.09375 -2.859375 L 0.40625 -2.953125 C 0.46875 -3.242188 0.570312 -3.476562 0.71875 -3.65625 C 0.863281 -3.84375 1.066406 -3.984375 1.328125 -4.078125 C 1.597656 -4.171875 1.910156 -4.21875 2.265625 -4.21875 C 2.617188 -4.21875 2.90625 -4.175781 3.125 -4.09375 C 3.351562 -4.019531 3.519531 -3.914062 3.625 -3.78125 C 3.726562 -3.65625 3.800781 -3.5 3.84375 -3.3125 C 3.863281 -3.1875 3.875 -2.972656 3.875 -2.671875 L 3.875 -1.734375 C 3.875 -1.078125 3.890625 -0.660156 3.921875 -0.484375 C 3.953125 -0.316406 4.007812 -0.15625 4.09375 0 L 3.359375 0 C 3.285156 -0.144531 3.238281 -0.316406 3.21875 -0.515625 Z M 3.15625 -2.078125 C 2.90625 -1.972656 2.523438 -1.882812 2.015625 -1.8125 C 1.734375 -1.769531 1.53125 -1.722656 1.40625 -1.671875 C 1.289062 -1.617188 1.195312 -1.539062 1.125 -1.4375 C 1.0625 -1.34375 1.03125 -1.234375 1.03125 -1.109375 C 1.03125 -0.921875 1.097656 -0.765625 1.234375 -0.640625 C 1.378906 -0.515625 1.59375 -0.453125 1.875 -0.453125 C 2.132812 -0.453125 2.367188 -0.507812 2.578125 -0.625 C 2.796875 -0.75 2.953125 -0.910156 3.046875 -1.109375 C 3.117188 -1.273438 3.15625 -1.507812 3.15625 -1.8125 Z M 3.15625 -2.078125 "/>
</g>
<g id="glyph-4-2">
<path d="M 0.25 -1.234375 L 0.9375 -1.34375 C 0.976562 -1.0625 1.085938 -0.847656 1.265625 -0.703125 C 1.441406 -0.554688 1.6875 -0.484375 2 -0.484375 C 2.320312 -0.484375 2.5625 -0.546875 2.71875 -0.671875 C 2.875 -0.804688 2.953125 -0.960938 2.953125 -1.140625 C 2.953125 -1.296875 2.882812 -1.421875 2.75 -1.515625 C 2.65625 -1.578125 2.414062 -1.65625 2.03125 -1.75 C 1.519531 -1.882812 1.164062 -2 0.96875 -2.09375 C 0.769531 -2.1875 0.617188 -2.316406 0.515625 -2.484375 C 0.410156 -2.648438 0.359375 -2.832031 0.359375 -3.03125 C 0.359375 -3.21875 0.398438 -3.390625 0.484375 -3.546875 C 0.566406 -3.703125 0.679688 -3.832031 0.828125 -3.9375 C 0.941406 -4.019531 1.09375 -4.085938 1.28125 -4.140625 C 1.46875 -4.191406 1.671875 -4.21875 1.890625 -4.21875 C 2.210938 -4.21875 2.492188 -4.171875 2.734375 -4.078125 C 2.984375 -3.992188 3.164062 -3.867188 3.28125 -3.703125 C 3.394531 -3.546875 3.472656 -3.332031 3.515625 -3.0625 L 2.84375 -2.96875 C 2.8125 -3.1875 2.71875 -3.351562 2.5625 -3.46875 C 2.414062 -3.59375 2.207031 -3.65625 1.9375 -3.65625 C 1.613281 -3.65625 1.378906 -3.597656 1.234375 -3.484375 C 1.097656 -3.378906 1.03125 -3.253906 1.03125 -3.109375 C 1.03125 -3.023438 1.0625 -2.945312 1.125 -2.875 C 1.175781 -2.800781 1.265625 -2.738281 1.390625 -2.6875 C 1.460938 -2.65625 1.671875 -2.59375 2.015625 -2.5 C 2.503906 -2.375 2.847656 -2.265625 3.046875 -2.171875 C 3.242188 -2.085938 3.394531 -1.96875 3.5 -1.8125 C 3.613281 -1.65625 3.671875 -1.457031 3.671875 -1.21875 C 3.671875 -0.976562 3.601562 -0.753906 3.46875 -0.546875 C 3.332031 -0.347656 3.132812 -0.191406 2.875 -0.078125 C 2.625 0.0351562 2.335938 0.09375 2.015625 0.09375 C 1.472656 0.09375 1.0625 -0.015625 0.78125 -0.234375 C 0.5 -0.460938 0.320312 -0.796875 0.25 -1.234375 Z M 0.25 -1.234375 "/>
</g>
<g id="glyph-4-3">
<path d="M 0.53125 0 L 0.53125 -5.703125 L 1.21875 -5.703125 L 1.21875 -3.65625 C 1.550781 -4.03125 1.96875 -4.21875 2.46875 -4.21875 C 2.769531 -4.21875 3.03125 -4.15625 3.25 -4.03125 C 3.476562 -3.914062 3.640625 -3.75 3.734375 -3.53125 C 3.835938 -3.320312 3.890625 -3.019531 3.890625 -2.625 L 3.890625 0 L 3.1875 0 L 3.1875 -2.625 C 3.1875 -2.96875 3.109375 -3.21875 2.953125 -3.375 C 2.804688 -3.539062 2.59375 -3.625 2.3125 -3.625 C 2.101562 -3.625 1.90625 -3.566406 1.71875 -3.453125 C 1.539062 -3.347656 1.410156 -3.203125 1.328125 -3.015625 C 1.253906 -2.835938 1.21875 -2.585938 1.21875 -2.265625 L 1.21875 0 Z M 0.53125 0 "/>
</g>
<g id="glyph-4-4">
<path d="M 0.53125 1.578125 L 0.53125 -4.125 L 1.15625 -4.125 L 1.15625 -3.59375 C 1.3125 -3.800781 1.484375 -3.957031 1.671875 -4.0625 C 1.859375 -4.164062 2.085938 -4.21875 2.359375 -4.21875 C 2.710938 -4.21875 3.023438 -4.128906 3.296875 -3.953125 C 3.566406 -3.773438 3.769531 -3.519531 3.90625 -3.1875 C 4.039062 -2.851562 4.109375 -2.488281 4.109375 -2.09375 C 4.109375 -1.675781 4.03125 -1.296875 3.875 -0.953125 C 3.726562 -0.617188 3.507812 -0.359375 3.21875 -0.171875 C 2.9375 0.00390625 2.632812 0.09375 2.3125 0.09375 C 2.082031 0.09375 1.875 0.0429688 1.6875 -0.046875 C 1.5 -0.148438 1.34375 -0.273438 1.21875 -0.421875 L 1.21875 1.578125 Z M 1.15625 -2.046875 C 1.15625 -1.515625 1.265625 -1.117188 1.484375 -0.859375 C 1.703125 -0.609375 1.960938 -0.484375 2.265625 -0.484375 C 2.578125 -0.484375 2.84375 -0.613281 3.0625 -0.875 C 3.28125 -1.132812 3.390625 -1.539062 3.390625 -2.09375 C 3.390625 -2.625 3.28125 -3.019531 3.0625 -3.28125 C 2.851562 -3.539062 2.597656 -3.671875 2.296875 -3.671875 C 1.992188 -3.671875 1.726562 -3.53125 1.5 -3.25 C 1.269531 -2.976562 1.15625 -2.578125 1.15625 -2.046875 Z M 1.15625 -2.046875 "/>
</g>
<g id="glyph-4-5">
<path d="M 0.53125 -4.90625 L 0.53125 -5.703125 L 1.234375 -5.703125 L 1.234375 -4.90625 Z M 0.53125 0 L 0.53125 -4.125 L 1.234375 -4.125 L 1.234375 0 Z M 0.53125 0 "/>
</g>
<g id="glyph-4-6">
<path d="M 3.203125 0 L 3.203125 -0.515625 C 2.941406 -0.109375 2.554688 0.09375 2.046875 0.09375 C 1.722656 0.09375 1.421875 0.00390625 1.140625 -0.171875 C 0.867188 -0.359375 0.65625 -0.613281 0.5 -0.9375 C 0.34375 -1.257812 0.265625 -1.632812 0.265625 -2.0625 C 0.265625 -2.476562 0.332031 -2.851562 0.46875 -3.1875 C 0.613281 -3.519531 0.820312 -3.773438 1.09375 -3.953125 C 1.375 -4.128906 1.679688 -4.21875 2.015625 -4.21875 C 2.265625 -4.21875 2.488281 -4.164062 2.6875 -4.0625 C 2.882812 -3.957031 3.039062 -3.820312 3.15625 -3.65625 L 3.15625 -5.703125 L 3.859375 -5.703125 L 3.859375 0 Z M 1 -2.0625 C 1 -1.53125 1.109375 -1.132812 1.328125 -0.875 C 1.546875 -0.613281 1.804688 -0.484375 2.109375 -0.484375 C 2.421875 -0.484375 2.679688 -0.609375 2.890625 -0.859375 C 3.109375 -1.109375 3.21875 -1.488281 3.21875 -2 C 3.21875 -2.570312 3.109375 -2.988281 2.890625 -3.25 C 2.671875 -3.507812 2.398438 -3.640625 2.078125 -3.640625 C 1.773438 -3.640625 1.519531 -3.515625 1.3125 -3.265625 C 1.101562 -3.015625 1 -2.613281 1 -2.0625 Z M 1 -2.0625 "/>
</g>
<g id="glyph-4-7">
<path d="M 0.515625 0 L 0.515625 -4.125 L 1.140625 -4.125 L 1.140625 -3.5 C 1.304688 -3.800781 1.457031 -3.992188 1.59375 -4.078125 C 1.726562 -4.171875 1.878906 -4.21875 2.046875 -4.21875 C 2.273438 -4.21875 2.515625 -4.144531 2.765625 -4 L 2.515625 -3.34375 C 2.347656 -3.445312 2.175781 -3.5 2 -3.5 C 1.851562 -3.5 1.71875 -3.453125 1.59375 -3.359375 C 1.46875 -3.265625 1.378906 -3.140625 1.328125 -2.984375 C 1.253906 -2.734375 1.21875 -2.457031 1.21875 -2.15625 L 1.21875 0 Z M 0.515625 0 "/>
</g>
<g id="glyph-4-8">
<path d="M 3.359375 -1.328125 L 4.078125 -1.234375 C 3.960938 -0.816406 3.75 -0.488281 3.4375 -0.25 C 3.132812 -0.0195312 2.742188 0.09375 2.265625 0.09375 C 1.660156 0.09375 1.179688 -0.0859375 0.828125 -0.453125 C 0.472656 -0.828125 0.296875 -1.351562 0.296875 -2.03125 C 0.296875 -2.726562 0.472656 -3.265625 0.828125 -3.640625 C 1.179688 -4.023438 1.644531 -4.21875 2.21875 -4.21875 C 2.769531 -4.21875 3.21875 -4.03125 3.5625 -3.65625 C 3.914062 -3.28125 4.09375 -2.753906 4.09375 -2.078125 C 4.09375 -2.035156 4.09375 -1.972656 4.09375 -1.890625 L 1.015625 -1.890625 C 1.035156 -1.429688 1.160156 -1.082031 1.390625 -0.84375 C 1.628906 -0.601562 1.921875 -0.484375 2.265625 -0.484375 C 2.523438 -0.484375 2.742188 -0.550781 2.921875 -0.6875 C 3.097656 -0.820312 3.242188 -1.035156 3.359375 -1.328125 Z M 1.046875 -2.46875 L 3.359375 -2.46875 C 3.328125 -2.8125 3.238281 -3.070312 3.09375 -3.25 C 2.875 -3.519531 2.585938 -3.65625 2.234375 -3.65625 C 1.910156 -3.65625 1.640625 -3.546875 1.421875 -3.328125 C 1.203125 -3.109375 1.078125 -2.820312 1.046875 -2.46875 Z M 1.046875 -2.46875 "/>
</g>
<g id="glyph-4-9">
<path d="M 1.671875 0 L 0.09375 -4.125 L 0.84375 -4.125 L 1.734375 -1.65625 C 1.828125 -1.382812 1.914062 -1.109375 2 -0.828125 C 2.050781 -1.046875 2.132812 -1.304688 2.25 -1.609375 L 3.171875 -4.125 L 3.890625 -4.125 L 2.328125 0 Z M 1.671875 0 "/>
</g>
</g>
</defs>
<path fill="none" stroke-width="0.3985" stroke-linecap="butt" stroke-linejoin="miter" stroke="rgb(37.298584%, 38.798523%, 40.79895%)" stroke-opacity="1" stroke-miterlimit="10" d="M 18.495937 46.77025 C 19.242031 48.266344 20.988125 49.262437 23.476406 49.262437 L 124.492031 49.262437 C 126.984219 49.262437 128.726406 50.258531 129.4725 51.754625 C 130.2225 50.258531 131.964687 49.262437 134.456875 49.262437 L 235.468594 49.262437 C 237.960781 49.262437 239.702969 48.266344 240.452969 46.77025 " transform="matrix(1, 0, 0, -1, 15.59, 74.864)"/>
<g fill="rgb(12.5%, 12.89978%, 14.099121%)" fill-opacity="1">
<use xlink:href="#glyph-0-0" x="9.298" y="15.711"/>
<use xlink:href="#glyph-0-1" x="14.77647" y="15.711"/>
<use xlink:href="#glyph-0-2" x="18.2644" y="15.711"/>
<use xlink:href="#glyph-0-3" x="20.757059" y="15.711"/>
<use xlink:href="#glyph-0-2" x="26.23553" y="15.711"/>
<use xlink:href="#glyph-0-4" x="28.728189" y="15.711"/>
<use xlink:href="#glyph-0-5" x="34.206659" y="15.711"/>
<use xlink:href="#glyph-0-6" x="39.191978" y="15.711"/>
</g>
<g fill="rgb(12.5%, 12.89978%, 14.099121%)" fill-opacity="1">
<use xlink:href="#glyph-0-2" x="44.16833" y="15.711"/>
<use xlink:href="#glyph-0-7" x="46.660989" y="15.711"/>
<use xlink:href="#glyph-0-7" x="51.646307" y="15.711"/>
<use xlink:href="#glyph-0-8" x="56.631626" y="15.711"/>
<use xlink:href="#glyph-0-9" x="62.110096" y="15.711"/>
<use xlink:href="#glyph-0-10" x="67.095414" y="15.711"/>
</g>
<g fill="rgb(12.5%, 12.89978%, 14.099121%)" fill-opacity="1">
<use xlink:href="#glyph-1-0" x="73.405" y="15.711"/>
</g>
<g fill="rgb(12.5%, 12.89978%, 14.099121%)" fill-opacity="1">
<use xlink:href="#glyph-1-1" x="84.03915" y="15.711"/>
</g>
<g fill="rgb(12.5%, 12.89978%, 14.099121%)" fill-opacity="1">
<use xlink:href="#glyph-1-2" x="93.507669" y="15.711"/>
<use xlink:href="#glyph-1-3" x="98.887509" y="15.711"/>
</g>
<g fill="rgb(12.5%, 12.89978%, 14.099121%)" fill-opacity="1">
<use xlink:href="#glyph-0-7" x="107.948" y="15.711"/>
<use xlink:href="#glyph-0-11" x="112.933318" y="15.711"/>
<use xlink:href="#glyph-0-12" x="117.918637" y="15.711"/>
<use xlink:href="#glyph-0-9" x="123.397107" y="15.711"/>
<use xlink:href="#glyph-0-13" x="128.382426" y="15.711"/>
<use xlink:href="#glyph-0-8" x="133.860896" y="15.711"/>
<use xlink:href="#glyph-0-6" x="139.339366" y="15.711"/>
<use xlink:href="#glyph-0-9" x="141.832026" y="15.711"/>
<use xlink:href="#glyph-0-13" x="146.817344" y="15.711"/>
</g>
<g fill="rgb(12.5%, 12.89978%, 14.099121%)" fill-opacity="1">
<use xlink:href="#glyph-0-11" x="154.779507" y="15.711"/>
<use xlink:href="#glyph-0-0" x="159.764826" y="15.711"/>
<use xlink:href="#glyph-0-8" x="165.243296" y="15.711"/>
<use xlink:href="#glyph-0-14" x="170.721766" y="15.711"/>
<use xlink:href="#glyph-0-0" x="176.200237" y="15.711"/>
<use xlink:href="#glyph-0-4" x="181.678707" y="15.711"/>
<use xlink:href="#glyph-0-7" x="187.157178" y="15.711"/>
<use xlink:href="#glyph-0-15" x="192.142496" y="15.711"/>
</g>
<g fill="rgb(12.5%, 12.89978%, 14.099121%)" fill-opacity="1">
<use xlink:href="#glyph-0-16" x="197.127814" y="15.711"/>
<use xlink:href="#glyph-0-12" x="200.113626" y="15.711"/>
<use xlink:href="#glyph-0-9" x="205.592096" y="15.711"/>
<use xlink:href="#glyph-0-4" x="210.577414" y="15.711"/>
</g>
<g fill="rgb(12.5%, 12.89978%, 14.099121%)" fill-opacity="1">
<use xlink:href="#glyph-0-14" x="218.548544" y="15.711"/>
<use xlink:href="#glyph-0-5" x="224.027014" y="15.711"/>
<use xlink:href="#glyph-0-1" x="229.012333" y="15.711"/>
</g>
<g fill="rgb(12.5%, 12.89978%, 14.099121%)" fill-opacity="1">
<use xlink:href="#glyph-0-5" x="234.992922" y="15.711"/>
<use xlink:href="#glyph-0-16" x="239.97824" y="15.711"/>
</g>
<g fill="rgb(12.5%, 12.89978%, 14.099121%)" fill-opacity="1">
<use xlink:href="#glyph-0-17" x="245.45671" y="15.711"/>
<use xlink:href="#glyph-0-5" x="253.42784" y="15.711"/>
<use xlink:href="#glyph-0-16" x="258.413158" y="15.711"/>
<use xlink:href="#glyph-0-8" x="261.39897" y="15.711"/>
<use xlink:href="#glyph-0-1" x="266.87744" y="15.711"/>
<use xlink:href="#glyph-0-2" x="270.36537" y="15.711"/>
<use xlink:href="#glyph-0-16" x="272.858029" y="15.711"/>
<use xlink:href="#glyph-0-18" x="275.84384" y="15.711"/>
</g>
<path fill="none" stroke-width="0.79701" stroke-linecap="butt" stroke-linejoin="miter" stroke="rgb(12.5%, 12.89978%, 14.099121%)" stroke-opacity="1" stroke-miterlimit="10" d="M -0.00015625 0.00071875 L 259.062344 0.00071875 " transform="matrix(1, 0, 0, -1, 15.59, 74.864)"/>
<path fill-rule="nonzero" fill="rgb(12.5%, 12.89978%, 14.099121%)" fill-opacity="1" stroke-width="0.79701" stroke-linecap="butt" stroke-linejoin="miter" stroke="rgb(12.5%, 12.89978%, 14.099121%)" stroke-opacity="1" stroke-miterlimit="10" d="M 6.460581 0.00071875 C 5.667613 0.196031 2.179331 1.297594 -0.00035625 2.496812 L -0.00035625 -2.495375 C 2.179331 -1.296156 5.667613 -0.194594 6.460581 0.00071875 Z M 6.460581 0.00071875 " transform="matrix(1, 0, 0, -1, 274.6527, 74.864)"/>
<g fill="rgb(12.5%, 12.89978%, 14.099121%)" fill-opacity="1">
<use xlink:href="#glyph-2-0" x="286.477" y="78.021"/>
<use xlink:href="#glyph-2-1" x="288.969659" y="78.021"/>
<use xlink:href="#glyph-2-2" x="290.9602" y="78.021"/>
<use xlink:href="#glyph-2-3" x="298.429211" y="78.021"/>
</g>
<path fill-rule="nonzero" fill="rgb(100%, 100%, 100%)" fill-opacity="1" stroke-width="0.69739" stroke-linecap="butt" stroke-linejoin="miter" stroke="rgb(12.548828%, 12.940979%, 14.118958%)" stroke-opacity="1" stroke-miterlimit="10" d="M 25.581875 0.00071875 C 25.581875 3.914781 22.41 7.086656 18.495937 7.086656 C 14.581875 7.086656 11.41 3.914781 11.41 0.00071875 C 11.41 -3.913344 14.581875 -7.085219 18.495937 -7.085219 C 22.41 -7.085219 25.581875 -3.913344 25.581875 0.00071875 Z M 25.581875 0.00071875 " transform="matrix(1, 0, 0, -1, 15.59, 74.864)"/>
<g fill="rgb(0%, 0%, 0%)" fill-opacity="1">
<use xlink:href="#glyph-1-4" x="23.96" y="88.341"/>
</g>
<g fill="rgb(0%, 0%, 0%)" fill-opacity="1">
<use xlink:href="#glyph-1-1" x="30.254413" y="88.341"/>
</g>
<g fill="rgb(0%, 0%, 0%)" fill-opacity="1">
<use xlink:href="#glyph-1-5" x="39.722931" y="88.341"/>
</g>
<path fill-rule="nonzero" fill="rgb(100%, 100%, 100%)" fill-opacity="1" stroke-width="0.69739" stroke-linecap="butt" stroke-linejoin="miter" stroke="rgb(12.548828%, 12.940979%, 14.118958%)" stroke-opacity="1" stroke-miterlimit="10" d="M 83.12875 0.00071875 C 83.12875 3.914781 79.952969 7.086656 76.038906 7.086656 C 72.124844 7.086656 68.952969 3.914781 68.952969 0.00071875 C 68.952969 -3.913344 72.124844 -7.085219 76.038906 -7.085219 C 79.952969 -7.085219 83.12875 -3.913344 83.12875 0.00071875 Z M 83.12875 0.00071875 " transform="matrix(1, 0, 0, -1, 15.59, 74.864)"/>
<g fill="rgb(0%, 0%, 0%)" fill-opacity="1">
<use xlink:href="#glyph-1-4" x="81.505" y="88.341"/>
</g>
<g fill="rgb(0%, 0%, 0%)" fill-opacity="1">
<use xlink:href="#glyph-1-1" x="87.799413" y="88.341"/>
</g>
<g fill="rgb(0%, 0%, 0%)" fill-opacity="1">
<use xlink:href="#glyph-1-6" x="97.267931" y="88.341"/>
</g>
<path fill-rule="nonzero" fill="rgb(100%, 100%, 100%)" fill-opacity="1" stroke-width="0.69739" stroke-linecap="butt" stroke-linejoin="miter" stroke="rgb(12.548828%, 12.940979%, 14.118958%)" stroke-opacity="1" stroke-miterlimit="10" d="M 140.671719 0.00071875 C 140.671719 3.914781 137.499844 7.086656 133.585781 7.086656 C 129.671719 7.086656 126.495937 3.914781 126.495937 0.00071875 C 126.495937 -3.913344 129.671719 -7.085219 133.585781 -7.085219 C 137.499844 -7.085219 140.671719 -3.913344 140.671719 0.00071875 Z M 140.671719 0.00071875 " transform="matrix(1, 0, 0, -1, 15.59, 74.864)"/>
<g fill="rgb(0%, 0%, 0%)" fill-opacity="1">
<use xlink:href="#glyph-1-4" x="139.048" y="88.341"/>
</g>
<g fill="rgb(0%, 0%, 0%)" fill-opacity="1">
<use xlink:href="#glyph-1-1" x="145.342413" y="88.341"/>
</g>
<g fill="rgb(0%, 0%, 0%)" fill-opacity="1">
<use xlink:href="#glyph-1-7" x="154.810931" y="88.341"/>
</g>
<path fill-rule="nonzero" fill="rgb(100%, 100%, 100%)" fill-opacity="1" stroke-width="0.69739" stroke-linecap="butt" stroke-linejoin="miter" stroke="rgb(12.548828%, 12.940979%, 14.118958%)" stroke-opacity="1" stroke-miterlimit="10" d="M 247.538906 0.00071875 C 247.538906 3.914781 244.367031 7.086656 240.452969 7.086656 C 236.538906 7.086656 233.363125 3.914781 233.363125 0.00071875 C 233.363125 -3.913344 236.538906 -7.085219 240.452969 -7.085219 C 244.367031 -7.085219 247.538906 -3.913344 247.538906 0.00071875 Z M 247.538906 0.00071875 " transform="matrix(1, 0, 0, -1, 15.59, 74.864)"/>
<g fill="rgb(0%, 0%, 0%)" fill-opacity="1">
<use xlink:href="#glyph-1-4" x="244.082" y="88.493"/>
</g>
<g fill="rgb(0%, 0%, 0%)" fill-opacity="1">
<use xlink:href="#glyph-1-1" x="250.376413" y="88.493"/>
</g>
<g fill="rgb(0%, 0%, 0%)" fill-opacity="1">
<use xlink:href="#glyph-1-0" x="259.844931" y="88.493"/>
</g>
<g fill="rgb(0%, 0%, 0%)" fill-opacity="1">
<use xlink:href="#glyph-1-8" x="199.129" y="75.655"/>
</g>
<path fill="none" stroke-width="1.39478" stroke-linecap="butt" stroke-linejoin="miter" stroke="rgb(70.199585%, 10.598755%, 10.598755%)" stroke-opacity="1" stroke-miterlimit="10" d="M 18.495937 7.434312 L 18.495937 21.95775 " transform="matrix(1, 0, 0, -1, 15.59, 74.864)"/>
<path fill-rule="nonzero" fill="rgb(70.199585%, 10.598755%, 10.598755%)" fill-opacity="1" stroke-width="1.39478" stroke-linecap="butt" stroke-linejoin="miter" stroke="rgb(70.199585%, 10.598755%, 10.598755%)" stroke-opacity="1" stroke-miterlimit="10" d="M 4.929857 0.0001825 C 4.324389 0.152526 1.664232 1.027526 0.00017 1.976745 L 0.00017 -1.97638 C 1.664232 -1.027161 4.324389 -0.152161 4.929857 0.0001825 Z M 4.929857 0.0001825 " transform="matrix(0, -1, -1, 0, 34.08612, 52.90642)"/>
<g fill="rgb(70.199585%, 10.598755%, 10.598755%)" fill-opacity="1">
<use xlink:href="#glyph-1-9" x="37.606" y="59.244"/>
<use xlink:href="#glyph-1-10" x="44.581859" y="59.244"/>
</g>
<g fill="rgb(70.199585%, 10.598755%, 10.598755%)" fill-opacity="1">
<use xlink:href="#glyph-3-0" x="49.809" y="61.459"/>
</g>
<g fill="rgb(37.298584%, 38.798523%, 40.79895%)" fill-opacity="1">
<use xlink:href="#glyph-4-0" x="17.027" y="39.996"/>
<use xlink:href="#glyph-4-1" x="21.01205" y="39.996"/>
<use xlink:href="#glyph-4-2" x="25.443426" y="39.996"/>
<use xlink:href="#glyph-4-3" x="29.428476" y="39.996"/>
</g>
<g fill="rgb(37.298584%, 38.798523%, 40.79895%)" fill-opacity="1">
<use xlink:href="#glyph-4-4" x="36.067569" y="39.996"/>
<use xlink:href="#glyph-4-1" x="40.498945" y="39.996"/>
<use xlink:href="#glyph-4-5" x="44.93032" y="39.996"/>
<use xlink:href="#glyph-4-6" x="46.699682" y="39.996"/>
</g>
<path fill="none" stroke-width="1.39478" stroke-linecap="butt" stroke-linejoin="miter" stroke="rgb(10.198975%, 32.199097%, 46.299744%)" stroke-opacity="1" stroke-miterlimit="10" d="M 76.038906 29.762437 L 76.038906 15.242906 " transform="matrix(1, 0, 0, -1, 15.59, 74.864)"/>
<path fill-rule="nonzero" fill="rgb(10.198975%, 32.199097%, 46.299744%)" fill-opacity="1" stroke-width="1.39478" stroke-linecap="butt" stroke-linejoin="miter" stroke="rgb(10.198975%, 32.199097%, 46.299744%)" stroke-opacity="1" stroke-miterlimit="10" d="M 4.932708 -0.00151375 C 4.327239 0.154736 1.663176 1.02583 -0.00088625 1.975049 L -0.00088625 -1.97417 C 1.663176 -1.024951 4.327239 -0.153858 4.932708 -0.00151375 Z M 4.932708 -0.00151375 " transform="matrix(0, 1, 1, 0, 91.63042, 59.62198)"/>
<g fill="rgb(10.198975%, 32.199097%, 46.299744%)" fill-opacity="1">
<use xlink:href="#glyph-1-11" x="95.15" y="60.078"/>
<use xlink:href="#glyph-1-12" x="102.125859" y="60.078"/>
</g>
<path fill="none" stroke-width="1.39478" stroke-linecap="butt" stroke-linejoin="miter" stroke="rgb(10.198975%, 32.199097%, 46.299744%)" stroke-opacity="1" stroke-miterlimit="10" d="M 133.585781 29.762437 L 133.585781 15.242906 " transform="matrix(1, 0, 0, -1, 15.59, 74.864)"/>
<path fill-rule="nonzero" fill="rgb(10.198975%, 32.199097%, 46.299744%)" fill-opacity="1" stroke-width="1.39478" stroke-linecap="butt" stroke-linejoin="miter" stroke="rgb(10.198975%, 32.199097%, 46.299744%)" stroke-opacity="1" stroke-miterlimit="10" d="M 4.932708 0.00168125 C 4.327239 0.154025 1.663176 1.025119 -0.00088625 1.974337 L -0.00088625 -1.974881 C 1.663176 -1.025663 4.327239 -0.154569 4.932708 0.00168125 Z M 4.932708 0.00168125 " transform="matrix(0, 1, 1, 0, 149.1741, 59.62198)"/>
<g fill="rgb(10.198975%, 32.199097%, 46.299744%)" fill-opacity="1">
<use xlink:href="#glyph-1-11" x="152.694" y="60.078"/>
<use xlink:href="#glyph-1-12" x="159.669859" y="60.078"/>
</g>
<path fill="none" stroke-width="1.39478" stroke-linecap="butt" stroke-linejoin="miter" stroke="rgb(10.198975%, 32.199097%, 46.299744%)" stroke-opacity="1" stroke-miterlimit="10" d="M 240.452969 29.762437 L 240.452969 15.242906 " transform="matrix(1, 0, 0, -1, 15.59, 74.864)"/>
<path fill-rule="nonzero" fill="rgb(10.198975%, 32.199097%, 46.299744%)" fill-opacity="1" stroke-width="1.39478" stroke-linecap="butt" stroke-linejoin="miter" stroke="rgb(10.198975%, 32.199097%, 46.299744%)" stroke-opacity="1" stroke-miterlimit="10" d="M 4.932708 0.00132875 C 4.327239 0.153672 1.663176 1.024766 -0.00088625 1.973985 L -0.00088625 -1.975234 C 1.663176 -1.026015 4.327239 -0.154921 4.932708 0.00132875 Z M 4.932708 0.00132875 " transform="matrix(0, 1, 1, 0, 256.04164, 59.62198)"/>
<g fill="rgb(10.198975%, 32.199097%, 46.299744%)" fill-opacity="1">
<use xlink:href="#glyph-1-11" x="259.561" y="59.342"/>
<use xlink:href="#glyph-1-12" x="266.536859" y="59.342"/>
</g>
<g fill="rgb(10.198975%, 32.199097%, 46.299744%)" fill-opacity="1">
<use xlink:href="#glyph-1-11" x="275.592923" y="59.342"/>
</g>
<g fill="rgb(10.198975%, 32.199097%, 46.299744%)" fill-opacity="1">
<use xlink:href="#glyph-1-10" x="284.559323" y="59.342"/>
</g>
<g fill="rgb(10.198975%, 32.199097%, 46.299744%)" fill-opacity="1">
<use xlink:href="#glyph-3-1" x="289.791" y="61.557"/>
</g>
<g fill="rgb(37.298584%, 38.798523%, 40.79895%)" fill-opacity="1">
<use xlink:href="#glyph-4-0" x="231.454" y="41.487"/>
<use xlink:href="#glyph-4-1" x="235.43905" y="41.487"/>
<use xlink:href="#glyph-4-2" x="239.870426" y="41.487"/>
<use xlink:href="#glyph-4-3" x="243.855476" y="41.487"/>
</g>
<g fill="rgb(37.298584%, 38.798523%, 40.79895%)" fill-opacity="1">
<use xlink:href="#glyph-4-7" x="250.494569" y="41.487"/>
<use xlink:href="#glyph-4-8" x="253.148612" y="41.487"/>
<use xlink:href="#glyph-4-0" x="257.579988" y="41.487"/>
<use xlink:href="#glyph-4-8" x="261.565038" y="41.487"/>
<use xlink:href="#glyph-4-5" x="265.996413" y="41.487"/>
<use xlink:href="#glyph-4-9" x="267.765776" y="41.487"/>
<use xlink:href="#glyph-4-8" x="271.750826" y="41.487"/>
<use xlink:href="#glyph-4-6" x="276.182201" y="41.487"/>
</g>
</svg>
